<?xml version="1.0" encoding="UTF-8"?>
<svg id="Layer_8" xmlns="http://www.w3.org/2000/svg" version="1.1" viewBox="0 0 6000 3000">
  <!-- Generator: Adobe Illustrator 30.5.1, SVG Export Plug-In . SVG Version: 2.1.4 Build 3)  -->
  <path id="C1" d="M2173.25515,232.48289s37.43579,21.82623,68.547,37.82623c31.11108,16,106.22229,55.11108,122.66663,67.55554,16.44446,12.44446,65.77783,41.33331,125.33337,82.66669,59.55554,41.33331,101.33337,101.33331,120.88879,123.11108,19.55554,21.77777,49.33337,92.88892,49.77783,128,.44446,35.11115-10.22217,91.11115-19.55554,114.22223-9.33325,23.11115-31.11108,80-46.22229,104.88892-15.11108,24.88885-48.88879,98.66663-56.44446,117.33331-6.1792,15.26605-15.62744,36.48138-23.97046,64.12415-224.40552,82.38959-500.19153,130.96173-798.34253,130.96173-261.83978,0-506.42657-37.46533-714.11755-102.39313-6.11322-35.99603-29.24518-127.61584-46.45844-158.026-20-35.33337-67.33325-114.66669-86.66663-186.66669s-18-127.33331,2.66663-164.66669c20.66675-37.33331,64-92.66663,105.33336-133.33331,41.33331-40.66669,128-101.33331,154.66664-115.33331,26.66669-14,121.33337-69.33337,134.66669-78.66669s64.66669-31.33331,64.66669-31.33331c0,0,22.22217,48.22223,63.11108,98.4444.83838,1.02972,1.69122,2.09082,2.55695,3.17664,41.35742,51.87201,115.29834,166.50714,352.55414,225.71228,0,0,121.77783-31.11108,213.77789-91.11108,82.47217-53.78619,129.57861-113.99243,142.61475-133.25153,1.50598-2.22498,2.56445-3.91205,3.16284-4.9707,5.77783-10.22223,46.66675-61.77777,57.77783-84M5124.69094,606.75358c-10-42.66669-15.33301-114.66669-111.33301-203.33337-96-88.66663-214-152.66663-256.66675-176.66663-42.6665-24-86.6665-52.66669-86.6665-52.66669-28.7395-4.90674-260-25.33331-383.3335-25.33331s-253.33325,3.33331-306.6665,8.66663c-53.3335,5.33337-152.66675,12.66669-152.66675,12.66669,0,0-86,50.66669-109.33325,64.66669-23.3335,14-122,75.99999-176,115.33331s-96.3335,80-116,106.33331c-19.66675,26.33337-49.66675,80.66669-57.3335,121.33337-4.49365,23.83679-5.08984,50.54193-3.13843,80.57483,237.47461-101.91174,544.55762-163.35437,879.92065-163.35437,334.88086,0,641.55908,61.26849,878.89233,162.91754,2.44092-21.34869,2.97656-39.8277.32568-51.138h-.00049Z" fill="#fff"/>
  <path id="C2" d="M4245.47316,494.97404c334.88086,0,641.55908,61.26849,878.89209,162.91754-2.70654,23.66699-7.75586,50.85767-13.40576,75.72681-235.42383-98.25513-536.87524-157.25305-865.48657-157.25305-331.22656,0-634.85327,59.94391-871.08862,159.6095-.4873-2.97345-.94824-5.93884-1.36011-8.88794-3.44873-24.69299-6.09424-47.55389-7.47192-68.75848,237.47461-101.91174,544.55762-163.35437,879.92065-163.35437h.00024ZM1001.81606,1100.77958c.71051,4.18347,1.19452,7.62683,1.40912,10.1239-.00012-.00153-.00024-.00281-.00037-.00433,1.97894,5.40509,9.11432,24.16919,14.7995,29.85437,6.66669,6.66669,28.66669,30.66669,45.33331,54.66669,1.39227,2.00476,2.75159,4.01184,4.09503,6.02173,192.85712,53.01477,413.73895,83.12219,648.48096,83.12219,275.13843,0,531.23218-41.3634,745.47876-112.49426,2.2439-3.55457,4.2594-6.66718,5.94519-9.31622,8.50916-13.37152,30.30811-35.04584,34.09326-38.771-.00024.0014-.00061.00275-.00073.00415,1.62012-8.61328,3.97522-18.3927,7.46301-32.34424,1.70032-6.80115,3.50464-13.27386,5.36304-19.4314-224.40552,82.38959-500.19165,130.96161-798.34253,130.96161-261.83978,0-506.42657-37.46533-714.11755-102.39313v-.00006Z" fill="#231f20"/>
</svg>