<?xml version="1.0" encoding="UTF-8"?>
<svg id="Layer_8" xmlns="http://www.w3.org/2000/svg" version="1.1" viewBox="0 0 6000 3000">
  <!-- Generator: Adobe Illustrator 30.5.1, SVG Export Plug-In . SVG Version: 2.1.4 Build 3)  -->
  <path id="C1" d="M2522.57422,442.67391h-520.65332c60.35864-46.1297,95.65222-91.57837,106.65857-107.83868,1.50598-2.22498,2.56445-3.91205,3.16284-4.9707,5.77783-10.22223,46.66675-61.77777,57.77783-84,1.76135-3.52283,3.92847-7.83978,6.25281-12.69061h3.4812c9.14539,5.28571,39.70642,22.81555,65.82153,36.24615,31.11108,16,106.22217,55.11108,122.66663,67.55554,16.44446,12.44446,65.77783,41.33331,125.33337,82.66668,10.38574,7.20801,20.21753,14.98999,29.49841,23.03162h.00012ZM1269.29809,263.19784c-13.33331,9.33331-108,64.66668-134.66669,78.66668-23.64001,12.41101-94.42853,61.495-138.9903,100.80939h505.66449c-52.57941-42.22351-81.14282-83.43896-101.67279-109.18835-.86572-1.08582-1.71857-2.14691-2.55695-3.17664-36.9444-45.37732-58.64758-89.11737-62.49158-97.13501h-3.64807c-11.19781,4.8653-50.25739,22.05743-61.63812,30.02393ZM871.96478,755.19784c9.99951,37.2395,27.48938,76.43951,44.81348,110.5h1693.71648c12.86902-27.51807,26.73645-63.49805,33.69226-80.72223,9.33337-23.11108,20-79.11108,19.55554-114.22223-.05505-4.35242-.56201-9.25928-1.44336-14.55554H858.40753c-.99121,28.32758,3.45667,61.38409,13.55725,99ZM1006.49896,1110.01443c-.00012-.00153-.00024-.00281-.00037-.00433,1.97894,5.40509,9.11432,24.16919,14.7995,29.85437,6.66669,6.66669,28.66669,30.66669,45.33331,54.66669,16.66669,24,30,48,36.03296,80.66669.84662,4.58411,1.44794,9.11121,1.86823,13.52393h1315.64954c1.39282-14.50659,4.04333-28.53223,8.44922-42.19061,13.33325-41.33331,32.66675-70,42-84.66669,8.50916-13.37152,30.30811-35.04584,34.09326-38.771-.00024.0014-.00061.00275-.00073.00415,1.62012-8.61328,3.97522-18.3927,7.46301-32.34424.98889-3.95551,2.01428-7.79456,3.06348-11.53162H1001.02917c2.98291,13.84741,4.96454,24.91425,5.46979,30.79266ZM1073.29809,1586.53121c-8.23737,52.59229-5.03253,51.58704-8.12933,77.11694.74084,16.02722,1.42297,32.06091,2.07666,48.09753h1393.33148c.56482-15.44043,1.20276-30.8949,1.89795-46.35608-4.50708-32.85181-4.51013-33.55603-4.51013-36.19177,0-2.66675-14-65.33337-17.33325-104.66675-.60144-7.0979-1.37866-14.54773-2.27661-22.2854h-1352.9281c-4.09589,30.29919-8.41772,60.59253-12.12866,84.2854v.00012ZM1077.69317,2134.76962h1368.92523c3.56042-70.70239,8.78772-139.2196,10.75586-209.5h-1383.5116c1.59839,69.86938,2.76544,139.73071,3.83051,209.5ZM1033.98242,2503.75887c-1.96643,17.63281-3.992,35.69458-6.02985,54.03467h1473.20782c-2.03345-27.2522-4.45874-54.46655-7.70032-81.59399-4.78052-40.00586-13.74829-83.65063-22.63953-127.90601h-1412.01971c-9.03931,51.82251-19.04999,103.73975-24.81842,155.46533ZM1001.85498,2844.30941c-.93811,17.64062,4.20087,26.29175,22.33069,29.63086,84.59283,15.58081,185.39349,12.89868,271.93713,16.08154,344.08966,12.65527,679.729,13.72046,1023.87573-3.79883,41.078-2.09131,82.87512-.22803,123.91833-4.08667,12.57812-1.18237,74.23743-8.28418,78.42578-13.58984,9.07776-31.00244.36255-64.77979-5.17676-97.22925H1006.75134c-1.96832,24.89429-3.63855,49.33936-4.89636,72.99194v.00024ZM3721.29809,233.86452c-23.3335,14-122,76-176,115.33332-45.8479,33.39539-83.27734,67.74701-105.57251,93.47607h1615.50024c-10.90869-12.9455-23.65234-26.34198-38.59424-40.14276-87.50195-80.81787-193.271-141.13654-243.62207-169.35724h-1050.55908c-.39917.23901-.78369.46954-1.1521.69061h-.00024ZM3376.29809,726.19784c6.35742,45.51868,21.83862,94.13733,42.2876,139.5h1644.65918c10.70654-25.27472,21.60254-48.7876,27.38672-56.5,8.85938-11.81232,30.43213-93.74768,37.09619-153h-1758.97949c1.35376,21.55347,4.03369,44.82361,7.55005,70h-.00024ZM3517.9646,1103.86446c30,32,62.66675,107.33337,68.66675,140.66669,1.6521,9.17865,1.9375,25.08759,1.27759,44.19061h1313.37012c1.04102-49.77661,7.7124-77.70709,20.01929-99.52393,14.22925-25.22485,64.85181-86.84265,81.25122-109.97607h-1508.94312c6.9458,6.63098,15.14722,14.81763,24.35815,24.6427ZM3551.29809,1570.53121c-2.47217,17.30481-12.24023,61.36096-20.88086,98.97131.29663,14.09119.6084,28.17383.95386,42.24329h1432.8313c.07666-2.85828.1499-5.71619.22852-8.57434-.00195.06372-.00342.12756-.00537.19141-6.74072-26.93628-15.7959-64.34155-20.46069-88.83154-8-42-13.33325-72-19.33325-109.33325-.15356-.95544-.31519-1.94421-.48145-2.95215h-1364.18506c-3.49341,25.53076-6.08081,50.18408-8.66675,68.2854l-.00024-.00012ZM3530.4126,1669.52242c.00146-.00659.00293-.01343.00464-.02002-.05493-2.60278-.11279-5.20398-.1665-7.80737.05371,2.60913.10693,5.21887.16187,7.82739ZM3540.62964,2101.52596c.29614,10.40076,1.03882,21.60693,1.97681,33.24365h1414.49097c-.68604-24.31885-.81787-48.7616-.26172-73.3678,1.01367-44.85205,1.87939-90.30896,2.75-136.1322h-1422.93359c1.17773,58.74426,2.30518,117.5166,3.97803,176.25635h-.00049ZM3502.03076,2557.79354h1499.81958c-8.6499-70.32324-18.74023-139.84961-27.20752-209.5h-1444.96387c-11.7229,70.07275-20.46045,139.76514-27.64795,209.5h-.00024ZM3476.57471,2857.56527c.26904,14.03491,9.85034,18.52417,21.52856,22.48706,99.39575,33.72729,277.24487,40.38916,384.6499,47.3501,293.30151,19.00928,620.05249,22.68115,911.99292-12.08984,32.91113-3.91992,215.14868-31.03589,230.15503-45.83838,11.05273-10.90283-5.229-76.70361-7.84277-98.15674h-1533.67603c-2.25122,28.66138-4.48828,57.39966-6.80737,86.2478h-.00024Z" fill="#a41123"/>
</svg>