<?xml version="1.0" encoding="UTF-8"?>
<svg id="Layer_8" xmlns="http://www.w3.org/2000/svg" version="1.1" viewBox="0 0 6000 3000">
  <!-- Generator: Adobe Illustrator 30.5.1, SVG Export Plug-In . SVG Version: 2.1.4 Build 3)  -->
  <path id="C1" d="M2177.30951,235.13664s37.43579,21.82623,68.547,37.82623c31.11108,16,106.22229,55.11108,122.66663,67.55554,16.44446,12.44446,65.77783,41.33331,125.33337,82.66669,59.55554,41.33331,101.33337,101.33331,120.88879,123.11108,19.55554,21.77777,49.33337,92.88892,49.77783,128,.44446,35.11115-10.22217,91.11115-19.55554,114.22223-9.33325,23.11115-31.11108,80-46.22229,104.88892-15.11108,24.88885-48.88879,98.66663-56.44446,117.33331-7.55554,18.66663-20,46.22223-29.33337,83.55554-3.48779,13.95154-5.84302,23.73096-7.46301,32.34424.00024-.0014.00061-.00275.00073-.00415-3.78516,3.72516-25.58411,25.39948-34.09326,38.771-.78369,1.23163-1.64343,2.57074-2.55884,3.99902h-686.15295l207.47217-713.87775c68.02368-49.1936,107.44092-99.79614,119.18787-117.15051,1.50598-2.22498,2.56445-3.91205,3.16284-4.9707,5.77783-10.22223,46.66675-61.77777,57.77783-84M4290.7453,151.40733c-123.33325,0-253.33325,3.33331-306.6665,8.66663-53.3335,5.33337-152.66675,12.66669-152.66675,12.66669,0,0-86,50.66669-109.33325,64.66669-23.3335,14-122,75.99999-176,115.33331s-96.3335,80-116,106.33331c-19.66675,26.33337-49.66675,80.66669-57.3335,121.33337-7.6665,40.66663-4,89.66663,4.3335,149.33331,8.33325,59.66669,32.33325,124.66669,62.6665,180.66669,30.3335,56,36.3335,104.33331,38.66675,120.33331,1.29126,8.85559,1.86743,24.85608,2.125,39.30377,8.60864,7.56915,21.80933,19.87048,38.20825,37.36285,13.54639,14.44958,27.63599,37.73505,39.56909,61.99902h692.93872l292.14355-1005.21789c-81.97632-6.45618-184.02197-12.78107-252.65137-12.78107Z" fill="#606060"/>
  <path id="C2" d="M5091.4118,812.74064c-12,16-46,100-54.66699,126.66669-8.6665,26.66663-14,83.33331-16,105.33331-.41846,4.60736-1.3501,12.69788-2.55957,22.59906.06885-.56451.13672-1.12408.2041-1.67651-4.88428,4.27954-9.6792,9.30957-13.64502,15.07745-11.26172,16.38092-45.32031,58.30963-67.16675,88.66565h-686.32544l292.14453-1005.21789c65.34277,5.14624,117.93481,10.37585,130.68213,12.55225,0,0,44,28.66669,86.6665,52.66669,42.66675,24,160.66675,88,256.66699,176.66663,96,88.66667,101.33301,160.66667,111.33301,203.33336,10,42.66663-25.33301,187.33331-37.33301,203.33331h-.00049ZM1966.74542,471.62956c-92,60-213.77783,91.11108-213.77783,91.11108-237.2558-59.20514-311.19672-173.84027-352.55414-225.71228-.86572-1.08582-1.71857-2.14691-2.55695-3.17664-40.88892-50.22217-63.11108-98.4444-63.11108-98.4444,0,0-51.33337,22-64.66669,31.33331s-108,64.66669-134.66669,78.66669c-26.66663,14-113.33331,74.66663-154.66663,115.33331-41.33337,40.66669-84.66663,96-105.33337,133.33331-20.66663,37.33337-22,92.66669-2.66663,164.66669s66.66664,151.33331,86.66664,186.66669c19.21381,33.9444,45.80621,144.16693,47.86755,168.1499-.00012-.00153-.00024-.00281-.00037-.00433,1.97894,5.40509,9.11432,24.16919,14.7995,29.85437,3.89673,3.89673,13.03418,13.71985,23.28107,25.99902h737.34044l207.47217-713.87775c-7.46582,5.39917-15.27063,10.78162-23.427,16.10101Z" fill="#fff"/>
  <path id="C3" d="M1045.35974,1169.40629h737.34045l-500.94293,1723.66217c-82.9989-2.43628-177.08691-.90503-256.79102-15.58545-18.12982-3.33911-23.2688-11.99023-22.33069-29.63086,5.73615-107.86792,20.04517-232.20972,32.12744-340.55078,12.67072-113.61768,45.82544-228.16284,44.14038-340.58875-2.49255-166.29968-5.26581-333.19141-12.95404-499.52185,3.0968-25.53003-.10803-24.52466,8.12933-77.11694,8.66669-55.33325,20.66669-146.66675,25.33331-190,4.66669-43.33325,4-52,4-55.33325s6.06586-33.33337.03296-66c-6.03296-32.66675-19.36627-56.66675-36.03296-80.66675-6.92487-9.9718-14.76831-19.93921-22.05225-28.66766v.00012ZM3741.9367,2921.87974c51.84082,3.92188,101.60352,6.47339,141.59717,9.06543,293.30151,19.00928,620.05249,22.68091,911.99292-12.08984,30.60205-3.64502,190.3103-27.34497,224.6355-42.55298l8.85156-30.45605c-2.06396-25.42529-10.25781-60.3999-11.39014-72.99023-3.30273-36.71338-.80469-76.57788-4.08594-111.91406-18.71582-201.55249-60.50293-393.26416-55.9209-595.99744,2.63721-116.69714,4.27344-237.46375,7.59521-358.23047-.00195.06372-.00342.12756-.00537.19141-6.74072-26.93628-15.7959-64.34143-20.46069-88.83154-8-42-13.33325-72-19.33325-109.33337s-22-115.33337-23.33325-185.33337c-1.3335-70,5.33325-104.66663,20-130.66663,3.40479-6.03577,8.89502-14.15698,15.49976-23.33435h-686.32544l-509.31641,1752.47351h-.00073Z" fill="#231f20"/>
</svg>