<?xml version="1.0" encoding="UTF-8"?>
<svg id="Layer_8" xmlns="http://www.w3.org/2000/svg" version="1.1" viewBox="0 0 6000 3000">
  <!-- Generator: Adobe Illustrator 30.5.1, SVG Export Plug-In . SVG Version: 2.1.4 Build 3)  -->
  <path id="C1" d="M2593.4068,900.31775l-424.86658-650.0354c.4917-.90289.9502-1.77344,1.36304-2.599,1.85315-3.70642,4.15259-8.28259,6.61499-13.44543l422.26392,656.7113c-.14404.24109-.29163.49866-.43457.73413-1.48108,2.43927-3.14331,5.35382-4.94067,8.6344h-.00012ZM2616.89947,854.22314l-376.55701-585.63874c-9.16431-4.78949-18.65698-9.93872-27.42236-14.78259l399.27368,610.8819c1.56262-3.39215,3.13574-6.89618,4.70581-10.46057h-.00012ZM2633.34625,814.88574l-330.1189-513.40155c-8.85193-4.7309-17.73584-9.42139-26.08569-13.79718l351.75244,538.17096c1.53418-3.74823,3.02258-7.4212,4.45215-10.97223ZM2648.87909,774.14081l-279.16565-434.16815c-.55823-.40729-1.0896-.80103-1.58801-1.17822-4.67981-3.54144-14.11426-9.24396-25.93005-15.9574l302.69873,463.12292c1.31665-3.3559,2.65601-7.33643,3.98511-11.81915h-.00012ZM2659.44439,725.67218l-218.07397-339.15491c-9.56921-6.22894-18.52917-11.97546-26.72888-17.21246l242.29626,370.70551c.89526-4.69989,1.73755-9.50085,2.50659-14.33813ZM2664.1253,672.5722c-.01978-1.56403-.10034-3.20245-.23303-4.90179l-146.59387-227.98572c-7.59766-6.33185-15.53931-12.46289-23.8396-18.22357-1.61755-1.12262-3.224-2.23187-4.82605-3.33606l175.1842,268.03168c.25-4.76929.36218-9.33246.30835-13.58453ZM2614.34747,544.5722c-1.24817-1.38989-2.58923-2.93951-4.01721-4.62604l24.21838,37.05396c-6.92566-13.90771-14.06641-25.59595-20.20117-32.42792ZM2582.34735,921.61005l-426.04138-651.84064c-1.80432,2.65594-3.69226,5.38275-5.63159,8.14496l423.974,659.36816c2.60229-5.38074,5.19043-10.65503,7.69922-15.67249h-.00024ZM2564.48358,958.65802l-430.13293-658.09106c-1.98547,2.70947-3.92297,5.34521-5.77954,7.87201l428.44763,666.33997c2.3634-5.16138,4.87549-10.58978,7.46484-16.12091ZM2541.90313,1009.01666c1.18286-2.92236,3.00879-7.19604,5.30481-12.4209l-434.85193-665.30884c-.08057.13647-.1604.27203-.23071.39642-.59839,1.05865-1.65686,2.74573-3.16284,4.9707-.61353.90643-1.30286,1.90387-2.06738,2.98676l433.21875,673.75043c.62085-1.50671,1.22058-2.96906,1.78955-4.37457h-.00024ZM2530.89276,1036.01917l-440.92151-674.59845c-1.93164,2.30695-3.98987,4.71521-6.16931,7.21106l440.49585,685.06409c2.22229-6.30725,4.44531-12.19946,6.59497-17.6767ZM2512.56976,1092.5722c1.23596-4.94385,2.52771-9.71112,3.85413-14.31415l-450.87451-689.82941c-2.10083,2.16345-4.27026,4.36224-6.51282,6.5943l452.13513,703.16803c.44531-1.79919.90942-3.66406,1.39807-5.61877ZM2504.94439,1125.07312l-465.19824-711.74304c-2.2113,2.00269-4.47083,4.0191-6.78369,6.04852l460.97717,716.92175c5.10083-5.36957,9.36731-9.61328,11.00476-11.22723ZM2471.01422,1163.68329c2.2937-3.60443,5.55664-7.81305,9.16858-12.10992l-467.47107-715.22302c-2.29944,1.84045-4.63599,3.68439-7.01562,5.53064l464.71863,722.74146c.2019-.31604.40601-.63513.59949-.93915ZM2458.79254,1183.21783l-474.28735-725.64459c-2.37439,1.67767-4.78137,3.35254-7.22266,5.02344l473.03003,735.66449c2.92017-5.49451,5.78186-10.51099,8.47998-15.04346v.00012ZM2461.0318,1711.63483l-746.50037-1160.97601c-8.88202-2.62988-17.50562-5.34052-25.88531-8.12256l771.95819,1181.07892c.13733-3.99243.27991-7.98596.42749-11.98047v.00012ZM2459.82061,1644.83417l-698.43799-1086.22107c-5.65631,1.59631-8.81287,2.40356-8.81287,2.40356-3.95715-.98749-7.86542-1.99146-11.7323-3.00922l721.23608,1103.47711c-.99133-7.24817-1.71887-12.62134-2.25293-16.65039ZM2444.75689,1556.50531l-648.51978-1008.59058c-6.00305,1.97565-11.52271,3.72632-16.48395,5.25775l668.0838,1022.14703c-1.07727-6.203-2.125-12.54529-3.08008-18.81421ZM2435.31317,1476.90936l-605.0069-940.91644c-5.50366,2.04187-10.83112,3.96124-15.94196,5.75574l623.34058,953.69879c-.74463-6.02979-1.54944-12.21826-2.3916-18.53796l-.00012-.00012ZM2424.75079,1395.58051l-561.13263-872.68585c-5.22186,2.17499-10.36676,4.25726-15.41339,6.24872l578.81665,885.57996c-.78931-6.33838-1.55176-12.72522-2.27063-19.14294v.00012ZM2419.33465,1322.2464l-523.21912-813.72516c-4.98328,2.34119-9.94781,4.60791-14.87378,6.79504l538.62695,824.08795c-.28882-5.80151-.47363-11.51794-.53418-17.15784h.00012ZM2424.45941,1265.31012l-496.78625-772.60968c-4.74414,2.54199-9.50891,5.01575-14.27942,7.41858l508.66516,778.24872c.66211-4.39404,1.45752-8.74573,2.40051-13.05762ZM2438.68695,1222.52789l-480.56702-747.38361c-4.48938,2.79504-9.03552,5.52478-13.62451,8.18646l489.95947,749.62671c1.38037-3.59155,2.79529-7.06812,4.2323-10.42969l-.00024.00012ZM2459.50543,1760.14862l-803.43719-1229.24237c-3.69421-1.41583-7.3349-2.84564-10.92261-4.2887l813.68915,1265.46637c.17346-10.63269.39893-21.27856.67065-31.9353ZM2458.48224,1822.95917L1597.09625,505.0531c-3.82684-1.91138-7.58075-3.8363-11.2627-5.7738l872.6488,1357.1579c-.06958-11.13989-.06934-22.29968-.00012-33.47827v.00024ZM2458.47894,1887.3338L1528.5639,464.58783c-4.33093-3.01471-8.52966-6.03571-12.59509-9.05823l941.96533,1464.9563c.27466-10.99719.45715-22.04651.5448-33.1521ZM1334.34759,233.68335s-.77948.33417-2.16559.93494l14.04175,21.83789c-7.823-13.98016-11.87616-22.77283-11.87616-22.77283ZM2457.03314,1949.48981L1412.16577,350.87299c-4.38208-5.64587-8.401-10.86627-12.15015-15.5686-.86572-1.08582-1.71857-2.14691-2.55695-3.17664-5.4743-6.72388-10.6106-13.4104-15.40717-19.95166l1073.58868,1669.66125c.51672-10.76001.98926-21.53735,1.39282-32.34741l.00012-.00012ZM2454.21832,2009.56744L1302.74023,247.82732c-.97064.4519-1.94348.9071-2.91595,1.36426l1152.57361,1792.50294c.62769-10.71338,1.23755-21.41821,1.82056-32.1272l-.00012.00012ZM2450.80023,2068.716L1271.22363,263.98865c-.55682.35675-1.07544.70093-1.54272,1.02802-.28644.2005-.62378.42981-.98383.67194l1180.21106,1835.4948c.61768-10.85339,1.25183-21.67285,1.89209-32.46741ZM2446.37872,2149.17474c.33435-7.09888.69275-14.16736,1.06177-21.22131L1241.28436,282.56323c-.82538.49353-1.66119.99274-2.50842,1.49811l1207.25293,1877.5459c.04663-4.18652.15686-8.33484.34985-12.4325ZM2446.77398,2191.30389L1210.93109,300.50385c-.80304.47015-1.60773.94086-2.41425,1.41241l1242.30475,1932.04779c-1.8396-14.49268-3.24158-28.75-4.04773-42.66003l.00012-.00012ZM2526.43939,2848.26044L986.41632,453.20282c-2.11426,1.97687-4.14099,3.91724-6.06873,5.81384-3.44611,3.39056-6.90613,6.89087-10.36584,10.46637l1556.2843,2381.06818c.06067-.76294.12756-1.52539.17334-2.29053v-.00024ZM2516.74176,2768.27338L1013.17297,429.91382c-6.08514,5.00696-11.90912,9.95081-17.34222,14.7489l1521.64734,2328.06305c-.25269-1.48706-.49939-2.97119-.73633-4.45215v-.00024ZM2510.07928,2692.99872L1040.83941,408.02344c-6.02234,4.60211-11.98792,9.25446-17.79602,13.89288l1487.3313,2275.56042c-.10083-1.49243-.19604-2.9856-.29529-4.47827l-.00012.00024ZM2505.63311,2621.18256L1069.09576,387.06238c-5.95331,4.29047-12.01306,8.73535-18.07648,13.26813l1454.92731,2225.99976c-.10388-1.71582-.20886-3.43188-.31335-5.14795l-.00012.00024ZM2500.69915,2548.59882L1097.88916,366.92761c-5.81659,3.93469-11.97504,8.18994-18.33838,12.6792l1421.61017,2175.01666c-.15356-2.0083-.30347-4.01685-.46167-6.02466h-.00012ZM2493.84295,2478.01825c-.24512-2.05054-.50488-4.11401-.77136-6.18335L1127.42706,347.95905c-5.25177,3.10699-11.62061,7.11005-18.76825,11.7937l1385.3266,2119.52136c-.04956-.41821-.09253-.8374-.14246-1.25586ZM2477.83673,2383.23285L1158.19336,330.90112c-7.58038,4.28082-14.21045,7.96686-19.31207,10.72003l1340.91077,2051.56116c-.64478-3.30786-1.29712-6.62476-1.95532-9.94946ZM2459.57586,2289.93329L1188.69659,313.44275c-6.53894,3.78186-12.94977,7.46808-19.0141,10.93127l1291.91425,1976.59418c-.68616-3.68262-1.36011-7.36108-2.021-11.03491h.00012ZM2516.48944,2873.0871L955.54254,484.88184c-.43274.47559-.86548.95111-1.29761,1.42847l1537.78296,2391.58026c9.75659-1.52588,18.72363-3.18604,24.46143-4.80347h.00012ZM2478.81829,2879.82343L931.54644,512.55408c-.40576.49072-.81311.98083-1.21729,1.47186l1523.23413,2368.95081c6.80017-.76538,15.89331-1.86548,25.25488-3.15332h.00012ZM2439.69708,2884.34882L908.55609,541.75665c-.38293.51245-.76562,1.02472-1.14539,1.53589l1506.30664,2342.62122c8.68225-.34033,17.34546-.84082,25.97974-1.5647v-.00024ZM2398.93536,2886.36542L886.79718,572.84393c-.35718.55194-.71057,1.10107-1.06128,1.64862l1486.80505,2312.28888c8.79858-.10132,17.60095-.21094,26.39441-.41577v-.00024ZM2357.25213,2886.9726L867.81525,608.1886c-.26111.70862-.51782,1.4212-.76782,2.13995l1464.26757,2277.25293c8.62476-.30713,17.27429-.48462,25.93713-.60889ZM866.62921,674.58813l1424.18958,2214.9101c8.3927-.4021,16.79102-.81714,25.19348-1.24121L866.62921,670.74164v3.8465ZM868.75275,742.80042l1381.51855,2148.55304c8.31067-.36377,16.62793-.74365,24.94751-1.12915L867.18829,735.98328c.5,2.25482,1.02014,4.52612,1.56445,6.81714h.00001ZM959.01422,943.68335c2.41907,4.27368,4.95532,9.75867,7.54456,16.12628l1243.07128,1933.23547c8.22888-.32666,16.46155-.6626,24.69836-1.01001L946.40129,921.54517c4.83557,8.52753,9.13757,15.99847,12.61292,22.13818ZM1067.29174,1644.1236l821.36981,1256.67688c2.17944-.01978,4.35864-.03809,6.53833-.05933l-825.5658-1283.93201c-1.60712,13.15369-1.99255,20.47339-2.34235,27.31458v-.00012ZM1073.6809,1588.35004c-.05048.32214-.09851.63318-.14813.95142l856.91089,1311.04346c2.0625-.02661,4.12427-.04834,6.18677-.07617l-859.25067-1336.31494c-1.27673,8.65686-2.5188,16.86206-3.69885,24.39624ZM1081.29211,1536.79706l890.82196,1362.93066c1.94507-.03271,3.89099-.07056,5.8363-.10425l-893.04834-1388.87268c-1.19635,8.77771-2.40631,17.51221-3.60992,26.04626ZM1088.55182,1483.52423l925.13501,1415.41931c1.83093-.03784,3.66199-.07568,5.49329-.1145l-927.17511-1441.94934c-1.09723,8.62219-2.25623,17.56519-3.45319,26.64453ZM1095.39795,1429.61517l959.75104,1468.39282c1.71765-.04224,3.43408-.08008,5.15198-.12305l-961.70947-1495.6615c-.87457,7.92358-1.95709,17.1958-3.19354,27.3916v.00012ZM1101.38922,1374.40558l995.12012,1522.51062c1.60474-.0459,3.2113-.09814,4.81616-.14478l-998.29736-1552.56641c.0498,3.18542.13062,10.18494-1.63892,30.20068v-.00012ZM1105.53802,1316.37384l1032.22595,1579.27087c1.48999-.04858,2.98047-.09912,4.47058-.14844l-1038.63879-1615.30847c2.13483,13.16101,2.3797,25.75574,1.94226,36.18604ZM1004.79492,1097.87158l1174.11066,1796.34735c1.38379-.05078,2.76685-.09961,4.15076-.15088L992.11011,1041.90155c5.57555,21.66687,10.13618,42.01758,12.68481,55.97003ZM1066.9281,1696.46735l774.60059,1204.67322c7.42902-.03662,14.85876-.0874,22.28851-.13867l-797.58875-1220.29065c.2334,5.25195.47565,10.50305.69965,15.75598v.00012ZM1069.61255,1765.5589l730.25922,1135.703c7.336-.00928,14.67212-.02783,22.00818-.05127l-752.85736-1151.84863c.20001,5.39868.39856,10.79736.58997,16.1969ZM1071.82135,1833.89496l686.30054,1067.34302c7.24207.0166,14.48425.03345,21.72577.03662l-708.52234-1084.00635c.17065,5.54187.33301,11.08435.49603,16.62671ZM1073.64221,1901.63556l642.63953,999.43787c7.13922.04175,14.27765.07373,21.41571.10254l-664.47577-1016.62585c.14587,5.69507.28119,11.39026.42053,17.08557v-.00012ZM1075.15399,1968.88873l599.18695,931.86438c7.04102.06543,14.08087.12134,21.12018.17456l-620.67487-949.60828c.12592,5.85669.24719,11.71301.36774,17.56934ZM1076.43164,2035.78461l555.87555,864.50269c6.94122.08813,13.88251.17603,20.82147.25244l-577.02466-882.83301c.11078,6.02612.22095,12.05237.32764,18.07788ZM1077.54589,2102.42609l512.64136,797.26208c6.83734.10938,13.67303.21216,20.50763.3103l-533.44995-816.16125c.10077,6.19653.20282,12.39355.30096,18.58887ZM1078.50561,2164.98883c.01935,1.28955.01086,2.58057.02112,3.87061l469.44763,730.08459c6.73474.12964,13.4668.24951,20.1983.36865l-489.89697-749.52295c.0766,5.06641.15399,10.13391.22992,15.19922v-.00012ZM1023.49896,2603.60834l187.06378,286.19775c4.11688.08423,8.22327.16553,12.3194.24463l-197.17676-306.646c-.7373,6.70825-1.47327,13.4436-2.20642,20.20361ZM1029.57049,2548.51361l223.62305,342.13477c4.01312.08496,8.00714.17432,11.98096.2688l-233.31976-362.86279c-.75677,6.771-1.51874,13.59204-2.28424,20.45923ZM1035.77539,2493.6347l260.26611,398.18994c.15399.00562.31018.0105.46411.01611,3.75464.13794,7.50275.26709,11.25537.40234l-269.31006-418.83252c-.95093,6.7439-1.84338,13.48535-2.67554,20.22412ZM1043.39874,2440.91718l295.70886,452.42456c3.78088.12866,7.56085.25586,11.3399.38159l-303.77991-472.43701c-1.11554,6.54443-2.20886,13.08813-3.26886,19.63086ZM1052.1427,2389.91962l329.95465,504.82324c3.65332.11377,7.31042.23413,10.96216.34546l-337.43365-524.77759c-1.1604,6.5354-2.32385,13.07202-3.48315,19.60864v.00024ZM1061.07037,2339.19745l363.94977,556.82715c3.52203.09912,7.03949.18945,10.56012.28613l-371.14655-577.21045c-1.09198,6.69678-2.21515,13.39575-3.36334,20.09717ZM1069.30407,2287.41327l398.53198,609.74609c3.3963.08545,6.79199.16943,10.18719.25244l-405.86914-631.21338c-.88422,7.06714-1.83698,14.13916-2.85004,21.21509v-.00024ZM1075.74237,2232.8913l434.83258,665.2771c3.26959.07202,6.54169.15039,9.81042.21997l-442.91699-688.82739c-.44995,7.7688-1.03339,15.5459-1.72601,23.33032ZM1018.02258,2655.32343l150.08295,233.40747c5.70477.18384,11.40936.34668,17.10773.49512l-165.22473-252.78345c-.66138,6.28589-1.31769,12.58008-1.96594,18.88086ZM1012.47711,2711.60638l112.69006,175.25977c5.6463.32129,11.3103.6084,16.98517.8667l-127.8194-195.56055c-.63062,6.4856-1.25,12.96509-1.85583,19.43408ZM1007.4873,2768.74896l73.80743,114.78491c5.63989.55176,11.31696,1.05298,17.02484,1.50854l-89.16376-136.41675c-.57593,6.73486-1.1322,13.4436-1.66852,20.12329ZM1003.3236,2827.18646l32.47601,50.50708c5.711.93164,11.48663,1.78833,17.32001,2.57544l-48.43115-74.09595c-.48529,7.05786-.94067,14.06421-1.36487,21.01343ZM5047.15509,908.12579l-478.10156-743.55091c-6.58276-.5484-13.35596-1.10077-20.28442-1.65326l494.21411,756.13526c1.28955-3.43817,2.68799-7.10321,4.17188-10.93109ZM5063.28936,868.31592l-450.00049-699.86145c-6.32178-.58575-13.00708-1.18951-20.00342-1.80524l465.56055,712.29981c1.4668-3.55072,2.95215-7.10712,4.44336-10.63312ZM5080.43145,830.05945l-422.51929-657.1029c-5.54785-.63306-12.20239-1.34247-19.80957-2.1098l437.52026,669.39337c1.66016-3.60632,3.271-7.02148,4.80859-10.18066ZM5098.61309,793.43433l-379.22583-589.78552c-11.58301-7.034-21.94043-13.49896-29.85693-18.50006l404.87231,619.4464c1.29248-2.98981,2.70898-6.75616,4.21045-11.16083ZM5111.36016,748.35876l-325.62061-506.41492c-10.07837-5.70532-18.67139-10.48016-25.39209-14.2605-.49731-.27972-.99487-.56067-1.49243-.84161l349.25562,534.35022c1.08545-4.1347,2.17139-8.42542,3.24951-12.83319ZM5119.92364,709.51172v-12.75464l-266.70605-414.78638c-9.40332-5.87842-18.45898-11.39862-27.05713-16.54108l292.94238,448.20154c.27686-1.37158.55029-2.74463.8208-4.11945ZM5119.92364,631.85663l-193.41602-300.8017c-9.53735-6.87103-19.00586-13.47705-28.3252-19.80603l221.74121,339.26111v-18.65338ZM5119.92364,569.11584c-.28613-1.17047-.57959-2.3504-.8833-3.54279l-106.0166-164.88013c-10.75049-9.79272-21.75586-19.27893-32.88379-28.43414l139.78369,213.86493v-17.00787ZM5034.44757,944.21106l-511.98096-783.32794c-3.37744-.25433-6.77954-.50763-10.20337-.75952l517.67896,805.09912c1.36816-7.66962,2.87012-14.83862,4.50586-21.01166h-.00049ZM5025.48761,994.88092l-547.17065-837.15551c-3.23975-.21918-6.48779-.4361-9.74243-.65051l554.12451,861.79815c.78711-7.45447,1.71582-15.63666,2.78857-23.99213ZM5017.99249,1063.93921c-.06738.55243-.13525,1.112-.2041,1.67651.71875-5.88434,1.33789-11.12085,1.81104-15.37506l-585.17749-895.30163c-3.10596-.18341-6.20972-.36371-9.30835-.54034l587.86816,914.26409c1.63965-1.66217,3.31836-3.24097,5.01074-4.72357ZM5000.15753,1084.88129l-609.35449-932.29706c-2.96704-.14368-5.91968-.28259-8.85962-.41748l608.24243,945.94519c3.80127-4.95947,7.19141-9.44006,9.97217-13.23065h-.00049ZM4339.88775,151.66669l627.51099,975.91589c3.42188-4.42822,6.80859-8.79547,10.08252-13.01923l-629.35181-962.89667h-8.2417ZM4298.15338,151.66669l646.62305,1005.64197c3.19287-4.29822,6.53174-8.72681,9.93701-13.20172l-648.66309-992.44025h-7.89697ZM4256.41851,151.66669l666.70483,1036.87524c2.42944-4.05383,5.6062-8.85205,9.30103-14.15173l-668.45386-1022.72351h-7.552ZM4214.68414,151.66669l692.96045,1077.7041c1.57129-7.31665,3.44287-13.89746,5.61865-19.92627l-691.37256-1057.77783h-7.20654ZM4962.263,1811.01801L3904.10211,165.33985c-8.11328.65741-16.01343,1.28705-23.44116,1.87207l1081.37573,1654.48114c.07422-3.55701.15039-7.11584.22632-10.67505ZM4963.69073,1748.3205L3943.7088,162.02985c-7.57886.6568-15.34253,1.31293-23.07739,1.9549l1042.79272,1595.45281c.08789-3.70557.17529-7.4104.26611-11.11694l.00049-.00012ZM4956.86993,1672.81171L3983.11334,158.40631c-6.9021.68787-14.55615,1.40826-22.65454,2.14136l1001.14038,1531.71289c-1.54004-6.24817-3.13696-12.80396-4.72925-19.44897v.00012ZM4936.99664,1576.99518L4022.96075,155.47174c-8.26782.46527-15.89526.95435-22.78125,1.46637l940.22681,1438.52863c-1.18848-6.36377-2.32056-12.49438-3.40967-18.47156ZM4925.01422,1507.01666c-.85986-5.35022-1.92578-11.53918-3.12378-18.4165L4063.47564,153.57428c-7.92725.31073-15.53662.63782-22.77368.98108l884.42383,1353.15418c-.03735-.23181-.07422-.46045-.11157-.69287ZM4908.22198,1402.43231l-803.89087-1250.23406c-7.74316.22308-15.29858.45978-22.63232.70966l829.14502,1268.57433c-.90674-6.23169-1.78711-12.59436-2.62183-19.05005v.00012ZM4901.82867,1327.58221l-756.11108-1175.91553h-21.55078c-.39185.00977-.78369.01953-1.1748.02936l779.59717,1192.76983c-.33374-5.65381-.59106-11.28931-.7605-16.88367ZM4165.04669,151.66669l736.96631,1127.54175c.21655-5.22156.50464-10.18298.86353-14.90552l-715.42407-1112.63623h-22.40576ZM4961.28424,1858.75641L3856.89288,169.06c-1.42041.10907-2.79614.21442-4.12329.31586l1107.86133,1722.96917c.2146-11.17969.43188-22.37549.65356-33.5885l-.00024-.00012ZM4960.07843,1921.28754L3820.24591,177.36335c-.93579.55157-1.92285,1.13361-2.95483,1.74213l1142.13745,1776.27154c.21729-11.3374.43335-22.70398.64966-34.08948h.00024ZM4958.87677,1983.82819L3789.87213,195.28125c-.9397.55469-1.88574,1.11322-2.83716,1.67493l1171.14966,1821.38678c.23633-11.46997.46558-22.98108.69214-34.51477ZM4957.21832,2063.22064c.12769-5.65076.25122-11.31921.37451-16.98865L3759.51983,213.2146c-.91675.5423-1.82666,1.08057-2.73242,1.61646l1200.14575,1866.48456c.05591-6.02246.14868-12.05359.28516-18.09509v.00012ZM4956.95318,2109.63776L3729.19708,231.19408c-.90845.54089-1.78369,1.06256-2.61499,1.55829l1231.24292,1914.85072c-.44287-12.62097-.73877-25.27441-.87207-37.96533h.00024ZM4959.13482,2177.35406L3699.1297,249.57227c-.81006.50568-1.6355,1.02179-2.4729,1.54553l1265.11426,1967.53888c-1.02173-13.73828-1.90991-27.5033-2.63623-41.30249v-.00012ZM4964.29571,2249.62714L3669.33404,268.36676c-.78198.4978-1.56519.99646-2.3562,1.50067l1301.66992,2024.38446c-1.5708-14.85522-3.03223-29.72705-4.35205-44.62476ZM4972.16876,2326.04218L3639.69415,287.39886c-.74756.48431-1.49658.96985-2.24683,1.4566l1340.49146,2084.74823c-2.00195-15.84912-3.9375-31.69922-5.77002-47.56152ZM4986.94659,2884.30756L3427.93756,459.72321c-4.21411,5.81476-8.83545,12.79852-13.56836,20.55975l1571.46118,2404.28802c.375-.08789.74463-.17554,1.11621-.26343ZM5021.80011,2873.6076L3451.69903,431.77637c-5.89404,6.18292-11.1084,12.02155-15.57739,17.41876l1584.88159,2424.80896c.27588-.13306.54199-.26514.79736-.39673l-.00049.00024ZM5024.30304,2812.5871L3477.33526,406.72864c-5.89209,5.41199-11.43262,10.69586-16.56641,15.79504l1564.0127,2392.88055c-.1582-.94116-.31787-1.88062-.47852-2.81714ZM5015.43634,2733.89594L3504.06744,383.39722c-5.96973,4.96399-11.70215,9.87939-17.17017,14.71399l1528.59814,2338.71417c-.02148-.97583-.04004-1.95239-.05908-2.9292v-.00024ZM5013.71612,2666.31049L3531.68756,361.43726c-6.06543,4.61377-11.95337,9.22559-17.65552,13.81305l1499.92529,2294.83582c-.07764-1.2605-.15137-2.52441-.24072-3.77539l-.00049-.00024ZM5005.75128,2589.02289L3560.09747,340.71442c-5.06909,3.56409-9.90161,7.01373-14.41626,10.30225-1.22559.8927-2.43823,1.78668-3.65161,2.68054l1464.30469,2240.3562c-.19238-1.67749-.38818-3.35376-.58252-5.03052h-.00049ZM4995.72296,2508.51727L3589.04083,320.82172c-6.26465,4.22546-12.38965,8.3988-18.27881,12.46436l1425.76367,2181.38501c-.26709-2.05176-.53467-4.10327-.80322-6.15381h.00049ZM4984.8377,2426.68915L3618.26715,301.37756c-6.14282,4.03754-12.28418,8.10162-18.34741,12.14722l1385.87354,2120.34894c-.31885-2.39502-.63721-4.79004-.95508-7.18457h-.00049ZM4964.3963,2889.27142L3402.92315,500.26129c-.3606.67029-.71826,1.34888-1.07739,2.0246l1537.94629,2391.83417c8.50269-1.60327,16.76807-3.22681,24.60376-4.84863h.00049ZM4927.03399,2896.48041L3385.20245,537.53461c-.31738.77515-.62427,1.54919-.93457,2.32379l1518.09912,2360.96503c8.23828-1.40845,16.51392-2.86206,24.66675-4.34302h.00024ZM4889.23956,2903.03583L3371.84771,581.47937c-.18237,1.04663-.35596,2.1001-.52393,3.15765l1493.29834,2322.3905c7.95752-1.25928,16.22241-2.59644,24.61743-3.9917ZM4851.14434,2909.13202L3368.32135,640.4621c.04321,1.54163.09424,3.09253.15356,4.65308l1458.13452,2267.7002c7.43164-1.08423,15.70166-2.32251,24.53491-3.68335ZM4795.12896,2917.13129c3.92896-.46802,9.99023-1.26709,17.63721-2.33594L3374.91095,714.92987c.27856,2.12854.56299,4.26898.85498,6.42578l1412.3916,2196.57446c2.31982-.271,4.65601-.52295,6.97119-.79883h.00024ZM4773.81012,2919.57465L3397.98907,814.60693c1.59863,4.67126,3.2666,9.33295,4.99097,13.98138l1346.21582,2093.64453c8.22827-.85864,16.43579-1.74146,24.61426-2.65845v.00024ZM4734.45709,2923.74579l-1263.59473-1933.25903c1.13916,4.68292,2.10132,9.06714,2.91968,13.12372l1236.16846,1922.50275c8.19336-.75854,16.35742-1.55371,24.50684-2.36743h-.00024ZM4694.81305,2927.46283l-1114.01782-1704.41394c2.55322,7.79602,4.51001,14.8645,5.7334,20.80579l1083.89014,1685.67529c8.15063-.66333,16.28223-1.35132,24.39453-2.06714h-.00024ZM4359.7984,2943.15179l-826.05737-1284.69629c-.98657,4.33789-1.97095,8.64343-2.94092,12.86597.09326,4.43079.18628,8.86157.2832,13.29028l822.62573,1258.59814c2.02979-.01929,4.05957-.03662,6.08936-.05811ZM3530.79547,1671.34125c.00146-.00659.00293-.01343.00464-.02002-.05493-2.60278-.11279-5.20398-.1665-7.80737.05371,2.60913.10693,5.21887.16187,7.82739ZM4401.14972,2942.55634l-856.73047-1332.39563c-1.53564,7.23547-3.2168,14.9585-4.96997,22.87939l855.98218,1309.62268c1.90649-.03345,3.81201-.0708,5.71826-.10645ZM4442.27374,2941.60614l-888.8457-1382.33691c-.58911,4.64563-1.16821,9.0282-1.74707,13.08081-.4502,3.15161-1.14502,7.19934-2.02832,11.92517l887.25586,1357.47449c1.78882-.04639,3.5769-.09546,5.36523-.1438v.00024ZM4483.20147,2940.34247l-922.97168-1435.41223c-1.20825,8.87537-2.30884,17.63245-3.33789,26.04053l921.28979,1409.53674c1.67236-.05786,3.34814-.10547,5.01978-.16504ZM4523.86773,2938.69061l-955.03076-1485.27441c-1.67261,7.91077-3.18457,16.12805-4.5647,24.46338l954.93457,1461.02344c1.55469-.06787,3.10645-.14307,4.66064-.2124h.00024ZM4564.32574,2936.69672l-986.18433-1533.72839c-1.3125,9.38269-2.67334,18.03699-4.03467,25.58179l985.88013,1508.37341c1.44556-.07666,2.89404-.14868,4.33887-.22681ZM4604.52887,2934.32367l-1020.06812-1586.42749c-.86353,9.33411-1.82837,18.66699-2.86426,27.73315l1018.94946,1558.95825c1.33032-.08374,2.65356-.17896,3.98291-.26416v.00024ZM4644.48614,2931.55048l-1056.14331-1642.52002c-.30225,9.38782-.8396,19.58301-1.56226,30.16162l1054.03076,1612.62939c1.2251-.09009,2.45044-.17969,3.6748-.27075v-.00024ZM4328.84967,2943.38837l-796.82007-1219.11475c.13818,5.35339.28003,10.70569.42993,16.05505l773.60767,1203.12927c7.59375-.00464,15.18799-.0332,22.78271-.06958h-.00024ZM4286.8067,2943.435l-752.87183-1151.87061c.15283,5.56018.31006,11.11987.4541,16.6814l729.85449,1135.07349c7.51929.05127,15.03931.09448,22.56348.11572h-.00024ZM4244.54962,2943.15497l-708.9585-1084.67383c.1272,5.70581.25269,11.41211.375,17.1189l686.27002,1067.29565c7.43262.10425,14.87256.18335,22.31348.25952v-.00024ZM4202.08062,2942.56879l-665.08862-1017.56372c.11816,5.88391.23853,11.76819.35596,17.65271l642.66919,999.48352c7.34937.15454,14.70215.29956,22.06348.42749ZM4159.42584,2941.68011l-621.08374-950.23389c.12622,6.08496.25195,12.1698.38257,18.25464l598.90186,931.4209c7.25684.20166,14.52759.38135,21.79932.55835ZM4116.56891,2940.48993l-576.7439-882.40356c.15454,6.33496.33008,12.66858.49414,19.00293l554.71167,862.69287c7.17114.24658,14.34863.48413,21.53809.70776ZM4073.52301,2939.01215l-531.32812-812.91492c.49023,6.98682,1.08398,14.18225,1.72241,21.49634l508.35278,790.59216c7.0708.28882,14.16064.55908,21.25293.82617v.00024ZM4030.29303,2937.24286l-481.89575-737.28125c.51733,7.24878.94629,14.41675,1.23218,21.42334l459.68237,714.89746c6.98291.3291,13.97339.65137,20.98096.96045h.00024ZM3493.53302,2653.64594l169.55542,259.41064c4.24976.46167,8.51074.90991,12.78003,1.34473l-180.5625-280.80786c-.60034,6.68213-1.19043,13.36646-1.77295,20.05249ZM3498.68707,2597.14789l209.34277,320.28662c4.06714.35522,8.13135.7002,12.1897,1.03589l-219.56592-341.4729c-.66821,6.71582-1.32349,13.43286-1.96631,20.15039h-.00024ZM3504.32452,2541.40009l248.08984,379.56128c3.90796.28345,7.79907.55908,11.67383.82861l-257.55518-400.55103c-.7522,6.72046-1.48877,13.44092-2.20874,20.16113h.00024ZM3510.57159,2486.57782l285.85645,437.35083c3.77051.23828,7.51001.47119,11.22046.69995l-294.58643-458.13892c-.84961,6.69727-1.67993,13.39331-2.49048,20.08813ZM3517.50738,2432.81415l322.7373,493.78076c3.65283.21777,7.26123.43286,10.81787.64575l-330.75366-514.38892c-.95874,6.65625-1.88745,13.31006-2.80127,19.96216l-.00024.00024ZM3894.53131,2929.93842l-366.17554-569.47925c-1.07446,6.58325-2.13232,13.16455-3.15674,19.7417l358.88623,549.08032c3.4707.22437,6.96606.43701,10.4458.65723h.00024ZM3937.95684,2932.56757l-399.19653-620.83594c-1.55835,6.02295-3.10791,12.02051-4.51636,17.92627l393.67554,602.31592c3.34839.19653,6.6814.40112,10.03735.59351v.00024ZM3981.19073,2934.90009l-432.18994-672.14453c-.66919,6.5332-1.82129,13.27759-3.2522,20.13208l425.84082,651.52026c3.19482.16797,6.40015.32861,9.60107.49243l.00024-.00024ZM3488.99078,2707.63934l128.47437,199.80225c6.1416.8562,12.34204,1.67578,18.59033,2.45996l-145.40015-222.45312c-.56079,6.72754-1.11523,13.45801-1.66479,20.19116l.00024-.00024ZM3484.3753,2765.37054l86.52344,134.56421c6.12915,1.14209,12.36719,2.23511,18.70093,3.27954l-103.59204-158.49365c-.54614,6.87915-1.09009,13.76221-1.63208,20.64966l-.00024.00024ZM3479.83331,2823.20795l42.31787,65.8125c6.20605,1.677,12.62744,3.27368,19.23267,4.79712l-59.89746-91.64038c-.54932,7.00488-1.1001,14.01465-1.65308,21.03052v.00024ZM3488.98809,2878.0351l-12.01367-18.37964c.27637,9.75488,5.11133,14.84546,12.01367,18.37964Z" fill="#231f20"/>
</svg>