<?xml version="1.0" encoding="UTF-8"?>
<svg id="Layer_8" xmlns="http://www.w3.org/2000/svg" version="1.1" viewBox="0 0 6000 3000">
  <!-- Generator: Adobe Illustrator 30.5.1, SVG Export Plug-In . SVG Version: 2.1.4 Build 3)  -->
  <path id="C1" d="M1479.37681,1140.47318l68.58533,45.73566-.00024.00018-68.58508,45.73553-68.58551-45.73572-68.58527-45.73566-68.58527-45.73584.10742-.07166,68.4776-45.66388.00024-.00018-68.58527-45.73584-.00024.00018-409.42756-273.02435c-.01123-.05524-.02222-.11035-.03345-.16559-7.36548-36.40436-8.75049-67.88751-4.35889-94.2348l550.99067,367.42474v-.00018l68.58551,45.73566-.00024.00018-68.58527,45.73572,68.58551,45.73584ZM2520.91441,445.92985l-767.08875,511.52856-.10754.07172v91.44934l-.03937-.00409L938.1417,505.13932c-17.31665,20.28644-33.4646,41.28381-46.45142,60.35236-.02234.0329-.04468.06573-.06714.09863l656.33888,437.67566,68.58539,45.73566-68.58527,45.73572,68.58539,45.73566,68.58539,45.73584-.00024.00018-68.58514,45.73553,68.58539,45.73584h-.00012l-68.47784,45.66394-.10754.07172,68.58551,45.73572,68.58527,45.73584v-91.47125l.00024-.00012-.00024-.00018v-91.47137l.00024-.00012h-.00024v-77.45477l.21503.12927v-105.61743l-.18622-.01923.07874-.05249.10748-.07166,68.3703-45.59229,752.92938-502.08643c-15.02856-17.48529-33.23193-37.06439-54.31848-55.24969ZM2233.8159,1003.26597v-.00018l-68.58557,45.73584h.00012l68.58521,45.73572.10742-.07166,68.47791-45.66406,322.71423-215.20007c7.37183-17.80865,13.96497-34.71527,18.1062-44.96991,5.86279-14.51752,12.25-42.01227,16.08057-69.15533.00745-.05261.01428-.10516.02173-.15784l-425.50806,283.7475h.00024ZM2654.2595,631.42411c-7.8573-25.2193-19.94995-52.5033-31.06372-70.6134l-663.50635,442.45526-68.58533,45.73566,68.58533,45.73572-68.58533,45.73566-68.58545,45.73584.00024.00018,68.58521,45.73553-68.58545,45.73584h.00012l68.47791,45.66394,68.47778-45.66394,68.58533-45.73584-68.58508-45.73553-.00012-.00018,68.58533-45.73566,68.58545-45.73584-68.58533-45.73572h-.00024l68.58557-45.73584v.00018l557.6145-371.84186h-.00037Z" fill="#fff"/>
  <path id="C2" d="M2233.8159,1003.26597v-.00018l-68.58557,45.73584h.00012l68.58521,45.73572.10742-.07166.10742.07166-68.58533,45.73584-68.58533,45.73566-68.58557,45.73572-68.58496-45.73553-.00024-.00018,68.58533-45.73566,68.58557-45.73584-68.58533-45.73572-.00024-.00018,68.58557-45.73566v.00018l557.43604-371.72284c5.04541,16.21765,8.33545,31.57141,8.48108,43.06628.16467,13.01282-1.1991,28.89539-3.45325,44.90906l-425.50806,283.7475h.00012ZM991.65812,449.21153c-4.5564,4.08514-8.80499,8.05084-12.65863,11.84235-13.67346,13.45294-27.56152,28.51373-40.77966,43.99414l747.12811,498.21795,68.37024,45.59229v-91.32812l.10754-.07172-762.1676-508.24688ZM1753.82573,1048.92991l.10748.07172v-.14337l-.10748.07166ZM1273.62052,1003.26597l-409.42756-273.02435c1.88318,9.289,4.14111,18.88623,6.80652,28.81226,8.07227,30.06219,21.02649,61.40076,34.83374,90.28333l299.41699,199.66443,68.47797,45.66406,68.4776-45.66388.00024-.00018-68.58527-45.73584-.00024.00018ZM1685.13291,1186.20884l-68.58539-45.73584-68.58539-45.73566,68.58527-45.73572-68.58539-45.73566-656.33888-437.67566c-7.01453,10.30457-13.11426,20.04871-17.95703,28.79688-6.61182,11.94391-11.23425,25.73944-13.84473,41.3244l551.18495,367.55438v-.00018l68.58551,45.73584h-.00024l-68.58527,45.73572,68.58551,45.73584,68.58527,45.73566-.00012.00018-68.58514,45.73553,68.58527,45.73584,68.47784,45.66394,68.47784-45.66394h.00012l-68.58539-45.73584,68.58514-45.73553.00024-.00018ZM1822.5186,1277.6804h-.00012l68.58539-45.73584-68.58521-45.73553-.00024-.00018,68.58545-45.73584,68.58545-45.73566-68.58533-45.73572,68.58533-45.73566,663.50647-442.45526c-.02075-.03387-.04163-.06805-.06238-.10187-3.53381-5.74939-6.96814-10.57385-10.13391-14.09943-8.49182-9.45685-21.17969-26.125-37.68848-45.33856l-821.37775,547.73077v182.94293h-.00024l.00024.00012v91.47137l-.00024.00018.00024.00012v91.47125l68.58527-45.73584,68.58557-45.73572-.10754-.07172-68.47791-45.66394h-.00006Z"/>
</svg>