<?xml version="1.0" encoding="UTF-8"?>
<svg id="Layer_8" xmlns="http://www.w3.org/2000/svg" version="1.1" viewBox="0 0 6000 3000">
  <!-- Generator: Adobe Illustrator 30.5.1, SVG Export Plug-In . SVG Version: 2.1.4 Build 3)  -->
  <path id="C1" d="M1764.94689,1029.13527l881.3476-245.57776c-.35974.97583-.71863,1.92212-1.07507,2.80499-2.95813,7.32471-7.16846,18.04675-12.01807,30.06323l-868.35516,241.96252.00549-1.60071-868.19928-234.37872c-4.68457-10.77295-9.1134-21.72882-13.10156-32.69641l881.39605,239.42285ZM873.67144,759.04408c2.37549,8.58722,5.13818,17.26898,8.1958,25.96082l883.09394,239.9826,882.91486-245.96863c2.34436-7.13116,4.69824-15.9693,6.87427-25.69446l-889.70734,247.94067-891.37152-242.22102ZM866.46356,729.12789c1.30444,6.32843,2.7887,12.8045,4.45349,19.427l894.15936,242.95905,891.85406-248.55219c1.2323-6.21759,2.37329-12.65399,3.38391-19.13751l-895.17535,249.49725-898.67547-244.1936ZM865.12237,700.75771c-.20227,4.14655-.31079,8.36682-.51367,12.65967l900.58521,243.96795-.0025.72784,897.30219-250.0777c.53247-4.45776.98486-8.86176,1.34363-13.15662l-898.60162,250.42676-900.11322-244.54791ZM866.06329,673.03554c-.0083,2.40137-.1106,4.80243-.2124,7.20349l899.45727,243.96405-.00146.43646-.00031.07281,899.47394-250.6839c-.00098-.63086.00244-1.26996-.00537-1.88818-.02161-1.70367-.11401-3.49426-.26929-5.35767l-899.17401,250.57996-899.26837-244.32703ZM992.44737,1040.25783c.67451,2.60919,1.33392,5.19952,1.97797,7.76489l769.73962,208.22369-.00128.36359,764.53412-213.63049c1.05945-2.81104,2.10852-5.52301,3.14038-8.1427l-767.64948,214.49622-771.74134-209.0752ZM1764.16344,1256.68288l.00024-.07288h0l-.00024.07288ZM982.40387,1004.02528c1.35211,4.53729,2.68506,9.1438,3.9884,13.77637l777.87011,210.13751-.0025.72845,777.10138-217.16266c.40808-.99438.80774-1.97186,1.19153-2.92023,1.11963-2.76599,2.81848-6.74933,4.94348-11.59705l-783.19226,218.87177-781.90014-211.83417ZM970.34869,967.45833c2.31384,6.20062,4.64893,12.987,6.96216,20.14014l787.04498,213.1983,790.82477-220.99524c2.97559-6.55121,6.25635-13.67468,9.67798-20.98914l-800.43982,223.71912-794.07007-215.07318ZM951.41266,928.77852c3.07666,5.39227,5.86084,10.25,8.25122,14.4729,2.04199,3.60754,4.16772,8.08362,6.33813,13.21918l798.45032,216.30969,805.67151-225.13568c4.48132-9.42896,9.05237-18.8457,13.37195-27.46228l-818.96179,228.87555-813.12133-220.27936ZM929.52508,889.4604c6.80139,12.65338,13.29297,24.21021,18.96924,34.19519l816.05969,219.58099-.00549,1.60132,821.42932-229.57245c4.97351-9.77832,9.50232-18.22125,13.01941-24.01404,1.84448-3.03796,3.78943-6.5589,5.79773-10.43079l-840.146,234.83649-835.1239-226.19672ZM1089.25707,1482.67061c-1.21094,9.19-2.46124,18.52173-3.72711,27.80762l679.32172,183.38934-.00549,1.60071,674.97028-188.07684c-1.01172-9.02466-2.20605-18.47076-3.49939-28.24597l-671.37012,187.06982-675.68982-183.54474-.00006.00006ZM1092.755,1455.65785c-.94574,7.44031-1.93756,15.12238-2.96136,22.93152l675.16754,183.47821,670.82892-186.88422c-.99768-7.46301-2.04456-15.1062-3.1062-22.89423l-667.64099,186.05603-672.28784-182.68732h-.00006ZM1096.11687,1428.61079c-.68011,5.6156-1.40729,11.51324-2.17279,17.62463l671.13232,182.35858,666.33148-185.70099c-.78149-5.78357-1.56189-11.63574-2.32837-17.54047l-663.94055,185.04901-669.02216-181.79077h.00006ZM1099.27819,1401.45454c-.41693,3.78497-.88104,7.87592-1.38824,12.23859l667.30396,180.77228-.0025.72778,662.03522-184.50885c-.50317-4.10846-.99365-8.23535-1.46729-12.37677l-660.52374,184.07806-665.95734-180.93109h-.00006ZM1102.01696,1374.2231c-.19196,2.16467-.40826,4.49902-.64563,6.97729l663.93683,180.08276-.00146.43646-.00031.07281,658.31915-183.474c-.23865-2.39111-.47192-4.77167-.6947-7.13416l-657.59912,183.25836-663.31476-180.21954ZM1764.16344,1893.76296l.00024-.07288h0l-.00024.07288ZM1067.64696,1697.71059c.10297,2.42627.19684,4.85364.29785,7.28015l696.22015,188.33582-.00128.36365,697.99774-195.03845c.09668-2.44897.19202-4.89783.29211-7.34729l-698.26471,195.10876-696.54181-188.70264h-.00006ZM1066.34313,1663.84633c-.04578.38989-.09308.78595-.14191,1.18872.17786,3.8476.33997,7.69696.51263,11.54517l697.54852,188.43896-.0025.72839,699.08856-195.36182c.05347-1.20319.10474-2.40607.15881-3.60931-.44983-3.27893-.85303-6.22455-1.21753-8.89685l-697.98578,195.05975-697.96088-189.0932.00006.00018ZM1068.73913,1631.18739c-.60205,7.2713-.75482,12.30444-1.09204,17.96185l696.70874,188.7276,695.98016-194.49103c-1.33545-10.13196-1.33887-11.04419-1.33887-12.80109,0-.39484-.30884-2.11383-.84253-4.86902l-693.73584,193.89587-695.67963-188.42419ZM1072.68792,1598.71278c-1.40027,9.50726-2.35132,16.90051-3.01776,22.92285l694.78217,188.22473,691.88477-193.33929c-1.21875-6.13397-2.75195-13.88312-4.37671-22.49841l-687.42645,192.1153-691.84607-187.42517h.00006ZM1077.56835,1566.63863c-1.11469,7.51154-2.20032,14.65558-3.23779,21.27942-.34991,2.23425-.67767,4.36426-.98767,6.41119l691.21112,185.98743-.00549,1.60132,686.66052-191.90741c-1.63403-8.79083-3.32251-18.31348-4.84656-27.82507l-681.71356,190.5517-687.08063-186.09857h.00006ZM1078.42596,2116.80849c.15015,9.65247.29871,19.3031.44495,28.95215l685.98077,185.18713-.00549,1.60059,682.49713-190.17407c.48413-9.92163.99585-19.80835,1.53857-29.64978l-683.93506,190.57092-686.52094-186.48694h.00006ZM1077.98064,2088.72316c.12817,7.94739.25513,15.8938.37933,23.83911l686.6012,186.58545,684.15582-190.59692c.45044-8.06946.91345-16.11584,1.38379-24.14673l-685.45801,191.02124-687.06219-186.70215h.00006ZM1077.51708,2060.63673c.10291,6.09985.20526,12.19922.30511,18.2981l687.25421,186.73926,686.00543-191.18396c.36499-6.17224.73071-12.33667,1.09595-18.49524l-687.03876,191.48682-687.62195-186.84497ZM1077.02941,2032.49001c.07532,4.23108.15076,8.46216.22424,12.69287l687.94025,186.36255-.0025.72778,687.89777-191.71667c.25354-4.33289.50159-8.66345.74939-12.99414l-688.60303,191.90332-688.20612-186.97571ZM1076.51446,2004.37416c.04541,2.40039.09119,4.80078.13586,7.20105l688.65784,186.78796-.00146.4364-.00031.07288,689.69879-192.21948c.13379-2.47766.2605-4.9574.39038-7.43591l-690.06384,192.30554-688.81726-187.14844ZM1062.63158,2333.4319c-.38879,2.29395-.78314,4.58862-1.17743,6.88306l702.71082,190.09155-.00128.36365,704.53485-196.86511c-.45581-2.29456-.90979-4.5896-1.36206-6.88501l-703.14771,196.47314-701.55719-190.06128ZM1764.16344,2530.84303l.00024-.07288h0l-.00024.07288ZM1067.83251,2301.32985c-.61884,4.03882-1.25092,8.07874-1.89899,12.11963l698.32886,188.6499-.0025.72839,699.27972-195.41516c-.77014-4.05957-1.52832-8.11597-2.27124-12.16748l-696.96436,194.77441-696.4715-188.6897ZM1072.36993,2269.25087c-.75287,5.86621-1.55859,11.73596-2.39874,17.60803l694.38464,188.09802,694.35077-194.03564c-1.01648-5.84045-1.99268-11.66406-2.91907-17.46399l-691.3689,193.23438-692.04883-187.4408h.00012ZM1076.01116,2236.69313c-.72314,7.68494-1.54291,15.37598-2.4613,23.07361l690.90247,187.17371,689.89099-192.78223c-1.15564-7.66846-2.21118-15.28687-3.14844-22.84155l-686.66089,191.90137-688.52283-186.5249ZM1078.39599,2203.94289c-.4743,9.41907-1.1463,18.85046-1.98376,28.29236l688.14178,185.1615-.00549,1.60132,686.1488-191.7644c-1.13733-9.59302-2.06787-19.07312-2.75122-28.41064l-683.29712,190.99426-686.25299-185.87439ZM2020.53362,2898.38271l495.72815-138.13208c-.49854-3.65186-.92236-7.28003-1.23706-10.87769-.51257-5.86035-.9978-11.72412-1.46362-17.59033l-604.33838,168.39209c37.07556-.40503,74.17297-1.00293,111.31091-1.79199ZM1008.49712,2763.84267l495.36609,133.729c37.0683.83716,74.08008,1.52759,111.05127,2.04907l-604.00812-164.073c-.83868,9.47681-1.64471,18.91528-2.40924,28.29492ZM1011.27264,2731.41127l619.7558,168.42017c30.16394.38721,60.30615.66748,90.43585.83203l-708.06549-192.40955c-.72906,7.73767-1.43762,15.45862-2.12616,23.15759v-.00024ZM1893.82684,2900.32753l619.42749-172.56445c-.60327-7.75879-1.172-15.52222-1.71301-23.28931l-704.58899,196.35254c28.95441-.05298,57.90973-.2229,86.87451-.49878ZM1016.03539,2681.01076c-.58612,5.91846-1.16467,11.83472-1.73199,17.745l743.59668,202.04834c4.68903.01123,9.37811.02417,14.06683.02954l738.9162-205.92969c-.39929-5.95386-.78662-11.90955-1.16382-17.8667l-744.58026,207.52441-749.10364-203.55103v.00012ZM1018.78936,2653.74709c-.42352,4.11035-.84296,8.22314-1.25977,12.33667l747.66431,202.54163-.0025.72778,743.5965-207.23987c-.25684-4.19006-.51135-8.38049-.76428-12.57141l-742.78796,207.00391-746.44617-202.79871h-.00012ZM1021.63915,2626.54494c-.24744,2.32849-.49475,4.65674-.74078,6.98853l744.40979,201.90979-.00146.43628-.00031.073,741.49664-206.65564c-.14502-2.40125-.29248-4.80249-.43848-7.20374l-741.03278,206.50952-743.69257-202.05786-.00006.00012ZM1025.21813,2875.32729c30.57855,5.63208,63.27863,8.87109,96.65387,10.87012l-118.89105-32.20825c1.11755,12.1521,7.21552,18.57129,22.23718,21.33838v-.00024ZM2444.94939,2883.52333c12.57812-1.18237,74.23743-8.28418,78.42578-13.58984,2.17957-7.4436,3.32471-15.04834,3.74292-22.75513l-139.48279,38.9812c19.1687-.2937,38.32214-.85083,57.31409-2.63623ZM1002.88744,2845.69643c-.07025,1.32129-.10181,2.58618-.10095,3.80811l140.55847,37.8208c39.33624,1.77759,79.17401,2.18262,117.21924,3.03882l-256.22858-69.40063c-.52673,8.32568-1.01471,16.5813-1.44818,24.73291ZM2321.03106,2887.61c16.83411-.85718,33.78918-1.0498,50.76343-1.24463l155.47852-43.45288c.19165-9.44409-.62292-19.0249-1.93408-28.64209l-274.1908,76.6416c23.25977-1.01929,46.55029-2.11401,69.88306-3.30176l-.00012-.00024ZM3564.15069,1482.20204c-1.47095,9.24432-2.79077,18.57648-4.00122,27.73651l681.3208,183.92902-.00537,1.60071,683.92529-190.57214c-1.27271-7.79413-2.9397-17.22369-4.79663-27.88446l-679.02808,189.20361-677.41479-184.01331v.00006ZM3568.94952,1455.54256c-1.50781,7.3421-2.87915,14.9314-4.14282,22.61041l676.77344,183.91461,678.33252-188.97467c-1.23218-7.10272-2.5332-14.69989-3.84863-22.68793l-674.40234,187.94019-672.71216-182.80261ZM3574.5772,1429.11116c-.97778,5.34766-1.95483,10.1142-2.91333,14.1402-.24292,1.02063-.48022,2.05414-.71704,3.08844l670.74829,182.25421,672.85596-187.51929c-.90283-5.66357-1.80176-11.49011-2.67969-17.44269l-670.11377,186.76953-667.18042-181.29041ZM3578.83038,1402.25154c-.58618,4.19922-1.18188,8.25116-1.7832,12.12927l664.76538,180.08459-.00244.72778,667.99194-186.16907c-.55225-4.07312-1.08887-8.18884-1.60425-12.33844l-666.34351,185.69995-663.02393-180.13409ZM3582.24541,1375.20381c-.26611,2.3291-.53662,4.64148-.81152,6.93066l660.49292,179.14868-.00146.43646-.00024.07281,663.99976-185.05719c-.24438-2.37256-.47925-4.75012-.70435-7.13135l-663.27002,184.83875-659.70508-179.23883ZM3531.96392,1694.37782c.05493,2.41699.11133,4.8335.16772,7.25l708.65186,191.69873-.00122.36365,721.52759-201.6134c-.5498-2.23041-1.10693-4.49921-1.66846-6.79919l-719.83374,201.13562-708.84351-192.03528-.00024-.00012ZM4240.78204,1893.76296l.00024-.07288h0l-.00024.07288ZM3533.63995,1661.32082c-.73462,3.22095-1.46655,6.41846-2.19019,9.56854.01758.83185.0354,1.66339.05322,2.49512l709.37817,191.6347-.00269.72839,715.09985-199.83612c-.95142-4.01569-1.89307-8.03644-2.81201-12.01642l-712.24365,199.04431-707.28271-191.61871v.00018ZM3531.44512,1670.90932c.00146-.00659.00293-.01337.00464-.01996-.05493-2.60284-.11279-5.20398-.1665-7.80743.05371,2.60919.10693,5.21887.16187,7.82739ZM3540.69195,1629.92366c-1.2478,5.65875-2.53589,11.43225-3.83838,17.21771l704.12085,190.73547,708.98999-198.12653c-1.34351-6.07007-2.58569-11.88397-3.67212-17.25409l-705.25488,197.11536-700.34546-189.68793ZM3547.47173,1598.21571c-1.40894,6.88617-3.02075,14.47949-4.75293,22.4527l698.35229,189.19196,703.42725-196.56476c-1.49902-7.88568-2.90479-15.35602-4.23926-22.53723l-699.10645,195.37958-693.68091-187.92224ZM3553.09966,1566.34413c-.25684,1.91498-.51294,3.78186-.76904,5.57391-.74341,5.20367-2.14966,12.83789-3.98364,21.97681l692.82568,186.42181-.00537,1.60132,698.3479-195.17377c-1.78003-9.62964-3.43726-18.7774-5.02856-27.77466l-693.21899,193.76764-688.16797-186.39307ZM3542.08721,2113.28883c.48193,9.37939,1.23218,19.26294,2.09619,29.41968l697.28687,188.23926-.00537,1.60059,716.57739-199.67041c-.25244-9.67468-.41602-19.36938-.48242-29.08643l-715.99438,199.50391-699.47827-190.00659ZM3541.19122,2085.07961c.15869,5.94434.30176,11.88953.47095,17.83325.05688,1.99829.13574,4.03638.22363,6.09155l699.69409,190.14331,715.9541-199.45557c-.03174-7.91553.00635-15.84741.10913-23.79431l-715.98169,199.52747-700.47021-190.3457ZM3540.45757,2056.92018c.14868,6.11523.31665,12.22925.47461,18.34412l700.76294,190.40979,716.10962-199.57373c.02222-1.10413.03833-2.20679.06323-3.31165.11279-4.98547.22119-9.98853.33057-14.98865l-716.44092,199.68164-701.30005-190.56152ZM3539.80718,2028.72951c.09521,4.24097.19507,8.48181.29346,12.72266l701.71191,190.09326-.00244.72778,716.71704-199.74854c.09058-4.28491.18213-8.56592.27075-12.86035l-716.9436,199.80139-702.04712-190.73621ZM3539.19244,2000.58656c.05078,2.40393.09961,4.80774.15112,7.21167l702.5835,190.56519-.00146.4364-.00024.07288,717.29346-199.91016c.04907-2.45325.09766-4.91101.14648-7.36731l-717.41455,199.92761-702.75806-190.93616-.00024-.00012ZM4240.78204,2530.84303l.00024-.07288h0l-.00024.07288ZM3534.22539,2332.07057c-.52832,2.28308-1.03003,4.54956-1.50098,6.79761l708.05908,191.53833-.00122.36365,732.10474-204.56885c-.27148-2.34631-.53955-4.69312-.80664-7.04004l-731.27319,204.33191-706.58203-191.42261h.00024ZM3542.12969,2300.70094c-.99365,3.93872-2.01709,7.88281-3.03418,11.8147l701.78564,189.58374-.00269.72839,728.98267-203.7157c-.4458-4.14404-.88477-8.28882-1.31299-12.43555l-727.62549,203.34302-698.79297-189.3186ZM3548.7896,2269.19704c-.83569,5.68347-1.96924,11.49414-3.27588,17.37036l695.46069,188.38953,726.10498-202.9093c-.58057-5.93359-1.14111-11.87073-1.67969-17.81177l-724.3623,202.45581-692.2478-187.49463ZM3550.65874,2236.1592c.05298,7.93335-.14795,15.55884-.69604,22.73975-.02002.26318-.04712.52942-.06885.79346l691.17725,187.24805,723.48877-202.17078c-.66943-7.724-1.30322-15.45459-1.89111-23.19409l-721.51636,201.64246-690.4939-187.05884h.00024ZM3549.2481,2202.381c.68115,9.97827,1.18115,19.7843,1.35376,29.20068l690.5708,185.81506-.00537,1.60132,721.19531-201.55908c-.70508-9.53516-1.34473-19.0835-1.91089-28.64697l-719.18384,201.02527-692.01953-187.43628h-.00024ZM3487.35723,2735.50185c-.75342,9.43921-1.50171,18.88477-2.24609,28.33936l655.29492,176.90332c65.21655,1.79077,131.06445,2.59033,196.89502,2.17969l679.43311-189.32031c-.4585-9.58252-.66309-19.28833-.78955-29.00049l-774.37891,215.77197-754.20825-204.87354h-.00024ZM3489.56499,2708.13088c-.63086,7.73767-1.25757,15.47839-1.87744,23.22522l753.89233,204.87183,774.31201-215.71338c-.09082-7.93188-.15869-15.84717-.29785-23.68628l-773.93311,215.67725-752.09644-204.37451.00049-.00012ZM3491.82525,2680.78554c-.49829,5.93567-.99268,11.87292-1.48169,17.81311l751.35156,204.15564,773.68066-215.61829c-.17334-6.07068-.4292-12.06653-.80029-17.96863l-772.81787,215.39453-749.93237-203.77625v-.00012ZM3494.16582,2653.40956c-.35962,4.12891-.71729,8.25818-1.0708,12.38879l748.71753,202.82703-.00244.72778,771.55591-215.03223c-.39258-4.1532-.79346-8.30298-1.20508-12.44812l-770.3064,214.67297-747.68848-203.13623h-.00024ZM3496.59722,2626.09377c-.21265,2.33911-.427,4.67786-.63696,7.01733l745.9668,202.33215-.00146.43628-.00024.073,768.18042-214.09241c-.25195-2.37219-.5083-4.74231-.76514-7.11206l-767.38965,213.85461-745.35327-202.50903-.00049.00012ZM3477.60723,2858.95229c.26904,14.03491,9.85034,18.52417,21.52856,22.48706,55.67749,18.89258,135.97192,29.29175,214.71265,36.00903l-235.81055-63.88257c-.1438,1.7959-.28613,3.5896-.43066,5.38623v.00024ZM4795.77862,2916.69936c13.61475-1.62158,52.78491-7.21289,95.09888-14.26001l138.10474-38.5918c1.11621-5.85864.89795-14.26001-.03857-23.71387l-299.66284,83.74707c22.33667-2.19116,44.52637-4.56421,66.4978-7.18115v-.00024ZM3478.38457,2849.22987l261.26978,70.30127c50.10645,3.82935,98.38477,6.3606,137.93335,8.86206l-396.95508-107.51685c-.74341,9.44043-1.49243,18.8916-2.2478,28.35376l-.00024-.00024ZM4706.39727,2926.05605l322.10498-90.02148c-1.04541-9.00879-2.63037-18.7334-4.26611-27.99121l-458.59912,128.18701c47.42529-2.57666,94.42651-5.94116,140.76025-10.17407v-.00024Z" fill="#05173c"/>
  <path id="C2" d="M2232.99236,966.92799l-23.59265-22.71246,15.60742-4.31262,23.59265,22.78595-15.60754,4.23914h.00012ZM2322.59429,942.49519l-23.59302-22.71307-12.22241,3.30573,23.68701,22.71277,12.12842-3.30542ZM2273.32745,955.93276l-23.68701-22.71283-14.479,3.95294,23.68665,22.71277,14.47937-3.95288ZM2223.966,969.44405l-23.59241-22.78534-16.83008,4.59918,23.59302,22.71246,16.82935-4.52631h.00012ZM2297.96075,949.25044l-23.59229-22.78534-13.35132,3.66541,23.59302,22.71246,13.35059-3.59253ZM2174.60552,982.88185l-23.59314-22.78595-19.08618,5.24701,23.59302,22.71246,19.0863-5.17352ZM2199.33318,976.12636l-23.68701-22.71277-17.86414,4.88696,23.59302,22.71246,17.95825-4.88666h-.00012ZM1382.13439,971.49349l-23.74866,22.62231,406.32013,105.02307-.00574,1.67352,360.63818-104.49243-23.68652-22.71277-336.85114,98.02509-382.6662-100.13879h-.00006ZM2347.22832,935.73946l-23.59302-22.71252-11.00061,3.01855,23.59265,22.71246,11.0011-3.01849h-.00012ZM2421.22259,915.54579l-23.59302-22.71246-7.6156,2.0838,23.68665,22.71283,7.52197-2.08417ZM2544.57793,881.91438l-23.59302-22.71246-1.88037.5022,23.59302,22.71307,1.88037-.50281ZM2519.85027,888.66927l-23.59265-22.71252-2.91479.79065,23.59302,22.71246,2.91443-.79059ZM2371.95513,929.05678l-23.59229-22.78528-9.96619,2.73065,23.68652,22.71344,9.87195-2.65881ZM2569.21148,875.2314l-23.59265-22.78528-.65857.21564,23.59302,22.71307.65833-.14343h-.00012ZM2495.21673,895.42506l-23.59265-22.78534-4.13647,1.15002,23.59253,22.71246,4.1366-1.07715ZM2396.58868,922.30159l-23.59253-22.71246-8.74414,2.37067,23.59302,22.71313,8.74377-2.37134h-.00012ZM2470.58343,902.10799l-23.59302-22.71246-5.35901,1.43658,23.68652,22.71283,5.26538-1.43695h.00012ZM1357.45409,964.64076l-23.74908,22.62292,20.17639,5.59949,23.84308-22.6214-20.27039-5.60101ZM2445.94952,908.86318l-23.68628-22.78564-6.39343,1.79724,23.59302,22.71252,6.48682-1.72412h-.00012ZM2149.97185,989.56416l-23.59265-22.71246-20.2146,5.53387,23.59302,22.71252,20.21423-5.53394ZM1036.79266,875.63167l-23.84271,22.62195,5.34906,1.47351,23.74902-22.62231-5.25537-1.47314ZM1012.11193,868.77889l-23.84271,22.62201,4.12891,1.17853,23.84271-22.62201-4.12891-1.17853ZM1061.47338,882.48378l-23.84308,22.62201,6.47552,1.76929,23.74872-22.62231-6.38116-1.76898ZM1086.06005,889.3362l-23.74866,22.62231,7.60132,2.06396,23.74841-22.5495-7.60107-2.13678ZM987.43121,861.92616l-23.74902,22.62231,2.9093.81067,23.84247-22.54974-3.00275-.88324ZM1110.74078,896.18892l-23.74866,22.62231,8.72717,2.43146,23.74872-22.62231-8.72723-2.43146ZM938.06963,848.29353l-20.10583,19.09119c.09558.18787.19128.37451.28687.56201l20.4762-19.50525-.65723-.14795h-.00002ZM1332.77337,957.78859l-23.74866,22.62238,19.04987,5.30481,23.84265-22.62195-19.14386-5.30524ZM962.7503,855.14687l-23.74854,22.5495,1.78296.51544,23.74854-22.62299-1.78296-.44196ZM1283.41198,944.08376l-23.74908,22.6217,16.79822,4.6427,23.74902-22.62231-16.79816-4.64209ZM1234.14458,930.37917l-23.84271,22.62201,14.5451,4.05164,23.74908-22.62231-14.45148-4.05133ZM1135.42144,903.04109l-23.74902,22.62231,9.85376,2.72668,23.74908-22.62231-9.85382-2.72668ZM1308.09264,950.93587l-23.74866,22.62292,17.92395,4.93677,23.84247-22.54913-18.01776-5.01056ZM1258.82525,937.23134l-23.84265,22.62201,15.67163,4.34686,23.74908-22.62231-15.57806-4.34656ZM1160.10216,909.89381l-23.74878,22.55011,10.97961,3.09357,23.84314-22.62201-11.07397-3.02167ZM1209.46362,923.59871l-23.84283,22.54913,13.32599,3.68439,23.84241-22.54913-13.32556-3.68439ZM1184.78289,916.74654l-23.74841,22.5495,12.10541,3.38885,23.84247-22.54919-12.19946-3.38916ZM2248.59991,1599.76888l-23.59265-22.78589-15.60742,4.31262,23.59265,22.71246,15.60754-4.2392h-.00012ZM2322.59429,1579.57527l-23.59302-22.71307-12.22241,3.30566,23.68701,22.71283,12.12842-3.30542ZM2273.32745,1593.01283l-23.68701-22.71283-14.479,3.95288,23.68665,22.71283,14.47937-3.95288ZM2223.966,1606.52406l-23.59241-22.78528-16.83008,4.59918,23.59302,22.71246,16.82935-4.52637h.00012ZM2297.96075,1586.33046l-23.59229-22.78534-13.35132,3.66547,23.59302,22.71246,13.35059-3.59259ZM2174.60552,1619.96193l-23.59314-22.78595-19.08618,5.24701,23.59302,22.71246,19.0863-5.17352ZM2199.33318,1613.20644l-23.68701-22.71283-17.86414,4.88702,23.59302,22.71246,17.95825-4.88666h-.00012ZM1382.13439,1608.57356l-23.74866,22.62231,406.32013,105.02301-.00574,1.67346,360.63818-104.49243-23.68652-22.71277-336.85114,98.02515-382.6662-100.13879-.00006.00006ZM2347.22832,1572.81947l-23.59302-22.71246-11.00061,3.01849,23.59265,22.71252,11.0011-3.01855h-.00012ZM2421.22259,1552.62587l-23.59302-22.71246-7.6156,2.0838,23.68665,22.71283,7.52197-2.08417ZM2371.95513,1566.13686l-23.59229-22.78534-9.96619,2.73071,23.68652,22.71344,9.87195-2.65881ZM2396.58868,1559.38167l-23.59253-22.71246-8.74414,2.37067,23.59302,22.71307,8.74377-2.37128h-.00012ZM1357.45409,1601.72084l-23.74908,22.62292,20.17639,5.59949,23.84308-22.6214-20.27039-5.60101ZM2415.8698,1524.95485l23.59302,22.71246,4.54895-1.20898c-.12561-.91541-.24951-1.82812-.36926-2.73456l-21.37915-20.56616-6.39343,1.79724h-.00012ZM2149.97185,1626.64424l-23.59265-22.71246-20.2146,5.53387,23.59302,22.71246,20.21423-5.53387ZM1086.06005,1526.41628l-3.14203,2.99298c-.50665,3.62732-1.013,7.22644-1.51782,10.78577l12.26093-11.64197-7.60107-2.13678ZM1110.74078,1533.269l-23.74866,22.62231,8.72717,2.43146,23.74872-22.62231-8.72723-2.43146ZM1332.77337,1594.86867l-23.74866,22.62231,19.04987,5.30487,23.84265-22.62201-19.14386-5.30518ZM1283.41198,1581.16383l-23.74908,22.6217,16.79822,4.6427,23.74902-22.62231-16.79816-4.64209ZM1234.14458,1567.45924l-23.84271,22.62201,14.5451,4.05164,23.74908-22.62231-14.45148-4.05133ZM1135.42144,1540.12111l-23.74902,22.62238,9.85376,2.72668,23.74908-22.62231-9.85382-2.72675ZM1308.09264,1588.01595l-23.74866,22.62292,17.92395,4.93677,23.84247-22.54913-18.01776-5.01056ZM1258.82525,1574.31142l-23.84265,22.62195,15.67163,4.34692,23.74908-22.62238-15.57806-4.3465ZM1160.10216,1546.97389l-23.74878,22.55005,10.97961,3.09363,23.84314-22.62201-11.07397-3.02167ZM1209.46362,1560.67873l-23.84283,22.54919,13.32599,3.68439,23.84241-22.54913-13.32556-3.68445ZM1184.78289,1553.82662l-23.74841,22.5495,12.10541,3.38879,23.84247-22.54913-12.19946-3.38916ZM2248.59991,2236.84889l-23.59265-22.78589-15.60742,4.31274,23.59265,22.7124,15.60754-4.23926h-.00012ZM2322.59429,2216.65529l-23.59302-22.71301-12.22241,3.30566,23.68701,22.71277,12.12842-3.30542ZM2273.32745,2230.09291l-23.68701-22.71277-14.479,3.95288,23.68665,22.71277,14.47937-3.95288ZM2223.966,2243.60414l-23.59241-22.78528-16.83008,4.59912,23.59302,22.71252,16.82935-4.52637h.00012ZM2297.96075,2223.41054l-23.59229-22.78528-13.35132,3.66541,23.59302,22.71252,13.35059-3.59265ZM2174.60552,2257.04201l-23.59314-22.78589-19.08618,5.24695,23.59302,22.71252,19.0863-5.17358ZM2199.33318,2250.28651l-23.68701-22.71277-17.86414,4.88696,23.59302,22.7124,17.95825-4.8866h-.00012ZM1382.13439,2245.65358l-23.74866,22.62231,406.32013,105.02319-.00574,1.67346,360.63818-104.49243-23.68652-22.71277-336.85114,98.02515-382.6662-100.13892h-.00006ZM2347.22832,2209.89955l-23.59302-22.71252-11.00061,3.01855,23.59265,22.71252,11.0011-3.01855h-.00012ZM2421.22259,2189.70595l-23.59302-22.71252-7.6156,2.08386,23.68665,22.71277,7.52197-2.08411ZM2371.95513,2203.21693l-23.59229-22.78528-9.96619,2.73071,23.68652,22.71338,9.87195-2.65881ZM2396.58868,2196.46169l-23.59253-22.7124-8.74414,2.37061,23.59302,22.71313,8.74377-2.37134h-.00012ZM2446.69573,2159.8484c.03088-2.09375.07373-4.18005.14099-6.25146l-5.20532,1.39526,5.06421,4.8562h.00012ZM1357.45409,2238.80092l-23.74908,22.62292,20.17639,5.59949,23.84308-22.62146-20.27039-5.60095ZM2445.94952,2183.02333l-23.68628-22.78564-6.39343,1.79724,23.59302,22.7124,6.48682-1.724h-.00012ZM2149.97185,2263.72438l-23.59265-22.71252-20.2146,5.53381,23.59302,22.71252,20.21423-5.53381ZM1086.06005,2163.49635l-6.87482,6.54883c.01569,3.11829.00732,6.23804-.02795,9.35962l14.50385-13.77173-7.60107-2.13672ZM1110.74078,2170.34914l-23.74866,22.62231,8.72717,2.4314,23.74872-22.62231-8.72723-2.4314ZM1332.77337,2231.94875l-23.74866,22.62231,19.04987,5.30493,23.84265-22.62207-19.14386-5.30518ZM1283.41198,2218.24391l-23.74908,22.6217,16.79822,4.6427,23.74902-22.62231-16.79816-4.64209ZM1234.14458,2204.53932l-23.84271,22.62207,14.5451,4.05151,23.74908-22.62231-14.45148-4.05127ZM1135.42144,2177.20119l-23.74902,22.62231,9.85376,2.72681,23.74908-22.62231-9.85382-2.72681ZM1308.09264,2225.09596l-23.74866,22.62305,17.92395,4.93677,23.84247-22.54919-18.01776-5.01062ZM1258.82525,2211.3915l-23.84265,22.62195,15.67163,4.34692,23.74908-22.62231-15.57806-4.34656ZM1160.10216,2184.05397l-23.74878,22.55005,10.97961,3.09363,23.84314-22.62195-11.07397-3.02173ZM1209.46362,2197.7588l-23.84283,22.54919,13.32599,3.68445,23.84241-22.54919-13.32556-3.68445ZM1184.78289,2190.90675l-23.74841,22.54944,12.10541,3.38879,23.84247-22.54907-12.19946-3.38916ZM2248.59991,2873.92885l-23.59265-22.78589-15.60742,4.31274,23.59265,22.7124,15.60754-4.23926h-.00012ZM2322.59429,2853.73549l-23.59302-22.71289-12.22241,3.30566,23.68701,22.71289,12.12842-3.30542v-.00024ZM2273.32745,2867.17299l-23.68701-22.71289-14.479,3.95288,23.68665,22.71289,14.47937-3.95288ZM2223.966,2880.68422l-23.59241-22.7854-16.83008,4.59912,23.59302,22.7124,16.82935-4.52637.00012.00024ZM2297.96075,2860.49062l-23.59229-22.7854-13.35132,3.66553,23.59302,22.7124,13.35059-3.59253ZM2131.92632,2876.58315l18.92334,18.21704c7.86365-.26587,15.7312-.54321,23.60095-.82788l-23.43811-22.63623-19.08618,5.24707ZM2199.33318,2887.36659l-23.68701-22.71289-17.86414,4.88696,23.59302,22.7124,17.95825-4.88672-.00012.00024ZM1370.3894,2893.92177c20.5351.65698,41.04572,1.27197,61.53247,1.84082l-49.78748-13.02881-11.745,11.18799ZM2058.10052,2897.52089c18.38025-.4563,36.77454-.96631,55.18176-1.52124l-11.63049-11.15234-43.55115,12.67358h-.00012ZM2347.22832,2846.97963l-23.59302-22.7124-11.00061,3.01855,23.59265,22.7124,11.0011-3.01855h-.00012ZM2421.22259,2826.78603l-23.59302-22.7124-7.6156,2.08374,23.68665,22.71289,7.52197-2.08423ZM2519.85027,2799.90932l-23.59265-22.7124-2.91479.79053,23.59302,22.7124,2.91443-.79077v.00024ZM2371.95513,2840.29701l-23.59229-22.7854-9.96619,2.73071,23.68652,22.71338,9.87195-2.65869ZM2495.21673,2806.66518l-23.59265-22.7854-4.13647,1.15015,23.59253,22.7124,4.1366-1.07715ZM2396.58868,2833.54189l-23.59253-22.7124-8.74414,2.37061,23.59302,22.71313,8.74377-2.37134h-.00012ZM2470.58343,2813.34804l-23.59302-22.7124-5.35901,1.43652,23.68652,22.71289,5.26538-1.43701h.00012ZM1357.45409,2875.881l-17.87042,17.02295c8.40857.28613,16.81549.56958,25.21497.84155l12.92584-12.26367-20.27039-5.60083ZM2445.94952,2820.10341l-23.68628-22.78564-6.39343,1.79712,23.59302,22.7124,6.48682-1.72412-.00012.00024ZM2106.1646,2883.62587l12.68005,12.20703c8.37219-.25708,16.74866-.52661,25.12732-.80444l-17.59277-16.93628-20.2146,5.53369ZM1018.299,2810.96718l23.74902-22.62231-5.25537-1.47314-23.84271,22.62207,5.34906,1.47339ZM1012.11193,2780.01894l-5.27863,5.0083c-.13818,1.8313-.27264,3.65674-.40729,5.48242l9.81482-9.3125-4.12891-1.17847v.00024ZM1044.10583,2818.11513l23.74872-22.62231-6.38116-1.7688-23.84308,22.62207,6.47552,1.76929v-.00024ZM1069.91271,2825.26259l23.74841-22.54956-7.60107-2.13672-23.74866,22.62231,7.60132,2.06396ZM1095.71929,2832.48305l23.74872-22.62231-8.72723-2.4314-23.74866,22.62231,8.72717,2.4314ZM1332.77337,2869.02895l-23.74866,22.62231.74927.20874c7.60913.27368,15.2179.54663,22.81915.80884l19.3241-18.33472-19.14386-5.30518ZM1276.46111,2882.58852l23.74902-22.62231-16.79816-4.64209-23.74908,22.62158,16.79822,4.64258v.00024ZM1224.84698,2868.29311l23.74908-22.62231-14.45148-4.05127-23.84271,22.62207,14.5451,4.05151ZM1121.52618,2839.63051l23.74908-22.62231-9.85382-2.72681-23.74902,22.62231,9.85376,2.72681ZM1302.26794,2889.73598l23.84247-22.54907-18.01776-5.01074-23.74866,22.62305,17.92395,4.93677ZM1250.65423,2875.44057l23.74908-22.62231-15.57806-4.34668-23.84265,22.62207,15.67163,4.34692ZM1147.333,2846.77773l23.84314-22.62207-11.07397-3.02173-23.74878,22.55005,10.97961,3.09375ZM1198.94677,2861.07265l23.84241-22.54907-13.32556-3.68457-23.84283,22.54907,13.32599,3.68457ZM1173.13988,2853.92519l23.84247-22.54907-12.19946-3.38916-23.74841,22.54956,12.10541,3.38867ZM4725.21856,1599.76888l-23.59277-22.78589-15.60742,4.31262,23.59277,22.71246,15.60742-4.2392ZM4799.21294,1579.57527l-23.59302-22.71307-12.22241,3.30566,23.68701,22.71283,12.12842-3.30542ZM4749.9461,1593.01283l-23.68701-22.71283-14.479,3.95288,23.68652,22.71283,14.47949-3.95288ZM4700.58477,1606.52406l-23.59229-22.78528-16.83008,4.59918,23.59277,22.71246,16.82959-4.52637ZM4774.5794,1586.33046l-23.59229-22.78534-13.35132,3.66547,23.59302,22.71246,13.35059-3.59259ZM4651.22417,1619.96193l-23.59302-22.78595-19.08618,5.24701,23.59302,22.71246,19.08618-5.17352ZM4675.95171,1613.20644l-23.68701-22.71283-17.86401,4.88702,23.59302,22.71246,17.95801-4.88666ZM3858.75298,1608.57356l-23.74854,22.62231,406.32007,105.02301-.00586,1.67346,360.63843-104.49243-23.68677-22.71277-336.85107,98.02515-382.66626-100.13879v.00006ZM4823.84698,1572.81947l-23.59302-22.71246-11.00073,3.01849,23.59253,22.71252,11.00122-3.01855ZM4897.84136,1552.62587l-23.59302-22.71246-7.61572,2.0838,23.68677,22.71283,7.52197-2.08417ZM4848.57378,1566.13686l-23.59229-22.78534-9.96606,2.73071,23.68652,22.71344,9.87183-2.65881ZM4873.20733,1559.38167l-23.59253-22.71246-8.74414,2.37067,23.59302,22.71307,8.74365-2.37128ZM4918.25005,1517.91219l10.99341,10.54126c-.43042-2.57867-.8606-5.17462-1.29224-7.79779l-4.34204-4.18005-5.35913,1.43658ZM3834.07281,1601.72084l-23.74927,22.62292,20.17627,5.59949,23.84302-22.6214-20.27026-5.60101h.00024ZM4922.56817,1545.94325l-23.68628-22.78564-6.39355,1.79724,23.59302,22.71246,6.48682-1.72406ZM4626.59063,1626.64424l-23.59277-22.71246-20.2146,5.53387,23.59302,22.71246,20.21436-5.53387ZM3562.67876,1526.41628l-5.24438,4.99554c-.43896,3.5929-.86499,7.11371-1.28174,10.55511l14.1272-13.41388-7.60107-2.13678ZM3587.35943,1533.269l-23.74878,22.62231,8.72705,2.43146,23.74878-22.62231-8.72729-2.43146h.00024ZM3809.39214,1594.86867l-23.74878,22.62231,19.0498,5.30487,23.84277-22.62201-19.14404-5.30518h.00024ZM3760.03057,1581.16383l-23.74902,22.6217,16.79834,4.6427,23.74902-22.62231-16.79834-4.64209ZM3710.76324,1567.45924l-23.84277,22.62201,14.54517,4.05164,23.74902-22.62231-14.45142-4.05133ZM3612.04009,1540.12111l-23.74902,22.62238,9.85376,2.72668,23.74902-22.62231-9.85376-2.72675ZM3784.71123,1588.01595l-23.74854,22.62292,17.92383,4.93677,23.84253-22.54913-18.01782-5.01056ZM3735.4439,1574.31142l-23.84253,22.62195,15.67163,4.34692,23.74927-22.62238-15.57812-4.3465h-.00024ZM3636.72076,1546.97389l-23.74878,22.55005,10.97974,3.09363,23.84302-22.62201-11.07397-3.02167ZM3686.08233,1560.67873l-23.84302,22.54919,13.32593,3.68439,23.84229-22.54913-13.32544-3.68445h.00024ZM3661.40166,1553.82662l-23.74829,22.5495,12.10547,3.38879,23.84253-22.54913-12.19946-3.38916h-.00024ZM4725.21856,2236.84889l-23.59277-22.78589-15.60742,4.31274,23.59277,22.7124,15.60742-4.23926ZM4799.21294,2216.65529l-23.59302-22.71301-12.22241,3.30566,23.68701,22.71277,12.12842-3.30542ZM4749.9461,2230.09291l-23.68701-22.71277-14.479,3.95288,23.68652,22.71277,14.47949-3.95288ZM4700.58477,2243.60414l-23.59229-22.78528-16.83008,4.59912,23.59277,22.71252,16.82959-4.52637ZM4774.5794,2223.41054l-23.59229-22.78528-13.35132,3.66541,23.59302,22.71252,13.35059-3.59265ZM4651.22417,2257.04201l-23.59302-22.78589-19.08618,5.24695,23.59302,22.71252,19.08618-5.17358ZM4675.95171,2250.28651l-23.68701-22.71277-17.86401,4.88696,23.59302,22.7124,17.95801-4.8866ZM3858.75298,2245.65358l-23.74854,22.62231,406.32007,105.02319-.00586,1.67346,360.63843-104.49243-23.68677-22.71277-336.85107,98.02515-382.66626-100.13892ZM4823.84698,2209.89955l-23.59302-22.71252-11.00073,3.01855,23.59253,22.71252,11.00122-3.01855ZM4897.84136,2189.70595l-23.59302-22.71252-7.61572,2.08386,23.68677,22.71277,7.52197-2.08411ZM4848.57378,2203.21693l-23.59229-22.78528-9.96606,2.73071,23.68652,22.71338,9.87183-2.65881ZM4944.10625,2147.94997l14.97656,14.41797c-.07837-1.77466-.16016-3.54834-.23315-5.32422l-10.60693-10.2439-4.13647,1.15015ZM4873.20733,2196.46169l-23.59253-22.7124-8.74414,2.37061,23.59302,22.71313,8.74365-2.37134ZM4947.2022,2176.26808l-23.59302-22.7124-5.35913,1.43652,23.68677,22.71289,5.26538-1.43701ZM3834.07281,2238.80092l-23.74927,22.62292,20.17627,5.59949,23.84302-22.62146-20.27026-5.60095h.00024ZM4922.56817,2183.02333l-23.68628-22.78564-6.39355,1.79724,23.59302,22.7124,6.48682-1.724ZM4626.59063,2263.72438l-23.59277-22.71252-20.2146,5.53381,23.59302,22.71252,20.21436-5.53381ZM3562.67876,2163.49635l-15.34863,14.62073c.24976,2.87268.49536,5.745.73145,8.61267l22.21826-21.09668-7.60107-2.13672ZM3587.35943,2170.34914l-23.74878,22.62231,8.72705,2.4314,23.74878-22.62231-8.72729-2.4314h.00024ZM3809.39214,2231.94875l-23.74878,22.62231,19.0498,5.30493,23.84277-22.62207-19.14404-5.30518h.00024ZM3760.03057,2218.24391l-23.74902,22.6217,16.79834,4.6427,23.74902-22.62231-16.79834-4.64209ZM3710.76324,2204.53932l-23.84277,22.62207,14.54517,4.05151,23.74902-22.62231-14.45142-4.05127ZM3612.04009,2177.20119l-23.74902,22.62231,9.85376,2.72681,23.74902-22.62231-9.85376-2.72681ZM3784.71123,2225.09596l-23.74854,22.62305,17.92383,4.93677,23.84253-22.54919-18.01782-5.01062ZM3735.4439,2211.3915l-23.84253,22.62195,15.67163,4.34692,23.74927-22.62231-15.57812-4.34656h-.00024ZM3636.72076,2184.05397l-23.74878,22.55005,10.97974,3.09363,23.84302-22.62195-11.07397-3.02173ZM3686.08233,2197.7588l-23.84302,22.54919,13.32593,3.68445,23.84229-22.54919-13.32544-3.68445h.00024ZM3661.40166,2190.90675l-23.74829,22.54944,12.10547,3.38879,23.84253-22.54907-12.19946-3.38916h-.00024ZM4725.21856,2873.92885l-23.59277-22.78589-15.60742,4.31274,23.59277,22.7124,15.60742-4.23926ZM4799.21294,2853.73549l-23.59302-22.71289-12.22241,3.30566,23.68701,22.71289,12.12842-3.30542v-.00024ZM4749.9461,2867.17299l-23.68701-22.71289-14.479,3.95288,23.68652,22.71289,14.47949-3.95288ZM4700.58477,2880.68422l-23.59229-22.7854-16.83008,4.59912,23.59277,22.7124,16.82959-4.52637v.00024ZM4774.5794,2860.49062l-23.59229-22.7854-13.35132,3.66553,23.59302,22.7124,13.35059-3.59253ZM4651.22417,2894.12221l-23.59302-22.78589-19.08618,5.24707,23.59302,22.7124,19.08618-5.17358ZM4675.95171,2887.36659l-23.68701-22.71289-17.86401,4.88696,23.59302,22.7124,17.95801-4.88672v.00024ZM4578.27032,2884.84755l-198.01221,57.62256c37.09985-.53467,74.14453-1.46631,111.02295-2.84204l110.67603-32.06738-23.68677-22.71289v-.00024ZM3835.00445,2905.35585l103.6084,26.78003c43.8335,2.51074,88.31299,4.64526,133.19897,6.35229l-213.05884-55.75488-23.74854,22.62231v.00024ZM4823.84698,2846.97963l-23.59302-22.7124-11.00073,3.01855,23.59253,22.7124,11.00122-3.01855ZM4897.84136,2826.78603l-23.59302-22.7124-7.61572,2.08374,23.68677,22.71289,7.52197-2.08423ZM5021.19659,2793.15468l-23.59326-22.7124-1.88037.5022,23.59326,22.71313,1.88037-.50293ZM4996.46905,2799.90932l-23.59277-22.7124-2.91455.79053,23.59326,22.7124,2.91455-.79077-.00049.00024ZM4848.57378,2840.29701l-23.59229-22.7854-9.96606,2.73071,23.68652,22.71338,9.87183-2.65869ZM4971.83575,2806.66518l-23.59277-22.7854-4.13647,1.15015,23.59253,22.7124,4.13672-1.07715ZM4873.20733,2833.54189l-23.59253-22.7124-8.74414,2.37061,23.59302,22.71313,8.74365-2.37134ZM4947.2022,2813.34804l-23.59302-22.7124-5.35913,1.43652,23.68677,22.71289,5.26538-1.43701ZM3830.50005,2904.10341l23.84302-22.62158-20.27026-5.60083-23.74927,22.6228,20.17627,5.59961h.00024ZM4922.56817,2820.10341l-23.68628-22.78564-6.39355,1.79712,23.59302,22.7124,6.48682-1.72412v.00024ZM4626.59063,2900.80434l-23.59277-22.7124-20.2146,5.53369,23.59302,22.7124,20.21436-5.53369ZM3494.91778,2810.96718l23.74927-22.62231-5.25537-1.47314-23.84253,22.62207,5.34912,1.47339h-.00049ZM3488.73052,2780.01894l-5.28369,5.01343c-.1438,1.83496-.28784,3.66992-.43164,5.50537l9.84424-9.34033-4.12891-1.17847ZM3520.72442,2818.11513l23.74878-22.62231-6.3811-1.7688-23.84326,22.62207,6.47534,1.76929.00024-.00024ZM3546.5313,2825.26259l23.74854-22.54956-7.60107-2.13672-23.74878,22.62231,7.60132,2.06396ZM3572.33794,2832.48305l23.74878-22.62231-8.72729-2.4314-23.74878,22.62231,8.72705,2.4314h.00024ZM3804.69317,2896.95595l23.84277-22.62207-19.14404-5.30518-23.74878,22.62231,19.0498,5.30493h.00024ZM3753.07989,2882.58852l23.74902-22.62231-16.79834-4.64209-23.74902,22.62158,16.79834,4.64258v.00024ZM3701.46563,2868.29311l23.74902-22.62231-14.45142-4.05127-23.84277,22.62207,14.54517,4.05151ZM3598.14483,2839.63051l23.74902-22.62231-9.85376-2.72681-23.74902,22.62231,9.85376,2.72681ZM3778.88653,2889.73598l23.84253-22.54907-18.01782-5.01074-23.74854,22.62305,17.92383,4.93677ZM3727.27276,2875.44057l23.74927-22.62231-15.57812-4.34668-23.84253,22.62207,15.67163,4.34692h-.00024ZM3623.95171,2846.77773l23.84302-22.62207-11.07397-3.02173-23.74878,22.55005,10.97974,3.09375ZM3675.56548,2861.07265l23.84229-22.54907-13.32544-3.68457-23.84302,22.54907,13.32593,3.68457h.00024ZM3649.7586,2853.92519l23.84253-22.54907-12.19946-3.38916-23.74829,22.54956,12.10547,3.38867h-.00024Z" fill="#eff0f1"/>
</svg>