<?xml version="1.0" encoding="UTF-8"?>
<svg id="Layer_8" xmlns="http://www.w3.org/2000/svg" version="1.1" viewBox="0 0 6000 3000">
  <!-- Generator: Adobe Illustrator 30.5.1, SVG Export Plug-In . SVG Version: 2.1.4 Build 3)  -->
  <path id="C1" d="M2367.60461,336.74844h-260.17053c.47095-.67621.90918-1.31458,1.31433-1.91309,1.50598-2.22498,2.56445-3.91205,3.16284-4.9707,5.77783-10.22223,46.66675-61.77777,57.77783-84,1.58093-3.16193,3.48633-6.95563,5.54065-11.20685h6.76648c11.39954,6.56091,39.20496,22.39716,63.24841,34.76239,30.92773,15.9057,105.32861,54.64648,122.35986,67.32825h.00012ZM1269.46698,263.19796c-12.05005,8.43506-90.52594,54.43854-125.20544,73.55049h258.12103c-.87415-1.1123-1.73511-2.20197-2.58087-3.26276-.86572-1.08582-1.71857-2.14691-2.55695-3.17664-35.07654-43.08307-56.41473-84.69172-61.77277-95.65125h-7.76733c-14.20294,6.22217-47.81976,21.24762-58.23767,28.54016ZM872.13366,755.19796c.40857,1.52136.83398,3.047,1.26697,4.5744h1778.64441c6.63977-26.94238,12.18945-63.49481,11.86633-89.01886-.04993-3.94263-.47241-8.3421-1.20605-13.07178H858.5321c-.7876,27.99695,3.67664,60.5542,13.60156,97.51624ZM1006.66784,1110.01455c-.00012-.00153-.00024-.00281-.00037-.00433,1.97894,5.40509,9.11432,24.16919,14.7995,29.85437,5.57288,5.57288,21.85925,23.2594,36.78925,42.93164h1399.49561c5.1344-8.7077,9.72644-15.71118,13.04846-20.93164,8.50916-13.37152,30.30811-35.04584,34.09326-38.771-.00024.0014-.00061.00275-.00073.00415,1.62012-8.61328,3.97522-18.3927,7.46301-32.34424.85803-3.43219,1.7428-6.78021,2.64722-10.04785H1001.51658c2.80579,13.15448,4.66412,23.64148,5.15125,29.3089h.00002ZM1073.46698,1586.53121c-1.16254,7.42236-2.09698,13.77637-2.85358,19.28894h1383.02063c-4.39941-22.46472-10.73352-56.50598-12.83374-81.28882-.56299-6.64258-1.28064-13.5957-2.10608-20.80176h-1353.29913c-4.03607,29.80261-8.27771,59.49548-11.9281,82.80176v-.00012ZM1076.12488,2028.84408h1376.69629c1.95251-33.91821,3.69934-67.79993,4.68237-102.09058h-1383.43835c.77563,34.03552,1.45111,68.0686,2.05969,102.09058ZM1041.16315,2451.868h1449.14154c-4.95837-32.63501-11.99646-67.16187-19.01697-102.09058h-1412.57703c-5.94537,34.01758-12.28162,68.07446-17.54755,102.09058ZM1002.02386,2844.30941c-.93811,17.64062,4.20087,26.29175,22.33069,29.63086,1.78656.3291,3.59045.63867,5.39117.95166h1469.27881c12.18457-2.09497,21.91016-4.34741,23.48706-6.34497,8.93945-30.53027.62427-63.75122-4.92102-95.74561H1006.80469c-1.91742,24.38086-3.5481,48.32666-4.78082,71.5083v-.00024ZM3562.94629,336.74844h1373.65698c-63.23267-46.62042-124.82886-81.9104-160.77954-102.09064h-1055.67383c-22.90161,13.8288-102.73877,64.01611-157.20361,102.09064ZM3376.46704,726.19796c1.54175,11.039,3.6228,22.26111,6.17798,33.5744h1725.14771c8.0249-30.50464,16.16455-69.55701,19.93506-102.09064h-1758.71777c1.38208,21.13623,4.02124,43.91754,7.45679,68.51624h.00024ZM3518.13354,1103.86459c16.68677,17.79907,34.1958,49.00403,47.48486,78.93164h1359.72778c17.50244-27.4068,60.25659-79.79901,76.31128-102.09058h-1506.33716c6.60889,6.35907,14.27197,14.04852,22.81299,23.15894h.00024ZM3551.46704,1570.53121c-1.08154,7.57007-3.55908,20.2594-6.72778,35.28894h1397.74121c-7.10132-37.55249-12.10352-65.92285-17.68018-100.62219-.07739-.48132-.15747-.97363-.23804-1.46838h-1364.63037c-3.39136,25-5.9292,49.05139-8.46484,66.80176v-.00012ZM3538.97827,2028.84408h1418.73389c.71143-33.76001,1.36328-67.81677,2.01416-102.09058h-1422.87549c.68164,34.02502,1.36084,68.05884,2.12744,102.09058ZM3514.49731,2451.868h1473.72656c-4.55566-34.07349-9.08545-68.06812-13.23291-102.09058h-1445.3877c-5.6853,34.10327-10.66455,68.11743-15.10571,102.09058h-.00024ZM3476.74365,2857.56527c.16797,8.76831,3.97095,13.81055,9.64868,17.32666h1527.69531c5.47705-1.92798,9.29248-3.75122,10.98193-5.41748,10.80957-10.66333-4.5249-73.8313-7.64941-96.6731h-1533.98608c-2.21191,28.16919-4.41162,56.41382-6.69067,84.76416l.00024-.00024Z" fill="#a41123"/>
  <path id="C2" d="M2521.38257,441.49844h-517.76489c54.51599-41.94812,88.29785-83.12573,101.93201-102.09064h265.69519c19.10193,13.54364,66.03442,41.39288,121.99976,80.23462,9.87915,6.85638,19.25745,14.23199,28.13794,21.85602ZM1134.80029,341.86465c-23.40485,12.2876-93.02612,60.52252-137.65405,99.63379h502.86676c-47.82086-38.71136-75.55627-76.45917-95.54871-102.09064h-265.06714c-1.69299.91693-3.23749,1.74316-4.59686,2.45685ZM1139.39715,339.4078h265.06714c-.70331-.90173-1.39703-1.78815-2.08173-2.65936h-258.12103c-1.73706.95728-3.36096,1.84515-4.86438,2.65936ZM2367.91137,336.97573c-.09692-.07336-.20581-.1521-.30676-.22729h-260.17053c-.57678.828-1.20874,1.7196-1.8844,2.65936h265.69519c-1.22534-.86884-2.34229-1.68188-3.33362-2.43207h.00012ZM916.35094,864.52236h1694.85877c12.7135-27.35992,26.28845-62.56561,33.14612-79.54663,2.32324-5.75269,4.72888-13.54517,7.02539-22.54401H874.16357c10.10352,34.61542,26.17749,70.51111,42.18738,102.09064h-.00001ZM874.16357,762.43173h1777.21765c.22266-.8725.44324-1.76489.6637-2.65936H873.40063c.2511.88574.50391,1.77179.76294,2.65936ZM1066.80029,1194.53127c16.66669,24,30,48,36.03296,80.66669.77136,4.17688,1.34265,8.30872,1.75641,12.34827h1315.87567c1.42212-14.08911,4.04797-27.72571,8.33496-41.01495,8.11377-25.15253,18.44653-45.60468,27.39856-61.07562h-1395.94037c2.23798,3.00189,4.43274,6.03857,6.54181,9.07562ZM1060.25848,1185.45565h1395.94025c.52271-.90338,1.04053-1.79016,1.5531-2.65942h-1399.49561c.67029.88318,1.33856,1.7691,2.00226,2.65942ZM1065.33764,1663.64828c.72272,15.63562,1.38885,31.27734,2.02856,46.92188h1393.42346c.5542-15.04944,1.17639-30.11157,1.854-45.18042-4.50708-32.85181-4.51013-33.55591-4.51013-36.19177,0-.91882-1.66223-8.96204-3.97742-20.71838h-1383.90222c-4.13898,31.02368-2.32874,33.8374-4.91626,55.1687ZM1070.2539,1608.47958h1383.90222c-.17041-.8656-.34497-1.75488-.52222-2.65942h-1383.02051c-.12512.91125-.2439,1.79309-.3595,2.65942ZM1077.84424,2133.59408h1369.00122c1.74158-34.39124,3.86584-68.27356,5.82214-102.09058h-1376.49451c.60571,34.04553,1.15149,68.07898,1.67114,102.09058ZM1076.17309,2031.5035h1376.49463c.05127-.88647.10242-1.77307.15344-2.65942h-1376.69629c.01587.88635.03241,1.77307.04822,2.65942ZM1034.1513,2503.75887c-1.9245,17.25659-3.90552,34.92188-5.89935,52.85913h1472.9873c-2.0155-26.85913-4.41516-53.68091-7.61023-80.41821-.8501-7.11353-1.83655-14.3457-2.92737-21.67212h-1449.94354c-2.51501,16.42358-4.7785,32.83716-6.60681,49.23145v-.00024ZM1040.75812,2454.52743h1449.94354c-.13196-.88623-.26184-1.77051-.39685-2.65942h-1449.14166c-.13721.88672-.26923,1.77295-.40503,2.65942ZM1296.29169,2890.02206c344.08966,12.65527,679.72906,13.72046,1023.87579-3.79883,41.078-2.09131,82.87512-.22803,123.91833-4.08667,5.74109-.53955,21.70764-2.31299,37.76721-4.58545h-1435.3938c79.67615,11.5437,170.70898,9.5603,249.83246,12.47046v.00049ZM1046.45923,2877.55135h1435.3938c5.87732-.83179,11.76587-1.72998,17.17151-2.65942h-1469.27881c5.5097.95752,11.08197,1.84351,16.7135,2.65942ZM3545.46704,349.19796c-45.15381,32.88989-82.1394,66.70575-104.54736,92.30048h1613.47217c-10.6875-12.58124-23.1001-25.58276-37.59131-38.96716-24.63574-22.75366-50.71924-43.87775-76.60742-63.12347h-1381.03833c-4.80444,3.38293-9.38867,6.65887-13.6875,9.79016h-.00024ZM3559.15454,339.4078h1381.03833c-1.19702-.88983-2.39355-1.77759-3.5896-2.65936h-1373.65698c-1.2771.89276-2.5437,1.78058-3.79175,2.65936ZM3418.22339,864.52236h1645.68896c10.54492-24.82495,21.19336-47.73175,26.8877-55.3244,3.80957-5.07922,9.9707-23.13354,16.28613-46.76624h-1723.82593c7.91333,34.08942,20.10132,68.94153,34.96338,102.09064h-.00024ZM3383.26025,762.43173h1723.82593c.23584-.88086.47119-1.76337.70654-2.65936h-1725.14795c.19995.88556.40967,1.77277.61548,2.65936ZM3586.80029,1244.53127c1.61816,8.98987,1.92529,24.43512,1.31738,43.01495h1313.3584c1.12183-49.03577,7.78198-76.70514,19.99097-98.34827.6604-1.17065,1.40186-2.42236,2.21191-3.74231h-1356.88916c10.01245,22.92163,17.44678,44.83301,20.0105,59.07562ZM3566.78979,1185.45565h1356.88916c.52563-.85669,1.08325-1.745,1.66724-2.65942h-1359.72778c.39429.88782.78467,1.77423,1.17139,2.65942ZM3530.58154,1669.52255c.00146-.00659.00293-.01343.00464-.02002-.05493-2.60278-.11279-5.20398-.1665-7.80737.05371,2.60913.10693,5.21887.16187,7.82739ZM3530.58618,1669.50265c.28833,13.69849.5896,27.38965.92334,41.06763h1432.89258c.06641-2.46631.12939-4.93237.19727-7.39868-.00195.06372-.00342.12756-.00537.19141-6.74072-26.93628-15.7959-64.34143-20.46069-88.83154-.38989-2.04773-.77197-4.05884-1.14966-6.05176h-1398.80762c-3.98584,18.77417-8.94995,40.82532-13.59009,61.02307l.00024-.00012ZM3544.17602,1608.47958h1398.80762c-.16895-.89099-.33691-1.77881-.50342-2.65942h-1397.74121c-.18481.87695-.37378,1.76709-.56299,2.65942ZM3540.79858,2101.52609c.28613,10.04956.98999,20.85291,1.8833,32.06799h1414.55273c-.65723-23.93103-.77783-47.9823-.23047-72.19214.22461-9.9342.43994-19.90784.65137-29.89844h-1418.61621c.52954,23.34338,1.09448,46.68579,1.75903,70.02258h.00024ZM3539.03955,2031.5035h1418.61597c.01904-.88611.03711-1.77295.05615-2.65942h-1418.73364c.02002.8866.04126,1.77295.06128,2.65942h.00024ZM3502.31982,2556.618h1499.55493c-4.21289-34.18213-8.76123-68.17725-13.29541-102.09058h-1474.43091c-4.42383,34.05322-8.31299,68.06738-11.82837,102.09058h-.00024ZM3514.14819,2454.52743h1474.43115c-.11865-.88647-.23682-1.77295-.35547-2.65942h-1473.72632c-.11597.88623-.23389,1.77295-.34912,2.65942h-.00024ZM3498.27221,2880.05233c99.39575,33.72729,277.24487,40.38916,384.6499,47.3501,293.30151,19.00928,620.05249,22.68115,911.99292-12.08984,27.54004-3.28027,159.64087-22.80298,210.81958-37.76123h-1514.11572c2.09912.90039,4.33203,1.71338,6.65381,2.50122l-.00049-.00024ZM3491.61841,2877.55135h1514.11572c3.0957-.90479,5.89111-1.79248,8.35352-2.65942h-1527.69531c1.60376.99292,3.36304,1.86035,5.22607,2.65942Z"/>
</svg>