<?xml version="1.0" encoding="UTF-8"?>
<svg id="Layer_8" xmlns="http://www.w3.org/2000/svg" version="1.1" viewBox="0 0 6000 3000">
  <!-- Generator: Adobe Illustrator 30.5.1, SVG Export Plug-In . SVG Version: 2.1.4 Build 3)  -->
  <path id="C1" d="M1764.9469,1029.13525l881.34753-245.57776c-.35962.97583-.71875,1.92212-1.07495,2.80499-2.95825,7.32471-7.16846,18.04675-12.01807,30.06323l-868.35522,241.96246.00549-1.60071-868.19928-234.37872c-4.68457-10.77295-9.1134-21.72882-13.10156-32.69641l881.39606,239.42291ZM873.67145,759.04406c2.37549,8.58722,5.13818,17.26898,8.1958,25.96082l883.09393,239.98267,882.91479-245.96863c2.34424-7.13116,4.69824-15.9693,6.87427-25.69446l-889.70728,247.94067-891.37152-242.22101v-.00006ZM866.46356,729.12786c1.30444,6.32843,2.7887,12.8045,4.45349,19.427l894.15936,242.95905,891.854-248.55219c1.23242-6.21759,2.37329-12.65399,3.38379-19.13751l-895.17529,249.49725-898.67548-244.1936h.00012ZM865.12238,700.75768c-.20227,4.14655-.31079,8.36682-.51367,12.65967l900.58514,243.96796-.00244.72784,897.30225-250.0777c.53247-4.45776.98486-8.86176,1.34375-13.15662l-898.60156,250.42676-900.11322-244.54791h-.00024ZM866.06329,673.03552c-.0083,2.40137-.1106,4.80243-.2124,7.20349l899.45721,243.96405-.00146.43646-.00037.07281,899.474-250.6839c-.00098-.63086.00244-1.26996-.00537-1.88818-.02173-1.70367-.11401-3.49426-.26929-5.35767l-899.17407,250.57996-899.26837-244.32703h.00012ZM992.44739,1040.25781c.6745,2.60913,1.33392,5.19946,1.97797,7.76489l769.73969,208.22363-.00122.36365,764.53418-213.63049c1.05957-2.81104,2.1084-5.52295,3.14038-8.1427l-767.64941,214.49622-771.74133-209.0752h-.00024ZM1764.16345,1256.68286l.00024-.07288h0l-.00024.07288ZM982.40387,1004.02526c1.35211,4.53729,2.68506,9.1438,3.9884,13.77637l777.87018,210.13757-.00244.72839,777.10132-217.16266c.40796-.99438.80786-1.97186,1.19165-2.92023,1.11963-2.76599,2.81836-6.74933,4.94336-11.59705l-783.19226,218.8717-781.90015-211.83417-.00006.00006ZM970.34869,967.45831c2.31384,6.20062,4.64893,12.987,6.96216,20.14014l787.04498,213.1983,790.82483-220.99524c2.97559-6.55121,6.25635-13.67468,9.67798-20.98914l-800.43982,223.71912-794.07007-215.07318h-.00006ZM951.41266,928.7785c3.07666,5.39227,5.86084,10.25,8.25122,14.4729,2.04199,3.60754,4.16772,8.08362,6.33813,13.21918l798.45038,216.30969,805.67163-225.13568c4.4812-9.42896,9.05249-18.8457,13.37207-27.46228l-818.96179,228.87555-813.12134-220.27936h-.00031ZM929.52509,889.46038c6.80139,12.65338,13.29297,24.21021,18.96924,34.19519l816.05963,219.58099-.00549,1.60132,821.42932-229.57245c4.97339-9.77832,9.50244-18.22125,13.01953-24.01404,1.84448-3.03796,3.78955-6.5589,5.79785-10.43079l-840.146,234.83649-835.1239-226.19672h-.00018ZM1089.25708,1482.67065c-1.21094,9.18994-2.46118,18.52173-3.72705,27.80762l679.32178,183.3894-.00549,1.60071,674.97034-188.07678c-1.01172-9.02466-2.20605-18.4707-3.49951-28.24597l-671.37012,187.06982-675.68982-183.5448h-.00012ZM1092.755,1455.65783c-.9458,7.44031-1.9375,15.12244-2.9613,22.93152l675.16748,183.47827,670.82886-186.88428c-.99756-7.46301-2.04468-15.1062-3.1062-22.89429l-667.64099,186.05603-672.28784-182.68738h0v.00012ZM1096.11682,1428.61083c-.68005,5.6156-1.40735,11.51318-2.17273,17.62463l671.13232,182.35852,666.33154-185.70093c-.78149-5.78357-1.56201-11.63574-2.32837-17.54053l-663.94055,185.04907-669.02209-181.79077h-.00012ZM1099.2782,1401.45458c-.41687,3.78491-.88098,7.87598-1.38818,12.23865l667.30396,180.77234-.00244.72778,662.03528-184.50879c-.50317-4.10852-.99365-8.23535-1.46729-12.37671l-660.52368,184.07812-665.95728-180.93115h0l-.00037-.00024ZM1102.01697,1374.22314c-.19202,2.16467-.4082,4.49902-.64563,6.97729l663.93677,180.08276-.00146.4364-.00037.07275,658.31921-183.474c-.23877-2.39111-.47192-4.77173-.69458-7.13416l-657.59912,183.25842-663.3147-180.21948h-.00012ZM1764.16345,1893.76293l.00024-.07288h0l-.00024.07288ZM1067.64697,1697.71057c.10303,2.42627.1969,4.85364.29785,7.28015l696.22021,188.33582-.00122.36365,697.9978-195.03845c.09668-2.44897.19214-4.89783.29199-7.34729l-698.26465,195.10876-696.54175-188.70264h-.00024ZM1066.34314,1663.84631c-.04578.38989-.09314.78601-.14197,1.18872.17786,3.84766.33997,7.6969.51257,11.54517l697.54846,188.43896-.00244.72839,699.08862-195.36182c.05347-1.20325.10474-2.40613.15869-3.60925-.44995-3.27893-.85303-6.22461-1.21753-8.89685l-697.98584,195.05981-697.96094-189.09326v.00012h.00037ZM1068.73914,1631.18737c-.60205,7.27124-.75476,12.30444-1.09204,17.96179l696.70874,188.72754,695.9801-194.49097c-1.33545-10.13196-1.33887-11.04419-1.33887-12.80115,0-.3949-.30884-2.11377-.84253-4.86902l-693.73584,193.89587-695.67969-188.42419.00012.00012ZM1072.68787,1598.71276c-1.40027,9.5072-2.35132,16.90051-3.0177,22.92285l694.78223,188.22473,691.88477-193.33936c-1.21875-6.13391-2.75195-13.88318-4.37671-22.49841l-687.42651,192.11536-691.84607-187.42517h0ZM1077.56836,1566.63867c-1.11475,7.5116-2.20032,14.65564-3.23779,21.27942-.34985,2.23425-.67761,4.36426-.98767,6.41113l691.21106,185.98743-.00549,1.60132,686.66052-191.90747c-1.63403-8.79077-3.32251-18.31348-4.84668-27.82507l-681.71362,190.55164-687.08057-186.09863h0l.00024.00024ZM1078.4259,2116.80859c.15015,9.65259.29871,19.30322.44495,28.95215l685.98071,185.18701-.00549,1.60059,682.49719-190.17407c.48413-9.92163.99585-19.80835,1.53857-29.64966l-683.93506,190.5708-686.521-186.48682h.00012ZM1077.98059,2088.72314c.12817,7.94751.25513,15.8938.37927,23.83911l686.6012,186.58545,684.15588-190.59692c.45044-8.06958.91333-16.11572,1.38379-24.14673l-685.45801,191.02124-687.06226-186.70215h.00012ZM1077.51709,2060.63671c.10291,6.09985.2052,12.19922.30505,18.2981l687.25427,186.73926,686.00537-191.18384c.36499-6.17212.73071-12.33667,1.09595-18.49512l-687.03882,191.48682-687.62195-186.84497.00012-.00024ZM1077.02942,2032.48998c.07532,4.23108.15076,8.46216.22424,12.69287l687.94019,186.36255-.00244.72778,687.89771-191.71667c.25342-4.33289.50171-8.66345.74951-12.99414l-688.60303,191.90344-688.20605-186.97571-.00012-.00012ZM1076.5144,2004.37414c.04541,2.40039.09119,4.80078.13586,7.20105l688.65784,186.78809-.00146.43628-.00037.073,689.69885-192.21948c.13379-2.47766.2605-4.9574.39038-7.43591l-690.06384,192.30554-688.81726-187.14844v-.00012ZM1062.63159,2333.43188c-.38879,2.29395-.78308,4.58862-1.17749,6.88306l702.71082,190.09155-.00122.36377,704.53479-196.86499c-.45581-2.29468-.90967-4.5896-1.36206-6.88501l-703.14771,196.47314-701.55713-190.06128v-.00024ZM1764.16345,2530.84301l.00024-.073h0l-.00024.073ZM1067.83252,2301.32983c-.6189,4.03882-1.25098,8.07886-1.89905,12.11963l698.32886,188.6499-.00244.72827,699.27966-195.41504c-.77002-4.05957-1.52832-8.11597-2.27124-12.16748l-696.96436,194.77441-696.47144-188.6897ZM1072.36987,2269.25097c-.75293,5.86621-1.55859,11.73584-2.39868,17.60791l694.38464,188.09814,694.35071-194.03564c-1.0166-5.84033-1.99268-11.66406-2.91919-17.46387l-691.3689,193.23438-692.04883-187.44092h.00024ZM1076.01111,2236.69311c-.72314,7.68506-1.54297,15.37598-2.4613,23.07373l690.90247,187.17358,689.89099-192.78223c-1.15576-7.66846-2.21118-15.28687-3.14844-22.84155l-686.66089,191.90137-688.52283-186.5249ZM1078.396,2203.94287c-.47424,9.41919-1.14624,18.85034-1.98376,28.29248l688.14172,185.16162-.00549,1.60132,686.1488-191.7644c-1.13745-9.59302-2.06787-19.07324-2.75122-28.41064l-683.29712,190.99414-686.25293-185.87451ZM2020.53357,2898.38281l495.72815-138.13208c-.49854-3.65186-.92236-7.28003-1.23706-10.87769-.51245-5.86035-.9978-11.72412-1.46362-17.59033l-604.33838,168.39209c37.07556-.40503,74.17297-1.00293,111.31091-1.79199ZM1008.49713,2763.84277l495.36615,133.729c37.06836.83716,74.08008,1.52759,111.05127,2.04907l-604.00812-164.073c-.83868,9.47681-1.64471,18.91528-2.40924,28.29492h-.00006ZM1011.27264,2731.41137l619.7558,168.42017c30.16394.38721,60.30615.66748,90.43591.83203l-708.06549-192.40967c-.72906,7.73755-1.43762,15.45874-2.12616,23.15747v-.00024l-.00006.00024ZM1893.82678,2900.32763l619.42761-172.56445c-.60327-7.75879-1.17212-15.52222-1.71289-23.28931l-704.58899,196.35254c28.95447-.05298,57.90979-.2229,86.87451-.49878h-.00024ZM1016.0354,2681.01074c-.58612,5.91846-1.16467,11.83472-1.73199,17.74512l743.59674,202.04834c4.68909.01123,9.37805.02417,14.06677.02954l738.91614-205.92969c-.39917-5.95386-.78662-11.90967-1.16382-17.8667l-744.58032,207.52441-749.10364-203.55103h.00012ZM1018.78937,2653.74706c-.42352,4.11035-.84296,8.22314-1.25977,12.33667l747.66425,202.54175-.00244.72778,743.59644-207.23999c-.25684-4.18994-.51123-8.38037-.76416-12.57129l-742.78796,207.00391-746.44617-202.79883h-.00018ZM1021.63916,2626.54492c-.24744,2.32837-.49475,4.65674-.74078,6.98853l744.40973,201.90991-.00146.43628-.00037.073,741.4967-206.65576c-.14502-2.40137-.29248-4.80249-.43848-7.20386l-741.03271,206.50952-743.69257-202.05786h-.00006v.00024ZM1025.21814,2875.32739c30.57849,5.63208,63.27869,8.87109,96.65393,10.87012l-118.89105-32.20825c1.11755,12.1521,7.21552,18.57129,22.23712,21.33838v-.00024ZM2444.94946,2883.52343c12.57812-1.18237,74.23755-8.28418,78.42578-13.58984,2.17969-7.4436,3.32471-15.04834,3.74292-22.75513l-139.48291,38.9812c19.1687-.2937,38.32202-.85083,57.31421-2.63623ZM1002.88745,2845.69653c-.07025,1.32129-.10181,2.58618-.10095,3.80811l140.55847,37.8208c39.33618,1.77759,79.17407,2.18262,117.21924,3.03882l-256.22858-69.40063c-.52673,8.32568-1.01471,16.5813-1.44818,24.73291ZM2321.03101,2887.6101c16.83423-.85718,33.78906-1.0498,50.76343-1.24463l155.47852-43.45288c.19165-9.44409-.6228-19.0249-1.93408-28.64209l-274.19092,76.6416c23.25977-1.01929,46.55029-2.11401,69.88306-3.30176v-.00024ZM3542.08716,2113.28881c.48193,9.37939,1.23218,19.26294,2.09619,29.41968l697.28687,188.23926-.00537,1.60059,716.57715-199.67041c-.25244-9.67456-.41602-19.36938-.48242-29.08643l-715.99414,199.50391-699.47827-190.00659ZM3541.19116,2085.07958c.15869,5.94434.30176,11.88965.47095,17.83325.05688,1.99829.13574,4.03638.22363,6.09155l699.69434,190.14331,715.9541-199.45557c-.03174-7.91553.00635-15.84741.10889-23.79419l-715.98193,199.52734-700.47021-190.3457h.00024ZM3540.45752,2056.92016c.14868,6.11523.31665,12.22925.47461,18.34424l700.76318,190.40991,716.10938-199.57373c.02246-1.10425.03809-2.20679.06299-3.31177.11279-4.98535.22119-9.98853.33057-14.98865l-716.44092,199.68176-701.30005-190.56152.00024-.00024ZM3539.80713,2028.72949c.09521,4.24097.19507,8.48181.29346,12.72266l701.71191,190.09326-.00244.72778,716.71729-199.74854c.09082-4.28491.18213-8.56592.27051-12.86035l-716.94336,199.80151-702.04712-190.73621-.00024-.00012ZM3539.19238,2000.58654c.05078,2.40393.09961,4.80774.15112,7.21167l702.58325,190.56506-.00146.43628v.073l717.29346-199.91016c.04883-2.45325.09766-4.91101.14648-7.36731l-717.41455,199.92761-702.75806-190.93616-.00024-.00012v.00012ZM4240.78223,2530.84301v-.073h0v.073ZM3534.22534,2332.07055c-.52832,2.28296-1.03003,4.54956-1.50098,6.79761l708.05884,191.53833-.00098.36377,732.10449-204.56885c-.27148-2.34619-.53955-4.69312-.80664-7.04004l-731.27344,204.33179-706.58203-191.42261h.00073ZM3542.12964,2300.70092c-.99365,3.93872-2.01709,7.88281-3.03418,11.8147l701.7854,189.58374-.00293.72827,728.98242-203.71582c-.4458-4.14404-.88477-8.28882-1.31299-12.43555l-727.62549,203.34302-698.79297-189.3186.00073.00024ZM3548.78955,2269.19702c-.83569,5.68335-1.96924,11.49414-3.27588,17.37036l695.46094,188.38965,726.10498-202.90918c-.58057-5.93359-1.14111-11.87085-1.67969-17.81177l-724.3623,202.45581-692.2478-187.49463-.00024-.00024ZM3550.65869,2236.15917c.05298,7.93335-.14795,15.55884-.69604,22.73975-.02002.26318-.04712.52954-.06885.79346l691.17749,187.24805,723.48877-202.1709c-.66943-7.72412-1.30322-15.45459-1.89111-23.19409l-721.5166,201.64233-690.4939-187.05884h.00024v.00024ZM3549.24805,2202.3811c.68115,9.97827,1.18115,19.78418,1.35376,29.20068l690.57104,185.81519-.00537,1.60132,721.19531-201.55908c-.70508-9.53516-1.34473-19.0835-1.91113-28.64697l-719.18408,201.02515-692.01953-187.43628h-.00024.00024ZM3487.35718,2735.50195c-.75342,9.43921-1.50171,18.88477-2.24609,28.33936l655.29517,176.90332c65.2168,1.79077,131.06445,2.59033,196.89502,2.17969l679.43311-189.32031c-.4585-9.58252-.66309-19.28833-.78955-29.00049l-774.37891,215.77197-754.20825-204.87354h-.00049ZM3489.56494,2708.13085c-.63086,7.73755-1.25757,15.47827-1.87744,23.2251l753.89258,204.87183,774.31201-215.71338c-.09082-7.93188-.15869-15.84717-.29785-23.68628l-773.93311,215.67725-752.09644-204.37451h.00049-.00024ZM3491.8252,2680.78564c-.49829,5.93579-.99268,11.8728-1.48169,17.81299l751.35181,204.15576,773.68066-215.61816c-.17334-6.0708-.4292-12.06665-.80029-17.96875l-772.81787,215.39453-749.93237-203.77637h-.00024ZM3494.16577,2653.40966c-.35962,4.12891-.71729,8.2583-1.0708,12.38867l748.71753,202.82715-.00244.72778,771.55615-215.03223c-.39258-4.15332-.79346-8.30298-1.20508-12.448l-770.30664,214.67285-747.68848-203.13623h-.00024ZM3496.59717,2626.09374c-.21265,2.33911-.427,4.67798-.63696,7.01733l745.96655,202.33228-.00146.43628v.073l768.18018-214.09229c-.25195-2.37207-.5083-4.74243-.76514-7.11206l-767.38965,213.85474-745.35327-202.50903h-.00049l.00024-.00024ZM3477.60718,2858.95239c.26904,14.03491,9.85034,18.52417,21.52856,22.48706,55.67749,18.89258,135.97192,29.29175,214.71265,36.00903l-235.81055-63.88257c-.1438,1.7959-.28613,3.5896-.43066,5.38623v.00024ZM4795.77881,2916.69946c13.61475-1.62158,52.78467-7.21289,95.09912-14.26001l138.10449-38.5918c1.11621-5.85864.89795-14.26001-.03857-23.71387l-299.6626,83.74707c22.33691-2.19116,44.52637-4.56421,66.49805-7.18115v-.00024h-.00049ZM3478.38452,2849.22997l261.26978,70.30127c50.10645,3.82935,98.38477,6.3606,137.93335,8.86206l-396.95508-107.51685c-.74341,9.44043-1.49243,18.8916-2.2478,28.35376l-.00024-.00024ZM4706.39746,2926.05615l322.10498-90.02148c-1.04541-9.00879-2.63037-18.7334-4.26611-27.99121l-458.59912,128.18701c47.42529-2.57666,94.42627-5.94116,140.76025-10.17407v-.00024Z" fill="#05173c"/>
  <path id="C2" d="M2232.99243,966.92797l-23.59253-22.71246,15.60742-4.31262,23.59253,22.78595-15.60742,4.23914h0ZM2322.59424,942.49517l-23.59302-22.71307-12.22241,3.30573,23.68701,22.71277,12.12842-3.30542ZM2273.32739,955.93273l-23.68701-22.71283-14.479,3.95294,23.68677,22.71277,14.47949-3.95288h-.00024ZM2223.96606,969.44402l-23.59253-22.78534-16.83008,4.59918,23.59302,22.71246,16.82935-4.52631h.00024ZM2297.96069,949.25042l-23.59229-22.78534-13.35132,3.66541,23.59302,22.71246,13.35059-3.59253ZM2174.60547,982.88183l-23.59326-22.78595-19.08618,5.24701,23.59302,22.71246,19.08618-5.17352h.00024ZM2199.33325,976.12634l-23.68701-22.71277-17.86426,4.88696,23.59302,22.71246,17.95825-4.88666h0ZM1382.1344,971.49346l-23.74866,22.62231,406.32007,105.02313-.00574,1.67346,360.63831-104.49243-23.68652-22.71277-336.85107,98.02515-382.66626-100.13879h0l-.00012-.00006ZM2347.22827,935.73944l-23.59302-22.71252-11.00049,3.01855,23.59253,22.71246,11.00122-3.01849h-.00024ZM2421.22266,915.54577l-23.59302-22.71246-7.61548,2.0838,23.68677,22.71283,7.52197-2.08417h-.00024ZM2544.57788,881.91436l-23.59302-22.71246-1.88037.5022,23.59302,22.71307,1.88037-.50281ZM2519.85034,888.66924l-23.59253-22.71252-2.91479.79065,23.59302,22.71246,2.91455-.79059h-.00024ZM2371.95508,929.05676l-23.59229-22.78528-9.96631,2.73065,23.68652,22.71344,9.87207-2.65881ZM2569.21143,875.23138l-23.59253-22.78528-.65869.21564,23.59302,22.71307.65845-.14343h-.00024ZM2495.2168,895.42504l-23.59253-22.78534-4.13647,1.15002,23.59253,22.71246,4.13672-1.07715h-.00024ZM2396.58862,922.30157l-23.59253-22.71246-8.74414,2.37067,23.59302,22.71313,8.74365-2.37134h0ZM2470.5835,902.10797l-23.59302-22.71246-5.35913,1.43658,23.68652,22.71283,5.26538-1.43695h.00024ZM1357.4541,964.64074l-23.74902,22.62292,20.17639,5.59949,23.84314-22.6214-20.27039-5.60101h-.00012ZM2445.94946,908.86315l-23.68628-22.78564-6.39331,1.79724,23.59302,22.71252,6.48682-1.72412h-.00024ZM2149.97192,989.56414l-23.59253-22.71246-20.2146,5.53387,23.59302,22.71252,20.21411-5.53394ZM1036.7926,875.63165l-23.84271,22.62195,5.34906,1.47351,23.74902-22.62231-5.25537-1.47314ZM1012.11194,868.77886l-23.84271,22.62201,4.12891,1.17853,23.84271-22.62201-4.12891-1.17853ZM1061.47339,882.48376l-23.84314,22.62201,6.47546,1.76929,23.74878-22.62231-6.3811-1.76898ZM1086.06006,889.33618l-23.74866,22.62231,7.60132,2.06396,23.74841-22.5495-7.60107-2.13678ZM987.43121,861.92614l-23.74902,22.62231,2.9093.81067,23.84247-22.54974-3.00275-.88324ZM1110.74072,896.1889l-23.74866,22.62231,8.72717,2.43146,23.74878-22.62231-8.72717-2.43146h-.00012ZM938.06964,848.29351l-20.10583,19.09119c.09558.18787.19128.37451.28687.56201l20.4762-19.50525-.65723-.14795h0ZM1332.77332,957.78857l-23.74866,22.62238,19.04993,5.30481,23.84265-22.62195-19.1438-5.30524h-.00012ZM962.75031,855.14684l-23.74854,22.5495,1.78296.51544,23.74854-22.62299-1.78296-.44196ZM1283.41199,944.08373l-23.74902,22.6217,16.79822,4.6427,23.74902-22.62231-16.79822-4.64209ZM1234.14453,930.37914l-23.84265,22.62201,14.54504,4.05164,23.74902-22.62231-14.45154-4.05133h.00012ZM1135.42139,903.04107l-23.74902,22.62231,9.85376,2.72668,23.74902-22.62231-9.85376-2.72668ZM1308.09265,950.93585l-23.74866,22.62292,17.92395,4.93677,23.84253-22.54913-18.0177-5.01056h-.00012ZM1258.8252,937.23132l-23.84265,22.62201,15.67163,4.34686,23.74902-22.62231-15.578-4.34656ZM1160.10217,909.89379l-23.74878,22.55011,10.97961,3.09357,23.84314-22.62201-11.07397-3.02167ZM1209.46362,923.59869l-23.84277,22.54913,13.32605,3.68439,23.84241-22.54913-13.32556-3.68439h-.00012ZM1184.78284,916.74652l-23.74841,22.5495,12.10547,3.38885,23.84253-22.54919-12.19946-3.38916h-.00012ZM2248.59985,1599.76892l-23.59253-22.78589-15.60742,4.31262,23.59253,22.7124,15.60742-4.23926h0v.00012ZM2322.59424,1579.57531l-23.59302-22.71301-12.22241,3.30566,23.68701,22.71289,12.12842-3.30542v-.00012ZM2273.32739,1593.01281l-23.68701-22.71277-14.479,3.95288,23.68677,22.71289,14.47949-3.95288-.00024-.00012ZM2223.96606,1606.52404l-23.59253-22.78528-16.83008,4.59912,23.59302,22.7124,16.82935-4.52637h0l.00024.00012ZM2297.96069,1586.33044l-23.59229-22.78528-13.35132,3.66553,23.59302,22.7124,13.35059-3.59253v-.00012ZM2174.60547,1619.96191l-23.59326-22.78589-19.08618,5.24707,23.59302,22.7124,19.08618-5.17346.00024-.00012ZM2199.33325,1613.20642l-23.68701-22.71277-17.86426,4.88696,23.59302,22.7124,17.95825-4.88672h0v.00012ZM1382.1344,1608.5736l-23.74866,22.62231,406.32007,105.02307-.00574,1.67346,360.63831-104.49243-23.68652-22.71277-336.85107,98.02515-382.66626-100.13879h-.00012ZM2347.22827,1572.81945l-23.59302-22.7124-11.00049,3.01843,23.59253,22.71252,11.00122-3.01855h-.00024ZM2421.22266,1552.62585l-23.59302-22.7124-7.61548,2.08374,23.68677,22.71277,7.52197-2.08423-.00024.00012ZM2371.95508,1566.13684l-23.59229-22.78528-9.96631,2.73071,23.68652,22.71338,9.87207-2.65881ZM2396.58862,1559.38171l-23.59253-22.7124-8.74414,2.37073,23.59302,22.71301,8.74365-2.37134h0ZM1357.4541,1601.72082l-23.74902,22.62292,20.17639,5.59949,23.84314-22.62146-20.27039-5.60095h-.00012ZM2415.86987,1524.95483l23.59302,22.7124,4.54883-1.20898c-.12549-.91541-.24951-1.82812-.36914-2.73462l-21.37915-20.56616-6.39331,1.79724h0l-.00024.00012ZM2149.97192,1626.64428l-23.59253-22.7124-20.2146,5.53381,23.59302,22.7124,20.21411-5.53381ZM1086.06006,1526.41625l-3.14209,2.99292c-.50659,3.62732-1.01294,7.22644-1.51782,10.78577l12.26099-11.64197-7.60107-2.13684v.00012ZM1110.74072,1533.26904l-23.74866,22.62231,8.72717,2.43152,23.74878-22.62231-8.72717-2.43152h-.00012ZM1332.77332,1594.86865l-23.74866,22.62231,19.04993,5.30481,23.84265-22.62195-19.1438-5.30518h-.00012ZM1283.41199,1581.16381l-23.74902,22.6217,16.79822,4.6427,23.74902-22.62231-16.79822-4.64209ZM1234.14453,1567.45922l-23.84265,22.62207,14.54504,4.05164,23.74902-22.62231-14.45154-4.05127.00012-.00012ZM1135.42139,1540.12109l-23.74902,22.62244,9.85376,2.72668,23.74902-22.62231-9.85376-2.72681ZM1308.09265,1588.01599l-23.74866,22.62292,17.92395,4.93677,23.84253-22.54907-18.0177-5.01062h-.00012ZM1258.8252,1574.3114l-23.84265,22.62195,15.67163,4.34692,23.74902-22.62244-15.578-4.34656v.00012ZM1160.10217,1546.97387l-23.74878,22.55005,10.97961,3.09363,23.84314-22.62195-11.07397-3.02173ZM1209.46362,1560.67871l-23.84277,22.54919,13.32605,3.68445,23.84241-22.54907-13.32556-3.68445-.00012-.00012ZM1184.78284,1553.82665l-23.74841,22.54956,12.10547,3.38879,23.84253-22.54907-12.19946-3.38916-.00012-.00012ZM2248.59985,2236.84887l-23.59253-22.78589-15.60742,4.31274,23.59253,22.7124,15.60742-4.23926h0ZM2322.59424,2216.65527l-23.59302-22.71289-12.22241,3.30566,23.68701,22.71289,12.12842-3.30542v-.00024ZM2273.32739,2230.09301l-23.68701-22.71289-14.479,3.95288,23.68677,22.71289,14.47949-3.95288h-.00024ZM2223.96606,2243.60424l-23.59253-22.7854-16.83008,4.59912,23.59302,22.7124,16.82935-4.52637h0l.00024.00024ZM2297.96069,2223.41064l-23.59229-22.7854-13.35132,3.66553,23.59302,22.7124,13.35059-3.59253ZM2174.60547,2257.04199l-23.59326-22.78589-19.08618,5.24707,23.59302,22.7124,19.08618-5.17358h.00024ZM2199.33325,2250.28662l-23.68701-22.71289-17.86426,4.88696,23.59302,22.7124,17.95825-4.88672h0v.00024ZM1382.1344,2245.65356l-23.74866,22.62231,406.32007,105.02319-.00574,1.67334,360.63831-104.49243-23.68652-22.71289-336.85107,98.02515-382.66626-100.13892h0l-.00012.00024ZM2347.22827,2209.89965l-23.59302-22.7124-11.00049,3.01855,23.59253,22.7124,11.00122-3.01855h-.00024ZM2421.22266,2189.70605l-23.59302-22.7124-7.61548,2.08374,23.68677,22.71289,7.52197-2.08423h-.00024ZM2371.95508,2203.21704l-23.59229-22.7854-9.96631,2.73071,23.68652,22.71338,9.87207-2.65869ZM2396.58862,2196.46166l-23.59253-22.7124-8.74414,2.37061,23.59302,22.71313,8.74365-2.37134h0ZM2446.6958,2159.84838c.03076-2.09375.07373-4.17993.14087-6.25146l-5.20532,1.39526,5.06421,4.8562h.00024ZM1357.4541,2238.80102l-23.74902,22.6228,20.17639,5.59961,23.84314-22.62158-20.27039-5.60083h-.00012ZM2445.94946,2183.02343l-23.68628-22.78564-6.39331,1.79712,23.59302,22.7124,6.48682-1.72412h0l-.00024.00024ZM2149.97192,2263.72436l-23.59253-22.7124-20.2146,5.53369,23.59302,22.7124,20.21411-5.53369ZM1086.06006,2163.49633l-6.87488,6.54883c.01575,3.11841.00732,6.23804-.02795,9.35962l14.50391-13.77173-7.60107-2.13672ZM1110.74072,2170.34912l-23.74866,22.62231,8.72717,2.4314,23.74878-22.62231-8.72717-2.4314h-.00012ZM1332.77332,2231.94872l-23.74866,22.62231,19.04993,5.30493,23.84265-22.62207-19.1438-5.30518h-.00012ZM1283.41199,2218.24389l-23.74902,22.62158,16.79822,4.64282,23.74902-22.62231-16.79822-4.64209ZM1234.14453,2204.5393l-23.84265,22.62207,14.54504,4.05151,23.74902-22.62231-14.45154-4.05127h.00012ZM1135.42139,2177.20117l-23.74902,22.62231,9.85376,2.72681,23.74902-22.62231-9.85376-2.72681ZM1308.09265,2225.09594l-23.74866,22.62305,17.92395,4.93677,23.84253-22.54907-18.0177-5.0105-.00012-.00024ZM1258.8252,2211.3916l-23.84265,22.62207,15.67163,4.34692,23.74902-22.62231-15.578-4.34668ZM1160.10217,2184.05395l-23.74878,22.55005,10.97961,3.09375,23.84314-22.62207-11.07397-3.02173ZM1209.46362,2197.75878l-23.84277,22.54907,13.32605,3.68457,23.84241-22.54907-13.32556-3.68457h-.00012ZM1184.78284,2190.90673l-23.74841,22.54956,12.10547,3.38867,23.84253-22.54907-12.19946-3.38916h-.00012ZM2248.59985,2873.92895l-23.59253-22.78589-15.60742,4.31274,23.59253,22.7124,15.60742-4.23926h0ZM2322.59424,2853.73559l-23.59302-22.71289-12.22241,3.30566,23.68701,22.71289,12.12842-3.30542v-.00024ZM2273.32739,2867.17309l-23.68701-22.71289-14.479,3.95288,23.68677,22.71289,14.47949-3.95288h-.00024ZM2223.96606,2880.68432l-23.59253-22.7854-16.83008,4.59912,23.59302,22.7124,16.82935-4.52637v.00024h.00024ZM2297.96069,2860.49072l-23.59229-22.7854-13.35132,3.66553,23.59302,22.7124,13.35059-3.59253ZM2131.92627,2876.58325l18.92334,18.21704c7.86377-.26587,15.7312-.54321,23.60083-.82788l-23.43823-22.63623-19.08618,5.24707h.00024ZM2199.33325,2887.36669l-23.68701-22.71289-17.86426,4.88696,23.59302,22.7124,17.95825-4.88672v.00024ZM1370.3894,2893.92187c20.53516.65698,41.04578,1.27197,61.53247,1.84082l-49.78748-13.02881-11.745,11.18799ZM2058.10059,2897.52099c18.38037-.4563,36.77466-.96631,55.18164-1.52124l-11.63037-11.15234-43.55127,12.67358h0ZM2347.22827,2846.97973l-23.59302-22.7124-11.00049,3.01855,23.59253,22.7124,11.00122-3.01855h-.00024ZM2421.22266,2826.78613l-23.59302-22.7124-7.61548,2.08374,23.68677,22.71289,7.52197-2.08423h-.00024ZM2519.85034,2799.90942l-23.59253-22.7124-2.91479.79053,23.59302,22.7124,2.91455-.79077v.00024h-.00024ZM2371.95508,2840.29711l-23.59229-22.7854-9.96631,2.73071,23.68652,22.71338,9.87207-2.65869ZM2495.2168,2806.66528l-23.59253-22.7854-4.13647,1.15015,23.59253,22.7124,4.13672-1.07715h-.00024ZM2396.58862,2833.54199l-23.59253-22.7124-8.74414,2.37061,23.59302,22.71313,8.74365-2.37134h0ZM2470.5835,2813.34814l-23.59302-22.7124-5.35913,1.43652,23.68652,22.71289,5.26538-1.43701h.00024ZM1357.4541,2875.8811l-17.87036,17.02295c8.40857.28613,16.81543.56958,25.21497.84155l12.92578-12.26367-20.27039-5.60083ZM2445.94946,2820.10351l-23.68628-22.78564-6.39331,1.79712,23.59302,22.7124,6.48682-1.72412v.00024h-.00024ZM2106.16455,2883.62597l12.67993,12.20703c8.37207-.25708,16.74878-.52661,25.1272-.80444l-17.59277-16.93628-20.2146,5.53369h.00024ZM1018.29901,2810.96728l23.74896-22.62231-5.25537-1.47314-23.84271,22.62207,5.34906,1.47339h.00006ZM1012.11194,2780.01904l-5.27863,5.0083c-.13818,1.8313-.27264,3.65674-.40729,5.48242l9.81482-9.3125-4.12891-1.17847v.00024ZM1044.10583,2818.11523l23.74878-22.62231-6.3811-1.7688-23.84314,22.62207,6.47546,1.76929v-.00024ZM1069.91272,2825.26269l23.74841-22.54956-7.60107-2.13672-23.74866,22.62231,7.60132,2.06396ZM1095.71924,2832.48315l23.74878-22.62231-8.72717-2.4314-23.74866,22.62231,8.72717,2.4314h-.00012ZM1332.77332,2869.02905l-23.74866,22.62231.74927.20874c7.60913.27368,15.2179.54663,22.81909.80884l19.3241-18.33472-19.14392-5.30518h.00012ZM1276.46106,2882.58862l23.74902-22.62231-16.79822-4.64209-23.74902,22.62158,16.79822,4.64258v.00024ZM1224.84692,2868.29321l23.74902-22.62231-14.45154-4.05127-23.84265,22.62207,14.54504,4.05151h.00012ZM1121.52612,2839.63061l23.74902-22.62231-9.85376-2.72681-23.74902,22.62231,9.85376,2.72681ZM1302.26794,2889.73608l23.84253-22.54907-18.0177-5.01074-23.74866,22.62305,17.92395,4.93677h-.00012ZM1250.65417,2875.44067l23.74902-22.62231-15.578-4.34668-23.84265,22.62207,15.67163,4.34692ZM1147.33301,2846.77783l23.84314-22.62207-11.07397-3.02173-23.74878,22.55005,10.97961,3.09375ZM1198.94678,2861.07275l23.84241-22.54907-13.32556-3.68457-23.84277,22.54907,13.32605,3.68457h-.00012ZM1173.13989,2853.92529l23.84253-22.54907-12.19946-3.38916-23.74841,22.54956,12.10547,3.38867h-.00012ZM4725.21875,2236.84887l-23.59277-22.78589-15.60742,4.31274,23.59277,22.7124,15.60742-4.23926ZM4799.21289,2216.65527l-23.59326-22.71289-12.22217,3.30566,23.68701,22.71289,12.12842-3.30542v-.00024ZM4749.94629,2230.09301l-23.68701-22.71289-14.479,3.95288,23.68652,22.71289,14.47949-3.95288ZM4700.58496,2243.60424l-23.59229-22.7854-16.83008,4.59912,23.59277,22.7124,16.82959-4.52637v.00024ZM4774.57959,2223.41064l-23.59229-22.7854-13.35156,3.66553,23.59326,22.7124,13.35059-3.59253ZM4651.22412,2257.04199l-23.59326-22.78589-19.08594,5.24707,23.59326,22.7124,19.08594-5.17358ZM4675.95166,2250.28662l-23.68701-22.71289-17.86377,4.88696,23.59326,22.7124,17.95801-4.88672-.00049.00024ZM3858.75293,2245.65356l-23.74854,22.62231,406.31982,105.02319-.00586,1.67334,360.63867-104.49243-23.68701-22.71289-336.85107,98.02515-382.66626-100.13892.00024.00024ZM4823.84717,2209.89965l-23.59326-22.7124-11.00049,3.01855,23.59229,22.7124,11.00098-3.01855h.00049ZM4897.84131,2189.70605l-23.59326-22.7124-7.61572,2.08374,23.68701,22.71289,7.52197-2.08423ZM4848.57373,2203.21704l-23.59229-22.7854-9.96582,2.73071,23.68652,22.71338,9.87207-2.65869h-.00049ZM4944.10645,2147.94995l14.97656,14.41797c-.07861-1.77466-.16016-3.54834-.23291-5.32422l-10.60693-10.2439-4.13623,1.15015h-.00049ZM4873.20752,2196.46166l-23.59229-22.7124-8.74414,2.37061,23.59326,22.71313,8.74365-2.37134h-.00049ZM4947.20215,2176.26806l-23.59326-22.7124-5.35889,1.43652,23.68701,22.71289,5.26514-1.43701ZM3834.07275,2238.80102l-23.74927,22.6228,20.17627,5.59961,23.84302-22.62158-20.27026-5.60083h.00024ZM4922.56836,2183.02343l-23.68652-22.78564-6.39355,1.79712,23.59326,22.7124,6.48682-1.72412v.00024ZM4626.59082,2263.72436l-23.59277-22.7124-20.21484,5.53369,23.59326,22.7124,20.21436-5.53369ZM3562.67871,2163.49633l-15.34863,14.62085c.24976,2.87256.49536,5.74512.73145,8.61255l22.21826-21.09668-7.60107-2.13672ZM3587.35938,2170.34912l-23.74878,22.62231,8.72705,2.4314,23.74878-22.62231-8.72729-2.4314h.00024ZM3809.39209,2231.94872l-23.74878,22.62231,19.0498,5.30493,23.84277-22.62207-19.14404-5.30518h.00024ZM3760.03052,2218.24389l-23.74902,22.62158,16.79834,4.64282,23.74902-22.62231-16.79834-4.64209ZM3710.76318,2204.5393l-23.84277,22.62207,14.54517,4.05151,23.74902-22.62231-14.45142-4.05127ZM3612.04004,2177.20117l-23.74902,22.62231,9.85376,2.72681,23.74902-22.62231-9.85376-2.72681ZM3784.71118,2225.09594l-23.74854,22.62305,17.92383,4.93677,23.84253-22.54907-18.01782-5.0105v-.00024ZM3735.44385,2211.3916l-23.84253,22.62207,15.67163,4.34692,23.74927-22.62231-15.57812-4.34668h-.00024ZM3636.7207,2184.05395l-23.74878,22.55005,10.97974,3.09375,23.84302-22.62207-11.07397-3.02173ZM3686.08228,2197.75878l-23.84302,22.54907,13.32593,3.68457,23.84229-22.54907-13.32544-3.68457h.00024ZM3661.40161,2190.90673l-23.74829,22.54956,12.10547,3.38867,23.84253-22.54907-12.19946-3.38916h-.00024ZM4725.21875,2873.92895l-23.59277-22.78589-15.60742,4.31274,23.59277,22.7124,15.60742-4.23926ZM4799.21289,2853.73559l-23.59326-22.71289-12.22217,3.30566,23.68701,22.71289,12.12842-3.30542v-.00024ZM4749.94629,2867.17309l-23.68701-22.71289-14.479,3.95288,23.68652,22.71289,14.47949-3.95288ZM4700.58496,2880.68432l-23.59229-22.7854-16.83008,4.59912,23.59277,22.7124,16.82959-4.52637v.00024ZM4774.57959,2860.49072l-23.59229-22.7854-13.35156,3.66553,23.59326,22.7124,13.35059-3.59253ZM4651.22412,2894.12231l-23.59326-22.78589-19.08594,5.24707,23.59326,22.7124,19.08594-5.17358ZM4675.95166,2887.36669l-23.68701-22.71289-17.86377,4.88696,23.59326,22.7124,17.95801-4.88672v.00024h-.00049ZM4578.27051,2884.84765l-198.01221,57.62256c37.09961-.53467,74.14453-1.46631,111.02295-2.84204l110.67627-32.06738-23.68701-22.71289v-.00024ZM3835.00439,2905.35595l103.6084,26.78003c43.8335,2.51074,88.31299,4.64526,133.19897,6.35229l-213.05884-55.75488-23.74854,22.62231v.00024ZM4823.84717,2846.97973l-23.59326-22.7124-11.00049,3.01855,23.59229,22.7124,11.00098-3.01855h.00049ZM4897.84131,2826.78613l-23.59326-22.7124-7.61572,2.08374,23.68701,22.71289,7.52197-2.08423ZM5021.19678,2793.15478l-23.59326-22.7124-1.88037.5022,23.59326,22.71313,1.88037-.50293ZM4996.46924,2799.90942l-23.59277-22.7124-2.91455.79053,23.59326,22.7124,2.91455-.79077-.00049.00024ZM4848.57373,2840.29711l-23.59229-22.7854-9.96582,2.73071,23.68652,22.71338,9.87207-2.65869h-.00049ZM4971.83594,2806.66528l-23.59277-22.7854-4.13623,1.15015,23.59229,22.7124,4.13672-1.07715ZM4873.20752,2833.54199l-23.59229-22.7124-8.74414,2.37061,23.59326,22.71313,8.74365-2.37134h-.00049ZM4947.20215,2813.34814l-23.59326-22.7124-5.35889,1.43652,23.68701,22.71289,5.26514-1.43701ZM3830.5,2904.10351l23.84302-22.62158-20.27026-5.60083-23.74927,22.6228,20.17627,5.59961h.00024ZM4922.56836,2820.10351l-23.68652-22.78564-6.39355,1.79712,23.59326,22.7124,6.48682-1.72412v.00024ZM4626.59082,2900.80444l-23.59277-22.7124-20.21484,5.53369,23.59326,22.7124,20.21436-5.53369ZM3494.91772,2810.96728l23.74927-22.62231-5.25537-1.47314-23.84253,22.62207,5.34912,1.47339h-.00049ZM3488.73047,2780.01904l-5.28369,5.01343c-.1438,1.83496-.28784,3.66992-.43164,5.50537l9.84424-9.34033-4.12891-1.17847ZM3520.72437,2818.11523l23.74878-22.62231-6.3811-1.7688-23.84326,22.62207,6.47534,1.76929.00024-.00024ZM3546.53125,2825.26269l23.74854-22.54956-7.60107-2.13672-23.74878,22.62231,7.60132,2.06396ZM3572.33789,2832.48315l23.74878-22.62231-8.72729-2.4314-23.74878,22.62231,8.72705,2.4314h.00024ZM3804.69312,2896.95605l23.84277-22.62207-19.14404-5.30518-23.74878,22.62231,19.0498,5.30493h.00024ZM3753.07983,2882.58862l23.74902-22.62231-16.79834-4.64209-23.74902,22.62158,16.79834,4.64258v.00024ZM3701.46558,2868.29321l23.74902-22.62231-14.45142-4.05127-23.84277,22.62207,14.54517,4.05151ZM3598.14478,2839.63061l23.74902-22.62231-9.85376-2.72681-23.74902,22.62231,9.85376,2.72681ZM3778.88647,2889.73608l23.84253-22.54907-18.01782-5.01074-23.74854,22.62305,17.92383,4.93677ZM3727.27271,2875.44067l23.74927-22.62231-15.57812-4.34668-23.84253,22.62207,15.67163,4.34692h-.00024ZM3623.95166,2846.77783l23.84302-22.62207-11.07397-3.02173-23.74878,22.55005,10.97974,3.09375ZM3675.56543,2861.07275l23.84229-22.54907-13.32544-3.68457-23.84302,22.54907,13.32593,3.68457h.00024ZM3649.75854,2853.92529l23.84253-22.54907-12.19946-3.38916-23.74829,22.54956,12.10547,3.38867h-.00024Z" fill="#eff0f1"/>
</svg>