<?xml version="1.0" encoding="UTF-8"?>
<svg id="Layer_8" xmlns="http://www.w3.org/2000/svg" version="1.1" viewBox="0 0 6000 3000">
  <!-- Generator: Adobe Illustrator 30.5.1, SVG Export Plug-In . SVG Version: 2.1.4 Build 3)  -->
  <path id="C1" d="M2664.45484,673.66305c-28.94409,29.02502-219.36938,225.70227-299.95044,454.50537h-1201.79114c-87.26965-247.7948-303.383-457.9165-303.67036-458.19592-.11108-29.71588,5.40967-54.57202,16.36719-74.36639,20.66675-37.33331,64-92.66663,105.33336-133.33331,41.33331-40.66669,128-101.33331,154.66664-115.33331,26.66669-14,121.33337-69.33337,134.66669-78.66669s64.66669-31.33331,64.66669-31.33331c0,0,22.22217,48.22223,63.11108,98.4444.83838,1.02972,1.69122,2.09082,2.55695,3.17664,41.35742,51.872,115.29834,166.50713,352.55414,225.71227,0,0,121.77783-31.11108,213.77777-91.11108,82.47217-53.78619,129.57861-113.99243,142.61475-133.25153,1.50598-2.22498,2.56445-3.91205,3.16284-4.9707,5.77783-10.22223,46.66675-61.77777,57.77783-84l7.00854-14.27069s37.43579,21.82623,68.547,37.82623c31.11108,16,106.22229,55.11108,122.66663,67.55555,16.44446,12.44446,65.77783,41.33331,125.33337,82.66669,59.55554,41.33331,101.33337,101.33331,120.88879,123.11108,19.1626,21.34003,48.13623,90.04504,49.71155,125.83472h.00012Z" fill="#fff"/>
  <path id="C2" d="M1176.71448,1172.27279c59.54932,211.31738,89.9231,1285.66138,99.96021,1722.1853-81.74292-2.23682-173.62695-1.06104-251.71033-15.44287-18.12982-3.33911-23.2688-11.99023-22.33069-29.63086,5.73615-107.86792,20.04517-232.20972,32.12744-340.55054,12.67072-113.61768,45.82544-228.16284,44.14038-340.58875-2.49255-166.29968-5.26581-333.19141-12.95404-499.52185,3.0968-25.53003-.10803-24.52466,8.12933-77.11694,8.66669-55.33325,20.66669-146.66675,25.33331-190,4.66669-43.33325,4-52,4-55.33325s6.06586-33.33337.03296-66c-6.03296-32.66669-19.36627-56.66669-36.03296-80.66669-16.66663-24-38.66663-48-45.33331-54.66669-3.11444-3.11444-6.66248-10.15295-9.56122-16.771-2.39264-5.46271-4.34344-10.63928-5.23828-13.08337.00012.00153.00024.00281.00037.00433-2.06134-23.98297-28.65375-134.20551-47.86755-168.1499-20-35.33337-67.33325-114.66669-86.66663-186.66669-9.08264-33.82544-13.60217-63.97052-13.70056-90.30054.28735.27942,216.40069,210.40112,303.67036,458.19592,5.13593,14.58295,9.82812,29.29559,14.00122,44.10437ZM2664.45484,673.66305c-28.94409,29.02502-219.36938,225.70227-299.95044,454.50537-5.13599,14.58295-9.82812,29.29559-14.00122,44.10437-59.5564,211.34253-89.93042,1285.91846-99.96387,1722.34229,23.37781-1.02344,46.78662-2.12329,70.23804-3.31714,41.078-2.09131,82.87512-.22803,123.91833-4.08667,12.57812-1.18237,74.23743-8.28418,78.42578-13.58984,11.28064-38.52588-4.91931-81.33862-8.35046-120.56079-7.90723-90.38647-9.75061-181.56226-20.53198-271.78638-12.27344-102.70996-52.14673-229.40381-47.46411-328.84363,4.58398-97.34363,12.90503-190.09546,12.12683-288.54248-.50574-63.9696,1.4386-128.64148,4.35205-193.42371-4.50708-32.85181-4.51013-33.55591-4.51013-36.19177,0-2.66675-14-65.33337-17.33325-104.66663s-12-89.33325-17.33325-140.66675c-5.33337-51.33325-8-96,5.33325-137.33331s32.66675-70,42-84.66669c8.50916-13.37152,30.30811-35.04584,34.09326-38.771,1.62012-8.61243,3.97498-18.39075,7.46228-32.34009,9.33337-37.33331,21.77771-64.88892,29.33337-83.55554,7.55554-18.66669,41.33325-92.44446,56.44446-117.33331,15.11121-24.88892,36.88892-81.77777,46.22229-104.88892,9.33337-23.11108,20-79.11108,19.55554-114.22223-.00891-.70575-.03406-1.43115-.06628-2.16528l-.00049.00012ZM3531.19141,1674.59738c.00146-.00659.00293-.01343.00464-.02002-.05493-2.60278-.11279-5.20398-.1665-7.80737.05371,2.60913.10693,5.21887.16187,7.82739ZM3370.77393,677.68038c1.49146,16.8432,3.66162,34.68024,6.30298,53.59241,8.33325,59.66669,32.33325,124.66669,62.6665,180.66669,30.3335,56,36.3335,104.33331,38.66675,120.33331,1.29126,8.85559,1.86743,24.85608,2.125,39.30377,8.60864,7.56915,21.80933,19.87048,38.20825,37.36285,30,32,62.66675,107.33337,68.66675,140.66669s-6,155.33331-16,197.33331-14.66675,96-19.33325,128.66663c-2.47217,17.30481-12.24023,61.36096-20.88086,98.97131.61841,29.3905,1.30396,58.74231,2.2124,88.02356,3.55176,114.48682,4.73364,229.30664,8,344,1.33838,47.00354,11.77783,110.41895,8.30054,155.98608-2.14746,28.14282-14.19751,60.66309-18.96167,89.02295-28.65674,170.58276-39.55542,338.88745-53.3938,511.03027.26904,14.03491,9.85034,18.52417,21.52856,22.48706,71.91431,24.4021,184.89258,34.63525,282.5498,41.06543-9.24585-413.61548-39.63135-1537.28259-100.67993-1753.91992-67.16626-238.34662-268.12524-451.97662-309.97803-494.59241ZM4854.54053,1172.27279c-60.9917,216.43652-91.37744,1338.21631-100.65381,1752.76172,13.94458-1.47412,27.8418-3.00391,41.63818-4.64697,32.91113-3.91992,215.14868-31.03589,230.15503-45.83838,11.42285-11.26782-6.35059-81.17334-8.05859-100.16089-3.30273-36.71338-.80469-76.57788-4.08594-111.91406-18.71582-201.55249-60.50293-393.26428-55.9209-595.99744,2.63721-116.69714,4.27344-237.46375,7.59521-358.23047-.00195.06372-.00342.12756-.00537.19141-6.74072-26.93628-15.7959-64.34143-20.46069-88.83154-8-42-13.33325-72-19.33325-109.33337s-22-115.33337-23.33325-185.33337c-1.3335-70,5.33325-104.66663,20-130.66663,14.6665-26,68.00024-90.66669,82.66626-112,3.96582-5.76788,8.76025-10.79791,13.64502-15.07745-.06738.55243-.13525,1.112-.2041,1.67651,1.20898-9.90118,2.14062-17.9917,2.55957-22.59906,2-22,7.3335-78.66669,16-105.33331,8.66699-26.66669,42.66699-110.66669,54.66699-126.66669,5.70312-7.60425,16.67529-44.27472,25.54785-85.24225-76.18799,86.39673-210.01807,257.29767-262.41748,443.24225h-.00073Z" fill="#231f20"/>
</svg>