<?xml version="1.0" encoding="UTF-8"?>
<svg id="Layer_8" xmlns="http://www.w3.org/2000/svg" version="1.1" viewBox="0 0 6000 3000">
  <!-- Generator: Adobe Illustrator 30.5.1, SVG Export Plug-In . SVG Version: 2.1.4 Build 3)  -->
  <path id="C1" d="M2367.60449,336.74844h-260.17041c.47095-.67621.90918-1.31458,1.31421-1.91309,1.50586-2.22498,2.56445-3.91205,3.16284-4.9707,5.77783-10.22223,46.66675-61.77777,57.77783-84,1.58081-3.16193,3.48633-6.95563,5.54077-11.20685h6.7666c11.39966,6.56091,39.20508,22.39716,63.24829,34.76239,30.92773,15.9057,105.32861,54.64648,122.35986,67.32825h0ZM1269.46704,263.19796c-12.05005,8.43506-90.52588,54.43854-125.20544,73.55051h258.12097c-.87415-1.1123-1.73511-2.20197-2.58081-3.26276-.86572-1.08582-1.71863-2.14691-2.55701-3.17664-35.07654-43.08307-56.41467-84.69171-61.77283-95.65125h-7.76733c-14.20288,6.22217-47.8197,21.24762-58.23767,28.54016l.00012-.00003ZM872.13367,755.19793c.40857,1.52136.83398,3.047,1.26697,4.5744h1778.64429c6.63965-26.94238,12.18945-63.49481,11.86621-89.01886-.05005-3.94263-.47241-8.3421-1.20605-13.07178H858.5321c-.7876,27.99695,3.67664,60.5542,13.60156,97.51624ZM1006.66785,1110.01452c-.00012-.00159-.00024-.00281-.00037-.00427,1.97894,5.40503,9.11432,24.16919,14.7995,29.85437,5.57294,5.57288,21.85919,23.2594,36.78925,42.93164h1399.49573c5.13452-8.70764,9.72656-15.71118,13.04834-20.93164,8.50928-13.37146,30.30811-35.0459,34.09326-38.771-.00024.00134-.00049.00281-.00073.00415,1.62012-8.61328,3.97534-18.3927,7.46289-32.34424.85791-3.43225,1.74292-6.78015,2.64722-10.04785H1001.5166c2.80579,13.15442,4.66412,23.64148,5.15125,29.30896h0v-.00012ZM1073.46704,1586.53124c-1.1626,7.42236-2.09692,13.77637-2.85364,19.28894h1383.02063c-4.39941-22.46472-10.7334-56.50598-12.83374-81.28882-.56299-6.64258-1.28076-13.5957-2.1062-20.80176h-1353.29907c-4.03601,29.80261-8.27771,59.49548-11.9281,82.80176v-.00012h.00012ZM1076.12488,2028.84411h1376.69641c1.95239-33.91821,3.69922-67.79993,4.68237-102.09058h-1383.43835c.77563,34.03552,1.45105,68.0686,2.05969,102.09058h-.00012ZM1041.16321,2451.86791h1449.14148c-4.95825-32.63501-11.99658-67.16187-19.01709-102.09058h-1412.57703c-5.94531,34.01758-12.28162,68.07446-17.54761,102.09058h.00024ZM1002.02386,2844.30932c-.93811,17.64062,4.20087,26.29175,22.33075,29.63086,1.7865.3291,3.59045.63867,5.39111.95166h1469.27869c12.18457-2.09497,21.91016-4.34741,23.48706-6.34497,8.93945-30.53027.62427-63.75122-4.9209-95.74561H1006.80469c-1.91742,24.38086-3.5481,48.32666-4.78082,71.5083v-.00024ZM3562.94629,336.74844h1373.65723c-63.23291-46.62042-124.8291-81.9104-160.7793-102.09064h-1055.67383c-22.90161,13.8288-102.73877,64.01611-157.20361,102.09064h-.00049ZM3538.97827,2028.84411h1418.73364c.71143-33.76001,1.36328-67.81677,2.01416-102.09058h-1422.87549c.68164,34.02502,1.36084,68.05884,2.12744,102.09058h.00024ZM3514.49731,2451.86791h1473.72632c-4.55566-34.07349-9.08545-68.06812-13.23291-102.09058h-1445.3877c-5.6853,34.10327-10.66455,68.11743-15.10571,102.09058h-.00024.00024ZM3476.74365,2857.56518c.16797,8.76831,3.97095,13.81055,9.64868,17.32666h1527.69556c5.47705-1.92798,9.29248-3.75122,10.98193-5.41748,10.80957-10.66333-4.5249-73.8313-7.64941-96.6731h-1533.98608c-2.21191,28.16919-4.41162,56.41382-6.69067,84.76416l.00024-.00024h-.00024Z" fill="#a41123"/>
  <path id="C2" d="M2521.38257,441.49844h-517.76489c54.51611-41.94812,88.29785-83.12573,101.93213-102.09064h265.69531c19.10205,13.54364,66.03442,41.39288,121.99976,80.23462,9.87915,6.85638,19.25757,14.23199,28.13794,21.85602h-.00024ZM1134.80029,341.86465c-23.40491,12.2876-93.02612,60.52252-137.65405,99.63379h502.8667c-47.8208-38.71136-75.55627-76.45917-95.54871-102.09064h-265.06714c-1.69299.91693-3.23755,1.74316-4.5968,2.45685ZM1139.39709,339.4078h265.06714c-.70337-.90173-1.39697-1.78815-2.08179-2.65936h-258.12097c-1.73706.95728-3.36096,1.84515-4.86438,2.65936ZM2367.91138,336.97573c-.09692-.07336-.20581-.1521-.30664-.22729h-260.17065c-.57666.828-1.20874,1.7196-1.88452,2.65936h265.69507c-1.22534-.86884-2.34229-1.68188-3.33374-2.43207h.00049ZM916.35095,864.52233h1694.85876c12.71338-27.35992,26.28833-62.56561,33.14624-79.54663,2.32324-5.75269,4.72876-13.54517,7.02539-22.54401H874.16357c10.10352,34.61542,26.17749,70.51111,42.18738,102.09064h0ZM874.16357,762.4317h1777.21777c.22266-.8725.44336-1.76489.66382-2.65936H873.40063c.2511.88574.50391,1.77179.76294,2.65936ZM1066.80029,1194.53124c16.66675,24,30,48,36.03296,80.66675.77136,4.17688,1.34265,8.30872,1.75647,12.34827h1315.87561c1.42212-14.08911,4.04785-27.72571,8.33496-41.01489,8.11377-25.15259,18.44653-45.60474,27.39844-61.07556h-1395.94043c2.23804,3.00183,4.43274,6.03857,6.54187,9.07556l.00012-.00012ZM1060.25842,1185.45568h1395.94031c.52271-.90332,1.04053-1.79016,1.55298-2.65942h-1399.49561c.67029.88318,1.3385,1.76904,2.00232,2.65942ZM1065.33765,1663.64831c.72278,15.63562,1.38879,31.27734,2.02856,46.92188h1393.42334c.5542-15.04944,1.17627-30.11157,1.854-45.18042-4.50708-32.85181-4.51001-33.55591-4.51001-36.19177,0-.91882-1.66211-8.96204-3.97754-20.71838h-1383.90222c-4.13904,31.02368-2.32874,33.8374-4.91626,55.1687h.00012ZM1070.25391,1608.47961h1383.90234c-.17041-.8656-.34497-1.75488-.52222-2.65942h-1383.02051c-.12512.91125-.2439,1.79309-.3595,2.65942h-.00012ZM1077.84424,2133.59399h1369.00122c1.7417-34.39136,3.86572-68.27368,5.82202-102.09058h-1376.49451c.60571,34.04541,1.15149,68.0791,1.67114,102.09058h.00012ZM1076.1731,2031.50353h1376.49463c.05127-.88647.10254-1.77307.15332-2.65942h-1376.69629c.01587.88635.03247,1.77307.04822,2.65942h.00012ZM1034.15125,2503.75878c-1.92456,17.25659-3.90552,34.92188-5.89929,52.85913h1472.9873c-2.01538-26.85913-4.41504-53.68091-7.61035-80.41821-.8501-7.11353-1.83667-14.3457-2.92749-21.67212h-1449.94348c-2.51501,16.42358-4.77844,32.83716-6.60681,49.23145v-.00024h.00012ZM1040.75818,2454.52734h1449.94348c-.13208-.88623-.26172-1.77051-.39673-2.65942h-1449.1416c-.13721.88672-.26929,1.77295-.40503,2.65942h-.00012ZM1296.29175,2890.02197c344.0896,12.65527,679.729,13.72046,1023.87573-3.79883,41.07788-2.09131,82.875-.22803,123.91821-4.08667,5.74121-.53955,21.70752-2.31299,37.76709-4.58545h-1435.3938c79.67615,11.5437,170.70898,9.5603,249.83252,12.47046v.00049h.00024ZM1046.45923,2877.55126h1435.3938c5.87744-.83179,11.76587-1.72998,17.17163-2.65942h-1469.27881c5.50964.95752,11.08203,1.84351,16.7135,2.65942h-.00012ZM3545.46704,349.19796c-45.15381,32.88989-82.1394,66.70575-104.54736,92.30048h1613.47192c-10.6875-12.58124-23.1001-25.58276-37.59131-38.96716-24.63574-22.75366-50.71924-43.87775-76.60742-63.12347h-1381.03833c-4.80444,3.38293-9.38867,6.65887-13.6875,9.79016h-.00024.00024ZM3559.15454,339.4078h1381.03833c-1.19678-.88983-2.39355-1.77759-3.58984-2.65936h-1373.65698c-1.2771.89276-2.5437,1.78058-3.79175,2.65936h.00024ZM3540.79858,2101.52612c.28613,10.04956.98999,20.85303,1.8833,32.06787h1414.55249c-.65723-23.93091-.77783-47.98218-.23047-72.19214.22461-9.93408.43994-19.90784.65137-29.89844h-1418.61621c.52954,23.34326,1.09448,46.68579,1.75903,70.02246h.00024l.00024.00024ZM3539.03955,2031.50353h1418.61572c.01904-.88611.03711-1.77295.05615-2.65942h-1418.73364c.02002.8866.04126,1.77295.06128,2.65942h.00049ZM3502.31982,2556.61791h1499.55518c-4.21289-34.18213-8.76123-68.17725-13.29541-102.09058h-1474.43091c-4.42383,34.05322-8.31299,68.06738-11.82837,102.09058h-.00049ZM3514.14819,2454.52734h1474.43091c-.11865-.88647-.23682-1.77295-.35547-2.65942h-1473.72632c-.11597.88623-.23389,1.77295-.34912,2.65942h-.00024.00024ZM3498.27222,2880.05224c99.39575,33.72729,277.24487,40.38916,384.6499,47.3501,293.30151,19.00928,620.05249,22.68115,911.99292-12.08984,27.54004-3.28027,159.64062-22.80298,210.81934-37.76123h-1514.11572c2.09912.90039,4.33203,1.71338,6.65381,2.50122l-.00049-.00024h.00024ZM3491.61841,2877.55126h1514.11597c3.0957-.90479,5.89111-1.79248,8.35352-2.65942h-1527.69531c1.60376.99292,3.36304,1.86035,5.22607,2.65942h-.00024Z"/>
</svg>