<?xml version="1.0" encoding="UTF-8"?>
<svg id="Layer_8" xmlns="http://www.w3.org/2000/svg" version="1.1" viewBox="0 0 6000 3000">
  <!-- Generator: Adobe Illustrator 30.5.1, SVG Export Plug-In . SVG Version: 2.1.4 Build 3)  -->
  <path id="C1" d="M1574.44354,2899.34458V490.79045c46.82172,26.51135,106.14087,51.2207,182.28162,70.22095,0,0,100.01788-25.552,187.24652-75.00195v2414.20673c-123.19666,1.69751-246.10663,1.29297-369.5282-.87158h.00006ZM4435.03174,2941.90586V154.72569c-51.10278-2.9787-101.28076-5.04761-140.52881-5.04761-81.42236,0-165.74365,1.45319-228.99951,3.9751v2784.88037c121.45679,4.79785,246.07471,6.41553,369.52832,3.37256v-.00024Z" fill="#fff"/>
  <path id="C2" d="M1230.56091,291.39854v2598.7146c-67.93372-1.30444-139.31079-2.84302-201.83704-14.35938-18.12982-3.33911-23.2688-11.99023-22.33069-29.63086,5.73615-107.86792,20.04517-232.20972,32.12744-340.55078,12.67072-113.61768,45.82544-228.16284,44.14038-340.58875-2.49255-166.29968-5.26581-333.19141-12.95404-499.52185,3.0968-25.53003-.10803-24.52466,8.12933-77.11694,8.66669-55.33325,20.66669-146.66675,25.33331-190,4.66669-43.33325,4-52,4-55.33325s6.06586-33.33337.03296-66c-6.03296-32.66675-19.36627-56.66675-36.03296-80.66675-16.66663-24-38.66663-48-45.33331-54.66669-5.68518-5.68518-12.82056-24.44928-14.7995-29.85437.00012.00153.00024.00281.00037.00433-2.06134-23.98297-28.65375-134.20551-47.86755-168.1499-20-35.33337-67.33325-114.66669-86.66663-186.66669s-18-127.33331,2.66663-164.66669c20.66675-37.33331,64-92.66663,105.33336-133.33331,41.33331-40.66669,128-101.33331,154.66664-115.33331,16.36255-8.59033,58.32355-32.74084,91.3913-52.27954v.00012ZM2324.53687,2888.03672c41.078-2.09131,82.87512-.22803,123.91833-4.08667,12.57812-1.18237,74.23743-8.28418,78.42578-13.58984,11.28064-38.52588-4.91931-81.33862-8.35046-120.56079-7.90723-90.38647-9.75061-181.56226-20.53198-271.78638-12.27344-102.70996-52.14673-229.40381-47.46411-328.84363,4.58398-97.34363,12.90503-190.09546,12.12683-288.54248-.50574-63.9696,1.4386-128.64148,4.35205-193.42371-4.50708-32.85181-4.51013-33.55591-4.51013-36.19177,0-2.66675-14-65.33337-17.33325-104.66663s-12-89.33325-17.33325-140.66675c-5.33337-51.33325-8-96,5.33325-137.33325s32.66675-70,42-84.66669c8.50916-13.37152,30.30811-35.04584,34.09326-38.771-.00024.0014-.00061.00275-.00073.00415,1.62012-8.61328,3.97522-18.3927,7.46301-32.34424,9.33337-37.33331,21.77771-64.88892,29.33337-83.55554,7.55554-18.66669,41.33325-92.44446,56.44446-117.33331,15.11121-24.88892,36.88892-81.77777,46.22229-104.88892,9.33337-23.11108,20-79.11108,19.55554-114.22223-.44446-35.11108-30.22217-106.22223-49.77771-128s-61.33325-81.77777-120.88879-123.11108c-59.55554-41.33337-108.88892-70.22223-125.33337-82.66669-7.88269-5.96521-29.24695-18.05829-52.78198-30.79553v2580.29126c1.6803-.08472,3.35742-.1626,5.03796-.24829h-.00037ZM3534.95093,1671.33604c.00146-.00659.00293-.01343.00464-.02002-.05493-2.60278-.11279-5.20398-.1665-7.80737.05371,2.60913.10693,5.21887.16187,7.82739ZM3549.83643,351.01139c-54,39.33331-96.3335,80-116,106.33331-19.66675,26.33337-49.66675,80.66669-57.3335,121.33337-7.6665,40.66663-4,89.66663,4.3335,149.33331,8.33325,59.66669,32.33325,124.66669,62.6665,180.66669,30.3335,56,36.3335,104.33331,38.66675,120.33331,1.29126,8.85559,1.86743,24.85608,2.125,39.30377,8.60864,7.56915,21.80933,19.87048,38.20825,37.36285,30,32,62.66675,107.33331,68.66675,140.66669s-6,155.33337-16,197.33337-14.66675,96-19.33325,128.66675c-2.47217,17.30481-12.24023,61.36096-20.88086,98.97131.61841,29.3905,1.30396,58.74231,2.2124,88.02356,3.55176,114.48682,4.73364,229.30664,8,344,1.33838,47.00354,11.77783,110.41895,8.30054,155.98608-2.14746,28.14282-14.19751,60.66309-18.96167,89.02295-28.65674,170.58276-39.55542,338.88745-53.3938,511.03027.26904,14.03491,9.85034,18.52417,21.52856,22.48706,57.08008,19.36865,140.03223,29.80981,220.65894,36.50928V237.2089c-27.21851,16.50989-121.23315,75.75769-173.46411,113.80249ZM4799.28442,2917.12608c32.91113-3.91992,215.14868-31.03589,230.15503-45.83838,11.42285-11.26782-6.35059-81.17334-8.05859-100.16089-3.30273-36.71338-.80469-76.57788-4.08594-111.91406-18.71582-201.55249-60.50293-393.26416-55.9209-595.99744,2.63721-116.69714,4.27344-237.46375,7.59521-358.23047-.00195.06372-.00342.12756-.00537.19141-6.74072-26.93628-15.7959-64.34143-20.46069-88.83154-8-42-13.33325-72-19.33325-109.33337s-22-115.33337-23.33325-185.33337c-1.3335-70,5.33325-104.66663,20-130.66663,14.6665-26,68.00024-90.66669,82.66626-112,3.96582-5.76788,8.76025-10.79791,13.64502-15.07745-.06738.55243-.13525,1.112-.2041,1.67651,1.20898-9.90118,2.14062-17.9917,2.55957-22.59906,2-22,7.3335-78.66669,16-105.33331,8.66699-26.66669,42.66699-110.66669,54.66699-126.66669,8.05078-10.73456,26.604-79.38373,34.92334-136.29022v-78.08356c-9.06738-43.50458-20.76562-110.86951-108.92334-192.29291-96-88.66663-214-152.66663-256.66675-176.66663-1.31177-.73792-2.625-1.48029-3.93799-2.22607v2696.0125c12.9624-1.38208,25.88574-2.80957,38.71948-4.33838h-.00073Z" fill="#231f20"/>
</svg>