<?xml version="1.0" encoding="UTF-8"?>
<svg id="Layer_8" xmlns="http://www.w3.org/2000/svg" version="1.1" viewBox="0 0 6000 3000">
  <!-- Generator: Adobe Illustrator 30.5.1, SVG Export Plug-In . SVG Version: 2.1.4 Build 3)  -->
  <path id="C1" d="M2581.30895,506.20253c-22.15442-26.32776-52.07825-58.85547-88.75806-84.31232-27.05298-18.77557-51.98169-34.97296-72.69165-48.23804l-666.27802,666.27808-666.08275-666.08277c-36.07739,24.96918-81.45604,59.42474-108.05865,85.59827-16.15247,15.89191-32.60486,34.02509-47.896,52.44708l822.0374,822.03741,827.72772-827.72772Z" fill="#a41123"/>
  <path id="C2" d="M1753.58123,1630.19636l.0058.00586,905.10596-905.1059c2.8822-18.38446,4.71399-37.13513,4.52454-52.09497-.44446-35.11108-30.22217-106.22223-49.77771-128-7.32373-8.15594-17.76514-21.67346-31.08887-37.56293l-828.76385,828.76379-.0058-.00586-.00586.00586-823.0647-823.06476c-23.41211,28.32269-43.99573,57.2262-56.4043,79.6416-19.44531,35.12726-21.76904,86.1947-5.87183,152.08228l885.34077,885.34088.00586-.00586Z"/>
</svg>