<?xml version="1.0" encoding="UTF-8"?>
<svg id="Layer_8" xmlns="http://www.w3.org/2000/svg" version="1.1" viewBox="0 0 6000 3000">
  <!-- Generator: Adobe Illustrator 30.5.1, SVG Export Plug-In . SVG Version: 2.1.4 Build 3)  -->
  <path id="C1" d="M3714.63284,755.92586h-331.15649c-2.09814-9.76379-3.8374-19.45068-5.17114-29-8.3335-59.66669-12-108.66669-4.3335-149.33331,7.66675-40.66669,37.66675-95,57.3335-121.33337,19.6665-26.33331,62-67,116-106.33331s152.6665-101.33331,176-115.33331c23.33325-14,109.33325-64.66669,109.33325-64.66669,0,0,99.33325-7.33331,152.66675-12.66669,53.33325-5.33331,183.33325-8.66663,306.6665-8.66663s354.59399,20.42657,383.3335,25.33331c0,0,44,28.66669,86.6665,52.66669,42.66675,24,160.66675,88.00001,256.66699,176.66663,96,88.66669,101.33301,160.66669,111.33301,203.33337,6.50879,27.77045-6.1875,98.74353-19.1543,149.33331h-1396.18457ZM2654.98147,755.92586c6.1416-26.39386,11.07312-60.3407,10.76807-84.44446-.44446-35.11108-30.22217-106.22223-49.77783-128-19.55554-21.77777-61.33325-81.77777-120.88879-123.11108-59.55554-41.33337-108.88892-70.22223-125.33337-82.66669s-91.55554-51.55554-122.66663-67.55554c-31.11121-16-68.547-37.82623-68.547-37.82623l-7.00854,14.27069c-11.11121,22.22223-52,73.77777-57.77783,84-.59839,1.05865-1.65686,2.74573-3.16284,4.9707-13.03613,19.25909-60.1427,79.46533-142.61475,133.25153-92,60-213.77783,91.11108-213.77783,91.11108-237.2558-59.20514-311.19672-173.84027-352.55414-225.71228-.86572-1.08582-1.71857-2.14691-2.55695-3.17664-40.88892-50.22217-63.11108-98.4444-63.11108-98.4444,0,0-51.33337,22-64.66669,31.33331s-108,64.66669-134.66669,78.66669c-26.66663,14-113.33331,74.66663-154.66663,115.33331-41.33337,40.66669-84.66663,96-105.33337,133.33331-20.66663,37.33337-22,92.66669-2.66663,164.66669h335.27533c162.27386,0,388.17395-61.05725,388.17395,284.84875v1857.90753c102.90692,1.60132,205.49615,1.96753,308.2309.88794V918.81099c49.27722-208.12909,236.13354-162.88513,375.8374-162.88513h373.49219-.00024Z" fill="#231f20"/>
</svg>