<?xml version="1.0" encoding="UTF-8"?>
<svg id="Layer_8" xmlns="http://www.w3.org/2000/svg" version="1.1" viewBox="0 0 6000 3000">
  <!-- Generator: Adobe Illustrator 30.5.1, SVG Export Plug-In . SVG Version: 2.1.4 Build 3)  -->
  <path id="C1" d="M2096.19728,353.78337l514.36951,514.36963c-4.2926,9.14594-8.46716,17.32532-12.22864,23.52045-3.16467,5.21246-7.14978,12.57404-11.53955,21.11981l-522.79663-522.79681c13.59265-13.88385,24.31213-26.32745,32.19543-36.21307h-.00012ZM2467.31154,1169.44548l-634.42511-634.42517c-19.72705,7.38416-37.2981,13.21008-50.94733,17.46149l660.84326,660.84326c8.8396-18.95459,17.99829-33.65845,24.52905-43.87964l.00012.00006ZM2459.76772,1749.95738L1085.34072,375.53032c-12.58441,8.76898-26.17596,18.60217-39.63275,28.7757l1412.81,1412.80994c.18298-22.32617.61829-44.71997,1.24988-67.15857h-.00012ZM2446.27919,2181.01659L869.38246,604.11992c-6.72046,16.39624-10.32495,35.65234-10.71167,57.69708l1595.41968,1595.41992c-4.01367-26.16846-6.92261-51.79199-7.81128-76.22021v-.00012ZM1088.98098,1480.1826l1398.40454,1398.40442c17.23315-2.56421,33.26599-5.61572,35.33069-8.23145,2.03284-6.94238,3.16248-14.02539,3.64612-21.2002l-1429.75146-1429.75134c-2.07098,17.52124-4.72778,38.67395-7.62988,60.77844v.00012ZM1073.82869,1909.5786l988.25372,988.25354c22.15222-.55957,44.32239-1.18994,66.51514-1.89355l-1056.62714-1056.62708c.67883,23.42041,1.29718,46.84363,1.85828,70.26709ZM1039.85323,2463.65831l433.63147,433.63135c23.34418.57788,46.66382,1.09717,69.96179,1.55371l-493.95306-493.95312c-3.43066,19.59546-6.7381,39.18994-9.6402,58.76807ZM1002.22859,2846.11827c-.93811,17.64062,4.20087,26.29175,22.33069,29.63086,19.04657,3.50806,38.91919,6.08423,59.26135,8.01611l-79.0434-79.04346c-.97058,14.01587-1.82758,27.83667-2.54865,41.39648ZM4290.33827,149.67345c-19.06689,0-38.29272.0799-57.37036.23431l800.04761,800.04773c1.04785-4.52954,2.15381-8.6853,3.32275-12.28204,2.73828-8.42523,8.00635-22.57581,14.30957-38.49451l-749.45532-749.45532c-3.7002-.03265-7.32349-.05017-10.85425-.05017ZM5090.96767,494.95091l-162.45264-162.4527c-70.75513-51.20129-138.13696-87.92749-168.17676-104.82477-3.92456-2.20758-7.86011-4.45471-11.77197-6.71533l377.80957,377.80969c-5.53662-26.27533-11.61719-61.64191-35.40869-103.81689h.00049ZM4961.59462,1842.72948L3503.0707,384.20555c-13.34692,11.13538-25.47314,22.01447-36.13403,32.27466l1493.35034,1493.3501c.42432-22.29541.85498-44.6709,1.30811-67.10071l-.00049-.00012ZM4902.27504,1338.86193L3770.26161,206.84838c-16.47803,9.73816-32.59814,19.28223-42.95288,25.45557l1182.58496,1182.58508c-3.41455-24.35071-6.33838-50.45044-7.61865-76.0271ZM3556.00698,1538.15404l1360.24585,1360.24548c20.22266-3.57178,40.12549-7.35522,57.3252-11.0835l-1409.33325-1409.33313c-3.36743,20.3573-5.95947,41.37244-8.23755,60.17102l-.00024.00012ZM3439.17153,908.36193c.05591.10339.11084.20819.16675.31152,23.37207,43.14825,32.29224,81.72742,36.22559,104.48926l1523.83154,1523.83154c-3.3501-26.33789-6.85693-52.57739-10.35889-78.76733l-1549.86499-1549.86499ZM3506.51943,2521.26988l410.02197,410.02222c23.9458,1.44263,48.09082,2.77832,72.40503,3.99634l-475.09839-475.09839c-2.62231,20.37012-5.05078,40.72656-7.32861,61.08008v-.00024ZM3541.00331,2103.33495c.07617,2.67578.1853,5.41113.31616,8.18701l831.4729,831.47278c22.38452-.29321,44.74805-.74268,67.07397-1.33423l-900.4397-900.4397c.47998,20.70691.98706,41.41272,1.57666,62.11414Z" fill="#f60"/>
  <path id="C2" d="M2024.10659,426.97472l537.60291,537.60291c-1.82788,3.93597-3.60156,7.78674-5.29419,11.49017l-541.50403-541.50409c3.14172-2.53967,6.20679-5.07086,9.19531-7.58899ZM2469.47414,1166.06829l-632.56458-632.56458c-1.35034.51245-2.69177,1.01825-4.02313,1.5166l634.42511,634.42517c.75854-1.18707,1.47974-2.31158,2.1626-3.3772ZM1981.36525,459.76274l557.24182,557.24194c1.16992-2.8255,2.27356-5.49438,3.28687-7.99792.448-1.10675.99097-2.41315,1.61389-3.88568l-552.34192-552.34192c-3.20435,2.33167-6.4679,4.66089-9.80078,6.98358h.00012ZM1945.553,482.69554l576.74878,576.74878c1.45752-4.31567,2.92468-8.44995,4.38123-12.40277l-570.63452-570.63458c-3.46838,2.1355-6.96863,4.23212-10.49536,6.28857h-.00012ZM1966.3384,469.89568c-.84998.55432-1.70752,1.10107-2.5625,1.65051l566.36548,566.36548c1.646-4.23474,3.2533-8.23083,4.79114-11.99347l-561.03564-561.03564c-2.48572,1.67621-5.00476,3.34778-7.55835,5.01312h-.00012ZM1998.40383,447.42876l548.90564,548.90558c1.5354-3.49176,3.27698-7.39972,5.17505-11.60919l-544.58386-544.58386c-3.09668,2.42627-6.26099,4.85663-9.4967,7.28748h-.00012ZM1907.26577,503.15367l602.15308,602.15308c.93054-3.85675,1.97107-8.06122,3.14172-12.74445.06018-.2406.12195-.47614.18225-.71594l-594.30908-594.30908c-3.71936,1.91388-7.44421,3.78748-11.16809,5.61639h.00012ZM1887.31301,512.57372l615.04993,615.04987c1.23035-1.23462,2.18054-2.17517,2.73535-2.72119-.00024.0014-.00061.00275-.00073.00415.55505-2.95074,1.19885-6.04486,1.94238-9.3902l-608.26221-608.26221c-3.83411,1.82025-7.65735,3.59021-11.4646,5.31958h-.00012ZM1866.88222,521.51531l621.12939,621.12933c2.83325-3.10596,5.62512-6.06445,8.12341-8.66058l-617.52191-617.52185c-3.94025,1.73267-7.85553,3.41998-11.7309,5.0531ZM1926.69594,493.21111l588.68457,588.68451c1.24524-4.4718,2.5271-8.78857,3.83044-12.95343l-581.6676-581.66766c-3.599,2.01831-7.21619,3.99933-10.84729,5.93658h-.00012ZM2482.0895,1149.31133l-624.10522-624.10522c-4.05316,1.65497-8.05292,3.25214-11.99005,4.79395l628.57501,628.57507c2.21619-2.95471,4.80078-6.10822,7.52014-9.26379h.00012ZM2061.25173,392.786l523.67468,523.67474c.63147-1.24463,1.25562-2.46716,1.87219-3.66748l-522.79663-522.79681c-.90442.92383-1.82031,1.85333-2.75012,2.78955h-.00012ZM2030.89028,421.17003l534.82739,534.82739c1.77588-3.7793,3.58142-7.59192,5.39563-11.38885l-531.3302-531.33026c-2.87891,2.60785-5.84143,5.23981-8.8927,7.89172h-.00012ZM2046.3395,407.24663l528.86292,528.86292c1.85779-3.83313,3.70532-7.60571,5.52002-11.26447l-525.79517-525.79523c-2.76257,2.69324-5.625,5.42767-8.58777,8.19678ZM2455.74819,1979.33739L958.28018,481.86955c-2.67114,2.90259-5.33154,5.84045-7.97595,8.80853l1504.65502,1504.65503c.27417-5.32788.5365-10.6604.78894-15.99573ZM2458.42372,1835.14989L1035.43563,412.16179c-3.16785,2.45099-6.31128,4.91022-9.41528,7.36908l1432.42804,1432.4281c-.02515-5.59827-.03491-11.20093-.02466-16.80908ZM2457.86501,1922.70922L987.41402,452.25835c-2.47705,2.29968-4.84589,4.55463-7.07562,6.74841-.49432.48633-.99005.98462-1.48492,1.4751l1478.53228,1478.53217c.17981-5.42407.33765-10.86023.47937-16.30481h-.00012ZM2458.41506,1893.88671L1002.97231,438.44396c-3.09387,2.64362-6.08667,5.25348-8.96472,7.81964l1464.1427,1464.14276c.11035-5.49353.20117-10.99878.26477-16.51953v-.00012ZM2456.96498,1951.18175L972.57485,466.79167c-2.74194,2.80035-5.48535,5.65887-8.22412,8.56012l1491.95081,1491.95081c.23425-5.36755.45923-10.73938.66345-16.12085ZM2458.51796,1817.11595L1045.70796,404.30602c-1.05109.79462-2.10101,1.59149-3.14984,2.38995l1415.91748,1415.91742c.0116-1.83179.02722-3.66479.04236-5.49756v.00012ZM2458.50563,1864.60448L1019.02669,425.1256c-3.13507,2.53271-6.21564,5.05621-9.22412,7.5603l1448.71637,1448.71631c.02539-5.58081.01709-11.1825-.01343-16.79773h.00012ZM2447.94228,2118.39501L893.01406,563.46678c-2.33459,3.42834-4.57788,6.80066-6.6958,10.08807l1560.78455,1560.78461c.27112-5.32703.55188-10.64026.83948-15.94446ZM2446.36952,2149.16478c.04456-.94592.09473-1.88477.13989-2.82983L881.46058,581.28612c-2.23926,3.66187-4.30615,7.19678-6.19385,10.58997l1570.73988,1570.73987c.03821-4.53406.15442-9.02075.36304-13.45105l-.00012-.00012ZM2454.334,2007.29613L944.41005,497.3723c-2.6062,2.99432-5.18945,6.00903-7.74609,9.03772l1516.79163,1516.79163c.30029-5.30127.59192-10.60278.87842-15.90552ZM2446.10903,2175.30675L871.05043,600.24816c-.57617,1.27203-1.13159,2.56317-1.66797,3.87177l1576.89673,1576.89655c-.06958-1.91089-.12573-3.81384-.17004-5.70972h-.00012ZM2449.50539,2090.58544L905.1935,546.27349c-2.41504,3.28827-4.76025,6.54449-7.02625,9.75806l1550.43262,1550.43243c.29773-5.30066.59863-10.59497.90552-15.87866v.00012ZM2452.76906,2035.10387L930.93495,513.26988c-2.54395,3.08337-5.05542,6.17249-7.52441,9.2594l1528.43053,1528.43054c.31262-5.28748.62146-10.57349.92798-15.85596ZM2451.13845,2062.84545L917.85683,529.56395c-2.48181,3.17841-4.91528,6.34558-7.29126,9.49316l1539.63488,1539.63489c.31177-5.28821.62463-10.56921.93799-15.84656ZM1071.42342,1820.63634l1074.72028,1074.72021c5.41162-.18091,10.82202-.35791,16.23633-.54761l-1091.50726-1091.50708c.18481,5.77808.37433,11.55591.55066,17.33447ZM1070.45967,1790.29991l1104.06781,1104.06787c5.39832-.19556,10.79419-.38403,16.19556-.58838l-1120.86487-1120.86499c.20135,5.79504.40942,11.58972.6015,17.3855ZM1073.73061,1587.96251l1298.80884,1298.80859c5.52039-.06372,11.04224-.13086,16.5625-.22168l-1313.14093-1313.14062c-.76221,5.06628-1.50787,9.93506-2.23041,14.55371ZM1081.28505,1536.77196l1348.31982,1348.31995c4.90405-.31348,9.80054-.68701,14.68567-1.14624.26538-.0249.56055-.05347.86877-.08374l-1361.81781-1361.81787c-.68512,4.95569-1.37183,9.87341-2.05646,14.72778v.00012ZM1071.97042,1839.31151l1056.62714,1056.62708c1.7865-.05664,3.5752-.12036,5.36206-.17798l-1062.15564-1062.1554c.05597,1.9021.11133,3.8042.16644,5.7063ZM1084.86092,1510.97521l1371.65387,1371.65381c4.41174-.51001,9.53625-1.13159,14.94995-1.83423l-1384.60602-1384.60645c-.65924,4.92371-1.32635,9.86157-1.9978,14.78674v.00012ZM1077.59059,1562.45018l1323.84058,1323.84045c5.41333-.13794,10.8219-.32031,16.22351-.56128l-1337.9364-1337.93591c-.71631,4.99597-1.42688,9.89148-2.12769,14.65686v-.00012ZM1088.33638,1485.07787l1394.21234,1394.21228c1.61609-.22949,3.2312-.46411,4.83667-.70337l-1398.40442-1398.40417c-.21362,1.62732-.42841,3.25879-.64459,4.89526ZM1068.26064,1729.3557l1162.80823,1162.80823c5.36353-.22461,10.72937-.45483,16.09631-.68799l-1179.61542-1179.6156c.23877,5.83154.48291,11.66272.71088,17.49536ZM1067.01271,1698.73522l1192.2146,1192.2146c5.3457-.23901,10.69653-.49023,16.04602-.73804l-1209.03284-1209.03284c.25964,5.85181.52411,11.70312.77222,17.55615v.00012ZM1067.47554,1640.45299l1247.8288,1247.82861c1.69019-.08521,3.37732-.16357,5.06787-.24951,3.66199-.18628,7.33142-.33252,11.00378-.46289l-1262.66882-1262.66907c-.66705,6.45642-.99323,11.26001-1.23163,15.55298v-.00012ZM1069.407,1759.87486l1133.42871,1133.42847c5.38098-.20996,10.76172-.41943,16.146-.63818l-1150.2287-1150.22852c.21936,5.81262.44464,11.62463.65399,17.43823ZM1070.02199,1613.62682l1273.58118,1273.5813c5.49255-.12598,10.99353-.21313,16.49829-.28638l-1288.03564-1288.03552c-.82495,5.59192-1.4953,10.45605-2.04382,14.7406ZM1065.54238,1665.45702c.03925.84912.07416,1.69885.11316,2.5481l1221.65308,1221.65295c5.32898-.25342,10.66553-.52319,15.99841-.7854l-1236.49933-1236.49915c-.25818,3.70361-.62823,7.83154-1.26532,13.0835ZM1015.53243,2679.85851l210.23804,210.23779c5.73248.11035,11.43933.21948,17.11584.33179l-225.8233-225.82349c-.51648,5.08423-1.02576,10.16919-1.53058,15.25366v.00024ZM1021.01924,2626.60021l264.87354,264.87354c3.55402.11133,7.09448.22778,10.60364.35693,2.26178.08325,4.5191.16016,6.78015.24243l-280.63525-280.63525c-.54358,5.04297-1.08392,10.09961-1.62207,15.16235ZM1039.15218,2468.49718l428.65192,428.65186c1.89386.04785,3.78705.09375,5.6806.14087l-433.63147-433.63159c-.23914,1.61328-.46759,3.22583-.70105,4.83887ZM1018.2325,2653.18566l237.50696,237.50708c5.77319.125,11.50555.25928,17.19226.4082l-253.11554-253.11548c-.53174,5.06201-1.06049,10.12842-1.58368,15.2002ZM1026.77437,2573.60997l319.97961,319.97949c5.78809.19409,11.57758.39014,17.36139.57715l-335.66681-335.66699c-.55737,5.01489-1.11572,10.05518-1.67419,15.11011v.00024ZM1035.66921,2494.38683l401.97015,401.97021c5.75116.15698,11.5036.31689,17.25134.4668l-417.28815-417.28809c-.67371,4.95166-1.32587,9.90234-1.93335,14.85107ZM1032.66054,2520.75109l374.74817,374.74805c5.76404.16968,11.5307.34424,17.29108.50659l-390.35321-390.35327c-.55725,4.99658-1.12042,10.03711-1.68604,15.09839v.00024ZM1029.70955,2547.17272l347.40344,347.40356c5.77631.18213,11.55499.36792,17.32733.54297l-363.04504-363.04517c-.55975,5.00952-1.1214,10.0376-1.68573,15.09888v-.00024ZM1023.87087,2600.07921l292.46057,292.46045c5.79999.20605,11.6004.41211,17.39587.61133l-308.20197-308.20215c-.55243,5.03027-1.10431,10.07056-1.65448,15.13013v.00024ZM1004.77724,2804.72179l79.0434,79.04346c2.03052.19287,4.06311.38257,6.10272.56299l-84.7793-84.7793c-.12238,1.72461-.2478,3.4541-.36682,5.17285ZM1008.14034,2760.58409l126.79181,126.79175c5.84448.29272,11.70288.55249,17.56903.78516l-143.05286-143.05298c-.44678,5.17285-.88379,10.33325-1.30798,15.47607ZM1005.99874,2787.81529l97.62195,97.62183c5.96967.44629,11.96802.84717,17.98993,1.20605l-114.41351-114.41357c-.41382,5.21753-.81158,10.4104-1.19836,15.58569ZM1010.46315,2733.53453l155.10028,155.10034c5.7688.19214,11.53766.36328,17.30188.51758l-171.00745-171.00732c-.47461,5.13965-.93872,10.26929-1.39471,15.38965v-.00024ZM1012.93447,2706.63317l182.84235,182.84229c5.73157.13281,11.45166.25439,17.15369.36938l-198.5249-198.5249c-.4975,5.1084-.98871,10.21411-1.47113,15.31323ZM4601.30312,167.35277l522.26318,522.26325c.82959-4.88208,1.60059-9.72314,2.30029-14.48413l-506.07861-506.0785c-5.82446-.55011-12.00171-1.11871-18.48486-1.70062ZM4319.59682,149.99993l736.24438,736.24444c1.60303-3.93958,3.2417-7.91827,4.89795-11.8866l-723.92505-723.92469c-5.86621-.1723-11.61133-.31732-17.21729-.43317h0ZM4411.34096,153.62615l671.51636,671.51672c2.20801-4.35773,4.21582-8.04236,5.94287-10.84155l-659.6814-659.68183c-5.94556-.3443-11.87622-.67596-17.77783-.99334ZM4301.19252,149.72362l749.45532,749.45532c.51904-1.3103,1.04443-2.63153,1.57617-3.96362l-745.43091-745.43097c-1.88647-.02411-3.75366-.04443-5.60059-.06073ZM4349.82167,150.85192l714.64795,714.64843c1.69336-3.97931,3.38818-7.90369,5.06299-11.72089l-702.26147-702.26196c-5.89893-.24329-11.72095-.46582-17.44946-.66559ZM4380.42983,152.08794l692.97925,692.97949c1.82422-4.04059,3.604-7.89276,5.30908-11.47546l-680.6582-680.65839c-5.92529-.29871-11.80688-.58112-17.63013-.84564ZM5126.37587,598.76781l-377.80981-377.80969c-4.50415-2.60284-8.97534-5.22327-13.36206-7.82239l392.71387,392.71375c-.51855-2.28033-1.02832-4.64288-1.54199-7.08167ZM4633.72304,170.40001l493.65576,493.65619c.65625-5.21259,1.2085-10.2793,1.64062-15.1441l-476.57373-476.57392c-5.46118-.59589-11.73755-1.24609-18.72266-1.93817ZM5129.93202,620.45183l-426.77319-426.77325c-17.51074-10.86945-29.48706-18.67181-29.48706-18.67181-1.66284-.28387-4.01172-.6203-6.97046-1.00116l463.14136,463.14129c.29492-6.08197.33691-11.68988.08936-16.69507ZM4569.15175,164.57396l549.7915,549.79169c.94775-4.67303,1.8584-9.37018,2.7251-14.05914l-534.17212-534.17243c-5.92188-.5141-12.04541-1.03522-18.34448-1.56012ZM4505.44936,159.61699l602.42651,602.42646c1.13477-4.3017,2.27197-8.78101,3.39941-13.38525l-587.70093-587.7008c-5.96924-.45056-12.0166-.89807-18.125-1.34039h0ZM4473.87758,157.41747l627.49048,627.49011c1.24219-4.00488,2.521-8.34515,3.81738-12.96674l-613.29028-613.28979c-5.96777-.41821-11.97974-.8299-18.01758-1.23358ZM4442.50112,155.41362l651.05151,651.05146c1.4165-3.02771,3.00977-7.12366,4.71777-12.06628l-637.86523-637.86493c-5.95972-.38336-11.93286-.75739-17.90405-1.12024ZM4537.20742,162.00206l576.4917,576.49152c1.04297-4.49634,2.06885-9.07996,3.06738-13.7168l-561.32886-561.32867c-5.95654-.48187-12.0415-.96466-18.23022-1.44605ZM4909.89369,1414.88902L3727.30873,232.30394c-1.24121.74005-2.40283,1.43347-3.46875,2.07098l1186.97729,1186.97723c-.31104-2.13953-.61914-4.29419-.92334-6.46313h-.00024ZM4913.05312,1436.1765L3715.99477,239.11815c-2.95093,1.80469-6.43457,3.95203-10.38232,6.40228l1210.6853,1210.68524c-1.07397-6.41748-2.16577-13.11475-3.24463-20.02893v-.00024ZM4964.8041,1704.98021c-.00195.06372-.00342.12756-.00537.19141-1.2168-4.86316-2.51025-10.07092-3.83838-15.479L3590.85292,319.58507c-3.37939,2.2749-6.72021,4.53589-10.00879,6.77502l1383.82178,1383.82153c.04688-1.73389.09082-3.46753.13867-5.20142h-.00049ZM4962.30702,1808.52965L3522.38124,368.60399c-3.17041,2.48328-6.28833,4.9621-9.35034,7.43353l1448.92896,1448.92865c.11377-5.47632.22998-10.9552.34717-16.43652ZM4964.33876,1722.44298L3573.36952,331.4738c-3.38257,2.32611-6.69043,4.61853-9.91406,6.87067l1400.46436,1400.46411c.13672-5.45483.27588-10.90967.41895-16.3656ZM4944.33827,1616.34007c-.15942-.83679-.31592-1.66101-.47339-2.4884L3626.18544,296.17211c-3.37305,2.20453-6.75586,4.42291-10.13623,6.64838l1332.10742,1332.10712c-1.44897-6.68457-2.74976-12.97742-3.81836-18.58765v.00012ZM4963.61269,1751.08995L3556.06606,343.54326c-3.3894,2.40295-6.65186,4.74347-9.77222,7.01208l1416.93018,1416.92987c.12793-5.46423.25586-10.92871.38867-16.39526ZM4951.77553,1651.135L3608.46743,307.82683c-3.37744,2.23682-6.74097,4.47406-10.07935,6.70465l1358.53662,1358.53613c-1.75-7.29895-3.4939-14.70605-5.14893-21.93274l-.00024.00012ZM4937.12514,1577.73888L3643.98989,284.60393c-3.3645,2.17377-6.76318,4.3764-10.18384,6.60059l1307.12891,1307.12909c-1.33643-7.13208-2.59961-13.95776-3.81006-20.59448l.00024-.00024ZM4925.00502,1507.0067c-.0083-.052-.01733-.10657-.02563-.15869L3679.8246,261.69359c-3.31616,2.09802-6.74341,4.27228-10.26831,6.51587l1258.70068,1258.70068c-1.0752-6.46802-2.15234-13.06189-3.25195-19.90332v-.00012ZM4918.88369,1471.37987L3697.8561,250.35234c-3.23901,2.02429-6.68628,4.18652-10.31396,6.47046l1234.88013,1234.88007c-1.07446-6.19531-2.27344-13.00793-3.53857-20.32312v.00012ZM4930.81093,1542.05248L3661.87075,273.11229c-3.34912,2.14105-6.76099,4.32825-10.22681,6.55731l1282.7146,1282.71454c-1.21533-6.83496-2.38965-13.56543-3.54761-20.33191v.00024ZM4962.94081,1779.79039L3539.04189,355.89183c-3.23462,2.40485-6.42407,4.81165-9.56592,7.21802l1433.0957,1433.0957c.11963-5.46924.24414-10.94226.36914-16.41516ZM4961.70546,1837.30016L3506.10121,381.69597c-1.01367.83728-2.03003,1.67499-3.03052,2.50958l1458.52393,1458.52405c.03662-1.80933.07373-3.61926.11084-5.42932v-.00012ZM3562.22695,1176.69933c4.61914,9.91724,8.82666,19.83362,12.44043,29.22498l1436.88525,1436.88489c-.61865-6.2417-1.25684-12.47437-1.91406-18.69873l-1447.41138-1447.41125-.00024.00012ZM3580.15151,1387.64403l1447.54126,1447.54114c-.76953-6.37354-1.79297-13.07153-2.90283-19.68726l-1442.86548-1442.8656c-.56982,5.09485-1.1626,10.11267-1.77295,15.01172ZM5001.99257,2557.71959l-1523.3667-1523.36682c.47852,5.06543.82373,11.28711,1.07178,17.85626l1524.61182,1524.61163c-.75928-6.37378-1.53174-12.74072-2.31689-19.10107ZM3549.44155,1151.32561l1458.67554,1458.67548c-.69482-6.31421-1.40674-12.62036-2.13428-18.91895l-1525.91382-1525.91382c.02197,1.05286.04248,2.10211.06128,3.14209,8.60864,7.56915,21.80933,19.87048,38.20825,37.36285,10.45825,11.15552,21.2395,27.57941,31.10327,45.65222l-.00024.00012ZM3584.62856,1345.9641c-.46509,5.10962-.96167,10.22351-1.48389,15.30017l1438.94507,1438.94531c-1.41016-7.71313-2.74365-14.79199-3.6792-20.46338l-1433.78223-1433.7821h.00024ZM4999.3954,2536.99425l-1523.83154-1523.83154c.41211,2.38599.77173,4.6001,1.08521,6.62506l1523.5481,1523.54828c-.26709-2.11426-.5332-4.22876-.80176-6.34155v-.00024ZM3588.40908,1261.62645c.19653,5.05359.24634,10.75134.16553,16.95007l1426.47998,1426.48022c-.07275-5.74463-.16992-11.45703-.32812-17.11279l-1426.31763-1426.3175h.00024ZM3572.17787,1438.41551l1439.25366,1439.25354c5.28955-1.72412,9.34961-3.37329,11.87109-4.91309l-1448.45825-1448.45813c-.8894,5.19446-1.78247,9.93079-2.66626,14.11768h-.00024ZM5012.89638,2656.74156l-1431.35107-1431.3512c2.53345,7.96655,4.40771,15.10535,5.45972,20.94971.08936.49609.17407,1.01477.25537,1.54956l1426.95728,1426.95715c-.26807-5.28955-.61182-10.51611-1.08789-15.63867-.07666-.82275-.15625-1.64404-.2334-2.46655ZM3564.24452,1477.98302l1409.3335,1409.33301c1.53613-.33301,3.05127-.66553,4.54248-.99731l-1413.07568-1413.07568c-.27173,1.57495-.53784,3.15564-.80005,4.73999h-.00024ZM3566.98061,1462.59093l1421.37085,1421.37061c4.8208-1.15283,9.30371-2.29199,13.37451-3.40967l-1431.87158-1431.87146c-1.01294,4.53088-1.96851,9.1803-2.87354,13.9104l-.00024.00012ZM3588.27114,1290.86156c-.18042,5.14246-.42871,10.51355-.73755,16.047l1427.91016,1427.91016c-.11377-5.6709-.18457-11.35425-.24463-17.02954l-1426.92773-1426.92761h-.00024ZM3578.70522,1398.78612c-.69019,5.09851-1.39575,10.00952-2.10986,14.67444l1451.57056,1451.57031c.90674-4.13184,1.08252-9.66504.76562-16.0188l-1450.22607-1450.22583-.00024-.00012ZM3586.79946,1318.76256c-.34839,5.13098-.7395,10.35034-1.16943,15.61438l1431.13647,1431.13684c-.43408-5.85522-.73877-11.77856-.95801-17.7417l-1429.00928-1429.0094.00024-.00012ZM3544.04628,2149.16124l794.17871,794.17847c5.54517-.03613,11.08887-.09741,16.63354-.15088l-812.32471-812.32458c.45142,5.98181.96753,12.09973,1.51245,18.297ZM3549.30385,2259.32091c-.28125,3.68726-.73608,7.45117-1.31885,11.26953l672.26294,672.26294c5.66113.0813,11.32715.1438,16.99316.20874l-687.677-687.677c-.0769,1.32446-.16138,2.6394-.26025,3.93579ZM3523.27211,2392.74083l546.10034,546.10059c5.80493.22217,11.61304.4397,17.4314.64697l-561.29663-561.29663c-.75928,4.85132-1.50244,9.70093-2.23511,14.54907ZM3527.23134,2367.32726l572.61157,572.61182c5.77588.19458,11.55713.38086,17.34473.56006l-587.59692-587.59668c-.79932,4.80981-1.58765,9.61841-2.35938,14.42505v-.00024ZM3537.03408,2318.38463l623.30933,623.30933c5.71826.13818,11.44287.2627,17.16919.38525l-637.03882-637.03882c-1.14209,4.45752-2.30591,8.91406-3.4397,13.34424ZM3531.47328,2342.19664l598.6936,598.6936c5.74683.1665,11.5.32178,17.25684.4729l-612.90381-612.90381c-1.11963,4.64404-2.15576,9.2334-3.04663,13.73706v.00024ZM3542.99428,2294.97252l647.37646,647.37622c5.6897.10986,11.3855.20337,17.08179.29736l-661.37891-661.37891c-.91797,4.5271-1.96436,9.10547-3.07935,13.70508v.00024ZM3519.51845,2418.35948l519.23877,519.23877c5.83374.25,11.66846.49829,17.51782.73364l-534.63428-534.63428c-.71973,4.88843-1.42773,9.77588-2.12231,14.66187ZM3546.91957,2181.40746l762.04419,762.04382c5.57422-.00635,11.14917-.03662,16.72412-.06006l-780.40332-780.40356c.55298,6.11621,1.10864,12.27075,1.63525,18.41968l-.00024.00012ZM3541.62563,2117.36791l825.70215,825.70203c1.82178-.02197,3.64282-.05127,5.4646-.0752l-831.4729-831.4729c.09106,1.92786.19214,3.875.30615,5.84595v.00012ZM3513.84804,2460.18981l475.09863,475.09839c1.94873.09741,3.88745.20215,5.83838.29834l-480.29492-480.29492c-.2124,1.63257-.43164,3.26538-.64209,4.89795v.00024ZM3515.95034,2444.16417l492.04688,492.04688c5.86304.27759,11.72339.55664,17.604.82007l-507.63818-507.63818c-.68188,4.9248-1.35449,9.84839-2.0127,14.77124ZM3549.22353,2213.08385l730.32251,730.32251c5.60327.02295,11.20898.02368,16.81445.03003l-748.32935-748.32935c.46045,6.05078.86865,12.05859,1.19238,17.97681ZM3549.97524,2243.20787l699.99854,699.99854c5.63208.05225,11.26807.08398,16.90381.11987l-717.08179-717.08203c.18091,5.79907.24902,11.46606.17944,16.96362Z" fill="#007577"/>
  <path id="C3" d="M1887.31301,512.57372l615.04993,615.04987c-1.64258,1.64832-3.79175,3.82892-6.22791,6.36047l-617.52191-617.52185c2.88696-1.26947,5.78778-2.56573,8.69989-3.88849ZM1898.77761,507.25414l608.26221,608.26221c.69824-3.14178,1.48706-6.51306,2.37891-10.20959l-602.15308-602.15308c-2.83154,1.39075-5.66223,2.75891-8.48804,4.10046ZM2007.90065,440.14128l544.58386,544.58386c1.24768-2.76721,2.56274-5.66382,3.93091-8.65735l-541.50415-541.50409c-2.29517,1.85541-4.63367,3.71521-7.01062,5.57758ZM2471.00502,1163.67339c1.01526-1.59534,2.22388-3.31116,3.56421-5.09827l-628.57501-628.57507c-3.06854,1.20166-6.10016,2.37097-9.08466,3.50366l632.56458,632.56458c.53357-.83246,1.04858-1.63702,1.53088-2.3949ZM2054.92726,399.04985l525.79529,525.79523c1.42603-2.87518,2.83118-5.67865,4.20398-8.38434l-523.6748-523.67474c-2.04578,2.05957-4.15564,4.14941-6.32434,6.26385h-.00012ZM1857.98427,525.2061l624.10522,624.10522c1.93689-2.24744,3.93872-4.49231,5.92212-6.66669l-621.12939-621.12933c-2.99023,1.26013-5.9574,2.49011-8.89795,3.6908ZM2039.78298,413.27831l531.3302,531.33026c1.36194-2.85046,2.72791-5.69006,4.08923-8.49902l-528.86292-528.86292c-2.13306,1.99365-4.31946,4.00519-6.55652,6.03168ZM1973.89675,464.88256l561.03564,561.03564c1.28015-3.13239,2.51123-6.1037,3.67468-8.91351l-557.24194-557.24194c-2.45447,1.71051-4.94409,3.41754-7.46838,5.11981ZM1956.04836,476.40697l570.63464,570.63458c1.16382-3.15826,2.3197-6.2005,3.45825-9.12988l-566.36548-566.36548c-2.55554,1.64221-5.13171,3.2627-7.72742,4.86078ZM1991.16603,452.77916l552.34192,552.34192c1.04785-2.47705,2.32947-5.43915,3.80151-8.78674l-548.90552-548.90558c-2.37463,1.784-4.78821,3.56781-7.23792,5.3504ZM1918.43373,497.53728l594.30908,594.30908c.85596-3.39764,1.73669-6.71533,2.63745-9.95074l-588.68457-588.68451c-2.74829,1.46613-5.50342,2.90662-8.26208,4.32617h.00012ZM2024.10659,426.97472l537.60291,537.60291c1.31165-2.82452,2.65088-5.69165,4.00818-8.5802l-534.82739-534.82739c-2.21558,1.9256-4.47705,3.86115-6.78357,5.80469h-.00012ZM1937.54323,487.27452l581.6676,581.66766c1.02002-3.25989,2.05286-6.42407,3.09094-9.49786l-576.74878-576.74878c-2.65674,1.54913-5.32764,3.07477-8.00989,4.57898h.00012ZM2458.4756,1822.61351L1042.55812,406.69597c-2.38354,1.81439-4.75952,3.63757-7.1225,5.46582l1422.9881,1422.98798c.00769-4.17615.02551-8.35498.05188-12.53638v.00012ZM2458.49636,1860.6223c-.02283-2.88586-.03491-5.77478-.04797-8.66333L1026.02034,419.53087c-2.35687,1.867-4.68927,3.73309-6.99365,5.59473l1439.47882,1439.47888c-.0072-1.32996.00134-2.65015-.00916-3.98218ZM2446.00649,2162.61583L875.26674,591.87609c-.08521.15302-.17737.31158-.26172.46399-1.41138,2.54956-2.724,5.19104-3.95459,7.90808l1575.05859,1575.05859c-.09985-4.26965-.13782-8.50244-.10254-12.69092ZM2451.84108,2050.95995L923.41055,522.52928c-1.87842,2.34833-3.72571,4.6936-5.55371,7.03467l1533.28161,1533.28137c.23535-3.96411.46851-7.9259.70264-11.8855v.00012ZM2453.45558,2023.20165L936.66395,506.41002c-1.92566,2.28113-3.83813,4.56799-5.729,6.85986l1521.83411,1521.83411c.23022-3.96765.46179-7.93555.68652-11.90222v-.00012ZM2450.20046,2078.69188L910.56557,539.05712c-1.82642,2.41974-3.61621,4.82526-5.37207,7.21637l1544.31189,1544.31183c.23047-3.96765.46167-7.93359.69507-11.89343ZM2448.59987,2106.4641L898.16725,556.03154c-1.76819,2.50745-3.48535,4.98615-5.1532,7.43524l1554.92822,1554.9281c.21594-3.98242.43445-7.95972.65759-11.93091v.00012ZM2447.1028,2134.33934L886.31826,573.55486c-1.69446,2.62988-3.31531,5.20941-4.85767,7.73126l1565.04895,1565.04895c.19177-4.00623.39014-8.00403.59326-11.99561v-.00012ZM2456.30153,1967.3026L964.35073,475.35179c-2.02771,2.14789-4.05151,4.32355-6.07056,6.51776l1497.46802,1497.46796c.1897-4.0094.37805-8.01953.55334-12.03479v-.00012ZM2458.15029,1910.40636L994.00759,446.2636c-2.27563,2.02899-4.4762,4.02899-6.59357,5.99475l1470.45111,1470.45099c.10657-4.09448.20276-8.19507.2854-12.30298h-.00024ZM2457.38564,1939.01402L978.85347,460.48186c-2.08997,2.07153-4.18317,4.16962-6.27863,6.30981l1484.39027,1484.39008c.15381-4.04907.28601-8.10901.42065-12.16772h-.00012ZM2458.51906,1881.40221L1009.80257,432.6859c-2.32208,1.93274-4.60156,3.8537-6.83026,5.75806l1455.44275,1455.44275c.04773-4.15369.08496-8.3136.10388-12.4845h.00012ZM2454.95925,1995.33312L950.30422,490.67809c-1.97522,2.21704-3.94006,4.44922-5.89417,6.69421l1509.92396,1509.92395c.21521-3.98584.41992-7.97473.62524-11.96301v-.00012ZM1067.54976,1711.86034l1179.61542,1179.61536c4.02039-.1748,8.03955-.34668,12.06201-.52637l-1192.21448-1192.21411c.18542,4.37439.35791,8.75012.53705,13.12524v-.00012ZM1066.2405,1681.17894l1209.03284,1209.03259c4.01233-.18579,8.02075-.36255,12.03528-.55347l-1221.65308-1221.65283c.2016,4.3905.39008,8.78247.58496,13.17383v-.00012ZM1068.75301,1742.43663l1150.22858,1150.22852c4.02771-.16382,8.05762-.33252,12.08728-.50122l-1162.80823-1162.80823c.17041,4.35974.32782,8.72058.49237,13.08081v.00012ZM1086.85872,1496.18834l1384.60602,1384.6062c3.61072-.46875,7.34668-.97314,11.08398-1.50415l-1394.21234-1394.21252c-.487,3.68689-.9801,7.39441-1.47766,11.11047ZM1070.87276,1803.30187l1091.50726,1091.50708c4.04724-.1416,8.09851-.29468,12.14746-.44141l-1104.06781-1104.06763c.14368,4.33362.27441,8.66797.41309,13.00195ZM1071.80397,1833.60521l1062.15564,1062.15564c4.06018-.13086,8.12244-.26831,12.18408-.40405l-1074.72028-1074.72046c.13184,4.32263.2533,8.64587.38055,12.96875v.00012ZM1069.85817,1772.91442l1120.86487,1120.86475c4.0354-.15283,8.07544-.31812,12.11267-.47583l-1133.42871-1133.42847c.15649,4.34607.30011,8.69299.45117,13.03955ZM1075.96102,1573.4088l1313.14093,1313.14087c4.11133-.06738,8.22119-.15405,12.32922-.25879l-1323.84058-1323.8407c-.55011,3.74109-1.09387,7.39795-1.62958,10.95862ZM1066.8077,1652.37352l1236.49933,1236.49915c3.9989-.19653,7.99609-.3894,11.99731-.59106l-1247.8288-1247.82861c-.22766,4.1001-.3764,7.73999-.66785,11.92053ZM1079.71828,1547.79344l1337.93628,1337.93616c3.98767-.17773,7.97205-.38379,11.95032-.63794l-1348.31982-1348.3197c-.52405,3.71582-1.04694,7.39563-1.56677,11.02161v-.00012ZM1068.70717,1624.90013l1262.66882,1262.66882c4.07092-.14453,8.14612-.26758,12.22705-.36108l-1273.58105-1273.58105c-.54858,4.2854-.97601,7.99414-1.31482,11.27344v-.00012ZM1073.67171,1588.34007c-.59296,3.78601-1.12488,7.28577-1.6059,10.54602l1288.03552,1288.0354c4.14404-.05493,8.29053-.10254,12.43799-.15039l-1298.80872-1298.80859c-.01953.125-.03937.25293-.0589.37744v.00012ZM1083.34151,1522.04405l1361.81781,1361.81787c2.54834-.24927,6.52063-.67383,11.35547-1.23291l-1371.65387-1371.65381c-.50464,3.70117-1.01147,7.39502-1.51941,11.06897v-.00012ZM1031.39528,2532.07384l363.04504,363.04517c4.3252.1311,8.64532.25293,12.96838.37988l-374.74817-374.74805c-.41998,3.75806-.84167,7.53198-1.26526,11.323ZM1007.1971,2772.2296l114.41351,114.41357c4.43054.26392,8.87067.50977,13.32153.73267l-126.79181-126.79175c-.32098,3.89136-.63617,7.77441-.94324,11.64551ZM1005.14406,2799.54894l84.7793,84.7793c4.54419.40137,9.11353.76636,13.69733,1.10913l-97.62195-97.62183c-.29327,3.92505-.578,7.83594-.85468,11.7334ZM1014.4056,2691.31993l198.5249,198.5249c4.29242.08643,8.57135.16968,12.83997.25171l-210.23804-210.23804c-.37939,3.82178-.75494,7.64209-1.12683,11.46118v.00024ZM1028.44857,2558.49986l335.66681,335.66675c4.33484.14038,8.66516.27295,12.99762.40942l-347.40344-347.40356c-.41943,3.76196-.83997,7.53955-1.26099,11.32715v.00024ZM1034.35604,2505.56774c-.00311.02832-.00635.05664-.00946.08496l390.35321,390.35327c4.31549.12183,8.62604.2334,12.93958.35132l-401.97015-401.97021c-.45764,3.72778-.89764,7.45483-1.31317,11.18091v-.00024ZM1037.60256,2479.53575l417.28815,417.28809c4.30621.1123,8.60901.21704,12.91339.3252l-428.65192-428.65186c-.53265,3.68018-1.04907,7.35962-1.54962,11.03857ZM1022.64131,2611.43785l280.63525,280.63525c4.35345.1582,8.70398.31201,13.05487.46655l-292.46057-292.46045c-.41095,3.77881-.8208,7.56592-1.22955,11.35864ZM1009.44832,2745.10802l143.05286,143.05298c4.35138.17236,8.70624.32886,13.06226.47388l-155.10028-155.10034c-.34418,3.86499-.68225,7.72241-1.01483,11.57349ZM1019.81618,2637.98546l253.11554,253.11548c4.35052.11401,8.66943.23828,12.96106.3728l-264.87354-264.87354c-.40302,3.79102-.80402,7.58594-1.20306,11.38525ZM1017.06301,2664.60485l225.8233,225.82349c4.30249.08496,8.59021.17236,12.85315.26465l-237.50696-237.50708c-.39252,3.80493-.78265,7.61157-1.16949,11.41919v-.00024ZM1011.85787,2718.14488l171.00745,171.00757c4.30817.11523,8.61298.22339,12.9115.323l-182.84235-182.84229c-.3634,3.84106-.72266,7.67871-1.0766,11.51172ZM1025.52535,2584.94908l308.20197,308.2019c4.3443.14917,8.68481.29272,13.02667.43823l-319.97961-319.97974c-.4165,3.77002-.83289,7.54956-1.24902,11.33911v.00049ZM4398.05995,152.93358l680.65869,680.65839c1.43896-3.02411,2.82373-5.85315,4.13916-8.4491l-671.51685-671.51672c-4.44604-.23914-8.87573-.47052-13.28101-.69257ZM5128.33827,607.67345c-.14111-.60156-.28076-1.21082-.42041-1.82397l-392.71387-392.71375c-11.6167-6.88318-22.63037-13.61298-32.04541-19.45715l426.77295,426.77325c-.24121-4.88251-.75439-9.19684-1.59375-12.77838h.00049ZM4652.4457,172.33818l476.57373,476.57392c.36182-4.07513.64111-8.00995.82324-11.7652l-463.14136-463.1413c-3.78442-.48712-8.57495-1.04761-14.25562-1.66742ZM4429.11879,154.61949l659.68188,659.68183c.79639-1.29089,1.53662-2.40369,2.20459-3.29456.76123-1.01459,1.6167-2.55115,2.54785-4.54169l-651.052-651.05146c-4.46436-.27124-8.92725-.53613-13.38232-.79413ZM4587.49623,166.13408l534.17261,534.17243c.66064-3.57477,1.29492-7.14264,1.89795-10.69049l-522.26367-522.26325c-4.46313-.40057-9.0686-.80731-13.80688-1.21869ZM4619.78798,169.05339l506.07861,506.0785c.55078-3.74982,1.05615-7.44604,1.51221-11.07568l-493.65576-493.65619c-4.37573-.43353-9.03296-.88367-13.93506-1.34662ZM4491.89516,158.65105l613.29028,613.28979c.89111-3.17615,1.79004-6.48236,2.69043-9.8974l-602.42651-602.42646c-4.48853-.32501-9.00781-.64734-13.5542-.96594ZM4555.43764,163.44811l561.32886,561.32867c.74219-3.44696,1.46973-6.9209,2.17725-10.41113l-549.79199-549.79169c-4.48633-.37384-9.06177-.74951-13.71411-1.12585ZM4523.57436,160.95739l587.70093,587.7008c.81494-3.32684,1.62451-6.7182,2.42383-10.16461l-576.4917-576.49152c-4.49219-.34937-9.03882-.69788-13.63306-1.04467ZM4306.79311,149.78435l745.43091,745.43097c1.17822-2.9502,2.38721-5.94861,3.61719-8.97095l-736.24438-736.24444c-4.3562-.09003-8.62695-.16217-12.80371-.21558ZM4336.81411,150.43309l723.92505,723.92469c1.23779-2.96655,2.4834-5.92657,3.73096-8.85742l-714.64844-714.64843c-4.3938-.15332-8.73267-.29333-13.00757-.41882h0ZM4367.27114,151.51751l702.26196,702.26196c1.30762-2.97998,2.60254-5.89105,3.87598-8.71204l-692.97925-692.97949c-4.42334-.20093-8.81104-.39111-13.15869-.57043ZM4460.40517,156.53386l637.86523,637.86493c.99756-2.88733,2.03418-6.06226,3.09766-9.49121l-627.49048-627.49011c-4.47852-.29938-8.97144-.59406-13.47241-.88361ZM4940.9352,1598.33348L3633.80629,291.20452c-2.53101,1.64569-5.07251,3.30212-7.62085,4.96759l1317.67944,1317.67944c-1.01709-5.35083-1.9917-10.51172-2.92969-15.51819v.00012ZM4961.95986,1824.9663L3513.0309,376.03752c-2.34375,1.8916-4.65259,3.77783-6.92993,5.65845l1455.60449,1455.60419c.0835-4.10913.16895-8.22144.25439-12.33386ZM4910.81703,1421.35216L3723.83998,234.37493c-.77002.46057-1.4978.89636-2.16797,1.29852-1.56299.93781-3.47412,2.09741-5.677,3.4447l1197.05835,1197.05835c-.75537-4.84143-1.50391-9.79028-2.23608-14.82434h-.00024ZM4956.92421,1673.06761L3598.38808,314.53148c-2.52905,1.68994-5.04199,3.37512-7.53516,5.05359l1370.10791,1370.10754c-1.32275-5.38562-2.68115-10.97144-4.03613-16.625h-.00049ZM4964.66542,1710.18175L3580.84413,326.36009c-2.52441,1.71881-5.0188,3.4248-7.47461,5.11371l1390.96924,1390.96918c.10742-4.08704.21582-8.17407.32666-12.26123ZM4934.35854,1562.38426L3651.64394,279.6696c-2.52588,1.62457-5.08081,3.27179-7.65405,4.93433l1293.13525,1293.13495c-.95117-5.21399-1.87036-10.31445-2.7666-15.35474v.00012ZM4916.29775,1456.20555L3705.61244,245.52043c-2.4187,1.50122-5.01587,3.11926-7.75635,4.83191l1221.02759,1221.02741c-.83887-4.84961-1.70605-9.91663-2.58594-15.17432v.00012ZM4922.42226,1491.70287L3687.54238,256.8228c-2.49219,1.56891-5.06836,3.19476-7.71753,4.87079l1245.15479,1245.15454c-.7229-4.49158-1.58984-9.56946-2.55713-15.14514l-.00024-.00012ZM4928.25698,1526.91014L3669.55629,268.20946c-2.51611,1.60144-5.0813,3.23798-7.68555,4.90283l1268.94019,1268.94006c-.85669-5.00696-1.70508-10.03528-2.55396-15.14221ZM4948.15663,1634.9276L3616.04921,302.82048c-2.53101,1.66626-5.05957,3.33594-7.58179,5.00635l1343.30811,1343.30804c-1.27246-5.55603-2.49023-10.99976-3.6189-16.20728ZM4963.91982,1738.80858L3563.45546,338.34447c-2.51831,1.75958-4.98682,3.4953-7.38965,5.19879l1407.54639,1407.54669c.09961-4.09302.20459-8.18738.30713-12.28125l.00049-.00012ZM4963.22402,1767.48534L3546.29384,350.55535c-.20605.14978-.41724.30225-.62207.45142-2.23267,1.62634-4.43774,3.25531-6.62988,4.88507l1423.89844,1423.89856c.09326-4.10107.1875-8.20227.28369-12.30505ZM4962.57167,1796.20568L3529.47573,363.10985c-2.39258,1.83264-4.7583,3.66431-7.09448,5.49414l1439.92578,1439.92566c.08789-4.10767.17432-8.21387.26465-12.3241v.00012ZM3571.00502,1443.67345c-.39258,1.64917-.77417,3.32288-1.15088,5.00708l1431.87134,1431.87134c3.56836-.97949,6.82031-1.94214,9.70557-2.88281l-1439.25342-1439.25354c-.39331,1.86218-.78467,3.62708-1.17285,5.25781l.00024.00012ZM5016.76699,2765.51354l-1431.13672-1431.13672c-.31421,3.84644-.64917,7.71521-1.00146,11.58728l1433.78223,1433.7821c-.57031-3.45605-.99414-6.39453-1.19482-8.62402-.16748-1.86011-.31006-3.7334-.44922-5.60864ZM3581.92446,1372.63231l1442.86548,1442.8656c-.875-5.2168-1.80225-10.37939-2.69971-15.28833l-1438.94531-1438.94519c-.39282,3.81775-.80029,7.61243-1.22021,11.36804l-.00024-.00012ZM3574.84438,1424.29784l1448.45825,1448.45813c.82373-.50293,1.48682-.99438,1.97168-1.4729,1.3457-1.32739,2.28174-3.47681,2.89111-6.25244l-1451.57031-1451.57019c-.57959,3.78467-1.16431,7.41028-1.75098,10.8374h.00024ZM3588.5746,1278.57665c-.05103,3.91101-.15381,8.01892-.30322,12.28491l1426.92773,1426.92761c-.04541-4.25439-.09082-8.50073-.14453-12.73242l-1426.48022-1426.48022.00024.00012ZM3565.04457,1473.24303l1413.07544,1413.07568c3.55127-.79028,6.9668-1.57666,10.23096-2.35742l-1421.37061-1421.37048c-.67212,3.51306-1.31763,7.06689-1.93604,10.6521l.00024.00012ZM3580.15151,1387.64403c-.47241,3.79419-.95532,7.51514-1.44629,11.14197l1450.22632,1450.22583c-.21387-4.29712-.65186-8.96631-1.23877-13.82666l-1447.54102-1447.54114h-.00024ZM5004.30947,2576.82067l-1524.61182-1524.61169c.16089,4.25262.28125,8.64478.37134,12.95941l1525.91382,1525.91376c-.54932-4.75781-1.10742-9.51172-1.67334-14.26147ZM3587.26039,1247.88976c.56567,3.71643.9397,8.36389,1.14868,13.73682l1426.31738,1426.31738c-.12305-4.40625-.29004-8.77368-.50879-13.09717l-1426.95728-1426.95728v.00024ZM5000.19716,2543.33605l-1523.54834-1523.54822c.57715,3.729,1.00879,6.83929,1.35596,9.21899.229,1.57043.43457,3.37469.62085,5.34601l1523.36694,1523.36676c-.5918-4.79834-1.19092-9.59253-1.79541-14.38379v.00024ZM3574.66738,1205.92418c2.63062,6.83643,4.94629,13.39221,6.87793,19.46619l1431.35107,1431.3512c-.43652-4.64917-.88428-9.29321-1.34375-13.93237l-1436.88501-1436.88501h-.00024ZM3549.44155,1151.32561c4.4917,8.22998,8.79199,16.80029,12.7854,25.37372l1447.41162,1447.41113c-.49707-4.70776-1.00391-9.41089-1.521-14.10938l-1458.67554-1458.67554-.00049.00006ZM3587.53383,1306.90856c-.21631,3.88074-.46167,7.83813-.73438,11.854l1429.00903,1429.00952c-.1582-4.30249-.27734-8.62207-.36475-12.95337l-1427.91016-1427.91016h.00024ZM3530.34218,2348.34386c-.25537,1.52002-.49878,3.03857-.75146,4.55835l587.59692,587.59692c4.32397.13403,8.64941.26587,12.97949.39136l-598.6936-598.6936c-.40894,2.06763-.79053,4.11914-1.13135,6.14746v-.00049ZM3549.79579,2226.24425l717.08179,717.08203c4.2229.02686,8.44385.0625,12.66846.08008l-730.32251-730.32227c.24316,4.44482.43726,8.83691.57227,13.1604v-.00024ZM3546.07363,2281.2672l661.37891,661.37891c4.26465.07031,8.52734.146,12.79541.20728l-672.26294-672.26294c-.53662,3.51685-1.18213,7.08008-1.91138,10.67676ZM3549.56411,2255.38512l687.677,687.677c4.24414.04883,8.48608.10498,12.73267.14429l-699.99854-699.99854c-.05273,4.16431-.18213,8.23413-.41113,12.17725ZM3548.03115,2195.10704l748.32935,748.32935c4.20117.00488,8.40137.01953,12.60327.01489l-762.04395-762.04395c.39209,4.57837.76538,9.1499,1.11133,13.69971ZM3545.28456,2162.98766l780.40332,780.40356c4.17896-.01758,8.35791-.02417,12.53711-.05151l-794.17871-794.17847c.4021,4.57227.8186,9.18652,1.23828,13.82642ZM3542.53383,2130.86437l812.32471,812.32471c4.15625-.04028,8.31348-.06885,12.46924-.1189l-825.70215-825.70215c.25439,4.40454.56226,8.91089.9082,13.49646v-.00012ZM3517.96303,2429.39293l507.63818,507.63818c4.37744.19604,8.76929.37915,13.15601.56714l-519.23877-519.23877c-.52295,3.67822-1.04614,7.35645-1.55542,11.03345ZM3514.48989,2455.2921l480.29468,480.29492c4.39331.21631,8.80884.41577,13.2124.62427l-492.04688-492.04688c-.49585,3.70996-.97729,7.4187-1.46045,11.12793l.00024-.00024ZM3540.47377,2305.04039l637.03882,637.03882c4.28516.0918,8.56885.18677,12.85815.26953l-647.37646-647.37646c-.81177,3.34839-1.65967,6.70801-2.52051,10.06787v.00024ZM3521.64077,2403.69762l534.63428,534.63428c4.36011.17554,8.729.34204,13.09741.50928l-546.10034-546.10034c-.55225,3.65332-1.09375,7.30542-1.63135,10.95703v-.00024ZM3534.52016,2328.45934l612.90381,612.90381c4.30493.11304,8.60938.22656,12.91943.33081l-623.30933-623.30957c-.8645,3.37842-1.70972,6.73999-2.51392,10.07495ZM3525.50722,2378.19152l561.29663,561.29663c4.34253.15503,8.68945.3042,13.03906.45068l-572.61157-572.61157c-.58179,3.62207-1.15771,7.24365-1.72412,10.86426Z"/>
</svg>