<?xml version="1.0" encoding="UTF-8"?>
<svg id="Layer_8" xmlns="http://www.w3.org/2000/svg" version="1.1" viewBox="0 0 6000 3000">
  <!-- Generator: Adobe Illustrator 30.5.1, SVG Export Plug-In . SVG Version: 2.1.4 Build 3)  -->
  <path id="C1" d="M2522.57422,442.67391h-520.65332c60.35864-46.1297,95.65234-91.57837,106.65869-107.83868,1.50586-2.22498,2.56445-3.91205,3.16284-4.9707,5.77783-10.22223,46.66675-61.77777,57.77783-84,1.76123-3.52283,3.92847-7.83978,6.25293-12.69061h3.4812c9.14551,5.28571,39.70654,22.81555,65.82153,36.24615,31.11108,16,106.22217,55.11108,122.66675,67.55554s65.77783,41.33331,125.33325,82.66669c10.38574,7.20801,20.21753,14.98999,29.49829,23.03162h0ZM1269.2981,263.19784c-13.33325,9.33331-108,64.66669-134.66675,78.66669-23.64001,12.41101-94.42847,61.495-138.9903,100.80939h505.66449c-52.57947-42.22351-81.14282-83.43896-101.67273-109.18835-.86572-1.08582-1.71863-2.14691-2.55701-3.17664-36.94446-45.37732-58.64758-89.11737-62.49158-97.13501h-3.64807c-11.19775,4.8653-50.25745,22.05743-61.63806,30.02393ZM871.96478,755.19781c9.99951,37.2395,27.48938,76.43951,44.81348,110.5h1693.71637c12.86914-27.51807,26.73633-63.49805,33.69238-80.72223,9.33325-23.11108,20-79.11108,19.55542-114.22223-.05493-4.35242-.56201-9.25928-1.44336-14.55554H858.40753c-.99121,28.32758,3.45667,61.38409,13.55725,99ZM1006.49896,1110.0144c-.00012-.00159-.00024-.00281-.00037-.00427,1.97894,5.40503,9.11432,24.16919,14.7995,29.85437,6.66675,6.66675,28.66675,30.66675,45.33325,54.66675,16.66675,24,30,48,36.03296,80.66675.84668,4.58411,1.448,9.11121,1.86829,13.52393h1315.64954c1.39282-14.50659,4.04321-28.53223,8.44922-42.19055,13.33325-41.33325,32.66675-70,42-84.66663,8.50928-13.37146,30.30811-35.0459,34.09326-38.771-.00024.00134-.00049.00281-.00073.00415,1.62012-8.61328,3.97534-18.3927,7.46289-32.34424.98877-3.95557,2.01416-7.79456,3.06348-11.53162H1001.02917c2.98291,13.84741,4.96454,24.91431,5.46979,30.7926v-.00024ZM1073.2981,1586.53124c-8.23743,52.59229-5.03247,51.58704-8.12927,77.11694.74084,16.02722,1.42297,32.06091,2.07666,48.09753h1393.33142c.56494-15.44043,1.20288-30.8949,1.89795-46.35608-4.50708-32.85181-4.51001-33.55603-4.51001-36.19177,0-2.66675-14-65.33337-17.33325-104.66675-.60132-7.0979-1.37866-14.54773-2.27661-22.2854h-1352.9281c-4.09595,30.29919-8.41772,60.59253-12.12866,84.2854v.00012h-.00012ZM1077.69312,2134.76953h1368.92505c3.5603-70.70239,8.7876-139.2196,10.75586-209.5h-1383.5116c1.59839,69.86938,2.76538,139.73071,3.83057,209.5h.00012ZM1033.98242,2503.75878c-1.96643,17.63281-3.99194,35.69458-6.02991,54.03467h1473.20764c-2.03345-27.2522-4.45874-54.46655-7.70044-81.59399-4.78052-40.00586-13.74829-83.65063-22.63965-127.90601h-1412.01965c-9.03931,51.82251-19.05005,103.73975-24.81848,155.46533h.00049ZM1001.85498,2844.30932c-.93811,17.64062,4.20087,26.29175,22.33069,29.63086,84.59277,15.58081,185.39343,12.89868,271.93713,16.08154,344.0896,12.65527,679.729,13.72046,1023.87573-3.79883,41.07788-2.09131,82.875-.22803,123.91821-4.08667,12.57812-1.18237,74.23755-8.28418,78.42578-13.58984,9.07788-31.00244.36255-64.77979-5.17676-97.22925H1006.75134c-1.96832,24.89429-3.63855,49.33936-4.89636,72.99194v.00024ZM3721.2981,233.86451c-23.3335,14-122,75.99998-176,115.33333-45.8479,33.39539-83.27734,67.74701-105.57251,93.47607h1615.5c-10.90869-12.9455-23.65234-26.34198-38.59424-40.14276-87.50195-80.81787-193.271-141.13654-243.62207-169.35724h-1050.55908c-.39917.23901-.78369.46954-1.1521.69061h-.00024l.00024-.00002ZM3540.62964,2101.52587c.29614,10.40088,1.03882,21.60693,1.97681,33.24365h1414.49121c-.68604-24.31885-.81787-48.76172-.26172-73.36768,1.01367-44.85205,1.87939-90.30896,2.75-136.1322h-1422.93359c1.17773,58.74426,2.30518,117.5166,3.97803,176.25623h-.00073ZM3502.03076,2557.79345h1499.81982c-8.6499-70.32324-18.74023-139.84961-27.20752-209.5h-1444.96387c-11.7229,70.07275-20.46045,139.76514-27.64795,209.5h-.00049ZM3476.57471,2857.56518c.26904,14.03491,9.85034,18.52417,21.52856,22.48706,99.39575,33.72729,277.24487,40.38916,384.6499,47.3501,293.30151,19.00928,620.05249,22.68115,911.99292-12.08984,32.91113-3.91992,215.14844-31.03589,230.15527-45.83838,11.05273-10.90283-5.229-76.70361-7.84277-98.15674h-1533.67603c-2.25122,28.66138-4.48828,57.39966-6.80737,86.2478h-.00049Z" fill="#a41123"/>
</svg>