<?xml version="1.0" encoding="UTF-8"?>
<svg id="Layer_8" xmlns="http://www.w3.org/2000/svg" version="1.1" viewBox="0 0 6000 3000">
  <!-- Generator: Adobe Illustrator 30.5.1, SVG Export Plug-In . SVG Version: 2.1.4 Build 3)  -->
  <path id="C1" d="M1102.41742,1338.87103h1316.82177c.70496,13.15063,1.91296,26.73303,3.34998,40.81775h-1322.66467c2.84216-29.50745,2.35107-36.35431,2.35107-39.22455,0-.30835.05243-.8476.14185-1.5932ZM1006.14312,1109.28082c-.00012-.00153-.00024-.00281-.00037-.00433.43115,1.17755,1.10724,2.98975,1.95953,5.16199h1497.88545c1.47485-6.76135,3.37415-14.54199,5.84326-24.4187,1.42334-5.6936,2.9198-11.15686,4.45959-16.3988H999.6087c3.57434,16.11151,5.97125,29.10779,6.53442,35.65985v-.00002ZM1067.34295,1629.16302h1390.26941c-.00354-.23401-.00354-.4585-.00354-.69879,0-1.36572-3.67236-18.47174-7.70312-40.11871h-1377.35999c-3.11804,20.15753-4.48364,32.09845-5.20276,40.8175ZM1072.78863,1894.41326h1384.87146c.15845-12.03717.20325-24.14111.10681-36.33344-.01184-1.49377-.01575-2.98975-.02478-4.48425h-1386.01849c.37653,13.60535.72784,27.21143,1.065,40.81769ZM1077.48639,2143.88757h1368.28893c.65479-13.68604,1.38086-27.28101,2.14319-40.8175h-1371.06146c.2146,13.6095.42328,27.21472.62934,40.8175ZM1047.58026,2409.13781h1435.00866c-2.50696-13.43896-5.2002-27.07446-7.95276-40.81763h-1419.84882c-2.41583,13.60376-4.84735,27.21118-7.20709,40.81763ZM1295.76696,2889.2882c344.08966,12.65527,679.729,13.72046,1023.87579-3.79871,33.2937-1.69495,67.05969-.79333,100.51404-2.44482h-1315.26678c63.69519,4.64636,130.7276,4.03137,190.87695,6.24353ZM1016.68646,2658.61218h1490.62915c-.83191-13.60303-1.64221-27.21045-2.47192-40.81763H1020.95666c-1.44958,13.5553-2.87787,27.17822-4.2702,40.81763ZM4956.18291,2103.07006h-1415.83154c.43384,12.69495,1.48462,26.51135,2.72607,40.8175h1413.97144c-.46631-13.56592-.75977-27.17017-.86597-40.8175ZM4976.85406,2368.32019h-1450.91333c-2.16821,13.61719-4.2395,27.2229-6.20337,40.81763h1462.38086c-1.78955-13.60913-3.55273-27.21289-5.26416-40.81763ZM5012.40044,2656.66564c-1.20679-12.99634-2.51123-25.95093-3.89111-38.87109h-1512.73975c-1.24854,13.59827-2.45215,27.20361-3.62524,40.81763h1520.4165c-.05591-.64685-.10059-1.30273-.1604-1.94653ZM4794.39043,2914.57897c23.83911-2.83936,126.02466-17.84937,186.25269-31.5343h-1471.21484c87.25977,26.31506,224.63184,34.71033,327.05493,40.81775h869.34497c29.81909-2.7312,59.37109-5.80664,88.56226-9.28345Z" fill="#f60"/>
  <path id="C2" d="M1067.34521,1195.35858h1382.41632c-1.69421,3.17865-3.40723,6.51648-5.12012,10.01489h-1370.63892c-2.14716-3.3562-4.36829-6.68896-6.65729-10.01489ZM1084.27038,1222.89935h1352.44769c1.43518-3.45612,2.89551-6.79425,4.36865-10.01483h-1362.44012c1.95752,3.28912,3.83221,6.62354,5.62378,10.01483ZM1062.03575,1187.84753h1391.84943c2.02771-3.58643,3.99634-6.9231,5.87109-10.01465h-1405.27734c2.55322,3.27679,5.09027,6.63092,7.55682,10.01465ZM1048.49908,1170.32178h1415.91052c2.21167-3.50171,4.20032-6.57343,5.86597-9.19092.17163-.26959.35706-.54779.53906-.82391h-1430.66369c2.68726,3.14478,5.49695,6.50604,8.34814,10.01483ZM1017.98033,1135.2699h1473.7807c3.81543-4.05255,7.28027-7.58545,9.69873-10.01483H1012.68005c1.67841,3.64111,3.50446,7.21338,5.30029,10.01483ZM1033.61352,1152.79584h1442.73297c2.61145-3.2735,5.54614-6.69189,8.51587-10.01483h-1460.39105c2.45032,2.59229,5.5827,6.00098,9.14221,10.01483ZM1009.42755,1117.74396h1495.85632c.2229-1.07599.45776-2.17743.70386-3.30548H1008.10229c.40399,1.02979.84924,2.1427,1.32526,3.30548ZM1092.44665,1240.42498h1337.62592c1.17932-3.42944,2.3949-6.77094,3.64148-10.01453h-1345.66437c1.55115,3.2652,3.0191,6.59851,4.39697,10.01453ZM1102.41742,1338.87103h1316.82177c-.0592-1.10461-.11548-2.20697-.16736-3.30548h-1316.22822c-.17578,1.34631-.32532,2.46429-.42621,3.30548h.00002ZM1104.58257,1293.0028h1314.81055c.25513-3.36438.57703-6.70166.96619-10.01471h-1316.73407c.4303,3.40228.74255,6.74908.95734,10.01471ZM1098.44482,1257.95092h1326.38776c.828-3.36145,1.75732-6.69818,2.7804-10.01453h-1332.3493c1.14172,3.25415,2.20734,6.58545,3.18115,10.01453ZM1104.90838,1310.52856h1313.70447c.05127-3.36603.15979-6.7019.31897-10.01453h-1314.01038c.08539,3.48468.07025,6.83301-.01305,10.01453ZM1103.73932,1328.0545h1315.03246c-.10522-3.36682-.16565-6.70258-.18652-10.01459h-1314.00616c-.2287,3.71106-.52966,7.0755-.83978,10.01459ZM1102.30852,1274.46423c.0625.3385.11603.67474.17596,1.01263h1318.88728c.51196-3.36182,1.09338-6.70154,1.76855-10.01483h-1322.75208c.69617,2.93604,1.35089,5.91901,1.92029,9.0022ZM1070.36468,1807.72735h1387.48572c.03503-3.33716.07239-6.6748.11841-10.01477h-1387.92229c.10773,3.33813.21338,6.67639.31817,10.01477ZM1071.72362,1853.59558h1386.01837c-.00671-1.10162-.01294-2.20343-.01831-3.30548h-1386.08856c.03076,1.10181.05798,2.20367.0885,3.30548ZM1071.41626,1842.77899h1386.28118c-.00647-3.33673-.00952-6.67432-.00354-10.01453h-1386.5697c.09778,3.3382.1969,6.67627.29206,10.01453ZM1067.26134,1720.09796h1392.63788c.1156-3.33765.23389-6.67578.35657-10.01483h-1393.40417c.13641,3.33826.27686,6.67615.40973,10.01483ZM1066.5443,1702.57202h1393.99213c.12793-3.33752.26025-6.6759.39453-10.01459h-1394.80182c.14288,3.33777.276,6.67645.41516,10.01459ZM1065.79565,1685.04632h1395.44269c.13892-3.33789.27942-6.67609.42395-10.01483h-1396.31134c.14954,3.33813.29895,6.67627.4447,10.01483ZM1069.20843,1772.67547h1389.20239c.07117-3.33704.14697-6.67517.22754-10.01453h-1389.77644c.11847,3.33795.2312,6.67633.3465,10.01453ZM1066.06695,1649.99444h1394.05054c-.56311-4.15692-1-7.42505-1.3385-10.01483h-1392.1438c-.17432,3.34357-.3197,6.48309-.56824,10.01483ZM1067.9381,1737.6239h1391.38544c.10205-3.33722.21057-6.6759.32056-10.01483h-1392.08301c.13019,3.33783.25031,6.67664.37701,10.01483ZM1069.80785,1790.20141h1388.27789c.05371-3.33698.11279-6.67529.17676-10.01483h-1388.79419c.11298,3.33832.22961,6.67627.33954,10.01483ZM1067.08849,1632.4685h1390.76532c-.18518-1.73364-.23047-2.56921-.24121-3.30548h-1390.26965c-.09515,1.15393-.17938,2.25293-.25446,3.30548ZM1070.90508,1825.25311h1386.81482c.01489-3.33649.03699-6.67493.0636-10.01459h-1387.18024c.1026,3.33813.20197,6.67633.30182,10.01459ZM1064.81292,1662.91455c.07092,1.53497.1344,3.0708.20453,4.60583h1396.97552c.04248-.95483.08313-1.90942.1261-2.86432-.35449-2.58405-.6781-4.94769-.979-7.15051h-1395.72137c-.17065,1.67303-.36975,3.46313-.60577,5.409ZM1068.59784,1755.14953h1390.23254c.08728-3.33722.17834-6.67529.27429-10.01453h-1390.88379c.12421,3.33832.25604,6.67596.37696,10.01453ZM1077.76695,2162.4364c.01141.7605.00421,1.52197.01245,2.28259h1367.4875c-.01245-3.36536.02026-6.70337.09717-10.01477h-1367.71405c.03876,2.57715.07831,5.15527.11694,7.73218ZM1054.78735,2368.32019h1419.84894c-.22046-1.10083-.44189-2.20337-.66296-3.30554h-1418.59882c-.19537,1.10181-.39148,2.20374-.58716,3.30554ZM1076.06175,2217.2965h1372.36689c-.36011-3.35364-.69275-6.69214-.99719-10.01453h-1370.7187c-.19458,3.33679-.40985,6.6748-.651,10.01453ZM1077.10345,2199.77087h1369.68359c-.26428-3.35693-.49695-6.6958-.69592-10.01489h-1368.59131c-.1062,3.33667-.2384,6.67505-.39636,10.01489ZM1077.70489,2182.24499h1367.9978c-.14978-3.36072-.26233-6.69946-.33569-10.01489h-1367.54651c-.00861,3.33643-.04999,6.67493-.1156,10.01489ZM1059.75981,2339.97766h1409.1847c-.6676-3.33618-1.33325-6.6748-1.99548-10.01465h-1405.47955c-.56396,3.33765-1.13416,6.67603-1.70966,10.01465ZM1068.20306,2287.40002h1390.63757c-.60144-3.3429-1.19202-6.68164-1.76843-10.01453h-1387.45386c-.45801,3.33728-.93085,6.67542-1.41528,10.01453ZM1065.5534,2304.9259h1396.52808c-.6333-3.34082-1.25757-6.6792-1.87268-10.01477h-1393.11811c-.50189,3.33752-1.01392,6.67578-1.53728,10.01477ZM1074.60033,2234.8225h1375.92389c-.43982-3.35059-.85754-6.68958-1.25049-10.01477h-1373.78674c-.2738,3.33691-.57141,6.67529-.88667,10.01477ZM1070.62547,2269.87414h1385.17097c-.55908-3.34546-1.10303-6.68396-1.63037-10.01465h-1382.27917c-.4054,3.33716-.82458,6.67529-1.26142,10.01465ZM1072.76526,2252.34851h1380.23724c-.50574-3.34814-.9917-6.68652-1.45825-10.01489h-1377.69263c-.34406,3.33716-.70593,6.67554-1.08636,10.01489ZM1077.53637,2147.19299h1368.08087c.00867-.1897.01392-.38135.02283-.57068.04309-.91418.09155-1.82141.13525-2.73474h-1368.28893c.01672,1.10181.03333,2.20361.04998,3.30542ZM1062.7293,2322.4519h1402.73803c-.65527-3.3385-1.30505-6.67712-1.94861-10.01477h-1399.15405c-.53723,3.33765-1.0816,6.67578-1.63537,10.01477ZM1056.70147,2357.50353h1415.76282c-.67053-3.33386-1.34241-6.67236-2.01379-10.01453h-1411.99311c-.58215,3.33777-1.16705,6.6759-1.75592,10.01453ZM1004.05163,2802.12463h1518.37787c-.55029-3.33984-1.13379-6.67932-1.73547-10.01465H1004.7619c-.24304,3.34888-.47974,6.68701-.71027,10.01465ZM1001.85351,2837.17639h1524.05756c-.02051-3.32471-.15027-6.6637-.38123-10.01465H1002.43438c-.20135,3.35254-.3949,6.69092-.58087,10.01465ZM1002.89593,2819.65051h1521.96997c-.35486-3.33228-.78784-6.672-1.27148-10.01489H1003.54474c-.22333,3.35083-.43939,6.68884-.6488,10.01489h-.00001ZM1001.96301,2854.70214h1522.8222c.47351-3.3158.78906-6.65515.96106-10.01453H1001.45135c-.14661,3.74536.00134,7.07104.51166,10.01453ZM1016.34839,2661.9176h1491.16815c-.06775-1.10168-.13354-2.20361-.20093-3.30542H1016.68646c-.11249,1.10193-.22607,2.20337-.33807,3.30542ZM1006.6781,2767.07299h1509.54644c-.54797-3.35583-1.0509-6.69519-1.49072-10.01477H1007.49286c-.27679,3.34583-.5481,6.68359-.81476,10.01477ZM1019.46722,2872.22814h1489.24109c7.10498-1.50244,12.17798-3.02075,13.27869-4.41504.54346-1.85596,1.00452-3.72461,1.42493-5.59961H1004.53418c2.75122,4.8075,7.49628,8.02283,14.93304,10.01465ZM1005.31933,2784.59863h1514.00287c-.61536-3.34766-1.22693-6.68665-1.81616-10.01453H1006.08502c-.2608,3.34692-.51624,6.6853-.76569,10.01453ZM1011.23156,2714.49548h1499.78388c-.24548-3.33716-.47778-6.67627-.71252-10.01489H1012.1679c-.31592,3.34143-.62762,6.67944-.93634,10.01489ZM1014.59234,2679.44348h1494.02295c-.21399-3.33752-.41992-6.67639-.62842-10.01477H1015.59088c-.33557,3.33862-.66827,6.67664-.99854,10.01477ZM1009.64257,2732.02111h1502.72248c-.26831-3.33691-.52173-6.6759-.77649-10.01465H1010.54309c-.30426,3.34253-.60443,6.68079-.90051,10.01465h-.00001ZM1104.89001,2883.04467h1315.26678c7.82178-.38611,15.62671-.91052,23.40442-1.64172,2.89514-.27222,8.39429-.85852,15.19067-1.66382h-1389.96985c11.86743,1.33081,23.9245,2.41675,36.10797,3.30554ZM1008.11883,2749.54699h1505.74024c-.07605-.76538-.15601-1.53198-.22278-2.29468-.22498-2.57202-.42883-5.14685-.64441-7.72009H1008.97979c-.2912,3.34363-.57892,6.68286-.86096,10.01477ZM1012.8833,2696.96948h1496.89044c-.22754-3.33728-.44397-6.67627-.66321-10.01477H1013.85327c-.32623,3.33984-.6499,6.67822-.96997,10.01477ZM4972.18365,2329.96301h-1439.34985c-.78125,3.37646-1.50757,6.71875-2.15503,10.01465h1442.69116c-.3999-3.33777-.79517-6.67603-1.18652-10.01465h.00024ZM4976.44122,2365.01464h-1449.97583c-.17676,1.10217-.34912,2.20361-.52466,3.30554h1450.91357c-.13867-1.10181-.27515-2.20374-.41309-3.30554ZM4957.04864,2143.88757h-1413.97144c.09546,1.09814.19263,2.2019.29004,3.30542h1413.7981c-.04028-1.10156-.07886-2.20337-.1167-3.30542ZM4970.16949,2312.43713h-1432.98975c-.86548,3.35413-1.71924,6.69531-2.54126,10.01477h1436.6709c-.38452-3.33765-.7644-6.6759-1.13965-10.01477h-.00024ZM4974.27789,2347.48901h-1444.9436c-.55884,3.33923-1.10547,6.677-1.65088,10.01453h1447.82178c-.41284-3.33789-.82178-6.67615-1.22754-10.01453h.00024ZM4960.39532,2207.28198h-1412.08936c.19995,3.36755.37378,6.7074.51807,10.01453h1412.29688c-.25024-3.33643-.4917-6.6748-.72534-10.01453h-.00024ZM4957.45293,2154.70422h-1413.41602c.29956,3.32471.60205,6.66479.90405,10.01477h1412.95215c-.15649-3.33618-.30347-6.67432-.44019-10.01477ZM4959.24737,2189.75598h-1412.1604c.26318,3.35181.51172,6.69287.74048,10.01489h1412.05493c-.2207-3.33643-.43164-6.6748-.63501-10.01489ZM4963.14458,2242.33361h-1413.92285c-.06177,3.40991-.17407,6.75659-.3562,10.01489h1415.16724c-.30298-3.33704-.59937-6.67529-.88818-10.01489ZM4961.69781,2224.80773h-1412.59497c.0979,3.38708.15503,6.72632.16992,10.01477h1413.23486c-.27759-3.33679-.54736-6.67505-.80981-10.01477ZM4964.72539,2259.85949h-1416.42651c-.32861,3.28845-.78027,6.63062-1.33032,10.01465h1418.71729c-.32642-3.33716-.64697-6.67529-.96045-10.01465ZM4968.24786,2294.91113h-1426.59058c-.82324,3.33386-1.67578,6.67542-2.53662,10.01477h1430.21436c-.36743-3.33752-.73047-6.67566-1.08716-10.01477ZM4958.26324,2172.2301h-1412.65161c.29541,3.33862.58423,6.67847.86377,10.01489h1412.32739c-.18921-3.33618-.36816-6.6748-.53931-10.01489h-.00024ZM4966.42998,2277.38549h-1420.8208c-.6543,3.31335-1.37817,6.65454-2.15356,10.01453h1424.00122c-.3479-3.33728-.69067-6.67529-1.02686-10.01453ZM5028.1021,2844.68762h-1550.91235c-.26611,3.33704-.53271,6.67468-.80078,10.01453h1551.91211c.10474-3.0376.02563-6.4071-.19897-10.01453ZM5024.54497,2868.7406c1.39014-1.37134,2.34497-3.61646,2.9519-6.5271h-1550.60889c1.04199,4.35681,3.26587,7.53662,6.29077,10.01465h1535.37891c2.82959-1.22058,4.8728-2.38818,5.9873-3.48755ZM4994.44073,2879.73913h-1495.42334c3.38257,1.13257,6.85596,2.23352,10.41064,3.30554h1471.21484c4.89868-1.11304,9.51904-2.21729,13.79785-3.30554ZM5026.25323,2827.16174h-1547.67188c-.26367,3.33679-.52832,6.67517-.79346,10.01465h1549.68481c-.33325-3.24097-.74829-6.59912-1.21948-10.01465ZM5023.49615,2809.63561h-1543.53418c-.26196,3.33655-.52515,6.67578-.78833,10.01489h1545.97266c-.52124-3.34229-1.07837-6.69812-1.65015-10.01489ZM5020.3399,2792.10998h-1539.00269c-.26147,3.33643-.52368,6.67603-.78564,10.01465h1541.61816c-.62158-3.45117-1.24023-6.8103-1.82983-10.01465ZM5017.26275,2774.5841h-1534.55103c-.26196,3.33667-.52368,6.67566-.78564,10.01453h1537.0415c-.67163-3.72815-1.25806-7.11047-1.70483-10.01453ZM5015.64532,2757.05822h-1531.55469c-.26318,3.33704-.52588,6.67578-.78857,10.01477h1533.06372c-.28369-3.31531-.52002-6.65564-.72046-10.01477ZM5014.88995,2739.53222h-1529.41089c-.26538,3.33728-.53052,6.67566-.79468,10.01477h1530.56982c-.14697-3.32666-.26904-6.66467-.36426-10.01477ZM5014.03667,2686.95471h-1524.29077c-.27759,3.33789-.55591,6.67542-.83081,10.01477h1525.33203c-.05371-3.3551-.12427-6.69226-.21045-10.01477ZM5014.35162,2704.48059h-1526.0498c-.27246,3.33777-.54541,6.67554-.81567,10.01489h1526.97534c-.0354-3.34399-.07056-6.68433-.10986-10.01489ZM5014.54961,2722.00646h-1527.66895c-.26831,3.3374-.53662,6.67542-.80347,10.01465h1528.63281c-.06641-3.33521-.11768-6.67456-.1604-10.01465ZM5012.56084,2658.61218h-1520.4165c-.09497,1.10193-.19116,2.20337-.28564,3.30542h1520.97461c-.08472-1.10657-.17725-2.20703-.27246-3.30542ZM5013.33916,2669.42871h-1522.12036c-.28369,3.33789-.56738,6.67566-.84741,10.01477h1523.42969c-.12451-3.36328-.27295-6.70581-.46191-10.01477Z" fill="#007577"/>
  <path id="C3" d="M1009.42755,1117.74396h1495.85632c-.32837,1.58478-.63403,3.1217-.91589,4.62006.00024-.0014.00061-.00275.00073-.00415-.58142.5722-1.59094,1.57111-2.90906,2.8952H1012.68005c-1.17822-2.55591-2.28174-5.14014-3.2525-7.51111ZM1095.26366,1247.9364h1332.34918c.21997-.71313.43323-1.42773.6626-2.13885.58667-1.81842,1.18848-3.60327,1.797-5.37256h-1337.62579c.99017,2.45477,1.92322,4.96375,2.81702,7.51141ZM1078.6466,1212.88452h1362.44012c1.17981-2.5791,2.36658-5.08435,3.55469-7.51105h-1370.63892c1.59027,2.48572,3.14172,4.98676,4.6441,7.51105ZM1104.92143,1300.51403h1314.01026c.12085-2.51819.27258-5.02252.4613-7.51123h-1314.81042c.16833,2.55896.27899,5.06775.33886,7.51123ZM1102.84361,1335.56555h1316.2281c-.11902-2.51825-.22229-5.02386-.30005-7.51105h-1315.03234c-.31384,2.97449-.63397,5.50623-.89569,7.51105h-.00002ZM1104.57909,1318.03991h1314.00592c-.01587-2.51825-.01013-5.02356.02771-7.51135h-1313.70435c-.06885,2.62799-.18323,5.14032-.32928,7.51135ZM1088.04967,1230.41046h1345.66425c.98511-2.56329,1.98828-5.06488,3.00415-7.51111h-1352.44769c1.30499,2.47009,2.57111,4.96777,3.7793,7.51111ZM1066.27557,1193.79753c.36121.52008.71161,1.04083,1.06964,1.56104h1382.41632c1.39209-2.61188,2.77026-5.11725,4.12378-7.51105h-1391.84955c1.44116,1.97711,2.85999,3.96307,4.23981,5.95ZM1100.38824,1265.46203h1322.75208c.51294-2.51733,1.07874-5.02014,1.69226-7.51111h-1326.38776c.69592,2.45056,1.3385,4.95972,1.94342,7.51111ZM1054.47893,1177.83287h1405.27747c1.63306-2.69287,3.1925-5.19843,4.6532-7.51111h-1415.91052c1.98346,2.44086,3.98541,4.95135,5.97986,7.51111ZM1103.62524,1282.98809h1316.73395c.2959-2.51794.6333-5.02142,1.01257-7.51123h-1318.88727c.44788,2.52496.82727,5.03235,1.14075,7.51123ZM1020.94226,1139.13085c.90704.90704,2.10632,2.14496,3.52905,3.65015h1460.39117c2.32568-2.60229,4.6709-5.14484,6.89868-7.51111H1017.98033c1.00732,1.57135,2.00525,2.9043,2.96191,3.86096h.00001ZM1040.15094,1160.30693h1430.66381c1.53284-2.32416,3.42297-4.86755,5.53186-7.51111h-1442.73309c2.05579,2.31824,4.25146,4.836,6.53742,7.51111ZM1067.56109,1727.60906h1392.08301c.08252-2.50317.16846-5.00702.25513-7.51111h-1392.63788c.09961,2.50372.20209,5.00714.29974,7.51111ZM1065.35094,1675.03149h1396.31146c.1084-2.50348.21924-5.0072.33069-7.51111h-1396.97565c.11432,2.50336.22137,5.00751.3335,7.51111ZM1065.41869,1657.50555h1395.72125c-.38013-2.78149-.71997-5.27759-1.02246-7.51111h-1394.05054c-.16077,2.28461-.36505,4.73517-.64825,7.51111ZM1066.85162,1710.08312h1393.40405c.09204-2.50342.18481-5.00696.28064-7.51111h-1393.992c.10431,2.50348.20502,5.00739.30731,7.51111ZM1066.12914,1692.55743h1394.80182c.10071-2.50342.20325-5.00708.30725-7.51111h-1395.44257c.10925,2.50391.22632,5.00696.3335,7.51111ZM1069.46831,1780.18658h1388.79419c.04785-2.50336.09497-5.00641.14832-7.51111h-1389.20239c.08649,2.50372.17517,5.00726.25989,7.51111ZM1066.63518,1639.97961h1392.1438c-.47461-3.63116-.75806-5.9444-.92529-7.51111h-1390.7652c-.19537,2.73944-.3316,5.1759-.45331,7.51111ZM1071.1242,1832.76446h1386.56958c.00452-2.50256.01489-5.0069.02612-7.51135h-1386.81482c.07489,2.50366.14575,5.00763.21912,7.51135ZM1070.60326,1815.23852h1387.18024c.0199-2.50311.04065-5.00641.06689-7.51117h-1387.48572c.07855,2.50378.16162,5.00732.23859,7.51117ZM1068.86192,1762.66094h1389.77644c.06042-2.50293.12671-5.00726.19214-7.51141h-1390.23266c.0907,2.5036.17529,5.00763.2641,7.51141h-.00002ZM1068.22088,1745.135h1390.88379c.0719-2.50348.14221-5.00659.21875-7.51111h-1391.38531c.09509,2.5036.18958,5.00732.28278,7.51111ZM1071.63512,1850.29009h1386.08856c-.01208-2.50275-.02161-5.00635-.02649-7.51111h-1386.28094c.07141,2.50378.14893,5.00726.21886,7.51111ZM1070.04651,1797.71258h1387.92217c.03442-2.50256.07666-5.00708.11707-7.51117h-1388.27789c.0824,2.50354.1579,5.00751.23866,7.51117ZM1069.61834,2277.38549h1387.45386c-.43384-2.50745-.85791-5.01086-1.27576-7.51135h-1385.17097c-.32739,2.50317-.66345,5.00708-1.00713,7.51135ZM1064.36468,2312.43713h1399.15405c-.48291-2.50452-.96289-5.00854-1.43726-7.51123h-1396.52808c-.3924,2.50342-.78564,5.00708-1.18872,7.51123ZM1071.88689,2259.85949h1382.27917c-.39722-2.50818-.78625-5.01245-1.16357-7.51099h-1380.23724c-.28516,2.50317-.5741,5.00659-.87836,7.51099ZM1075.487,2224.80773h1373.78661c-.29675-2.51208-.57703-5.01501-.84497-7.51123h-1372.36689c-.18073,2.50305-.36926,5.00659-.57477,7.51123h.00002ZM1067.09068,2294.91113h1393.11811c-.46216-2.50574-.91821-5.00964-1.36816-7.51111h-1390.63757c-.3631,2.50317-.73578,5.00708-1.11237,7.51111ZM1055.3745,2365.01464h1418.59869c-.50183-2.50085-1.00476-5.00427-1.50879-7.51111h-1415.76294c-.44159,2.50366-.88293,5.0072-1.32696,7.51111ZM1061.46947,2329.96301h1405.47955c-.49634-2.50317-.99023-5.00708-1.48169-7.51111h-1402.73803c-.41516,2.5033-.83679,5.0072-1.25983,7.51111ZM1058.45739,2347.48901h1411.99298c-.50256-2.50183-1.00464-5.0061-1.50598-7.51135h-1409.18457c-.43158,2.50354-.86566,5.00732-1.30243,7.51135ZM1077.82049,2172.2301h1367.54663c-.05566-2.51709-.09082-5.02197-.10022-7.51111h-1367.48748c.02704,2.50281.04755,5.00623.04107,7.51111ZM1076.71275,2207.28198h1370.7187c-.23022-2.51245-.44812-5.01794-.64441-7.51111h-1369.68359c-.11835,2.50293-.24469,5.00635-.39069,7.51111ZM1077.49981,2189.75598h1368.59131c-.15088-2.51611-.27722-5.01807-.38843-7.51099h-1367.9978c-.04913,2.50244-.12537,5.00659-.20508,7.51099ZM1077.65002,2154.70422h1367.71405c.05835-2.51953.1405-5.02478.2533-7.51123h-1368.08099c.03784,2.50366.07599,5.00781.11365,7.51123ZM1073.85162,2242.33361h1377.69263c-.35193-2.51001-.69226-5.01392-1.02002-7.51111h-1375.92389c-.23627,2.50281-.49054,5.00684-.74872,7.51111ZM1006.08502,2774.5841h1511.42102c-.4447-2.51135-.87402-5.0155-1.28162-7.51111H1006.6781c-.20081,2.50842-.39832,5.01184-.59308,7.51111ZM1007.49286,2757.05822h1507.24096c-.33337-2.51636-.6272-5.02051-.87463-7.51123H1008.11883c-.2124,2.50879-.41901,5.00977-.62598,7.51123h.00001ZM1008.97979,2739.53222h1504.01221c-.20972-2.50354-.42554-5.00647-.62683-7.51111H1009.64257c-.2226,2.50562-.44507,5.01123-.66278,7.51111ZM1004.7619,2792.10998h1515.93225c-.45227-2.50684-.91223-5.01123-1.37195-7.51135H1005.31933c-.18787,2.5072-.37622,5.01514-.55743,7.51135ZM1003.54474,2809.63561h1520.04968c-.36206-2.50269-.7522-5.00659-1.16479-7.51099H1004.05163c-.17401,2.51245-.34033,5.01147-.50689,7.51099ZM1013.85327,2686.95471h1495.25726c-.16455-2.50391-.33472-5.00684-.49524-7.51123H1014.59234c-.2478,2.50439-.49451,5.00793-.73907,7.51123ZM1010.54309,2722.00646h1501.04559c-.19104-2.50366-.38879-5.00635-.57312-7.51099H1011.23156c-.23199,2.5061-.46082,5.00891-.68848,7.51099h.00001ZM1012.1679,2704.48059h1498.13501c-.17603-2.50366-.35864-5.00659-.5293-7.51111H1012.8833c-.2403,2.505-.47882,5.00867-.7154,7.51111ZM1001.49914,2843.5758c-.02002.37659-.03339.74341-.04779,1.11182h1524.2948c.12756-2.49377.18042-4.99805.16492-7.51123H1001.85351c-.11945,2.13574-.24146,4.27612-.35437,6.39941ZM1015.59088,2669.42871h1492.39599c-.15637-2.50378-.31628-5.00696-.47034-7.51111H1016.34839c-.25433,2.50342-.50586,5.0072-.75751,7.51111ZM1023.82983,2873.20666c14.55341,2.68054,29.59454,4.81018,44.95221,6.53247h1389.96985c14.97119-1.77393,36.24841-4.6123,49.95642-7.51099H1019.46722c1.3645.36548,2.8125.69299,4.36261.97852ZM1004.53418,2862.2135h1518.87762c.55786-2.48865,1.01367-4.9928,1.37341-7.51135H1001.96301c.49426,2.85046,1.33044,5.34338,2.57117,7.51135ZM1002.43438,2827.16174h1523.09546c-.17212-2.49829-.39685-5.00269-.66394-7.51123H1002.89593c-.15814,2.51172-.31165,5.01465-.46155,7.51123ZM4973.37041,2339.97766h-1442.69116c-.38452,1.95813-.74341,3.90112-1.06641,5.82373-.09448.56274-.18408,1.12488-.27832,1.68762h1444.9436c-.30444-2.50366-.60791-5.00732-.90771-7.51135ZM4965.68584,2269.87414h-1418.71729c-.40356,2.48315-.86133,4.98901-1.35938,7.51135h1420.8208c-.25195-2.50305-.49902-5.00708-.74414-7.51135ZM4975.50542,2357.50353h-1447.82202c-.40918,2.50415-.81665,5.00793-1.21826,7.51111h1449.97583c-.31348-2.50366-.62573-5.00732-.93555-7.51111ZM4959.88238,2199.77087h-1412.05493c.1731,2.51733.33032,5.01892.47827,7.51111h1412.0896c-.17505-2.50281-.34717-5.00635-.51294-7.51111ZM4961.12066,2217.2965h-1412.29663c.11011,2.52319.20703,5.03198.27881,7.51123h1412.59497c-.19653-2.50293-.3894-5.00659-.5769-7.51123h-.00024ZM4962.50738,2234.8225h-1413.23486c.01172,2.5387-.00659,5.04138-.05103,7.51111h1413.92285c-.21655-2.50293-.42871-5.00659-.63696-7.51111ZM4964.03252,2252.34851h-1415.16724c-.08374,1.49377-.17969,2.97156-.29102,4.42993-.07788,1.02087-.17236,2.04907-.27563,3.08105h1416.42651c-.23511-2.50293-.46533-5.00671-.69263-7.51099ZM4971.30914,2322.4519h-1436.67065c-.62378,2.51868-1.22876,5.02417-1.8042,7.51111h1439.34961c-.2937-2.50342-.58594-5.00708-.87476-7.51111ZM4957.16534,2147.19299h-1413.7981c.21948,2.49243.44287,4.99634.66943,7.51123h1413.41602c-.10229-2.5022-.19629-5.00647-.28735-7.51123ZM4969.33501,2304.9259h-1430.21436c-.64624,2.50696-1.29614,5.01233-1.94092,7.51123h1432.98975c-.28125-2.50342-.55884-5.00708-.83447-7.51123ZM4957.89288,2164.71899h-1412.95215c.22534,2.5.44922,5.00476.6709,7.51111h1412.65186c-.12793-2.50269-.25293-5.0061-.37036-7.51111h-.00024ZM4967.4566,2287.40002h-1424.00122c-.57593,2.49573-1.17847,5.00098-1.79834,7.51111h1426.59058c-.26758-2.50305-.52979-5.00696-.79102-7.51111ZM4958.80279,2182.24499h-1412.32739c.20996,2.50732.41577,5.01245.61182,7.51099h1412.1604c-.15234-2.50281-.30249-5.0061-.44482-7.51099ZM5018.96783,2784.59863h-1537.0415c-.19629,2.50378-.39258,5.00623-.58887,7.51135h1539.00269c-.48218-2.62085-.94385-5.13452-1.37231-7.51135ZM5018.55791,2872.22814h-1535.37891c3.84277,3.14844,8.95679,5.18628,14.5686,7.09058.41821.14185.84912.27954,1.27002.42041h1495.42334c10.34692-2.63171,18.68921-5.16943,24.11694-7.51099ZM5028.30108,2854.70214h-1551.91211c-.05688.71021-.11304,1.41919-.17017,2.12952.03784,1.98193.28027,3.75513.66919,5.38184h1550.60889c.45044-2.16064.70703-4.69189.8042-7.51135ZM5014.24737,2696.96948h-1525.33203c-.20605,2.50281-.40918,5.00745-.61353,7.51111h1526.0498c-.02979-2.51025-.06445-5.01367-.10425-7.51111ZM5013.80083,2679.44348h-1523.42993c-.20996,2.50305-.41699,5.00732-.62524,7.51123h1524.29077c-.06519-2.51575-.1438-5.01978-.23584-7.51123h.00024ZM5012.83331,2661.9176h-1520.97461c-.2146,2.50317-.42749,5.0072-.64014,7.51111h1522.12036c-.14404-2.52356-.31494-5.02527-.50562-7.51111ZM5016.48663,2768.57971c-.04492-.49976-.07788-1.00586-.12061-1.50671h-1533.06372c-.19678,2.50354-.3938,5.00647-.59033,7.51111h1534.55103c-.35864-2.33252-.62866-4.36255-.77637-6.00439ZM5022.16997,2802.12463h-1541.61816c-.19629,2.50354-.39282,5.0061-.5896,7.51099h1543.53418c-.43701-2.53491-.88232-5.04553-1.32642-7.51099ZM5025.14654,2819.65051h-1545.97266c-.19727,2.50317-.39478,5.00659-.59253,7.51123h1547.67188c-.34229-2.4812-.71387-4.99194-1.10669-7.51123ZM5014.46123,2714.49548h-1526.97534c-.20264,2.50293-.40381,5.00708-.60522,7.51099h1527.66895c-.03198-2.50488-.06177-5.00854-.08838-7.51099ZM5027.47247,2837.17639h-1549.68481c-.19873,2.50293-.39819,5.00684-.5979,7.51123h1550.91235c-.15039-2.40991-.36328-4.92212-.62964-7.51123ZM5015.2542,2749.54699h-1530.56982c-.198,2.5033-.396,5.00684-.59351,7.51123h1531.55469c-.14868-2.49463-.28027-4.9978-.39136-7.51123ZM5014.71001,2732.02111h-1528.63281c-.19995,2.50305-.39917,5.00708-.59839,7.51111h1529.41089c-.0708-2.49951-.12988-5.00366-.17969-7.51111Z"/>
</svg>