<?xml version="1.0" encoding="UTF-8"?>
<svg id="Layer_8" xmlns="http://www.w3.org/2000/svg" version="1.1" viewBox="0 0 6000 3000">
  <!-- Generator: Adobe Illustrator 30.5.1, SVG Export Plug-In . SVG Version: 2.1.4 Build 3)  -->
  <path id="C1" d="M1056.44038,598.4289l3.01086,1.28967-1.93829,4.52509c-5.16931-4.06378-4.47833-2.47546-1.07257-5.81476ZM1313.51867,451.48504c-2.01172,1.54388-1.53748,1.3147-3.44379,3.88049l4.51465,1.93384c.81671-4.74463,1.20007-2.172-1.07086-5.81433ZM1027.41571,591.35169l-4.51465-1.93384-1.29218,3.01666,4.51465,1.93384,1.29218-3.01666ZM1010.85127,596.75226c1.85022-6.06213,2.15662-1.79785.02057-6.25159-1.38989-2.89673-1.73352-2.4848-4.31232-4.51251-2.29828,6.88641-1.32703,6.6322,4.29175,10.7641ZM988.28761,574.59131c-.02008-.03735-2.16101-2.71039-2.36328-2.797-4.54993-1.94897-4.92181-.00775-7.10059,4.09882,6.20685,2.0672,5.16895,1.49274,9.46387-1.30182ZM992.78596,601.51044c-2.54108,2.1676-1.96863,1.38995-4.08997,5.38892l4.51471,1.93378c2.4198-7.25433,2.74457-1.94647-.42474-7.32269ZM1740.16131,647.63459c1.43707-3.24225-2.68024-.70142,0,0h0ZM1663.51532,603.18976l-1.2923,3.01685,6.02173,2.57941c.95441-6.56934.94659-4.4715-4.72943-5.59625ZM1172.09967,656.89655c2.9707,1.27246,5.61908,2.89838,8.67004,2.96802,7.12952.16162,10.75281-7.14423,6.38739-9.0141-6.6059-2.82965.23724,3.672-14.83624-2.78467-.87616,6.02307.51636,2.58594-.22119,8.83075ZM1266.69745,693.84693c-3.95148-4.39709-3.01306-5.0448-7.31226.43799,6.96143,2.31879,2.07758,2.8432,7.31226-.43799ZM1107.38899,629.17804c-.98401,6.77148.46179,6.01233,4.29333,10.76477,1.96179-6.43341,2.28217-1.63409.34009-6.38116-1.90936-4.66815,1.34552-1.00824-4.63342-4.38361ZM1107.60864,620.34662l-1.93829,4.52509,7.52551,3.22351c.98102-6.75122,1.46094-4.5415-5.58722-7.7486ZM1739.6134,650.06739c1.77026.7583,4.78168-1.79358,1.00012-2.33478-.17645-.02527-.31384-.06183-.45221-.09802-.08228.18567-.17096.37811-.29224.60327-.98383,1.82672-3.31464.51923-.25568,1.82953ZM1666.29834,625.80353c2.14874-5.01642-.81055-5.57507-5.58728-7.74841-3.25702,9.77216,4.26288,10.84027,5.58728,7.74841ZM1347.04327,485.48211c-2.00372,1.52069-1.65619,1.19708-3.44379,3.88043l4.51624,1.93452c.81354-4.74597,1.20026-2.1723-1.07245-5.81495ZM1344.03405,484.19312l3.00922,1.289,4.24945-5.25122c-5.23627.81934-3.59662-.70703-7.25867,3.96222ZM1555.36853,572.93207c3.62982-3.1839,2.0636-1.02637,4.73444-6.89795l-4.51624-1.93457c-1.63104,4.06055-3.45734,6.73663-.2182,8.83252ZM1511.7323,541.74457l1.93842-4.52527c-4.85156-.82812-2.08374-1.1217-5.80536,1.08368,1.39325,1.82025.96362,2.198,3.86694,3.44159ZM1620.08728,588.15796l1.93842-4.52527-6.68591-.86023c1.18665,4.85669-1.79254,2.58411,4.7475,5.3855ZM952.68843,558.9444c-1.01941-2.55994-3.0968-2.56543-4.90027-1.92474-3.73547,1.32855-1.9458.55145-4.22241,5.55603,4.29871,1.43152,11.22729,1.64075,9.12268-3.63129ZM1630.61389,605.16309c2.01025-1.54474,1.5343-1.31598,3.44391-3.88062l-4.51471-1.93384c-.50366,2.91418-1.54376,4.12286,1.0708,5.81445ZM1733.59491,647.48938c-3.29596-3.32001-4.13593,1.90015-.42627-7.32336l-4.5163-1.93457c-5.29163,13.16077,1.99078.36322-1.51025,11.849l4.51465,1.93384,1.93817-4.5249ZM1651.90313,605.35633c-6.7771-2.25696-7.53076-.47974-7.7453,5.60828,6.02075-.50018,4.4552,1.62488,7.7453-5.60828ZM1497.87011,543.85022c1.43579-3.2428-2.68158-.70197,0,0h0ZM1319.74872,457.72406c8.07458-.6701,3.23096,2.76245,7.09912-4.09967l-6.01849-2.578c-1.42395,4.29547-1.26172,3.34027-1.08063,6.67767ZM1320.82934,451.04638l1.93829-4.52509c-8.7298-1.25897-8.49323,4.44556-1.93829,4.52509ZM1484.8576,533.8031l-2.58453,6.03369c7.39899,1.06671,8.46124-1.41309,2.58453-6.03369ZM1410.0451,496.4021l-1.93829,4.52509,3.01086,1.28973c.83289-4.8623,1.12329-2.09039-1.07257-5.81482ZM1489.16949,529.9101c-.04822-.09454-.08954-.17163-.14294-.27917l-.72522.29193.68396.24786c.0509-.1571.11505-.23029.1842-.26062ZM1489.16949,529.9101c1.50415,2.94727.55408-.2431,0,0h0ZM1497.32245,546.28314c1.76868.75757,4.78174-1.79358,1.00012-2.33478-.17651-.02527-.31403-.06189-.45245-.09814-.08221.18573-.17084.37817-.29199.60339-.98383,1.82672-3.31622.51855-.25568,1.82953ZM1358.8703,486.97779c1.76862.75757,4.78009-1.79425,1.00006-2.33478-.17651-.02527-.31403-.06189-.45245-.09814-.08221.18567-.17084.37817-.29199.60333-.98383,1.82678-3.31464.51929-.25562,1.82958ZM1359.41791,484.54486c1.43585-3.24286-2.68152-.70203,0,0h0ZM911.65778,534.24909c20.46606-27.0014,45.02026-55.40936,68.91516-78.91882,28.79712-28.3327,79.59404-66.36871,116.77905-91.57196,1.86646,1.04987,4.41101,2.88391,8.20062,6.14307l38.08488,13.11182c4.53607.34967,7.07355-2.06238,11.69788,3.31812,4.65668,5.41571-1.88116,4.71979,8.67792,8.98041,9.43536,3.80652,17.79584,8.74792,28.53979,13.96924,18.1225,8.80573,2.22852-6.59937,37.72992,13.00513,7.20245,3.9776,7.64978,5.60278,11.17609,2.14612l2.95129,1.59277,5.25238,8.3927c1.52173,3.30719,1.38983,4.04083,5.60101,6.78961,2.71155-5.02222,2.26813-5.04236,4.6485-6.8125l4.75757,2.5683c.92969,1.52783,1.21387,3.23676.7984,6.02472l2.88171,1.5556c2.30585-2.45209,2.96283-3.51141,4.88464-2.95624l13.14178,7.09528c-.19727-.4176-.41925-.3028,2.57068,1.79395,4.22156,2.95959,2.40582,1.72217.69794,6.84906l-7.31238.43817c9.742,5.17035.35834,4.51117,10.09857,9.68127.487-8.3736-.91003,1.05133-.4231-7.32208,6.24005,3.31116,2.80231.94733,6.23181,6.23932l-1.29248,3.01727,3.01086,1.28967,1.29242-3.01727,4.30133-1.72748c-4.09546-.59778-1.74847-1.54071-4.30133,1.72748l-3.0108-1.28967c3.22339-8.013,1.83258-11.50177-6.01044-15.07043l1.93829-4.52509c6.6756,2.68469,5.12354.98688,11.17926,3.00336-3.08069,4.38074-2.52435,1.69849-2.58441,6.03357,4.60992-.86926,2.34814-1.15405,7.31226-.43799l.38416,4.09174,4.13049-2.1579c5.81006,4.56781,1.06091,3.54047,6.30072,5.16498,4.46167,1.38361,2.02637-1.08575,5.72461,1.36615l16.78131,9.37817-5.25543,2.46936c-.27094.10046-.88318.27936-1.10571.35547l-2.24347.63025c7.08923,5.21307,4.84235,6.57861,8.80792,12.69879l-1.29218,3.01666c4.73621.80908,2.16638,1.1991,5.80841-1.08215,7.18286-1.35522,2.27094-.08685,7.44946.25281l1.85083.00244c.22412-.01324.70703-.13855.93079-.15973,7.93262-.71124,3.85651.82306,11.91589,2.25024l-2.58453,6.03375,6.02008,2.57867c2.97198-3.78986.63013-2.3446,4.94604-3.237-2.91455,7.24762-2.1651,9.71942,3.00439,13.78284,3.26721-9.80029-2.80823-11.82861,4.09808-17.88153,4.80096,3.77521,3.96619,1.86176,1.93005,7.96777,22.91675,9.81628,42.86853,16.57733,66.86218,26.85492l1.93848-4.52551,4.51465,1.93384c-3.40906,11.17358,8.5979,7.3537,14.82941,10.89758,4.41583,2.5105.49634,3.62585,7.32562,6.61237,1.58063.69086,8.21436,2.63965,11.37762,3.99463l-1.93835,4.52527c5.24506.75641,9.68103-6.22528,26.01709,5.78876,2.6651-7.99121-.26764-2.53235.86755-10.3396,11.87897,5.40503,3.79816,2.21411,5.35852,8.2027,2.57739,9.87518,7.43878-1.42517,2.37024,11.17468,5.17108,2.21503,14.56659,6.88629,19.56573,8.02594,6.21411,1.41626,3.15332-.71466,6.68817.97919l5.41193,4.38855c3.99304,2.47327,13.26501,5.91632,18.05164,8.01776,13.99506,6.1452,6.47192,3.22211,15.42615,1.13696,7.41895,5.8313-1.35791,2.62476,10.09253,9.68652,9.52576,5.87476,2.00836.84979,8.60577,9.03351,3.21722-2.81934,3.67029-4.94135,6.88422-7.7619,7.6004,12.88843,1.99988,2.67438,10.97095,13.08118,1.77026,2.05298,1.80988,2.09796,3.21429,3.70575,5.07513-6.47382,3.31476-.64362,8.3913-7.11633l3.00922,1.28894c-.78821,5.42303,1.11456,4.41302,3.49615,6.77271,8.15509,8.08142,13.33954,13.4046,25.35583,9.2525,10.93896-3.77881,5.47852,3.90063,19.01416.46277,5.53467-1.40527,8.53857-.53833,7.16925,8.87091-8.43713-4.76239-.74298.46625-5.58569-7.74768-3.05054,3.8891-6.06317,4.3551-10.54291,7.9801,6.23987,3.31152,2.80402.94775,6.23334,6.24017,6.80164-4.03052,2.41113.92053,7.099-4.09949,5.17804,4.06995,3.79572,6.64081,7.30267,12.05359,16.89026-3.18573,6.36707-8.5589,7.75342-18.10095,4.86511,4.5567,1.99152,4.99084,6.08557,8.79779,4.41687,4.10876,6.01715,2.27966,10.24957,7.125,1.77106,8.6767,14.24878,6.41504,21.67139,15.3504l.17523-.30511,4.55493,1.33887,4.55493-1.33887.17523.30511c7.42261-8.93536,19.90033-6.67371,21.67139-15.3504,4.23242-4.84534,5.8327-3.01624,10.24957-7.125,4.09406-3.80695,1.22046-4.24109,6.08557-8.79779,1.38635,9.54205-9.13684,14.91522,7.75342,18.10095,3.50696-5.41278,2.12463-7.98364,7.30267-12.05359,4.68787,5.02002.29736.06897,7.099,4.09949,3.42932-5.29242-.00659-2.92865,6.23334-6.24017-4.47974-3.625-7.49237-4.091-10.54291-7.9801-4.84271,8.21393,2.85144,2.98529-5.58569,7.74768-1.36932-9.40924,1.63452-10.27618,7.16925-8.87091,13.53564,3.43787,8.0752-4.24158,19.01416-.46277,12.0163,4.1521,17.20074-1.17108,25.35583-9.2525,2.38159-2.35968,4.28436-1.34967,3.49615-6.77271l3.00922-1.28894c5.07654,6.47272,3.31616.64252,8.3913,7.11633,1.40442-1.60779,1.44403-1.65277,3.21429-3.70575,8.97107-10.4068,3.37054-.19275,10.97095-13.08118,3.21387,2.82056,3.66699,4.94257,6.88428,7.7619,6.59741-8.18372-.91992-3.15875,8.60571-9.03351,11.45044-7.06177,2.67358-3.85522,10.09253-9.68652,8.95422,2.08514,1.43103,5.00824,15.42615-1.13696,4.78662-2.10144,14.05859-5.54449,18.05164-8.01776l5.41199-4.38855c3.53479-1.69385.474.43707,6.68811-.97919,4.99927-1.13965,14.39465-5.81091,19.56567-8.02594-5.06848-12.59985-.20703-1.2995,2.37024-11.17468,1.5603-5.98859-6.52051-2.79767,5.35852-8.2027,1.13513,7.80725-1.79761,2.34839.86755,10.3396,16.33606-12.01404,20.77197-5.03235,26.01709-5.78876l-1.93848-4.52527c3.16333-1.35498,9.797-3.30377,11.37769-3.99463,6.82922-2.98651,2.90979-4.10187,7.32556-6.61237,6.23157-3.54388,18.2384.276,14.82947-10.89758l4.51465-1.93384,1.93848,4.52551c23.99365-10.27759,43.94543-17.03864,66.86218-26.85492-2.03613-6.10602-2.87085-4.19257,1.93005-7.96777,6.90625,6.05292.83081,8.08124,4.09802,17.88153,5.16943-4.06342,5.91882-6.53522,3.00439-13.78284,4.31592.8924,1.97412-.55286,4.94592,3.237l6.02002-2.57867-2.58447-6.03375c8.05945-1.42719,3.9834-2.96149,11.91589-2.25024.22363.02118.70667.14648.93079.15973l1.85083-.00244c5.17859-.33966.2666-1.60803,7.44934-.25281,3.64209,2.28125,1.07227,1.89124,5.80847,1.08215l-1.29224-3.01666c3.96558-6.12018,1.71875-7.48572,8.80786-12.69879l-2.24353-.63025c-.22253-.07611-.83484-.255-1.10571-.35547l-5.25537-2.46936,16.78125-9.37817c3.69824-2.4519,1.26294.01746,5.72461-1.36615,5.23975-1.62451.4906-.59717,6.30066-5.16498l4.13049,2.1579.38416-4.09174c4.96411-.71606,2.70227-.43127,7.31226.43799-.06018-4.33508.49622-1.65283-2.58447-6.03357,6.05579-2.01648,4.50366-.31866,11.17932-3.00336l1.93823,4.52509c-7.84302,3.56866-9.23376,7.05743-6.01038,15.07043l-3.01086,1.28967c-2.55286-3.26819-.20581-2.32526-4.30127-1.72748l4.30127,1.72748,1.29248,3.01727,3.01074-1.28967-1.29248-3.01727c3.42944-5.29199-.0083-2.92816,6.23181-6.23932.48694,8.37341-.91016-1.05151-.4231,7.32208,9.74023-5.1701.35657-4.51093,10.09851-9.68127l-7.31238-.43817c-1.70801-5.12689-3.52356-3.88947.698-6.84906,2.98999-2.09674,2.76782-2.21155,2.57068-1.79395l13.14172-7.09528c1.92175-.55518,2.57886.50415,4.88464,2.95624l2.88171-1.5556c-.41553-2.78796-.13135-4.49689.79834-6.02472l4.75769-2.5683c2.38037,1.77014,1.93689,1.79028,4.64856,6.8125,4.21106-2.74878,4.07922-3.48242,5.60095-6.78961l5.25232-8.3927,2.95129-1.59277c3.52637,3.45667,3.97363,1.83148,11.17615-2.14612,35.50134-19.60449,19.60742-4.1994,37.72986-13.00513,10.74402-5.22131,19.10437-10.16272,28.53979-13.96924,10.55908-4.26062,4.02124-3.5647,8.67798-8.98041,4.62427-5.38049,7.16174-2.96844,11.69775-3.31812l38.08496-13.11182c4.69934-4.04156,7.48804-5.896,9.4342-6.77094,22.44897,14.32104,51.14465,32.7334,82.71521,54.64429,55.02356,38.18799,94.85632,92.28553,116.02466,117.4762-5.07214,3.69995-4.9187,9.31189-9.51648-4.47992-8.14819,4.32385-4.85083,5.66748-5.15479,12.91736-13.948,4.64563-8.37085-2.435-20.21326,6.87354-4.10095-.95386-8.05188-1.94318-11.85803-2.9447.3009.76025.62524,1.53497.98108,2.32135-20.40369,9.17828-10.43457,8.74609-18.05957,13.0498-1.7417-11.99463,5.24573.56647-.00818-12.49268-5.14246,4.81824-.05762,6.3573-7.94861,10.54553l-1.29236-3.01685,4.51465-1.93384-1.29224-3.01685c-3.94836,2.94104-2.24963.73425-3.22241,4.95068-7.04773,10.87482-4.19153,2.4975-25.70801,14.70483-.50427.28601-1.96289,1.08441-2.44629,1.32629-8.21069,4.09802-4.64148.16547-10.31763,7.15228-8.70337,10.7124-6.85779-.11743-6.66821,8.64807l-4.51477,1.93384c-2.67065-5.87122-1.10278-3.71417-4.73584-6.89691l-10.53479,4.51251c2.34778,3.19727,3.31079,3.85364,5.38208,8.40552-5.52454.25922-.75415,4.19922-4.94604-3.237l-9.24414,7.52985-3.23047-7.54175-9.02771,3.867-2.58447-6.03369c-5.76611,4.53284-1.38049,4.78992-10.96106,11.83588-3.28076-6.18707-.23169-2.04419-12.03894-10.51508-3.80603-2.73053-2.83435-1.39783-5.08838-1.4364l-7.82678-.56635c3.46045,4.41156,7.36902,5.98035,12.90759,5.18207,2.23865,6.71606,1.37598,2.62695.2196,8.83142l3.01086-1.28967c2.1759,6.52991,1.77319,7.54529-4.29492,10.76544-.72229-4.97192-.43579-2.70685.42798-7.32391l-4.51782,1.93524c-3.90747-11.72491,1.12927-9.7262-10.75439-4.31891,4.88977,9.22046,8.0188,8.58362-4.29504,10.76526,3.7113,9.22302,2.86975,4.00336-.4248,7.32251l-4.52283-10.55884c-5.14929,4.04834-4.30176,8.52808-10.32129.8512-11.16431,5.92517.82959,3.6441-7.94873,10.54517-4.60974-8.69104-3.50171-1.56335-9.03894-8.62408-8.49963,3.64081-5.54346,1.09308-8.00134,6.78644l-1.5155,4.48334c-1.61536,3.17731,3.34448-1.01617-2.87476,3.77136-4.00647,3.08466-14.48059,1.30463-17.70715-2.14844-4.18616,6.46112-2.52905,8.79083-3.85889,15.93402-6.50806.9386-.34253-1.79755-13.61804-.27338-.43103.04907-.87451.10016-1.30493.14612-.42297.04559-.86523.05078-1.2854.09406l-8.08984,1.51575c5.89319,14.65363-4.57495,3.05255-.20679,16.15466-5.51489.79596-3.26868-1.65344-9.46387-1.30157,3.8866,4.9541,2.35669,1.29803,6.24133,6.25208l-9.02771,3.86694,2.58459,6.03394-4.51636,1.93451-2.58459-6.03394c-.33521.26398-.33911.65814-.86194.94995-.50159.27917-.66882.74426-.83984.8949l-2.34375,1.91162c-1.71057.8175-6.40906,1.24945-9.28687-1.61578l-4.51306,1.93317,5.5885,8.25775-6.22803,2.72736-2.58459-6.03394-22.57324,9.66919c-1.76868-1.89423-1.93225-1.47345-2.87402-2.17786l-10.46643-8.17407c-4.23279,6.534-2.5354,6.72314-3.17407,9.9632l-2.85986,6.34692c-.21558.29059-.55298.66467-.77319.93976-.99255,1.24335.52136.01099-2.42566,2.77124-5.41467-3.52417-4.83704-.41064-8.39124-7.11639l-24.07874,10.31403c-.8606,4.61572-1.14697,2.35059-.42639,7.32318-32.37939,13.86957-19.01953,2.79163-27.52075,6.43311-7.34766,5.77606.60156,4.5528-9.99658,9.72424l-23.46045,14.44012c-3.47815,2.80182-7.67578,10.29138-13.40808-.51929-3.17004,3.63171-1.02185,2.06622-6.87952,4.73157,7.30884,4.75775,8.35669,4.55243-.25037,7.68103l-58.86658,24.78217c-4.80408-3.12708-3.91162-.71985-7.74524-5.60791l7.52551-3.22351-2.58459-6.03394c-8.67871,4.60645-.48083,3.50238-10.7478,8.17426-4.1156-7.76355-4.41418-5.25006-13.11926-1.52124l2.58447,6.03375-1.01355.4342,4.17151,1.7868-1.29199,3.01642c-4.02075-1.85559-2.65723-1.73376-3.17456-4.67682l-6.35657,2.72284-2.86768,1.22833-1.57031-3.66595-1.01416-2.36774-4.76123,2.03943-4.26819,1.82825c.97949,6.75208,1.46118,4.54187-5.58716,7.74878,4.86841,6.20837,2.94031.31921,6.88586,7.76117-6.95789,3.69287-7.02368,8.86041-12.25171,8.8186-7.46643.15088.43213,1.34576-6.30566-2.96136-4.20105-2.68616-2.20447.13489-5.74109-4.37463,1.41223-6.12128,2.97241-3.67645,4.29358-10.7644l-8.41296-3.93433c.85437,7.00739-2.99792,10.67902-6.46875,15.19879-.67004.87268-1.32544,1.77716-1.93042,2.74329-1.22314,1.95319-2.23938,4.15765-2.7439,6.86487,7.99573-3.42493,8.677-4.9162,14.40332-7.95477,2.55811,7.67047,1.03894,7.09937-7.82104,10.77246-10.86621,4.50586-7.76807,2.52875-15.61157,1.04999l1.93811,4.52472-51.16675,21.91699c-3.88684-9.07428-6.11731-12.61383-14.84436-9.70782,3.28503,7.66919,5.86572,8.51917-.00391,12.48669-6.96692,4.70935.72791-3.36011-14.64673,9.10699-1.87781,1.52277-1.17065,1.06274-3.53259,2.32874-1.73328.92883-5.56647,2.37823-7.56268,3.20764l-9.30377,3.93463-9.71674,4.10925-38.45593,16.26318c-5.71362,4.23425-2.2323,2.27368-4.78253,4.53656-6.84088,6.06781-6.39612,1.86932-11.46558,3.56335-6.97882,2.33142,3.14484,1.55951-18.31268,10.56549l-28.94537,12.33594-28.94537-12.33594c-21.45752-9.00598-11.33386-8.23407-18.31268-10.56549-5.06946-1.69403-4.62469,2.50446-11.46558-3.56335-2.55023-2.26288.93109-.30231-4.78253-4.53656l-38.45593-16.26318-9.71674-4.10925-9.30377-3.93463c-1.99622-.82941-5.82941-2.27881-7.56268-3.20764-2.36194-1.26599-1.65485-.80597-3.53259-2.32874-15.37457-12.4671-7.67975-4.39764-14.64667-9.10699-5.86963-3.96753-3.28894-4.8175-.00391-12.48669-8.72705-2.90601-10.9574.63354-14.8443,9.70782l-51.16669-21.91699,1.93817-4.52472c-7.84357,1.47876-4.74542,3.45587-15.61157-1.04999-8.86005-3.6731-10.37915-3.10199-7.82104-10.77246,5.72626,3.03857,6.40753,4.52985,14.40326,7.95477-.50452-2.70721-1.52075-4.91168-2.7439-6.86487-.60498-.96613-1.26031-1.87061-1.93042-2.74329-3.47076-4.51978-7.32306-8.19141-6.46869-15.19879l-8.41296,3.93433c1.32111,7.08795,2.88123,4.64313,4.29352,10.7644-3.53662,4.50952-1.53998,1.68848-5.74103,4.37463-6.73779,4.30713,1.16077,3.11224-6.30566,2.96136-5.22797.04181-5.29376-5.12573-12.25165-8.8186,3.94562-7.44196,2.01752-1.5528,6.8858-7.76117-7.04822-3.20691-6.56659-.9967-5.5871-7.74878l-4.26807-1.82825-4.76123-2.03943-1.01422,2.36774-1.57031,3.66595-2.86774-1.22839-6.35657-2.72278c-.51733,2.94305.84619,2.82123-3.17456,4.67682l-1.29211-3.01642,4.17145-1.7868-1.01361-.4342,2.58453-6.03375c-8.70514-3.72882-9.0036-6.24231-13.11926,1.52124-10.26703-4.67188-2.06921-3.56781-10.74786-8.17426l-2.58466,6.03394,7.52551,3.22351c-3.83362,4.88806-2.9411,2.48083-7.74512,5.60791l-58.86658-24.78217c-8.60699-3.1286-7.55908-2.92328-.25031-7.68103-5.8576-2.66534-3.70947-1.09985-6.87952-4.73157-5.73236,10.81067-9.92999,3.32111-13.40808.51929l-23.46045-14.44012c-10.59814-5.17145-2.64893-3.94818-9.99658-9.72424-8.50128-3.64148,4.85858,7.43646-27.52081-6.43311.72064-4.9726.43414-2.70746-.42639-7.32318l-24.07874-10.31403c-3.55426,6.70575-2.97656,3.59222-8.3913,7.11639-2.94696-2.76025-1.43292-1.52789-2.4256-2.77124-.22028-.27509-.55768-.64917-.77319-.93976l-2.8598-6.34692c-.63885-3.24005,1.05859-3.4292-3.17419-9.9632l-10.46643,8.17407c-.94183.70441-1.10535.28363-2.87402,2.17786l-22.5733-9.66919-2.58459,6.03394-6.22803-2.72736,5.5885-8.25775-4.513-1.93317c-2.87793,2.86523-7.57623,2.43329-9.28693,1.61578l-2.34363-1.91162c-.17102-.15063-.33838-.61572-.8399-.8949-.52271-.29181-.52673-.68597-.86188-.94995l-2.58466,6.03394-4.51624-1.93451,2.58459-6.03394-9.02771-3.86694c3.88464-4.95404,2.35474-1.29797,6.24133-6.25208-6.19519-.35187-3.94891,2.09753-9.46381,1.30157,4.3681-13.10211-6.09991-1.50104-.20679-16.15466l-8.08984-1.51575c-.42023-.04327-.86249-.04846-1.28552-.09406-.43042-.04596-.8739-.09705-1.30493-.14612-13.27545-1.52417-7.11005,1.21198-13.61804.27338-1.32977-7.14319.32727-9.4729-3.85883-15.93402-3.22656,3.45306-13.70068,5.23309-17.70715,2.14844-6.2193-4.78754-1.2594-.59406-2.87476-3.77136l-1.51556-4.48334c-2.45795-5.69336.49835-3.14563-8.00134-6.78644-5.53735,7.06073-4.4292-.06696-9.039,8.62408-8.77844-6.90106,3.21545-4.62-7.94879-10.54517-6.01965,7.67688-5.17206,3.19714-10.32141-.8512l-4.52283,10.55884c-3.29443-3.31915-4.13611,1.90051-.4248-7.32251-12.31378-2.18164-9.18475-1.5448-4.29498-10.76526-11.88373-5.40729-6.84705-7.40601-10.75439,4.31891l-4.51788-1.93524c.86383,4.61707,1.15027,2.35199.42804,7.32391-6.06818-3.22015-6.47089-4.23553-4.29492-10.76544l3.0108,1.28967c-1.15631-6.20447-2.01898-2.11536.21967-8.83142,5.53857.79828,9.44714-.77051,12.90759-5.18207l-7.82684.56635c-2.25403.03857-1.28241-1.29413-5.08838,1.4364-11.80725,8.47089-8.75824,4.328-12.039,10.51508-9.58063-7.04596-5.19495-7.30304-10.96106-11.83588l-2.58453,6.03369-9.02771-3.867-3.23047,7.54175-9.2442-7.52985c-4.19189,7.43622.57849,3.49622-4.94598,3.237,2.07135-4.55188,3.03436-5.20825,5.38208-8.40552l-10.53473-4.51251c-3.63312,3.18274-2.06525,1.0257-4.7359,6.89691l-4.51465-1.93384c.18951-8.7655,2.03516,2.06433-6.66827-8.64807-5.67609-6.98682-2.10681-3.05426-10.31757-7.15228-.48334-.24188-1.94196-1.04028-2.44623-1.32629-21.51654-12.20734-18.66022-3.83002-25.70795-14.70483-.9729-4.21643.72583-2.00964-3.22241-4.95068l-1.29236,3.01685,4.51477,1.93384-1.29236,3.01685c-7.89099-4.18823-2.80615-5.72729-7.94861-10.54553-5.25391,13.05914,1.73364.49805-.00818,12.49268-7.625-4.30371,2.34412-3.87152-18.05957-13.0498.35583-.78638.68005-1.5611.98108-2.32135-3.80615,1.00153-7.75708,1.99084-11.85815,2.9447-11.84229-9.30853-6.26526-2.22791-20.21313-6.87354-.20825-4.96515,1.27124-7.16003-.39209-9.43927h.00073ZM2505.03436,571.56189c4.08606-1.75031-2.30957-5.39624-.66101-1.31689.62195,1.53632-2.76074,2.78253.66101,1.31689ZM2479.87677,575.19776l1.29211,3.01642,4.51465-1.93384-1.29211-3.01642-4.51465,1.93384ZM2471.91827,573.2511c4.60669-3.62122,4.27966-2.80182,3.43567-8.61218-4.83838,3.80328-4.13232,2.71997-3.43567,8.61218ZM2443.02569,589.38105c4.047,1.62585,2.26392-.64331,1.80615-4.52759-3.1604,2.48383-5.70557,2.96271-1.80615,4.52759ZM2356.41437,510.48505c1.32092,4.97736,3.40125,1.84784,7.51172,1.91461l-3.23047-7.54175c-4.06873,2.159-5.31897,1.71875-4.28125,5.62714ZM2341.62152,605.85651c3.94873,5.03699,3.57727,4.66638,10.10974,2.80963l-10.10974-2.80963ZM2336.41266,515.36481c.0365.01404,3.26245,4.53009,3.23474-3.6936-.01074-2.93848.03406-1.64545-1.10034-4.46686-2.8772,2.26239-6.93579,6.23199-2.1344,8.16046ZM2331.95416,620.70819l1.93823,4.52509,3.00928-1.289-1.93823-4.52509-3.00928,1.289ZM2326.07403,507.19196l4.51636-1.93451-2.58447-6.03369c-5.10852,4.01514-3.84595,1.79218-1.93176,7.9682h-.00012ZM2311.45904,518.80738l1.29236,3.01703c8.67981-3.49097,5.24756-1.3493,12.47144.01331-4.48865-7.96039-9.37439-4.91058-13.76379-3.03033ZM2300.69488,501.99646l1.93823,4.5249c3.88489-3.05396,3.43201-1.48596,2.578-6.45941l-4.51636,1.93451h.00012ZM2297.56842,656.85858l1.29224,3.01685,4.51465-1.93378-1.29224-3.01691-4.51465,1.93384ZM2289.06488,474.84533l1.93823,4.5249c5.89685-4.63544,5.48572-5.5954-1.93823-4.5249ZM2287.15094,507.79798c-5.04065,2.67462-5.16858.34949-4.05872,5.06909.85791,3.6391,1.72656-.47437,5.57227,6.77869l3.00928-1.28894-4.52283-10.55884ZM2280.68988,492.71405c4.87317,6.21515,5.36792,5.27716,4.51465-1.93384l-4.51465,1.93384ZM2270.81744,523.7201l-1.29236-3.01703-4.51465,1.93384c6.48535,4.06366.26416.63873,5.80701,1.08319ZM2269.94342,500.88721c2.54541-1.09033.21533-5.32843-.81763-1.90869l.15515.5929c.62195,1.53613-2.76099,2.78217.66235,1.3158h.00012ZM2265.00238,510.14441c2.07349,2.64142,5.47046,6.06659,9.20581,4.03845,3.99243-2.1684,1.08435-4.96228-1.46875-10.92297-6.18958,4.86572-.31323,2.94482-7.73706,6.88452ZM2263.38958,676.85456l1.93848,4.52551,3.00928-1.289-1.93848-4.52551-3.00928,1.289ZM2255.21954,678.56897c-5.76318,3.05865-5.33728,2.48346-3.43555,8.61255,4.60669-3.62122,4.27942-2.80225,3.43555-8.61255ZM2254.25616,518.31818c2.34375-.78076,6.3584-1.74451,8.16992-1.7146l-1.93835-4.52533c-7.66016,3.48566-4.90381.48456-6.23157,6.23993ZM2248.8576,484.92694l4.51465-1.93384c-6.62927-8.45276-4.42261-2.68909-4.51465,1.93384ZM2245.43829,518.5246c2.54712-1.091.2168-5.32947-.81775-1.90906l.15686.59241c.62036,1.53699-2.76086,2.78235.66089,1.31665ZM2242.20782,510.98285c3.85022-1.64923-.78064-2.49213-.38403-.89673.00586.01813-3.81604,2.6958.38403.89673ZM2235.98431,529.71497c4.75464,6.06268,6.56677,2.5423,15.4823-1.27661-4.75293-6.06311-6.56531-2.54291-15.4823,1.27661ZM2233.39984,523.68128l-6.02002,2.57867,1.29236,3.01703,6.02002-2.57867-1.29236-3.01703ZM2226.21686,450.75221c3.17212.82507,1.71167.53278,3.36267,1.15015l2.1626.33063-11.08008-3.42987c-.13672.40381-.07275,1.07159,1.89429,1.24286l3.66064.70624h-.00012ZM2217.73687,578.58954c-5.99292-7.64081-14.67578-1.98462-13.54407,5.80151l13.54407-5.80151ZM2216.37018,505.90436c.14075-.03857.28223-.07733.4585-.117,4.73608-1.06665-1.76648-3.05969-.9408-1.42041.00696.01605.172.31287.18628.33734.3136.5304.36633.9173.29602,1.20007-2.20105.60376-.25525,1.02545,0,0ZM2205.018,532.26807l4.25818,8.04749c.13599.11774.5448.39844.67358.45056,4.43103,1.80847-.99719-.78485,5.36267-5.46576,1.81848-1.33734,5.17285-2.5166,7.3396-3.4447-4.0553-2.40356-4.12622-1.53583-17.63391.41241h-.00012ZM2202.40265,476.26374l1.93823,4.52509,3.00928-1.289-1.93823-4.52509-3.00928,1.289ZM2200.09478,566.50971l2.58447,6.03375,3.00928-1.289-2.58447-6.03369-3.00928,1.28894ZM2193.85516,560.25696l-1.29236-3.01685c-5.40295,4.0238-3.09143,4.80841-3.224,4.95142l4.51636-1.93457ZM2193.36517,467.63874c2.94189,3.95917.73645,2.25586,4.94751,3.2359l-1.93823-4.5249-3.00928,1.289ZM2187.35333,482.71002c4.37097,5.57501,1.70276,2.21027,6.45459,2.59058-3.15967-4.02423-1.40259-3.3186-6.45459-2.59058ZM2151.50299,581.96869c-3.15735,2.48212-5.7041,2.96167-1.80481,4.52673,4.04871,1.62537,2.26575-.64374,1.80481-4.52673ZM2168.0318,674.53894c1.14331.6825.99719,4.26147,2.24109,1.14343,1.43994-3.60889-5.78357-3.25476-2.24109-1.14343ZM2163.96783,569.48865c4.32935,5.89893,5.57727,7.26471,12.90747,5.18182-3.21033-6.05347-6.4198-7.34277-12.90747-5.18182ZM2146.11419,561.06964l9.03894,8.62408c6.32886-4.97522.95056-3.85577,6.07251-7.18768,2.00122-1.30078,5.76221-1.45154,10.69238-3.56342l-1.93823-4.52509c-9.20166,3.70026-3.99194,2.86591-7.31079-.43909l2.22754-2.89227c-8.45447-5.49469-6.46692-10.41052-16.0011-12.63l5.16895,12.0672c5.7998-.83588,4.98096-1.16437,8.60461,3.45508l-16.55481,7.09119ZM2135.84161,636.87635c-3.65332-4.65802-3.75525-4.92682-10.10986-2.81006,3.9519,5.03564,3.57861,4.66534,10.10986,2.81006ZM2132.16192,599.17914c2.54541-1.09033.21509-5.32898-.81775-1.90924l.15515.59302c.62207,1.53638-2.75903,2.78192.6626,1.31622ZM2141.46795,691.59143l-6.02002,2.57867c4.54504,5.79529,7.29895,4.85883,6.02002-2.57867ZM2119.88531,546.4693c.26477-.12219.81409-.01367,1.89221.85925,3.51514,2.84515-.40833-2.27032,3.68701,2.94934,4.16467-1.78394,7.90149-2.74921,10.82764-5.64227,4.98059-4.92554-1.1958-3.58545,8.30359-7.90759-9.26282-5.8031-8.96252,5.62427-15.91028,8.60028-6.78406,2.90588.83679-.38763-5.974-.3645-.19934.00018-.69556-.01422-.86963-.0036-.75452.04803-1.18494-.00281-1.42236-.09253.76965-1.10596-.82727-.31256,0,0-.12146.1745-.29089.38757-.55017.66663.0271.4137.02771.71021.01599.935-.45813.21136-.05774,1.10876,0,0ZM2049.19403,663.28028c2.72083,6.35187,2.95349,11.42261,8.20398,10.37286,8.28455-1.65546,5.11292-24.8103-8.20398-10.37286ZM2052.50213,656.06415c.12842.15796-.07166,5.35779,1.4198,1.62061.99414-2.49457-6.22998-7.50702-1.4198-1.62061ZM2071.39142,735.88928l-.64221-.25769c.04346.01703.55725.47168.64221.25769ZM2071.13751,677.08814c-7.18384,3.81274-4.11902,3.18561-4.93945,9.25616,5.91626-3.14014,5.79065-3.39825,4.93945-9.25616ZM2092.40216,639.41663c-3.84338-2.40985-.25403-3.46185-11.82544,1.49475-6.70862,2.8736,1.52771,4.70148-11.60706,10.3277,2.62268,4.94348.37085,5.22473,5.1604,4.11005,4.84265-1.12817,2.11377-9.01111,18.27222-15.9325h-.00012ZM2102.06305,612.07184c4.77197,6.08557,8.63672,4.43018,7.52393-3.22284l-7.52393,3.22284ZM2087.19415,564.88568c3.58337,6.35687,4.32544,5.76569,5.16077-.42542-4.43677.64783-1.18567.65082-5.16077.42542ZM2036.27997,645.60511c9.20471,11.73816,12.56567-3.59778,17.19922-5.58246,18.09387-7.75049,10.93579-6.2724,24.51331-5.14459,10.20862-21.16632,6.74231-10.79858,19.56409-8.38013-1.20679-6.77277-1.23706-6.69708,4.29346-10.76459l-1.29224-3.01666c-9.94458,1.4339.29663-3.69763-14.8363,2.78442-8.62976,3.69647,5.46912-.00732-7.70471,4.57001-.43811.15228-6.43518.67401-6.2655,8.55493-9.64111,3.21088-10.30237-2.98877-16.92053,4.39258-9.18567,10.24298-4.84473,2.50684-18.55054,12.58649h-.00024ZM2036.69647,625.78974c1.32483,3.2171.00732.48718,2.09949-.30432.69666-.26343,1.21997-.27094,1.59558-.17584.91602,1.34454,1.05273.26648,0,0-.10815-.15881-.22327-.33929-.35254-.57147-.22693-.40997-.39453-.18951-.76917-.10626-1.38818.30646-4.47437-3.46606-2.57349,1.1579h.00012ZM2030.02386,614.36707c4.01062-1.71796-1.88525-5.03528-.81543-1.73956.00769.02234.13965.38794.15442.42249.62048,1.53723-2.76062,2.78278.66101,1.31708ZM1993.93084,667.31507c5.25427,3.1142,6.21814,3.16479,7.5238-3.22284l-7.5238,3.22284ZM1988.58795,721.37342l1.29236,3.01709c6.48279-3.44092,3.49292.45642,4.72937-5.59644l-6.02173,2.57935ZM1961.39874,704.48493c4.12402,1.65521,4.26038-2.07068,2.87439-6.61438-3.58118,1.90051-8.3302,4.42224-2.87439,6.61438ZM1973.97308,732.9892l-1.93835-4.52527c-6.89795,2.95471-12.75867,6.35333-10.27417,11.69672,2.2002,4.73297,6.7627-3.16406,12.21265-7.17145h-.00012ZM1979.75567,696.59455l-1.93848-4.52551-3.00928,1.289,1.93848,4.52545,3.00928-1.28894ZM1954.80279,684.07544l1.29224,3.01685c5.651-2.42059,10.59558-4.48114,15.96924-7.33655,5.25769-2.7934,6.21094-2.16418,14.12793-5.55548l-13.33887-10.3526-13.54553,5.80219c6.80322,4.02979,2.41125-.92029,7.10083,4.09918-4.45654,6.87616-.74683,5.67505-11.60571,10.32642h-.00012ZM1946.23749,743.08466l1.29199,3.0163,4.51477-1.93384-1.29199-3.01624-4.51465,1.93378h-.00012ZM1938.03473,694.82831l1.29236,3.01685,4.51465-1.93384-1.29236-3.01685-4.51465,1.93384ZM1922.77215,704.93634c5.81543,3.78558,4.28247,5.30621,13.11914,1.521-3.92786-2.32764-1.18823-1.05798-5.6134-1.56689l-7.50586.0459h.00012ZM1791.96991,806.86249c2.59332.90912,4.97455,1.33221,6.78125.75513-.08734-1.10913-.65607-2.48389-1.28754-4.37695-3.79779,2.01556-4.62964,3.172-5.49371,3.62183ZM1780.97754,801.7013c1.54626.78137,3.20782,1.65387,4.89899,2.49426.85522-.17285,1.78076-.41907,2.771-.7489-1.48053-4.43628-1.60229-11.38531-6.0686-4.90436-.88245,1.28003-1.38556,2.31757-1.60138,3.159ZM1752.43158,782.30365l-2.58453,6.03375c1.40314.60101,2.62317,1.15271,3.69659,1.66339,1.07343-.51068,2.29346-1.06238,3.69659-1.66339l-2.58453-6.03375c-1.80267-4.20844.54932-5.57245,1.98065-6.40662-.16119-.70697-.24292-1.36841-.37854-1.90906-.45251-.22021-1.02997-.47192-1.771-.76971-.34979-.14044-.65894-.24799-.94318-.33472-.28424.08673-.59338.19427-.94318.33472-.74103.29779-1.31848.5495-1.771.76971-.13562.54065-.21735,1.20209-.37854,1.90906,1.43134.83417,3.78333,2.19818,1.98065,6.40662ZM1718.43976,803.44666c.99023.32983,1.91577.57605,2.771.7489,1.69116-.84039,3.35272-1.71289,4.89899-2.49426-.21582-.84143-.71893-1.87897-1.60138-3.159-4.46631-6.48096-4.58807.46808-6.0686,4.90436ZM1708.33612,807.61762c1.8067.57709,4.18793.15399,6.78125-.75513-.86407-.44983-1.69592-1.60626-5.49371-3.62183-.63153,1.89307-1.2002,3.26782-1.28754,4.37695ZM1571.19592,706.45734c8.83673,3.78522,7.30377,2.26459,13.11914-1.521l-7.50574-.0459c-4.42511.50891-1.68561-.76074-5.6134,1.56689ZM1563.2456,695.91132l4.51465,1.93384,1.2923-3.01685-4.51465-1.93384-1.2923,3.01685ZM1555.04309,744.16712l4.51471,1.93384,1.29199-3.0163-4.51465-1.93378-1.29205,3.01624ZM1532.27936,693.35803l-3.00922-1.289-1.93848,4.52551,3.00922,1.28894,1.93848-4.52545ZM1535.05255,728.46393l-1.93835,4.52527c5.44989,4.00739,10.01239,11.90442,12.21259,7.17145,2.48444-5.34338-3.37622-8.742-10.27423-11.69672ZM1542.81408,697.87055c-1.38593,4.5437-1.24963,8.26959,2.87445,6.61438,5.45581-2.19214.70667-4.71387-2.87445-6.61438ZM1520.89514,674.20026c7.91705,3.3913,8.87036,2.76208,14.12799,5.55548,5.37354,2.85541,10.31824,4.91595,15.96918,7.33655l1.29224-3.01685c-10.85895-4.65137-7.14917-3.45026-11.60577-10.32642,4.68958-5.01947.29755-.0694,7.10083-4.09918l-13.54559-5.80219-13.33887,10.3526ZM1518.49933,721.37342l-6.02167-2.57935c1.23651,6.05286-1.75336,2.15552,4.72937,5.59644l1.2923-3.01709ZM1505.63257,664.09223c1.30579,6.38763,2.26959,6.33704,7.52386,3.22284l-7.52386-3.22284ZM1432.95721,655.34912c4.78955,1.11469,2.53772.83344,5.16046-4.11005-13.1347-5.62622-4.8985-7.4541-11.60712-10.3277-11.57153-4.9566-7.98212-3.9046-11.82544-1.49475,16.15839,6.92139,13.42944,14.80432,18.27209,15.9325ZM1436.33813,735.63159l-.64221.25769c.08496.21399.59882-.24066.64221-.25769ZM1440.88928,686.3443c-.82056-6.07056,2.24426-5.44342-4.93958-9.25616-.85101,5.85791-.97675,6.11603,4.93958,9.25616ZM1457.89331,663.28028c-13.31696-14.43744-16.48853,8.71741-8.20398,10.37286,5.25043,1.04974,5.48315-4.021,8.20398-10.37286ZM1453.16546,657.68476c1.49139,3.73718,1.29132-1.46265,1.41974-1.62061,4.81018-5.88641-2.41394-.87396-1.41974,1.62061ZM1477.06341,614.36707c3.42169,1.4657.04059.22015.66101-1.31708.01483-.03455.14673-.40015.15442-.42249,1.06976-3.29572-4.82617.02161-.81543,1.73956ZM1466.69574,625.30957c.37555-.09509.89886-.08759,1.59552.17584,2.09222.7915.77472,3.52142,2.09955.30432,1.90088-4.62396-1.18518-.85144-2.57343-1.1579-.37463-.08325-.5423-.30371-.76917.10626-.12927.23218-.24432.41266-.35248.57147-1.05267.26648-.91602,1.34454,0,0ZM1414.73236,564.46027c.83539,6.1911,1.57745,6.78229,5.16083.42542-3.97516.2254-.724.22241-5.16083-.42542ZM1405.23742,615.73334c5.53052,4.0675,5.50024,3.99182,4.29346,10.76459,12.82166-2.41846,9.35547-12.78619,19.56403,8.38013,13.57758-1.12781,6.41937-2.6059,24.51331,5.14459,4.63342,1.98468,7.99438,17.32062,17.19916,5.58246-13.70581-10.07965-9.36499-2.34351-18.55054-12.58649-6.61823-7.38135-7.27948-1.1817-16.92059-4.39258.16956-7.88092-5.82751-8.40265-6.26562-8.55493-13.17371-4.57733.92499-.87354-7.70465-4.57001-15.13287-6.48206-4.89178-1.35052-14.83636-2.78442l-1.29218,3.01666ZM1405.02417,612.07184l-7.52386-3.22284c-1.11279,7.65302,2.75183,9.30841,7.52386,3.22284ZM1371.6394,694.17011l-6.02008-2.57867c-1.27881,7.4375,1.47498,8.37396,6.02008,2.57867ZM1381.35559,634.06629c-6.35468-2.11676-6.45654-1.84796-10.10992,2.81006,6.53125,1.85529,6.15802,2.22559,10.10992-2.81006ZM1375.58795,597.86292l.15527-.59302c-1.0329-3.41974-3.36322.81891-.81781,1.90924,3.42169,1.4657.04053.22015.66254-1.31622ZM1362.49151,536.72803c9.49939,4.32214,3.32294,2.98206,8.30359,7.90759,2.92615,2.89307,6.66284,3.85834,10.82764,5.64227,4.09534-5.21967.17188-.10419,3.68695-2.94934,1.07825-.87299,1.62744-.98145,1.89227-.85919.0578,1.1087.45795.21143,0,0-.01172-.22479-.01117-.52136.01599-.93506-.25922-.27905-.42871-.49213-.55017-.66663.82727-.31256-.76965-1.10596,0,0-.23749.08972-.66797.14056-1.42249.09253-.17395-.01062-.67017.00378-.86957.0036-6.81079-.02313.81006,3.27039-5.97394.3645-6.94775-2.97601-6.64752-14.40338-15.91028-8.60028ZM1336.81451,675.68238c1.24371,3.11804,1.09772-.46094,2.24097-1.14343,3.54266-2.11133-3.68103-2.46545-2.24097,1.14343ZM1355.58429,581.96869c-.46094,3.883-2.24396,6.1521,1.80469,4.52673,3.89941-1.56506,1.3526-2.04462-1.80469-4.52673ZM1335.16913,558.94263c4.9303,2.11188,8.6911,2.26263,10.69244,3.56342,5.12189,3.33191-.25635,2.21246,6.07245,7.18768l9.039-8.62408-16.55481-7.09119c3.6236-4.61945,2.80481-4.29095,8.60461-3.45508l5.16895-12.0672c-9.53412,2.21948-7.54657,7.13531-16.0011,12.63l2.22754,2.89227c-3.31891,3.30499,1.89087,4.13934-7.31079.43909l-1.93829,4.52509ZM1330.21185,574.67047c7.33032,2.08289,8.57825.7171,12.90753-5.18182-6.48767-2.16095-9.69727-.87164-12.90753,5.18182ZM1314.52441,557.24011l-1.29224,3.01685,4.51624,1.93457c-.13251-.14301,2.17896-.92761-3.224-4.95142ZM1313.27948,485.30061c4.75183-.38031,2.08356,2.98444,6.45453-2.59058-5.052-.72803-3.29486-1.43365-6.45453,2.59058ZM1308.77466,470.87464c4.211-.98004,2.00555.72327,4.94745-3.2359l-3.00922-1.289-1.93823,4.5249ZM1289.35046,578.58954l13.54401,5.80151c1.13184-7.78613-7.55115-13.44232-13.54401-5.80151ZM1303.98321,565.22077l-2.58453,6.03369,3.00928,1.289,2.58447-6.03375-3.00922-1.28894ZM1299.73706,479.49981l3.00928,1.289,1.93829-4.52509-3.00928-1.289-1.93829,4.52509ZM1290.25854,505.78736c.17633.03967.31787.07843.45856.117.25519,1.02545,2.20105.60376,0,0-.07037-.28278-.01758-.66968.29602-1.20007.01428-.02448.17938-.32129.18628-.33734.82562-1.63928-5.67694.35376-.94086,1.42041ZM1284.4353,531.85565c2.16669.9281,5.52112,2.10736,7.3396,3.4447,6.35992,4.68091.93176,7.27423,5.36273,5.46576.12872-.05212.53766-.33282.67352-.45056l4.25818-8.04749c-13.50781-1.94824-13.57867-2.81598-17.63403-.41241ZM1251.86773,678.56897c-.84393,5.8103-1.1712,4.99133,3.43549,8.61255,1.90173-6.12909,2.3277-5.55389-3.43549-8.61255ZM1275.34521,452.23297l2.1626-.33063c1.651-.61737.19055-.32507,3.36267-1.15015l3.66064-.70624c1.96704-.17126,2.03088-.83905,1.89423-1.24286l-11.08014,3.42987ZM1272.39514,526.69831l6.02008,2.57867,1.29236-3.01703-6.02008-2.57867-1.29236,3.01703ZM1264.87945,510.98285c4.20007,1.79907.37823-.8786.38409-.89673.39655-1.5954-4.23431-.7525-.38409.89673ZM1261.64892,518.5246c3.42175,1.4657.04053.22034.66089-1.31665l.15686-.59241c-1.03448-3.42041-3.36475.81805-.81775,1.90906ZM1255.62079,528.43836c8.91541,3.81891,10.7276,7.33929,15.48218,1.27661-8.91693-3.81952-10.72925-7.33972-15.48218-1.27661ZM1253.71502,482.99311l4.51471,1.93384c-.09204-4.62292,2.11469-10.3866-4.51471-1.93384ZM1244.66119,516.60358c1.81152-.02991,5.82617.93384,8.16992,1.7146-1.32782-5.75537,1.42859-2.75427-6.23157-6.23993l-1.93835,4.52533ZM1242.07684,522.6369l-4.51465-1.93384-1.29236,3.01703c5.54285-.44446-.67834,2.98047,5.80701-1.08319ZM1243.69769,676.85456l-3.00922-1.289-1.93848,4.52551,3.00928,1.289,1.93842-4.52551ZM1237.14392,500.88721c3.42328,1.46637.04047.22034.66235-1.3158l.15521-.5929c-1.0329-3.41974-3.36298.81836-.81757,1.90869ZM1232.87903,514.18286c3.73541,2.02814,7.13232-1.39703,9.20587-4.03845-7.42383-3.9397-1.54749-2.0188-7.73706-6.88452-2.55322,5.96069-5.46136,8.75458-1.46881,10.92297ZM1226.39746,492.71405l-4.51465-1.93384c-.85321,7.211-.35846,8.14899,4.51465,1.93384ZM1219.93634,507.79798l-4.52283,10.55884,3.00922,1.28894c3.8457-7.25305,4.71442-3.13959,5.57227-6.77869,1.10999-4.7196.98199-2.39447-4.05865-5.06909ZM1216.08423,479.37024l1.93817-4.5249c-7.42395-1.0705-7.83514-.11053-1.93817,4.5249ZM1209.51886,656.85858l-4.51465-1.93384-1.2923,3.01691,4.51465,1.93378,1.2923-3.01685ZM1204.45416,506.52136l1.93817-4.5249-4.51624-1.93451c-.85394,4.97345-1.30676,3.40546,2.57806,6.45941ZM1181.86444,521.83771c7.22394-1.36261,3.79169-3.50427,12.47144-.01331l1.29236-3.01703c-4.38947-1.88025-9.27515-4.93005-13.76379,3.03033ZM1176.49695,505.25745l4.5163,1.93451c1.91418-6.17603,3.1767-3.95306-1.93176-7.9682l-2.58453,6.03369ZM1175.13312,620.70819l-3.00928-1.289-1.93829,4.52509,3.00928,1.289,1.93829-4.52509ZM1167.43988,511.67121c-.02771,8.22369,3.1983,3.70764,3.23474,3.6936,4.80145-1.92847.74286-5.89807-2.13434-8.16046-1.13446,2.82141-1.08966,1.52838-1.1004,4.46686ZM1155.35595,608.66614c6.53253,1.85675,6.16107,2.22736,10.1098-2.80963l-10.1098,2.80963ZM1143.16119,512.39966c4.11041-.06677,6.19073,3.06274,7.51172-1.91461,1.03784-3.90839-.21252-3.46814-4.28119-5.62714l-3.23053,7.54175ZM1064.0616,589.38105c3.89929-1.56488,1.35413-2.04376-1.80621-4.52759-.4577,3.88428-2.24072,6.15344,1.80621,4.52759ZM1035.16902,573.2511c.69672-5.89221,1.40271-4.8089-3.43561-8.61218-.84399,5.81036-1.17108,4.99097,3.43561,8.61218ZM1021.40382,576.28034l4.51465,1.93384,1.29211-3.01642-4.51465-1.93384-1.29211,3.01642ZM1002.05293,571.56189c3.42169,1.46564.03894.21942.66095-1.31689,1.64862-4.07935-4.74707-.43341-.66095,1.31689ZM1027.41571,940.51721l-4.51465-1.93384-1.29218,3.01666,4.51465,1.93384,1.29218-3.01666ZM985.92433,920.95984c-4.54993-1.94897-4.92181-.00775-7.10059,4.09882,6.20685,2.06726,5.16895,1.4928,9.46387-1.30182-.02008-.03729-2.16101-2.71039-2.36328-2.797ZM992.78596,950.67597c-2.54108,2.1676-1.96863,1.38995-4.08997,5.38892l4.51471,1.93384c2.4198-7.25439,2.74457-1.94653-.42474-7.32275ZM1006.55952,935.15369c-2.29828,6.88641-1.32703,6.6322,4.29175,10.7641,1.85022-6.06213,2.15662-1.79779.02057-6.25159-1.38989-2.89673-1.73352-2.48474-4.31232-4.51251ZM947.78815,906.18518c-3.73547,1.32861-1.9458.55145-4.22241,5.55603,4.29871,1.43152,11.22729,1.64075,9.12268-3.63129-1.01941-2.55994-3.0968-2.56543-4.90027-1.92474ZM1313.51867,800.65064c-2.01172,1.54382-1.53748,1.31464-3.44379,3.88043l4.51465,1.93384c.81671-4.74457,1.20007-2.17194-1.07086-5.81427ZM1740.61352,996.89813c-.17645-.02527-.31384-.06183-.45221-.09802-.08228.18567-.17096.37811-.29224.60327-.98383,1.82672-3.31464.51923-.25568,1.82953,1.77026.7583,4.78168-1.79358,1.00012-2.33478ZM1319.74872,806.88959c8.07458-.6701,3.23096,2.76245,7.09912-4.09967l-6.01849-2.578c-1.42395,4.29553-1.26172,3.34027-1.08063,6.67767ZM1660.71106,967.22064c-3.25702,9.77216,4.26288,10.84033,5.58728,7.74841,2.14874-5.01642-.81055-5.57507-5.58728-7.74841ZM1663.51532,952.35529l-1.2923,3.01691,6.02173,2.57935c.95441-6.56934.94659-4.4715-4.72943-5.59625ZM1740.16131,996.80011c1.43707-3.24225-2.68024-.70142,0,0h0ZM1320.82934,800.21192l1.93829-4.52509c-8.7298-1.25897-8.49323,4.44556-1.93829,4.52509ZM1644.15783,960.13019c6.02075-.50024,4.4552,1.62482,7.7453-5.60834-6.7771-2.2569-7.53076-.47974-7.7453,5.60834ZM1025.15747,675.46302l-4.32263-2.33331-2.33789,4.3316,4.32269,2.33337,2.33783-4.33167ZM915.34174,603.12274c1.09534-2.52594,1.48096-3.41748,1.61279-4.7229l-3.90771-2.10925c-1.69373-.32068.40393-.49084-2.68994,2.2757,1.92297,2.7254,1.20105,2.08716,4.98486,4.55646ZM1733.59491,996.65491c-3.29596-3.31995-4.13593,1.90015-.42627-7.32336l-4.5163-1.93451c-5.29163,13.16071,1.99078.36316-1.51025,11.84894l4.51465,1.93384,1.93817-4.5249ZM2240.38983,693.84693c5.23462,3.28119.35083,2.75677,7.31226.43799-4.29919-5.48279-3.36084-4.83508-7.31226-.43799ZM2024.81427,539.83679l-2.58447-6.03369c-5.87671,4.62061-4.81445,7.1004,2.58447,6.03369ZM2334.76642,648.0658c-15.07349,6.45667-8.23035-.04498-14.83618,2.78467-4.36548,1.86987-.74219,9.17572,6.38733,9.0141,3.05103-.06964,5.69934-1.69556,8.67004-2.96802-.73755-6.24481.65503-2.80768-.22119-8.83075ZM2098.98053,500.92719l-1.93823-4.52509c-2.1958,3.72443-1.90552.95251-1.07251,5.81482l3.01086-1.28973h-.00012ZM2018.10199,530.17072l.68396-.24786-.72522-.29193c-.05347.10754-.09473.18463-.14282.27917.06909.03033.1333.10352.1842.26062h-.00012ZM2148.21698,486.97779c3.05896-1.3103.72815-.00281-.25574-1.82959-.12109-.22516-.20984-.41766-.29199-.60333-.13843.03625-.27588.07288-.45239.09814-3.78003.54053-.76855,3.09235,1,2.33478h.00012ZM2184.31964,446.5213l1.93835,4.52509c6.55493-.07953,6.79138-5.78406-1.93835-4.52509ZM2187.33856,457.72406c.18115-3.3374.34338-2.3822-1.08057-6.67767l-6.01843,2.578c3.86816,6.86212-.97546,3.42957,7.099,4.09967ZM2449.5744,604.24365c5.16931-4.06378,4.47827-2.47546,1.07251-5.81476l-3.01086,1.28967,1.93823,4.52509h.00012ZM2147.66937,484.54486c2.68152-.70197-1.43579-3.24292,0,0h0ZM2193.56854,451.48504c-2.27087,3.64233-1.88745,1.0697-1.0708,5.81433l4.51477-1.93384c-1.90625-2.5658-1.43213-2.33661-3.44385-3.88049h-.00012ZM1778.43493,638.23145l-4.5163,1.93457c3.70966,9.22351,2.86969,4.00336-.42633,7.32336l1.93823,4.5249,4.51465-1.93384c-3.50104-11.48578,3.78137,1.31177-1.51025-11.849ZM2160.044,485.48211c-2.27258,3.64264-1.88599,1.06897-1.07251,5.81493l4.51636-1.93451c-1.7876-2.68335-1.44006-2.35974-3.44385-3.88042ZM2017.91778,529.9101c-.5542-.24298-1.50415,2.9472,0,0h0ZM1767.47387,650.06739c3.05896-1.3103.72815-.00281-.25568-1.82953-.12128-.22516-.20996-.4176-.29224-.60327-.13837.03619-.27576.07275-.45221.09802-3.78156.5412-.77014,3.09308,1.00012,2.33478ZM2009.21722,543.85022c2.68152-.70197-1.43579-3.2428,0,0h0ZM1891.74749,582.77246l-6.68579.86023,1.93848,4.52527c6.54004-2.80139,3.56079-.52881,4.74744-5.3855h-.00012ZM1999.22198,538.30298c-3.72168-2.20538-.95386-1.9118-5.80542-1.08368l1.93848,4.52527c2.90332-1.24359,2.47363-1.62134,3.86694-3.44159ZM1951.71881,572.93207c3.23914-2.09589,1.41284-4.77197-.21814-8.83252l-4.51624,1.93457c2.6709,5.87158,1.10461,3.71405,4.7345,6.89795h-.00012ZM1876.47339,605.16309c2.61456-1.69159,1.57446-2.90027,1.07074-5.81445l-4.51465,1.93384c1.90961,2.56464,1.43365,2.33588,3.44391,3.88062ZM2393.89142,628.09522l7.52551-3.22351-1.93823-4.52509c-7.04822,3.20709-6.56824.99738-5.58728,7.7486ZM2395.06488,633.56165c-1.94214,4.74707-1.6217-.05225.34009,6.38116,3.83154-4.75244,5.27734-3.99329,4.29333-10.76477-5.97888,3.37537-2.724-.28455-4.63342,4.38361ZM2496.21551,590.50067c-2.13611,4.45374-1.82959.18945.02063,6.25159,5.61877-4.1319,6.59009-3.87769,4.29175-10.7641-2.57886,2.02771-2.92236,1.61578-4.31238,4.51251ZM2484.18622,589.41785l-4.51477,1.93384,1.29224,3.01666,4.51477-1.93384-1.29224-3.01666ZM2009.76483,546.28314c3.06067-1.31097.72815-.00281-.25562-1.82953-.12109-.22522-.20984-.41766-.29199-.60339-.13843.03625-.276.07288-.45239.09814-3.78162.5412-.76855,3.09235,1,2.33478ZM2559.29925,557.01966c-1.80347-.64069-3.88086-.63519-4.90039,1.92474-2.10474,5.27203,4.82397,5.06281,9.12256,3.63129-2.27661-5.00458-.48694-4.22748-4.22229-5.55603h.00012ZM1862.92944,610.9646c-.21454-6.08801-.9682-7.86523-7.7453-5.60828,3.2901,7.23315,1.72455,5.10809,7.7453,5.60828ZM1766.92596,647.63459c2.68024-.70142-1.43707-3.24225,0,0h0ZM2521.1629,571.79431c-.20227.08661-2.34314,2.75964-2.36328,2.797,4.29492,2.79456,3.25708,3.36902,9.46399,1.30182-2.17871-4.10657-2.55066-6.04779-7.10071-4.09882ZM2514.30133,601.51044c-3.16931,5.37622-2.84448.06836-.42468,7.32269l4.51465-1.93378c-2.12134-3.99896-1.54895-3.22131-4.08984-5.38892h-.00012ZM1840.78894,625.80353c1.3244,3.09186,8.8443,2.02374,5.58728-7.74841-4.77673,2.17334-7.73602,2.73199-5.58728,7.74841ZM1844.86426,606.20661l-1.2923-3.01685c-5.67603,1.12476-5.68384-.97308-4.72943,5.59625l6.02173-2.57941ZM2155.79461,480.23089l4.24939,5.25122,3.00928-1.289c-3.66211-4.66925-2.02234-3.14288-7.25867-3.96222ZM1488.13861,779.77454l-3.23059,7.54193,3.01086,1.28967c3.78943-5.16168,6.17767-4.14795.21973-8.8316ZM2022.17926,787.31647l-3.23059-7.54193c-5.95801,4.68365-3.5697,3.66992.21973,8.8316l3.01074-1.28967h.00012ZM1488.30133,879.08838l.68396.24786c.0509-.1571.11505-.23029.1842-.26062-.04822-.09454-.08954-.17163-.14294-.27917l-.72522.29193ZM1489.16949,879.07563c1.50415,2.94733.55408-.2431,0,0h0ZM1497.32245,895.44867c1.76868.75757,4.78174-1.79352,1.00012-2.33478-.17651-.02527-.31403-.06189-.45245-.09814-.08221.18573-.17084.37817-.29199.60339-.98383,1.82678-3.31622.51855-.25568,1.82953ZM1410.0451,845.56769l-1.93829,4.52509,3.01086,1.28967c.83289-4.8623,1.12329-2.09039-1.07257-5.81476ZM1484.8576,882.96863l-2.58453,6.03369c7.39899,1.06671,8.46124-1.41309,2.58453-6.03369ZM1622.02569,932.79822l-4.26654-.54895-2.41937-.31128c1.03204,4.22388-1.08014,3.05829,2.65234,4.52484.5592.21973,1.24298.49561,2.09515.86066l1.93842-4.52527ZM1497.87011,893.01575c1.43579-3.2428-2.68158-.70197,0,0h0ZM1511.7323,890.9101l1.93842-4.52527c-4.85156-.82806-2.08374-1.12164-5.80536,1.08374,1.39325,1.82019.96362,2.19794,3.86694,3.44153ZM1555.36853,922.09766c3.62982-3.18396,2.0636-1.02637,4.73444-6.89801l-4.51624-1.93451c-1.63104,4.06049-3.45734,6.73657-.2182,8.83252ZM1344.03405,833.35865l3.00922,1.289,4.24945-5.25122c-5.23627.8194-3.59662-.70703-7.25867,3.96222ZM1359.41791,833.71039c1.43579-3.2428-2.68152-.70197,0,0h0ZM1358.8703,836.14331c1.76862.75757,4.78009-1.79425,1.00006-2.33478-.17651-.02527-.31403-.06189-.45245-.09814-.08221.18573-.17084.37817-.29199.60339-.98383,1.82672-3.31464.51923-.25562,1.82953ZM1630.61389,954.32868c2.01025-1.54474,1.5343-1.31604,3.44391-3.88068l-2.76428-1.18408-1.75043-.74976c-.11133.64404-.24768,1.20117-.36615,1.70221-.4176,1.76624-.59985,2.79449,1.43695,4.1123ZM1057.51295,953.40924l1.93829-4.52515-3.01086-1.28967c-3.40576,3.33929-4.09674,1.75098,1.07257,5.81482ZM1187.1571,1000.01599c-6.6059-2.82965.23724,3.672-14.83624-2.78467-.87616,6.02307.51636,2.58594-.22119,8.83075,2.9707,1.27246,5.61908,2.89838,8.67004,2.96802,7.12952.16162,10.75281-7.14423,6.38739-9.0141ZM1107.60864,969.51215l-1.93829,4.52509,7.52551,3.22351c.98102-6.75116,1.46094-4.5415-5.58722-7.7486ZM1107.38899,978.34357c-.98401,6.77148.46179,6.01233,4.29333,10.76477,1.96179-6.43341,2.28217-1.63409.34009-6.3811-1.90936-4.66821,1.34552-1.00824-4.63342-4.38367ZM1259.38519,1043.45044c6.96143,2.31879,2.07758,2.8432,7.31226-.43799-3.95148-4.39709-3.01306-5.0448-7.31226.43799ZM2521.1629,920.95984c-.20227.08661-2.34314,2.7597-2.36328,2.797,4.29492,2.79462,3.25708,3.36908,9.46399,1.30182-2.17871-4.10657-2.55066-6.04779-7.10071-4.09882ZM2514.30133,950.67597c-3.16931,5.37622-2.84448.06836-.42468,7.32275l4.51465-1.93384c-2.12134-3.99896-1.54895-3.22131-4.08984-5.38892h-.00012ZM2500.52777,935.15369c-2.57886,2.02777-2.92236,1.61578-4.31238,4.51251-2.13611,4.4538-1.82959.18945.02063,6.25159,5.61877-4.1319,6.59009-3.87769,4.29175-10.7641ZM2559.29925,906.18518c-1.80347-.64069-3.88086-.63519-4.90039,1.92474-2.10474,5.27203,4.82397,5.06281,9.12256,3.63129-2.27661-5.00458-.48694-4.22742-4.22229-5.55603h.00012ZM944.12117,896.78278c-2.63599.6936-5.36792,1.37616-8.14453,2.05035-22.10022-40.08862-49.74194-94.62482-63.40369-145.50287-15.69519-58.45093-17.76868-105.91663-6.93665-141.68591,1.13818.45764,2.33289.94647,3.62939,1.492,3.63818-4.95959,2.46106.36945,7.13306-6.7998-6.61719-9.11981-4.52124-1.83862-4.08948-9.66632-.33362-.09076-.64563-.17102-.95728-.25116,1.01917-2.24158,2.10596-4.4209,3.24854-6.54834,7.42395,3.12982,14.83044,5.83264,18.1145,10.35889-6.10229,6.48187-6.95105,3.72748-12.422-1.11304l-2.3363,4.33234c3.32678,4.01959,3.97717-2.0152.54321,5.88647l2.88318,1.55688c2.28589-3.50958.8855-1.67041,2.77161-2.87225l5.59167-1.52258c11.17261-3.09607,4.93176-7.07275,16.71533-.71094l-2.33716,4.33215c22.90356,12.36536,11.03589,3.33118,21.72949,8.00262-2.28003,9.55768,1.96313,5.47382,7.08887,7.5556,1.84155,19.46375-4.42346,11.59479,3.85278,16.99677l9.23169-13.66113c7.02466,3.99811,6.99475,3.89484,3.31006,11.10925,5.36743,1.27734,7.30786.69391,11.09814-3.33038,6.74683,4.40302,2.16138,2.77179,5.1626,6.81097,5.44507,7.3313-.18945-2.42645,5.46716,4.52142-.45471,4.38293-.84766,3.43781-5.33313,6.44232,8.40942,3.67407,4.10889-.33856,11.52466,6.22314.5592-5.35394,2.55676-4.46124,7.55591-7.10828,2.9812,3.60254,4.28967-1.51855-.23297,7.33276,10.3504,5.29303,4.172-1.1817,14.52411,4.11182l-.23279,7.3324c5.23578-5.56305-.61591-1.73706,14.75806-3.21863,2.12195,15.43933,13.55237,14.9032,19.16071,19.66693.81146,6.22906-1.32794,5.07336,4.32245,2.33374l-4.32245-2.33374c.79053-7.60565,6.92682-2.25201,10.62439,1.74457,2.90149,3.13696-1.8645-.89294,3.12122,3.81232,9.1546-.88129,3.1084-3.29688,13.84711,1.83459,12.21918,5.83923,11.39282.67358,19.23883,7.55206l3.26099,3.24213c12.5188,9.2901,6.97266-1.52533,22.67017,11.97498l38.08492,13.11182c4.53607.34967,7.07355-2.06232,11.69788,3.31812,4.65668,5.41577-1.88116,4.71985,8.67792,8.98041,9.43536,3.80658,17.79584,8.74792,28.53979,13.96924,18.1225,8.80573,2.22852-6.5993,37.72992,13.00513,7.20245,3.97766,7.64978,5.60278,11.17609,2.14612l2.95129,1.59277,5.25238,8.39276c1.52173,3.30719,1.38983,4.04083,5.60101,6.78961,2.71155-5.02228,2.26813-5.04242,4.6485-6.81256l4.75757,2.5683c.92969,1.52789,1.21387,3.23676.7984,6.02472l2.88171,1.5556c2.30585-2.45209,2.96283-3.51141,4.88464-2.95624l13.14178,7.09528c-.19727-.41754-.41925-.3028,2.57068,1.79395,4.22156,2.95959,2.40582,1.72217.69794,6.84906l-7.31238.43817c9.742,5.17035.35834,4.51117,10.09857,9.68127.487-8.3736-.91003,1.05139-.4231-7.32202,6.24005,3.3111,2.80231.94727,6.23181,6.23926l-1.29248,3.01727,3.01086,1.28967,1.29242-3.01727,4.30133-1.72742c-4.09546-.59778-1.74847-1.54077-4.30133,1.72742l-3.0108-1.28967c3.22339-8.013,1.83258-11.50171-6.01044-15.07043l1.93829-4.52509c6.6756,2.68469,5.12354.98688,11.17926,3.00342-3.08069,4.38074-2.52435,1.69843-2.58441,6.03351,4.60992-.86926,2.34814-1.15405,7.31226-.43799l.38416,4.0918,4.13049-2.15796c5.81006,4.56781,1.06091,3.54047,6.30072,5.16498,4.46167,1.38361,2.02637-1.08575,5.72461,1.36615l16.78131,9.37823-5.25543,2.4693c-.27094.10046-.88318.27936-1.10571.35547l-2.24347.63025c4.98816,3.66809,5.35809,5.4364,6.51825,8.29132.48871,1.20251,1.11438,2.59363,2.28967,4.40747,1.7876-2.68335,1.44006-2.35974,3.44379-3.88043,2.27271,3.64264,1.88599,1.06903,1.07245,5.815,7.18286-1.35529,2.27094-.08691,7.44946.25275l1.85083.00244c.22412-.01324.70703-.13849.93079-.15973,7.93262-.71118,3.85651.82306,11.91589,2.25031l-2.58453,6.03369,6.02008,2.57867c2.97198-3.78979.63013-2.3446,4.94604-3.237-2.91455,7.24762-2.1651,9.71942,3.00439,13.78284,3.26721-9.80029-2.80823-11.82855,4.09808-17.88153,4.80096,3.77521,3.96619,1.86176,1.93005,7.96777,22.91675,9.81628,42.86853,16.57733,66.86218,26.85492l1.93848-4.52551,4.51465,1.93384c-3.40906,11.17358,8.5979,7.3537,14.82941,10.89758,4.41583,2.5105.49634,3.62585,7.32562,6.61237,1.58063.69086,8.21436,2.63965,11.37762,3.99463l-1.93835,4.52533c5.24506.75635,9.68103-6.22534,26.01709,5.7887,2.6651-7.99115-.26764-2.53235.86755-10.3396,11.87897,5.40509,3.79816,2.21411,5.35852,8.2027,2.57739,9.87518,7.43878-1.42511,2.37024,11.17468,5.17108,2.21503,14.56659,6.88629,19.56573,8.02594,6.21411,1.41626,3.15332-.7146,6.68817.97925l5.41193,4.38849c3.52136,2.18109,11.14429,5.11523,16.17975,7.21948.6745.28186,1.30646.55005,1.87189.79828,3.20532,1.40747,5.27368,2.3349,6.67798,2.90997l1.63293-.33087c2.57025-.6864,5.74518-1.2738,9.96295-3.08044,1.55206,3.62335,2.62726,6.62561,3.6861,9.02063.89111.61951,2.04395,1.37,3.55872,2.3042,6.87347,4.23901,4.87469,2.80463,5.70654,4.75085.28326.66278.89532,1.7179,2.29791,3.52301.18665.24017.38562.49207.60132.75964.44873-.39325.83966-.77185,1.1958-1.14172,2.19745-2.2821,2.92273-4.19299,5.68842-6.62012.90375,1.53253,1.61621,2.73004,2.19336,3.6828,4.27655,7.05969.87323.22894,8.77759,9.39832,1.77026,2.05298,1.80988,2.09796,3.21429,3.70575,5.07513-6.47382,3.31476-.64362,8.3913-7.11633l3.00922,1.289c-.78821,5.42297,1.11456,4.41296,3.49615,6.77264,8.15509,8.08142,13.33954,13.4046,25.35583,9.2525,10.93896-3.77875,5.47852,3.90063,19.01416.46277,5.53467-1.40527,8.53857-.53833,7.16925,8.87091-8.43713-4.76239-.74298.46625-5.58569-7.74768-3.05054,3.8891-6.06317,4.3551-10.54291,7.9801,6.23987,3.31152,2.80402.94775,6.23334,6.24017,6.80164-4.03046,2.41113.92053,7.099-4.09949,5.17804,4.06995,3.79572,6.64081,7.30267,12.05359,16.89026-3.18573,6.36707-8.5589,7.75342-18.10095,4.86511,4.5567,1.99152,4.99091,6.08557,8.79779,4.41687,4.10883,6.01715,2.27972,10.24957,7.125,1.77106,8.6767,14.24878,6.41504,21.67139,15.3504l.17523-.30511,4.55493,1.33887,4.55493-1.33887.17523.30511c7.42261-8.93536,19.90033-6.67371,21.67139-15.3504,4.23242-4.84528,5.8327-3.01617,10.24957-7.125,4.09406-3.80688,1.22046-4.24109,6.08557-8.79779,1.38635,9.54205-9.13684,14.91522,7.75342,18.10095,3.50696-5.41278,2.12463-7.98364,7.30267-12.05359,4.68787,5.02002.29736.06903,7.099,4.09949,3.42932-5.29242-.00659-2.92865,6.23334-6.24017-4.47974-3.625-7.49237-4.091-10.54291-7.9801-4.84271,8.21393,2.85144,2.98529-5.58569,7.74768-1.36932-9.40924,1.63452-10.27618,7.16925-8.87091,13.53564,3.43787,8.0752-4.24152,19.01416-.46277,12.0163,4.1521,17.20074-1.17108,25.35583-9.2525,2.38159-2.35968,4.28436-1.34967,3.49615-6.77264l3.00922-1.289c5.07654,6.47272,3.31616.64252,8.3913,7.11633,1.40442-1.60779,1.44403-1.65277,3.21429-3.70575,7.90442-9.16937,4.50104-2.33862,8.77759-9.39832.57715-.95276,1.28955-2.15027,2.19336-3.6828,2.76562,2.42712,3.49097,4.33801,5.68848,6.62012.35608.36987.74707.74847,1.1958,1.14172.2157-.26758.41467-.51947.60132-.75964,1.40259-1.80511,2.01465-2.86023,2.29785-3.52301.83191-1.94623-1.16687-.51184,5.70654-4.75085,1.51477-.9342,2.6676-1.68469,3.55872-2.3042,1.05884-2.39502,2.13403-5.39728,3.68616-9.02063,4.21777,1.80664,7.3927,2.39404,9.96289,3.08044l1.63293.33087c1.4043-.57507,3.47266-1.5025,6.67798-2.90997.56543-.24823,1.19739-.51642,1.87195-.79828,5.0354-2.10425,12.65845-5.03839,16.17981-7.21948l5.41199-4.38849c3.53479-1.69385.474.43701,6.68811-.97925,4.99927-1.13965,14.39465-5.81091,19.56567-8.02594-5.06848-12.59979-.20703-1.2995,2.37024-11.17468,1.5603-5.98859-6.52051-2.79761,5.35852-8.2027,1.13513,7.80725-1.79761,2.34845.86755,10.3396,16.33606-12.01404,20.77197-5.03235,26.01709-5.7887l-1.93848-4.52533c3.16333-1.35498,9.797-3.30377,11.37769-3.99463,6.82922-2.98651,2.90979-4.10187,7.32556-6.61237,6.23157-3.54388,18.2384.276,14.82947-10.89758l4.51465-1.93384,1.93848,4.52551c23.99365-10.27759,43.94543-17.03864,66.86218-26.85492-2.03613-6.10602-2.87085-4.19257,1.93005-7.96777,6.90625,6.05298.83081,8.08124,4.09802,17.88153,5.16943-4.06342,5.91882-6.53522,3.00439-13.78284,4.31592.8924,1.974-.5528,4.94592,3.237l6.02002-2.57867-2.58447-6.03369c8.05945-1.42725,3.9834-2.96149,11.91589-2.25031.22363.02124.70667.14648.93079.15973l1.85083-.00244c5.17859-.33966.2666-1.60803,7.44934-.25275-.81348-4.74597-1.2002-2.17236,1.07251-5.815,2.00378,1.52069,1.65625,1.19708,3.44385,3.88043,1.17529-1.81384,1.8009-3.20496,2.28967-4.40747,1.16016-2.85492,1.53003-4.62323,6.51831-8.29132l-2.24353-.63025c-.22253-.07611-.83484-.255-1.10571-.35547l-5.25537-2.4693,16.78125-9.37823c3.69824-2.4519,1.26294.01746,5.72461-1.36615,5.23975-1.62451.4906-.59717,6.30066-5.16498l4.13049,2.15796.38416-4.0918c4.96411-.71606,2.70227-.43127,7.31226.43799-.06018-4.33508.49622-1.65277-2.58447-6.03351,6.05579-2.01654,4.50366-.31873,11.1792-3.00342l1.93823,4.52509c-7.84302,3.56873-9.23376,7.05743-6.01038,15.07043l-3.01086,1.28967c-2.55286-3.26819-.20581-2.3252-4.30127-1.72742l4.30127,1.72742,1.29248,3.01727,3.01074-1.28967-1.29248-3.01727c3.42944-5.29199-.0083-2.92816,6.23181-6.23926.48694,8.37341-.91016-1.05157-.4231,7.32202,9.74023-5.1701.35657-4.51093,10.09851-9.68127l-7.31238-.43817c-1.70801-5.12689-3.52356-3.88947.698-6.84906,2.98999-2.09674,2.76782-2.21149,2.57068-1.79395l13.14172-7.09528c1.92175-.55518,2.57886.50415,4.88464,2.95624l2.88171-1.5556c-.41553-2.78796-.13135-4.49683.79834-6.02472l4.75769-2.5683c2.38037,1.77014,1.93689,1.79028,4.64856,6.81256,4.21106-2.74878,4.07922-3.48242,5.60095-6.78961l5.25232-8.39276,2.95129-1.59277c3.52637,3.45667,3.97363,1.83154,11.17615-2.14612,35.50134-19.60443,19.60742-4.1994,37.72986-13.00513,10.74402-5.22131,19.10437-10.16266,28.53979-13.96924,10.55908-4.26056,4.02124-3.56464,8.67798-8.98041,4.62427-5.38043,7.16174-2.96844,11.69775-3.31812l38.08496-13.11182c15.69751-13.50031,10.15137-2.68488,22.67017-11.97498l3.26099-3.24213c7.84607-6.87848,7.01965-1.71283,19.23877-7.55206,10.73877-5.13147,4.6925-2.71588,13.84717-1.83459,4.98572-4.70526.21973-.67535,3.12109-3.81232,3.69751-3.99658,9.83386-9.35022,10.62439-1.74457l-4.32251,2.33374c5.65039,2.73962,3.51099,3.89532,4.32251-2.33374,5.6084-4.76373,17.03882-4.2276,19.16077-19.66693,15.3739,1.48157,9.52222-2.34442,14.75806,3.21863l-.23291-7.3324c10.35217-5.29352,4.17371,1.18121,14.52417-4.11182-4.52271-8.85132-3.21411-3.73022-.23291-7.33276,4.99915,2.64703,6.9967,1.75433,7.55591,7.10828,7.41565-6.56171,3.11523-2.54907,11.52478-6.22314-4.48547-3.00452-4.87854-2.05939-5.33325-6.44232,5.65674-6.94788.02222,2.80988,5.46716-4.52142,3.00122-4.03918-1.58423-2.40796,5.1626-6.81097,3.79028,4.02429,5.73059,4.60773,11.09827,3.33038-3.68469-7.21442-3.7146-7.11115,3.31006-11.10925l9.23169,13.66113c8.27612-5.40198,2.01123,2.46698,3.85278-16.99677,5.12561-2.08179,9.36877,2.00208,7.08875-7.5556,10.6936-4.67145-1.17407,4.36273,21.72961-8.00262l-2.33716-4.33215c11.78357-6.36182,5.5426-2.38513,16.71533.71094l5.59155,1.52258c1.88623,1.20184.48584-.63733,2.77173,2.87225l2.88306-1.55688c-3.43396-7.90167-2.78357-1.86688.54321-5.88647l-2.3363-4.33234c-5.47107,4.84052-6.3197,7.59491-12.42212,1.11304,4.46448-6.15289,16.54639-8.93347,25.93469-14.0025-.40686-1.49249-.72437-2.52753-.94385-3.30035,1.88904,4.12122,3.74011,8.36755,5.52661,12.68591-1.45459-.42377-3.74573-.6748-10.11182,1.05756.43164,7.8277,2.52759.54651-4.0896,9.66632,4.67212,7.16925,3.49487,1.84021,7.13318,6.7998,1.57385-.66229,3.02588-1.25653,4.3689-1.79071l6.20874-6.94287c9.0575,23.54095,15.74255,47.98572,15.95142,64.48303.44446,35.11115-10.22217,91.11115-19.55554,114.22223-8.77844,21.7373-28.56445,73.34857-43.45935,100.11761-.3479-.95154-.724-2.03052-1.14355-3.28906-8.14819,4.32385-4.85083,5.66742-5.15479,12.9173-13.948,4.64569-8.37085-2.435-20.21326,6.87354-4.10095-.9538-8.05188-1.94318-11.85803-2.94464.3009.76019.62524,1.53491.98108,2.32129-20.40369,9.17834-10.43457,8.74609-18.05957,13.0498-1.7417-11.99463,5.24573.56653-.00818-12.49268-5.14246,4.81824-.05762,6.3573-7.94861,10.54559l-1.29236-3.01691,4.51465-1.93384-1.29224-3.01685c-3.94836,2.9411-2.24963.73431-3.22241,4.95068-7.04773,10.87482-4.19153,2.4975-25.70801,14.70483-.50427.28607-1.96289,1.08441-2.44629,1.32635-8.21069,4.09802-4.64148.16547-10.31763,7.15222-8.70337,10.7124-6.85779-.11743-6.66821,8.64807l-4.51477,1.93384c-2.67065-5.87122-1.10278-3.71411-4.73584-6.89691l-10.53479,4.51251c2.34778,3.19727,3.31079,3.85364,5.38208,8.40552-5.52454.25928-.75415,4.19922-4.94604-3.23694l-7.51477,6.12122-1.72937,1.40863-1.12915-2.63599-2.10132-4.90576-6.12659,2.62427-2.90112,1.24268-.39148-.91394-2.19299-5.11975c-1.91858,1.5083-2.71179,2.54279-3.271,3.5119-1.12134,1.9433-1.29736,3.62256-7.69006,8.32397-2.13953-4.03455-1.5896-3.67798-4.22058-5.28949-.84546-.51782-2.02539-1.24426-3.72302-2.37982-.39844.07092-1.0719.18054-2.38232.59436-.02063.0061-.68201.10962-1.5509.24524.2478.73511.4519,1.32318.61841,1.80225,1.07312,3.08984.55286,1.61084-.28345,5.16235-.09192.3902-.18738.83606-.28516,1.36078l.76855-.32916,2.24231-.96051c2.1759,6.52997,1.77319,7.54529-4.29492,10.76544-.72229-4.97186-.43579-2.70679.42798-7.32385l-4.51782,1.93518c-3.90747-11.72485,1.12927-9.7262-10.75439-4.31891,4.88977,9.22046,8.0188,8.58362-4.29504,10.76526,3.7113,9.22308,2.86975,4.00342-.4248,7.32251l-4.52283-10.55878c-5.14929,4.04834-4.30176,8.52802-10.32129.8512-10.24719,5.43842-.99634,3.96875-6.19348,9.02606-.38745.37708-.85815.79163-1.42053,1.24689-.11267.09119-.21448.17761-.33484.27216-.12756-.24066-.24927-.4646-.36841-.68164-2.2135-4.03223-3.00647-4.10278-4.05798-4.28729-.7594-.1333-1.65747-.33453-3.32349-2.13202-.3866-.41711-.81165-.91425-1.28918-1.52313-.36731.15735-.70581.29926-1.03162.43463-7.21521,2.9975-4.61792.90454-6.96973,6.35181l-1.5155,4.48334c-1.61536,3.17731,3.34448-1.01617-2.87476,3.77136-4.00647,3.08472-14.48059,1.30463-17.70715-2.14844-4.18616,6.46112-2.52905,8.79083-3.85889,15.93402-6.50806.9386-.34253-1.79755-13.61804-.27338-.43103.04907-.87451.10016-1.30493.14612-.42297.04565-.86523.05084-1.2854.09406l-8.08984,1.51581c5.89319,14.65356-4.57495,3.05249-.20679,16.1546-5.51489.79596-3.26868-1.65344-9.46387-1.30157,3.8866,4.9541,2.35669,1.29803,6.24133,6.25208l-9.02771,3.86694,2.58459,6.03394-4.51636,1.93451-2.58459-6.03394c-.33521.26398-.33911.65814-.86194.94995-.50159.27917-.66882.74426-.83984.8949l-2.34375,1.91162c-1.71057.8175-6.40906,1.24945-9.28687-1.61572l-4.51306,1.93311,5.5885,8.25775-6.22803,2.72736-2.58459-6.03394-22.57324,9.66919c-1.76868-1.89423-1.93225-1.47345-2.87402-2.17786l-10.46643-8.17407c-4.23279,6.534-2.5354,6.72314-3.17407,9.9632l-2.85986,6.34692c-.21558.29059-.55298.66467-.77319.93976-.99255,1.24335.52136.01099-2.42566,2.77124-5.41467-3.52417-4.83704-.41064-8.39124-7.11639l-24.07874,10.31403c-.37634,2.01843-.64282,2.72101-.76343,3.28845-.15503.73016-.06848,1.23663.33704,4.03473-32.37939,13.86957-19.01953,2.79163-27.52075,6.43311-7.34766,5.77606.60156,4.5528-9.99658,9.72424l-23.46045,14.44012c-3.47815,2.80182-7.67578,10.29138-13.40808-.51929-3.17004,3.63171-1.02185,2.06622-6.87952,4.73157,7.30884,4.75775,8.35669,4.55243-.25037,7.68103l-58.86658,24.78217c-4.80408-3.12708-3.91162-.71985-7.74524-5.60791l7.52551-3.22351-2.58459-6.03394c-8.67871,4.60645-.48083,3.50238-10.7478,8.17426-4.1156-7.76355-4.41418-5.25006-13.11926-1.52124l2.58447,6.03375-1.01355.4342,4.17151,1.7868-1.29199,3.01642c-4.02075-1.85559-2.65723-1.73376-3.17456-4.67682l-6.35657,2.72284-2.86768,1.22833-1.57031-3.66595-1.01416-2.36774-4.76123,2.03943-4.26819,1.82825c.97949,6.75208,1.46118,4.54187-5.58716,7.74878,4.86841,6.20837,2.94031.31921,6.88586,7.76117-6.95789,3.69287-7.02368,8.86041-12.25171,8.8186-7.46643.15088.43213,1.34576-6.30566-2.96136-4.20105-2.68616-2.20447.13489-5.74109-4.37463,1.41223-6.12128,2.97241-3.67645,4.29358-10.7644l-8.41296-3.93433c.85437,7.00739-2.99792,10.67902-6.46875,15.19879-.67004.87268-1.32544,1.77716-1.93042,2.74329-1.22314,1.95319-2.23938,4.15765-2.7439,6.86487,7.99573-3.42493,8.677-4.9162,14.40332-7.95477,2.55811,7.67047,1.03894,7.09937-7.82104,10.77246-10.86621,4.50586-7.76807,2.52875-15.61157,1.04999l1.93811,4.52472-51.16675,21.91699c-3.88684-9.07428-6.11731-12.61383-14.84436-9.70782,3.28503,7.66919,5.86572,8.51917-.00391,12.48669-6.96692,4.70935.72791-3.36011-14.64673,9.10699-1.87781,1.52277-1.17065,1.06274-3.53259,2.32874-1.73328.92883-5.56647,2.37823-7.56268,3.20764l-9.30377,3.93463-9.71674,4.10925-38.45593,16.26318c-5.71362,4.23425-2.2323,2.27368-4.78253,4.53656-6.84088,6.06781-6.39612,1.86932-11.46558,3.56335-6.97882,2.33142,3.14484,1.55951-18.31268,10.56549l-28.94537,12.33594-28.94537-12.33594c-21.45752-9.00598-11.33386-8.23407-18.31268-10.56549-5.06946-1.69403-4.62469,2.50446-11.46558-3.56335-2.55023-2.26288.93109-.30231-4.78253-4.53656l-38.45593-16.26318-9.71674-4.10925-9.30377-3.93463c-1.99622-.82941-5.82941-2.27881-7.56268-3.20764-2.36194-1.26599-1.65485-.80597-3.53259-2.32874-15.37457-12.4671-7.67975-4.39764-14.64667-9.10699-5.86963-3.96753-3.28894-4.8175-.00391-12.48669-8.72705-2.90601-10.9574.63354-14.8443,9.70782l-51.16669-21.91699,1.93817-4.52472c-7.84357,1.47876-4.74542,3.45587-15.61157-1.04999-8.86005-3.6731-10.37915-3.10199-7.82104-10.77246,5.72626,3.03857,6.40753,4.52985,14.40326,7.95477-.50452-2.70721-1.52075-4.91168-2.7439-6.86487-.60498-.96613-1.26031-1.87061-1.93042-2.74329-3.47076-4.51978-7.32306-8.19141-6.46869-15.19879l-8.41296,3.93433c1.32111,7.08795,2.88123,4.64313,4.29352,10.7644-3.53662,4.50952-1.53998,1.68848-5.74103,4.37463-6.73779,4.30713,1.16077,3.11224-6.30566,2.96136-5.22797.04181-5.29376-5.12573-12.25165-8.8186,3.94562-7.44196,2.01752-1.5528,6.8858-7.76117-7.04822-3.20691-6.56659-.9967-5.5871-7.74878l-4.26807-1.82825-4.76123-2.03943-1.01422,2.36774-1.57031,3.66595-2.86774-1.22839-6.35657-2.72278c-.51733,2.94305.84619,2.82123-3.17456,4.67682l-1.29211-3.01642,4.17145-1.7868-1.01361-.4342,2.58453-6.03375c-8.70514-3.72882-9.0036-6.24231-13.11926,1.52124-10.26703-4.67188-2.06921-3.56781-10.74786-8.17426l-2.58466,6.03394,7.52551,3.22351c-3.83362,4.88806-2.9411,2.48083-7.74512,5.60791l-58.86658-24.78217c-8.60699-3.1286-7.55908-2.92328-.25031-7.68103-5.8576-2.66534-3.70947-1.09985-6.87952-4.73157-5.73236,10.81067-9.92999,3.32111-13.40808.51929l-23.46045-14.44012c-10.59814-5.17145-2.64893-3.94818-9.99658-9.72424-8.50128-3.64148,4.85858,7.43646-27.52081-6.43311.40552-2.7981.49213-3.30444.33698-4.03467-.12054-.56744-.38708-1.27008-.76337-3.28851l-24.07874-10.31403c-3.55426,6.70575-2.97656,3.59222-8.3913,7.11639-2.94696-2.76025-1.43292-1.52789-2.4256-2.77124-.22028-.27509-.55768-.64917-.77319-.93976l-2.8598-6.34692c-.63885-3.24005,1.05859-3.4292-3.17419-9.9632l-10.46643,8.17407c-.94183.70441-1.10535.28363-2.87402,2.17786l-22.5733-9.66919-2.58459,6.03394-6.22803-2.72736,5.5885-8.25775-4.513-1.93311c-2.87793,2.86517-7.57623,2.43323-9.28693,1.61572l-2.34363-1.91162c-.17102-.15063-.33838-.61572-.8399-.8949-.52271-.29181-.52673-.68597-.86188-.94995l-2.58466,6.03394-4.51624-1.93451,2.58459-6.03394-9.02771-3.86694c3.88464-4.95404,2.35474-1.29797,6.24133-6.25208-6.19519-.35187-3.94891,2.09753-9.46381,1.30157,4.3681-13.10211-6.09991-1.50104-.20679-16.1546l-8.08984-1.51581c-.42023-.04321-.86249-.0484-1.28552-.09406-.43042-.04596-.8739-.09705-1.30493-.14612-13.27545-1.52417-7.11005,1.21198-13.61804.27338-1.32977-7.14319.32727-9.4729-3.85883-15.93402-3.22656,3.45306-13.70068,5.23315-17.70715,2.14844-6.2193-4.78754-1.2594-.59406-2.87476-3.77136l-1.51556-4.48334c-2.35175-5.44727.24554-3.35431-6.96973-6.35181-.32587-.13538-.66431-.27728-1.03162-.43463-.47754.60889-.90259,1.10602-1.28918,1.52313-1.66602,1.79749-2.56396,1.99872-3.32343,2.13202-1.05145.18451-1.84448.25507-4.05798,4.28729-.11914.21704-.24078.44098-.36841.68164-.1203-.09454-.22217-.18097-.33478-.27216-.56244-.45532-1.03302-.86981-1.42059-1.24695-5.19702-5.05719,4.05371-3.58765-6.19342-9.026-6.01965,7.67682-5.17206,3.19714-10.32141-.8512l-4.52283,10.55878c-3.29443-3.31909-4.13611,1.90057-.4248-7.32251-12.31378-2.18164-9.18475-1.5448-4.29498-10.76526-11.88373-5.40729-6.84705-7.40594-10.75439,4.31891l-4.51788-1.93518c.86383,4.61707,1.15027,2.35199.42804,7.32385-6.06818-3.22015-6.47089-4.23547-4.29492-10.76544l2.24231.96051.76849.32916c-.09778-.52466-.19318-.97052-.28503-1.36072-.8363-3.5517-1.35657-2.07257-.28345-5.16248.16644-.47906.37054-1.06708.61835-1.80219-.8689-.13562-1.53027-.23914-1.5509-.24524-1.31036-.41382-1.98389-.52344-2.38232-.59436-1.69757,1.13556-2.87762,1.862-3.72302,2.37982-2.63092,1.61151-2.08118,1.25494-4.22058,5.28949-6.3927-4.70142-6.56873-6.38068-7.69006-8.32404-.5592-.96912-1.35236-2.00354-3.271-3.51184l-2.19305,5.11975-.39148.91394-2.90112-1.24268-6.12659-2.62427-2.10132,4.9057-1.12915,2.63605-1.72937-1.40863-7.51483-6.12122c-4.19189,7.43616.57849,3.49622-4.94598,3.23694,2.07135-4.55188,3.03436-5.20825,5.38208-8.40552l-10.53473-4.51251c-3.63312,3.1828-2.06525,1.0257-4.7359,6.89691l-4.51465-1.93384c.18951-8.7655,2.03516,2.06433-6.66827-8.64807-5.67609-6.98676-2.10681-3.0542-10.31757-7.15222-.48334-.24194-1.94196-1.04028-2.44623-1.32635-21.51654-12.20734-18.66022-3.83002-25.70795-14.70483-.9729-4.21637.72583-2.00958-3.22241-4.95068l-1.29236,3.01685,4.51477,1.93384-1.29236,3.01691c-7.89099-4.18829-2.80615-5.72736-7.94861-10.54559-5.25391,13.0592,1.73364.49805-.00818,12.49268-7.625-4.30371,2.34412-3.87146-18.05957-13.0498.35583-.78638.68005-1.5611.98108-2.32129h.00124ZM2622.94989,732.32636c1.11304.52966,2.58655-.20526,2.2677-.97144l-2.2677.97144ZM2616.24139,614.047c-.05994-.1308.54004-1.87427-.73938-1.37585-4.02551,1.56787,2.61841,5.51398.73938,1.37585ZM2605.32074,630.1435c.2135.52258.46106,1.11853.75513,1.80487.57349-.30426,1.07117-.5813,1.5072-.84027-.76257-.37469-1.50684-.70197-2.26233-.9646ZM2593.7724,620.67401c3.55249,3.17627,1.52539,3.00909,8.10022,1.21991-5.84412-2.78394-1.77002-.92847-8.10022-1.21991ZM2531.80658,750.38117l1.93848,4.52551,6.02002-2.57867c-3.77881-4.81775-1.86633-3.97589-7.95862-1.94684h.00012ZM2505.03436,920.72742c4.08606-1.75031-2.30957-5.39624-.66101-1.31689.62195,1.53638-2.76074,2.78259.66101,1.31689ZM2479.87677,924.36328l1.29211,3.01642,4.51465-1.93378-1.29211-3.01648-4.51465,1.93384ZM2471.91827,922.41663c4.60669-3.62122,4.27966-2.80182,3.43567-8.61218-4.83838,3.80334-4.13232,2.72003-3.43567,8.61218ZM2443.02569,938.54657c4.047,1.62585,2.26392-.64325,1.80615-4.52759-3.1604,2.48383-5.70557,2.96271-1.80615,4.52759ZM2412.14715,940.87885c.43933.56018.88623,1.07349,1.34253,1.54297.16687-.04639.3042-.08398.3761-.10114,1.05432-.25476,1.79822-.46442,2.31848-.63892.15625.86157.18286,1.94092.4541,3.17401,1.08679.59369,2.24109.99609,3.48682,1.21082-1.31702-1.97418-2.05139-3.04681-2.24084-4.77264l-.76672-.05548c-.08606.10938-.37036.25446-.93335.4433-.00146-.00793-.00232-.01685-.00391-.02472-4.39758-.08954-3.42322-.44849-1.79834-.61652l-2.23511-.16168h.00024ZM2356.41437,859.65064c1.32092,4.97729,3.40125,1.84778,7.51172,1.91455l-3.23047-7.54175c-4.06873,2.159-5.31897,1.71881-4.28125,5.6272ZM2346.70782,958.31269c.17651.03979.31836.07855.45923.11719.0658.26398.24365.43079.43384.5246.17053-.03394.34851-.07153.53772-.11725-.11719-.10968-.40613-.2522-.97156-.40735-.07056-.28284-.01794-.66974.29529-1.2002.01428-.02454.17944-.32135.18799-.33667.0332-.06592.05066-.12396.0614-.17847l-1.29956-.36115c-1.27319.29352-2.62439,1.30145.29578,1.95929h-.00012ZM2336.41266,864.53034c.0365.0141,3.26245,4.53009,3.23474-3.6936-.01074-2.93848.03406-1.64545-1.10034-4.46686-2.8772,2.26239-6.93579,6.23199-2.1344,8.16046ZM2326.07403,856.35749l4.51636-1.93451-2.58447-6.03369c-5.10852,4.01514-3.84595,1.79224-1.93176,7.9682h-.00012ZM2311.45904,867.9729l.93994,2.1944c.52759.18842.91077.33978,1.177.49377,7.63672-3.01947,4.66321-.97516,11.64685.34216-4.48865-7.96039-9.37439-4.91052-13.76379-3.03033ZM2300.69488,851.16199l1.93823,4.5249c3.88489-3.05389,3.43201-1.48596,2.578-6.45941l-4.51636,1.93451h.00012ZM2289.06488,824.01087l1.93823,4.5249c5.89685-4.63544,5.48572-5.5954-1.93823-4.5249ZM2287.15094,856.9635c-5.04065,2.67462-5.16858.34949-4.05872,5.06915.85791,3.63904,1.72656-.47437,5.57227,6.77869l3.00928-1.289-4.52283-10.55884ZM2280.68988,841.87964c4.87317,6.21509,5.36792,5.27716,4.51465-1.93384l-4.51465,1.93384ZM2269.94342,850.05274c2.54541-1.09033.21533-5.32837-.81763-1.90863l.15515.59283c.62195,1.53613-2.76099,2.78217.66235,1.3158h.00012ZM2265.00238,859.31c.49951.63629,1.07739,1.3172,1.7168,1.95728.55347.25488,1.13867.52899,1.78467.83966,1.47302.70837,2.56189,1.3064,3.4176,1.8446.74194-.00452,1.50623-.17932,2.28674-.60309,3.99243-2.16846,1.08435-4.96228-1.46875-10.92303-6.18958,4.86578-.31323,2.94482-7.73706,6.88458ZM2248.8576,834.09247l4.51465-1.93384c-6.62927-8.45276-4.42261-2.68909-4.51465,1.93384ZM2226.21686,799.91773c3.17212.82507,1.71167.53278,3.36267,1.15021l2.1626.33057-11.08008-3.42981c-.13672.40375-.07275,1.07159,1.89429,1.2428l3.66064.70624h-.00012ZM2213.85919,881.77063c.98059.75677,1.85278,1.3938,2.66992,1.94141,1.86414-1.02722,4.37439-1.94183,6.1228-2.6908-2.71204-1.60742-3.64746-1.75049-8.0061-1.0871l-.78662,1.83649ZM2202.40265,825.42926l1.93823,4.52509,3.00928-1.289-1.93823-4.52509-3.00928,1.289ZM2193.36517,816.80426c2.94189,3.95917.73645,2.25586,4.94751,3.2359l-1.93823-4.5249-3.00928,1.289ZM2187.35333,831.87561c4.37097,5.57501,1.70276,2.21021,6.45459,2.59058-3.15967-4.02423-1.40259-3.31866-6.45459-2.59058ZM2070.7492,1084.79712c.04346.01703.55725.47168.64221.25769l-.64221-.25769ZM1993.93084,1016.48059c4.42456,2.62238,5.80554,3.05511,6.9115-.68219-.9729-.37372-1.90442-.73547-2.78259-1.08636l-4.12891,1.76855ZM1988.58795,1070.53894l1.29236,3.01709c6.48279-3.44092,3.49292.45642,4.72937-5.59644l-6.02173,2.57935ZM1961.39874,1053.65045c4.12402,1.65521,4.26038-2.07068,2.87439-6.61438-3.58118,1.90051-8.3302,4.42224-2.87439,6.61438ZM1973.97308,1082.15473l-1.93835-4.52527c-6.89795,2.95471-12.75867,6.35333-10.27417,11.69672,2.2002,4.73297,6.7627-3.16406,12.21265-7.17145h-.00012ZM1979.75567,1045.76007l-1.93848-4.52551-3.00928,1.289,1.93848,4.52545,3.00928-1.28894ZM1954.80279,1033.24097l1.29224,3.01685c5.651-2.42059,10.59558-4.48114,15.96924-7.33655,5.25769-2.7934,6.21094-2.16418,14.12793-5.55548l-13.33887-10.3526-13.54553,5.80219c6.80322,4.02979,2.41125-.92029,7.10083,4.09918-4.45654,6.87616-.74683,5.67505-11.60571,10.32642h-.00012ZM1946.23749,1092.25019l1.29199,3.0163,4.51477-1.93384-1.29199-3.01624-4.51465,1.93378h-.00012ZM1938.03473,1043.99384l1.29236,3.01685,4.51465-1.93384-1.29236-3.01685-4.51465,1.93384ZM1922.77215,1054.10187c5.81543,3.78558,4.28247,5.30621,13.11914,1.521-3.92786-2.32764-1.18823-1.05798-5.6134-1.56689l-7.50586.0459h.00012ZM1791.96991,1156.02802c2.59332.90912,4.97455,1.33221,6.78125.75513-.08734-1.10913-.65607-2.48389-1.28754-4.37695-3.79779,2.01556-4.62964,3.172-5.49371,3.62183ZM1780.97754,1150.86682c1.54626.78137,3.20782,1.65387,4.89899,2.49426.85522-.17285,1.78076-.41907,2.771-.7489-1.48053-4.43628-1.60229-11.38531-6.0686-4.90436-.88245,1.28003-1.38556,2.31757-1.60138,3.159ZM1752.43158,1131.46918l-2.58453,6.03375c1.40314.60101,2.62317,1.15271,3.69659,1.66339,1.07343-.51068,2.29346-1.06238,3.69659-1.66339l-2.58453-6.03375c-1.80267-4.20844.54932-5.57245,1.98065-6.40662-.16119-.70697-.24292-1.36841-.37854-1.90906-.45251-.22021-1.02997-.47192-1.771-.76971-.34979-.14044-.65894-.24799-.94318-.33472-.28424.08673-.59338.19427-.94318.33472-.74103.29779-1.31848.5495-1.771.76971-.13562.54065-.21735,1.20209-.37854,1.90906,1.43134.83417,3.78333,2.19818,1.98065,6.40662ZM1718.43976,1152.61219c.99023.32983,1.91577.57605,2.771.7489,1.69116-.84039,3.35272-1.71289,4.89899-2.49426-.21582-.84143-.71893-1.87897-1.60138-3.159-4.46631-6.48096-4.58807.46808-6.0686,4.90436ZM1708.33612,1156.78314c1.8067.57709,4.18793.15399,6.78125-.75513-.86407-.44983-1.69592-1.60626-5.49371-3.62183-.63153,1.89307-1.2002,3.26782-1.28754,4.37695ZM1571.19592,1055.62287c8.83673,3.78522,7.30377,2.26459,13.11914-1.521l-7.50574-.0459c-4.42511.50891-1.68561-.76074-5.6134,1.56689ZM1563.2456,1045.07685l4.51465,1.93384,1.2923-3.01685-4.51465-1.93384-1.2923,3.01685ZM1555.04309,1093.33264l4.51471,1.93384,1.29199-3.0163-4.51465-1.93378-1.29205,3.01624ZM1532.27936,1042.52356l-3.00922-1.289-1.93848,4.52551,3.00922,1.28894,1.93848-4.52545ZM1535.05255,1077.62946l-1.93835,4.52527c5.44989,4.00739,10.01239,11.90442,12.21259,7.17145,2.48444-5.34338-3.37622-8.742-10.27423-11.69672ZM1542.81408,1047.03607c-1.38593,4.5437-1.24963,8.26959,2.87445,6.61438,5.45581-2.19214.70667-4.71387-2.87445-6.61438ZM1520.89514,1023.36579c7.91705,3.3913,8.87036,2.76208,14.12799,5.55548,5.37354,2.85541,10.31824,4.91595,15.96918,7.33655l1.29224-3.01685c-10.85895-4.65137-7.14917-3.45026-11.60577-10.32642,4.68958-5.01947.29755-.0694,7.10083-4.09918l-13.54559-5.80219-13.33887,10.3526ZM1518.49933,1070.53894l-6.02167-2.57935c1.23651,6.05286-1.75336,2.15552,4.72937,5.59644l1.2923-3.01709ZM1506.24499,1015.7984c1.1059,3.7373,2.48694,3.30457,6.91144.68219l-4.12885-1.76855c-.87823.35089-1.80969.71265-2.78259,1.08636ZM1435.69592,1085.05481c.08496.21399.59882-.24066.64221-.25769l-.64221.25769ZM1313.27948,834.46619c4.75183-.38037,2.08356,2.98444,6.45453-2.59058-5.052-.72809-3.29486-1.43365-6.45453,2.59058ZM1308.77466,820.04016c4.211-.98004,2.00555.72327,4.94745-3.2359l-3.00922-1.289-1.93823,4.5249ZM1299.73706,828.66535l3.00928,1.289,1.93829-4.52509-3.00928-1.289-1.93829,4.52509ZM1284.4353,881.02124c1.74854.74896,4.25867,1.66351,6.1228,2.69073.81714-.54761,1.68945-1.18463,2.66998-1.94135l-.78668-1.83649c-4.35858-.66339-5.29407-.52032-8.0061,1.0871ZM1275.34521,801.3985l2.1626-.33057c1.651-.61743.19055-.32513,3.36267-1.15021l3.66064-.70624c1.96704-.1712,2.03088-.83905,1.89423-1.2428l-11.08014,3.42981ZM1253.71502,832.15863l4.51471,1.93384c-.09204-4.62292,2.11469-10.3866-4.51471-1.93384ZM1237.14392,850.05274c3.42328,1.46637.04047.22034.66235-1.3158l.15521-.59283c-1.0329-3.41974-3.36298.8183-.81757,1.90863ZM1232.87903,863.34845c.78052.42377,1.54474.59857,2.28668.60309.85583-.53821,1.94464-1.13623,3.41766-1.8446.646-.31067,1.23132-.58484,1.78479-.83972.63934-.64008,1.21722-1.32092,1.71674-1.95721-7.42383-3.93976-1.54749-2.0188-7.73706-6.88458-2.55322,5.96075-5.46136,8.75458-1.46881,10.92303ZM1226.39746,841.87964l-4.51465-1.93384c-.85321,7.211-.35846,8.14893,4.51465,1.93384ZM1219.93634,856.9635l-4.52283,10.55884,3.00922,1.289c3.8457-7.25305,4.71442-3.13965,5.57227-6.77869,1.10999-4.71967.98199-2.39453-4.05865-5.06915ZM1216.08423,828.53577l1.93817-4.5249c-7.42395-1.0705-7.83514-.11053-1.93817,4.5249ZM1204.45416,855.68689l1.93817-4.5249-4.51624-1.93451c-.85394,4.97345-1.30676,3.40552,2.57806,6.45941ZM1181.86444,871.00324c6.9837-1.31732,4.01013-3.36163,11.64685-.34216.26624-.15399.64948-.30536,1.177-.49377l.93994-2.1944c-4.38947-1.88019-9.27515-4.93005-13.76379,3.03033ZM1176.49695,854.42298l4.5163,1.93451c1.91418-6.17596,3.1767-3.95306-1.93176-7.9682l-2.58453,6.03369ZM1167.43988,860.83673c-.02771,8.22369,3.1983,3.7077,3.23474,3.6936,4.80145-1.92847.74286-5.89807-2.13434-8.16046-1.13446,2.82141-1.08966,1.52838-1.1004,4.46686ZM1159.92016,958.42993c-.56531.15515-.85425.29773-.9715.40735.18921.04565.36719.08325.53772.11719.19012-.09381.36798-.26056.43378-.52454.14087-.03864.28271-.07745.45929-.11725,2.9201-.65784,1.56891-1.66577.29565-1.95929l-1.2995.36115c.01068.0545.0282.11249.0614.17847.00848.01532.17358.31213.18787.33667.31323.53046.36578.91742.29529,1.20026ZM1143.16119,861.56519c4.11041-.06677,6.19073,3.06274,7.51172-1.91455,1.03784-3.90839-.21252-3.4682-4.28119-5.6272l-3.23053,7.54175ZM1086.96205,946.06659c1.24579-.21472,2.40002-.61713,3.48682-1.21082.27136-1.23309.29785-2.31244.4541-3.17401.52032.1745,1.26416.38416,2.31854.63892.0719.01715.20923.05475.37616.10114.4563-.46948.90314-.98279,1.34253-1.54297l-2.23499.16168c1.62494.16803,2.59924.52698-1.7984.61652-.00146.00787-.00238.01678-.00385.02472-.56293-.18884-.84723-.33392-.93329-.4433l-.76678.05548c-.18939,1.72583-.92383,2.79846-2.24084,4.77264ZM1064.0616,938.54657c3.89929-1.56488,1.35413-2.04376-1.80621-4.52759-.4577,3.88434-2.24072,6.15344,1.80621,4.52759ZM1035.16902,922.41663c.69672-5.89215,1.40271-4.80884-3.43561-8.61218-.84399,5.81036-1.17108,4.99097,3.43561,8.61218ZM1021.40382,925.44593l4.51465,1.93378,1.29211-3.01642-4.51465-1.93384-1.29211,3.01648ZM1002.05293,920.72742c3.42169,1.4657.03894.21948.66095-1.31689,1.64862-4.07935-4.74707-.43341-.66095,1.31689ZM967.32209,752.32801l6.02014,2.57867,1.93848-4.52551c-6.09216-2.02905-4.17981-2.87091-7.95862,1.94684ZM884.1374,732.32636l-2.2677-.97144c-.31873.76617,1.15479,1.5011,2.2677.97144ZM891.5854,612.67115c-1.27942-.49841-.67957,1.24506-.73938,1.37585-1.87891,4.13812,4.76489.19202.73938-1.37585ZM901.76642,630.1435c-.75537.26263-1.49951.5899-2.26221.9646.43616.25897.93384.53601,1.50732.84027.29395-.68634.5415-1.28229.75488-1.80487h.00001ZM913.31489,620.67401c-6.3302.29144-2.2561-1.56403-8.10022,1.21991,6.57483,1.78918,4.54785,1.95636,8.10022-1.21991ZM2485.47845,941.60004l-1.29224-3.01666-4.51477,1.93384,1.29224,3.01666,4.51477-1.93384ZM1766.92596,996.80011c2.68024-.70142-1.43707-3.24225,0,0h0ZM1840.78894,974.96906c1.3244,3.09192,8.8443,2.02374,5.58728-7.74841-4.77673,2.17334-7.73602,2.73199-5.58728,7.74841ZM1767.2182,997.40338c-.12128-.22516-.20996-.4176-.29224-.60327-.13837.03619-.27576.07275-.45221.09802-3.78156.5412-.77014,3.09308,1.00012,2.33478,3.05896-1.3103.72815-.00281-.25568-1.82953ZM1843.57196,952.35529c-5.67603,1.12476-5.68384-.97308-4.72943,5.59625l6.02173-2.57935-1.2923-3.01691ZM1778.43493,987.39704l-4.5163,1.93451c3.70966,9.22351,2.86969,4.00342-.42633,7.32336l1.93823,4.5249,4.51465-1.93384c-3.50104-11.48578,3.78137,1.31177-1.51025-11.84894ZM2193.56854,800.65064c-2.27087,3.64233-1.88745,1.0697-1.0708,5.81427l4.51477-1.93384c-1.90625-2.5658-1.43213-2.33661-3.44385-3.88043h-.00012ZM1855.18414,954.52185c3.2901,7.23315,1.72455,5.10809,7.7453,5.60834-.21454-6.08807-.9682-7.86523-7.7453-5.60834ZM2184.31964,795.68683l1.93835,4.52509c6.55493-.07953,6.79138-5.78406-1.93835-4.52509ZM2594.04046,596.29059l-3.90759,2.10925c.13184,1.30542.51758,2.19696,1.61279,4.7229,3.78381-2.4693,3.06189-1.83105,4.98486-4.55646-3.09387-2.76654-.99634-2.59637-2.68994-2.2757h-.00012ZM2187.33856,806.88959c.18115-3.3374.34338-2.38214-1.08057-6.67767l-6.01843,2.578c3.86816,6.86212-.97546,3.42957,7.099,4.09967ZM2641.67132,606.00067c6.39038-4.17059,3.35339.18854,4.20593-6-5.90125.36176-5.82312-.77716-4.20593,6ZM2481.92975,675.46302l2.33789,4.33167,4.32263-2.33337-2.33789-4.3316-4.32263,2.33331ZM2095.96966,851.38245l3.01086-1.28967-1.93823-4.52509c-2.1958,3.72437-1.90552.95245-1.07251,5.81476h-.00012ZM1993.41656,886.38483l1.93848,4.52527c2.90332-1.24359,2.47363-1.62134,3.86694-3.44153-3.72168-2.20538-.95386-1.9118-5.80542-1.08374ZM2449.5744,953.40924c5.16931-4.06384,4.47827-2.47552,1.07251-5.81482l-3.01086,1.28967,1.93823,4.52515h.00012ZM2009.21722,893.01575c2.68152-.70197-1.43579-3.2428,0,0h0ZM1946.98431,915.19965c2.6709,5.87164,1.10461,3.71405,4.7345,6.89801,3.23914-2.09595,1.41284-4.77203-.21814-8.83252l-4.51624,1.93451h-.00012ZM2147.96136,834.31378c-.12109-.22516-.20984-.41766-.29199-.60339-.13843.03625-.27588.07288-.45239.09814-3.78003.54053-.76855,3.09235,1,2.33478,3.05896-1.3103.72815-.00281-.25574-1.82953h.00012ZM2009.50921,893.61914c-.12109-.22522-.20984-.41766-.29199-.60339-.13843.03625-.276.07288-.45239.09814-3.78162.54126-.76855,3.09235,1,2.33478,3.06067-1.31097.72815-.00275-.25562-1.82953ZM2147.66937,833.71039c2.68164-.7019-1.43579-3.24286,0,0h0ZM2334.76642,997.23133c-15.07349,6.45667-8.23035-.04498-14.83618,2.78467-4.36548,1.86987-.74219,9.17572,6.38733,9.0141,3.05103-.06964,5.69934-1.69556,8.67004-2.96802-.73755-6.24481.65503-2.80768-.22119-8.83075ZM1887.00006,937.32349c.85217-.36505,1.53601-.64093,2.09509-.86066,3.73242-1.46655,1.62024-.30096,2.65222-4.52484l-2.41931.31128-4.26648.54895,1.93848,4.52527ZM2395.06488,982.72724c-1.94214,4.74701-1.6217-.05231.34009,6.3811,3.83154-4.75244,5.27734-3.99329,4.29333-10.76477-5.97888,3.37543-2.724-.28455-4.63342,4.38367ZM2393.89142,977.26074l7.52551-3.22351-1.93823-4.52509c-7.04822,3.20709-6.56824.99744-5.58728,7.7486ZM2018.06073,878.79645c-.05347.10754-.09473.18463-.14282.27917.06909.03033.1333.10352.1842.26062l.68396-.24786-.72522-.29193h-.00012ZM2017.91778,879.07563c-.5542-.24298-1.50415,2.94727,0,0h0ZM2155.79461,829.39643l4.24939,5.25122,3.00928-1.289c-3.66211-4.66925-2.02234-3.14282-7.25867-3.96222ZM2024.81427,889.00232l-2.58447-6.03369c-5.87671,4.62061-4.81445,7.1004,2.58447,6.03369ZM2240.38983,1043.01245c5.23462,3.28119.35083,2.75677,7.31226.43799-4.29919-5.48279-3.36084-4.83508-7.31226-.43799ZM1876.47339,954.32868c2.0368-1.31781,1.85461-2.34607,1.43695-4.1123-.11847-.50104-.25488-1.05817-.36621-1.70221l-1.75037.74976-2.76428,1.18408c1.90961,2.56464,1.43365,2.33594,3.44391,3.88068ZM1488.13861,1128.94007l-3.23059,7.54193,3.01086,1.28967c3.78943-5.16168,6.17767-4.14795.21973-8.8316ZM2022.17926,1136.482l-3.23059-7.54193c-5.95801,4.68365-3.5697,3.66992.21973,8.8316l3.01074-1.28967h.00012Z" fill="#231f20"/>
</svg>