<?xml version="1.0" encoding="UTF-8"?>
<svg id="Layer_8" xmlns="http://www.w3.org/2000/svg" version="1.1" viewBox="0 0 6000 3000">
  <!-- Generator: Adobe Illustrator 30.5.1, SVG Export Plug-In . SVG Version: 2.1.4 Build 3)  -->
  <path id="C2" d="M1750.34601,1605.89024l-891.27655-891.27655c-2.86755-16.87372-4.37329-32.61658-4.53601-47.20264l895.81256,895.81256.00586-.00586.0058.00586,907.90631-907.90625c1.05298,5.91663,1.66345,11.38312,1.72412,16.17542.099,7.82361-.35632,16.68719-1.2229,25.99005l-908.40753,908.40741-.0058-.00586-.00586.00586ZM2425.85236,378.0687c-10.57886-6.81805-20.23657-12.96063-28.74072-18.38678l-646.75977,646.7597-647.00067-647.00067c-8.46857,5.57104-17.98059,12.0611-27.99823,19.12933l674.9989,674.99891,675.50049-675.50049Z" fill="#a41123"/>
  <path id="C1" d="M1750.35187,1006.44163l-647.00067-647.00067c4.30402-2.83142,8.33258-5.42072,12.02618-7.73236l634.97449,634.97449,634.71631-634.71637c3.69006,2.37994,7.7251,4.9599,12.04346,7.71521l-646.75977,646.7597ZM1750.35187,1628.68784l.0058.00586,905.10602-905.1059c1.375-8.7699,2.51111-17.61926,3.30151-26.10492l-908.40753,908.40735-.0058-.00586-.00586.00586-891.27655-891.27655c1.5708,9.24365,3.54248,18.81964,5.93579,28.73907l885.34076,885.34094.00586-.00586ZM1750.35187,1563.21775l.0058.00586,907.90631-907.90625c-6.66187-37.43201-31.16711-93.01923-48.05359-111.82458-19.55554-21.77777-61.33325-81.77777-120.88879-123.11108-23.14917-16.06622-44.73999-30.24207-63.46912-42.31299l-675.50055,675.50048-674.99896-674.99891c-34.37482,24.25403-74.69055,55.30933-99.14252,79.36695-41.33337,40.66669-84.66663,96-105.33337,133.33331-11.17384,20.18506-16.68373,45.64258-16.34364,76.1405l895.81256,895.81256.00586-.00586Z"/>
</svg>