<?xml version="1.0" encoding="UTF-8"?>
<svg id="Layer_8" xmlns="http://www.w3.org/2000/svg" version="1.1" viewBox="0 0 6000 3000">
  <!-- Generator: Adobe Illustrator 30.5.1, SVG Export Plug-In . SVG Version: 2.1.4 Build 3)  -->
  <path id="C1" d="M1688.23254,2861.92865l-24.42578,38.21533c-5.75311-.05835-11.50574-.11353-17.26031-.17993l25.01642-39.13965c8.95685-21.24878,18.20605-44.24731,19.93896-52.53076,3.52625-16.85205,14.12024-44.19678,40.45856-71.35376,14.48419-14.93457,36.24579-36.75342,53.52539-54.34741l103.1203-161.33374c8.95581-21.24878,18.203-44.24658,19.93689-52.52881,3.52722-16.85254,14.12134-44.19702,40.45959-71.35327,14.48218-14.93457,36.2428-36.75244,53.52344-54.34668l103.12329-161.33777c8.95496-21.24792,18.20105-44.24365,19.93591-52.52563,3.52722-16.85181,14.12134-44.19702,40.45752-71.35413,14.48413-14.93323,36.2428-36.75037,53.52246-54.34448l103.12622-161.3418c8.95496-21.24756,18.20105-44.24133,19.93494-52.52405,3.52734-16.85095,14.12024-44.19653,40.45654-71.35364,14.05859-14.49329,34.95569-35.45947,51.97168-52.76636h16.02087c.49805-1.61633.98999-3.20789,1.47485-4.7666l7.8208-12.2356c.18457,1.37219.3855,2.85974.6051,4.47913l-7.71826,12.07544c-5.70984,18.37488-12.48816,41.20264-17.50342,56.77551-9.12219,28.32056-32.91711,54.77283-50.33081,70.68591-8.55774,7.81921-28.25171,30.10242-46.07263,50.74817l-103.1344,161.35583c-5.71082,18.37463-12.48816,41.20154-17.50439,56.77356-9.12317,28.32104-32.91516,54.77332-50.32971,70.68616-8.55969,7.81921-28.24963,30.10144-46.06958,50.74622l-103.13745,161.35938c-5.71082,18.37451-12.48828,41.2002-17.50537,56.77222-9.12122,28.32031-32.91504,54.77295-50.32886,70.68579-8.55762,7.81909-28.24866,30.09937-46.06763,50.74414l-103.14148,161.36328c-5.71082,18.37476-12.48517,41.19922-17.50238,56.77051-9.12219,28.3208-32.91608,54.77368-50.33081,70.68628-8.55664,7.81812-28.24457,30.09766-46.06659,50.74146l.00012-.00024ZM2110.31567,2768.75922c17.41577-15.91357,41.20862-42.36597,50.33081-70.68677,5.01526-15.57129,11.7926-38.39575,17.50342-56.77051l103.14038-161.36353c17.81787-20.64404,37.51001-42.9248,46.06665-50.74365,17.41577-15.91284,41.20959-42.36499,50.33081-70.68628,5.01721-15.57178,11.7937-38.39746,17.50452-56.77173l53.78186-84.14331c-.8479-8.09644-1.53308-16.10205-2.03418-24.00049l-68.39819,107.00903c-17.28064,17.59375-39.03821,39.41162-53.52441,54.34619-26.33728,27.15698-36.9292,54.50146-40.45752,71.35376-1.73291,8.28247-10.9801,31.27954-19.93701,52.52832l-103.12134,161.33398c-17.27966,17.59424-39.03918,39.41284-53.52441,54.34717-26.3363,27.15723-36.9303,54.50244-40.45862,71.35449-1.73401,8.28296-10.98218,31.28101-19.93799,52.53076l-51.38855,80.39844c5.86597-.11157,11.73438-.23535,17.60217-.35645l50.45593-78.93823c17.81787-20.64404,37.50793-42.92261,46.06555-50.74072l.00012-.00049ZM1922.30652,2789.97333c17.41675-15.91333,41.20862-42.36621,50.33069-70.68726,5.01636-15.5708,11.7937-38.39551,17.50354-56.76978l103.14038-161.36353c17.82007-20.64453,37.51099-42.92505,46.0686-50.7439,17.4137-15.91333,41.20764-42.36548,50.32971-70.68628,5.01624-15.57153,11.7937-38.39746,17.50452-56.77197l103.13635-161.35962c17.82202-20.64478,37.51196-42.92615,46.07068-50.74585,17.41467-15.91309,41.20764-42.36536,50.32971-70.68628,5.01624-15.5719,11.79358-38.39905,17.50439-56.77295l33.40674-52.26501c.28101-9.3645.4939-18.76648.65002-28.20093l-50.70728,79.33337c-17.28162,17.59412-39.04016,39.41113-53.52344,54.34485-26.33728,27.15686-36.9303,54.50171-40.45764,71.35376-1.73486,8.28198-10.9801,31.27808-19.93701,52.52637l-103.12427,161.33728c-17.27954,17.59424-39.03821,39.41187-53.52246,54.34668-26.33618,27.15674-36.93127,54.50122-40.45752,71.35352-1.73389,8.28247-10.98206,31.27954-19.93689,52.52856l-103.12134,161.33374c-17.27954,17.59424-39.04224,39.41309-53.52637,54.34766-26.3363,27.15649-36.92932,54.50171-40.45862,71.35376-1.73389,8.28345-10.98108,31.28149-19.93793,52.53052l-39.05444,61.10205c5.80438-.01758,11.6087-.03247,17.41327-.05933l38.31091-59.93848c17.81995-20.64429,37.50989-42.92334,46.06555-50.74097h.00012ZM2298.32507,2747.54462c17.4137-15.91333,41.20764-42.36646,50.32971-70.68628,5.01526-15.57178,11.7926-38.39673,17.50244-56.77124l103.14038-161.36279c6.18115-7.16089,12.58691-14.51782,18.67578-21.40063-2.81567-16.77856-6.07556-33.97827-9.51099-51.40869-2.8866,7.23828-4.75879,13.75024-5.89355,19.17188-1.73401,8.28271-10.98108,31.28003-19.93701,52.52881l-103.12134,161.33398c-17.28064,17.59375-39.04126,39.41284-53.52637,54.34741-26.33728,27.15625-36.9292,54.5022-40.45654,71.35352-1.73486,8.28296-10.98303,31.28174-19.93896,52.53101l-61.82117,96.72046c5.92883-.21436,11.8551-.42139,17.78772-.64624l60.70422-94.97046c17.81787-20.64404,37.50696-42.92261,46.06555-50.74072h.00012ZM2486.3324,2726.32977c7.47766-6.83301,16.13013-15.61304,24.29346-25.64575-1.62659-23.70874-3.02734-47.44971-4.46021-71.19263-8.12549,8.22681-15.84277,16.06616-22.17102,22.59131-26.34033,27.15649-36.93127,54.50195-40.45862,71.35352-1.73401,8.28247-10.98218,31.28125-19.93896,52.53125l-70.67236,110.56812c5.83667-.09619,11.67981-.16626,17.52551-.2334l69.81763-109.23096c17.81787-20.64429,37.50793-42.92334,46.06458-50.74146ZM1119.69544,1870.31012c5.01526-15.57263,11.7926-38.40015,17.50446-56.77515l103.13135-161.35181c17.82196-20.64673,37.51599-42.93079,46.07465-50.75061,17.41571-15.91333,41.20862-42.36511,50.32977-70.68604,5.01727-15.57324,11.79565-38.40198,17.50647-56.77673l79.4635-124.3219h-3.47083l-76.70178,120.00244c-5.71082,18.37439-12.48718,41.19922-17.50342,56.77051-9.12219,28.3208-32.91608,54.77344-50.33081,70.68591-8.5556,7.8186-28.24561,30.09778-46.06555,50.74146l-11.27142,17.63391h-13.90533l-93.91223,146.92407c-15.18042,15.45764-33.81622,34.17261-47.94177,48.61743.68347,25.05933,1.29803,50.12048,1.85718,75.18079,16.6889-16.1427,36.97552-40.25244,45.23578-65.89429ZM1050.09912,2768.58783l103.1394-161.36328c17.82001-20.64502,37.51093-42.92505,46.0686-50.74365,17.41473-15.91357,41.20862-42.36548,50.33081-70.68604,5.0152-15.57202,11.79358-38.39819,17.50238-56.77197l103.13843-161.36011c17.82001-20.64453,37.51294-42.92651,46.0686-50.74536,17.41473-15.91333,41.21063-42.36584,50.33179-70.68604,5.01624-15.57251,11.7926-38.39941,17.50446-56.77405l103.1344-161.35559c17.82196-20.64612,37.51392-42.92883,46.07159-50.74817,17.41473-15.91333,41.20862-42.36572,50.33081-70.68665,5.01624-15.57263,11.79462-38.40039,17.50439-56.77515l103.13239-161.35181c17.82202-20.64636,37.51697-42.93091,46.07367-50.75085,17.41467-15.91296,41.20856-42.36536,50.32977-70.68591,5.01831-15.57312,11.79663-38.40161,17.50745-56.77698l38.78418-60.67859h-3.47046l-36.0238,56.35925c-5.71082,18.37463-12.48816,41.19922-17.50342,56.77051-9.12219,28.3208-32.91504,54.77344-50.33075,70.68689-8.55768,7.81836-28.24762,30.09668-46.06561,50.74084l-51.95074,81.27673h-13.90442l-53.23175,83.28088c-17.27863,17.59375-39.03821,39.41016-53.52039,54.34277-26.33728,27.15723-36.93127,54.50195-40.45862,71.354-1.73291,8.28235-10.97906,31.276-19.93591,52.52344l-103.12433,161.34204c-17.27863,17.59424-39.03918,39.41162-53.52136,54.34485-26.33929,27.15613-36.93329,54.50134-40.46063,71.35327-1.73291,8.28247-10.98004,31.27783-19.93494,52.52686l-103.12427,161.3374c-17.27966,17.59375-39.03925,39.41211-53.52344,54.34644-26.33728,27.15674-36.93024,54.50098-40.45856,71.35376-1.73291,8.28198-10.97906,31.2793-19.93695,52.52808l-103.11926,161.33423c-8.72314,8.88037-18.58545,18.83545-28.07867,28.43994-1.21539,16.87598-2.27637,33.49463-3.13995,49.73462-.55286,10.39575,1.00848,17.66724,6.09167,22.57178,10.15558-12.82935,19.34839-27.56006,24.27008-42.83813,5.01721-15.57178,11.79358-38.39648,17.50342-56.77075l-.00006.00049ZM1079.133,2450.237l103.13745-161.35962c17.81897-20.64526,37.51093-42.92676,46.06958-50.74585,17.41473-15.91357,41.20862-42.36584,50.32977-70.68665,5.0163-15.57202,11.79364-38.39868,17.50543-56.77344l103.13342-161.35608c17.823-20.64539,37.51599-42.92883,46.07159-50.7478,17.41577-15.91284,41.20862-42.36621,50.33081-70.68628,5.01624-15.573,11.79462-38.40039,17.50543-56.77478l103.13342-161.35242c17.82092-20.64612,37.51495-42.93079,46.07257-50.75037,17.41376-15.91309,41.20862-42.36584,50.33179-70.68616,5.01526-15.57312,11.79468-38.40173,17.50446-56.7771l52.34497-81.89282h-3.47137l-49.58368,77.57373c-5.70984,18.37439-12.48718,41.19922-17.50342,56.76978-9.12219,28.32117-32.91406,54.77405-50.33081,70.68726-8.55566,7.81787-28.24561,30.09705-46.06555,50.74109l-38.39001,60.06238h-13.90509l-66.79089,104.49512c-17.2796,17.59338-39.03815,39.40991-53.51935,54.34314-26.33929,27.15686-36.93231,54.50232-40.45959,71.354-1.73389,8.28235-10.97906,31.276-19.93591,52.52307l-103.12537,161.3418c-17.28064,17.59448-39.03918,39.41162-53.52234,54.34485-26.33734,27.15686-36.9303,54.50232-40.45862,71.35437-1.73291,8.28198-10.97906,31.27808-19.93591,52.52588l-103.12335,161.33765c-7.5166,7.65283-15.88007,16.10498-24.12384,24.44238-1.47766,10.5166-2.82587,21.02759-3.99719,31.53052-2.02411,18.15039-4.11102,36.75659-6.20935,55.6521,13.5343-15.01465,27.09448-33.90625,33.47656-53.71753,5.01624-15.57129,11.79358-38.39771,17.50439-56.77197v-.00024ZM1098.39758,1622.64667c17.41467-15.91333,41.20758-42.36548,50.32977-70.68604,5.01727-15.57312,11.79565-38.40173,17.50543-56.77673l93.02332-145.53601h-3.47009l-90.26233,141.21667c-5.70978,18.37439-12.48718,41.19983-17.50238,56.77051-9.12421,28.32056-32.91711,54.77368-50.33185,70.68652-6.14673,5.61633-18.04034,18.6969-30.85669,33.27136-.12091,1.76318-.2666,3.62024-.4541,5.64685,13.25562-15.10083,25.68555-28.80713,32.01892-34.5929v-.00024ZM1108.16596,2131.8858l103.13538-161.35571c17.82098-20.64551,37.513-42.92883,46.07166-50.7478,17.41467-15.91321,41.20856-42.36609,50.32977-70.68616,5.01721-15.573,11.79358-38.40039,17.50543-56.77515l103.13239-161.35217c17.82098-20.64673,37.51599-42.9314,46.07263-50.75037,17.41467-15.91333,41.20959-42.36548,50.33276-70.68677,5.01422-15.57251,11.79462-38.40137,17.50446-56.77637l65.90369-103.10754h-3.46967l-63.14417,98.78796c-5.71082,18.37463-12.48511,41.1991-17.50238,56.77039-9.12219,28.3208-32.91608,54.77368-50.33081,70.68628-8.55664,7.81836-28.24457,30.09778-46.06653,50.74146l-24.8302,38.84814h-13.90521l-80.35156,125.70959c-17.27863,17.59338-39.03717,39.40991-53.52039,54.34314-26.33832,27.15723-36.9303,54.50208-40.45758,71.354-1.73492,8.28198-10.9801,31.27612-19.93591,52.52344l-103.12433,161.34167c-4.22864,4.30505-8.72693,8.8645-13.31946,13.51257.10223,6.74011.20483,13.48083.30585,20.21912.26025,17.3656-.31494,34.78198-1.51324,52.23755,5.71234-8.90454,10.5517-18.37427,13.67297-28.06348,5.01624-15.57239,11.79364-38.39917,17.50446-56.77393v.00012ZM1546.29083,2832.40131c17.41473-15.9126,41.20862-42.36499,50.33081-70.68579,5.01624-15.57129,11.7926-38.396,17.50342-56.77051l103.13843-161.36353c17.82098-20.64429,37.51093-42.92529,46.0686-50.7439,17.41467-15.91284,41.20758-42.36572,50.32977-70.68604,5.01721-15.57202,11.79462-38.39795,17.50543-56.77197l103.13641-161.35938c17.81995-20.64539,37.51099-42.92725,46.0686-50.74548,17.41577-15.91357,41.20862-42.36646,50.33179-70.68701,5.01636-15.5719,11.79468-38.39868,17.50537-56.77344l103.13452-161.35608c17.82092-20.64502,37.51392-42.92859,46.07153-50.7478,17.41577-15.91284,41.20752-42.36572,50.33081-70.68591,5.01428-15.573,11.79468-38.40076,17.50354-56.77551l103.13245-161.35181c17.82202-20.64661,37.51587-42.9314,46.07458-50.75073,5.59607-5.1134,11.85046-11.31982,18.06543-18.32214-.20117-1.4751-.4032-2.95569-.60559-4.44116-6.24866,7.04956-12.54089,13.29626-18.16785,18.43787-8.55566,7.81824-28.24561,30.09705-46.06458,50.74109l-92.62915,144.92004h-13.90576l-12.55212,19.63782c-17.28064,17.59338-39.03821,39.40979-53.52136,54.34314-26.3363,27.15686-36.9303,54.50208-40.45862,71.35339-1.73401,8.28235-10.97815,31.27747-19.93494,52.52405l-103.12634,161.34204c-17.27966,17.59351-39.03723,39.41089-53.52234,54.34448-26.33618,27.15649-36.9292,54.50208-40.45752,71.354-1.73389,8.28198-10.97998,31.2782-19.93494,52.52588l-103.12531,161.33765c-17.27759,17.59424-39.03918,39.4126-53.5224,54.34644-26.33728,27.15649-36.93127,54.50171-40.45856,71.35352-1.73395,8.28223-10.98212,31.27979-19.93799,52.5293l-103.12024,161.3335c-17.27863,17.59375-39.04022,39.41333-53.52441,54.34741-26.33832,27.15649-36.93127,54.50171-40.45959,71.35376-1.73193,8.28271-10.9801,31.28149-19.93695,52.53076l-9.44281,14.77295c5.70294.14087,11.40753.2854,17.10742.41919l9.00513-14.08838c17.81995-20.6438,37.50989-42.92285,46.06555-50.74146l-.00024-.00024ZM1358.28149,2853.61615c17.41473-15.91284,41.20764-42.36621,50.33179-70.68652,5.01526-15.5708,11.7926-38.39624,17.50244-56.77051l103.13947-161.36328c17.82092-20.64429,37.51093-42.9248,46.06757-50.74341,17.41571-15.91333,41.20959-42.36621,50.33276-70.68701,5.01526-15.57129,11.79266-38.39746,17.50244-56.77197l103.13641-161.35986c17.82196-20.64453,37.51398-42.92615,46.07062-50.74573,17.41473-15.91296,41.20862-42.36548,50.33075-70.68591,5.01526-15.57227,11.79364-38.3988,17.50446-56.77417l103.13647-161.3551c17.81995-20.64575,37.51196-42.92883,46.0686-50.74817,17.41772-15.91321,41.20959-42.36548,50.33179-70.68652,5.01624-15.57263,11.79468-38.40039,17.50537-56.77515l103.13135-161.35156c17.82092-20.64673,37.51599-42.93091,46.07471-50.75098,17.41467-15.91284,41.20862-42.36499,50.32971-70.68591,5.01624-15.57312,11.79663-38.40198,17.50537-56.7771l11.66455-18.24963h-3.46924l-8.90442,13.93127c-5.71082,18.37366-12.48718,41.19885-17.50342,56.77014-9.12207,28.32019-32.91614,54.77283-50.33081,70.68591-8.55664,7.81824-28.24658,30.09705-46.06458,50.74146l-79.06934,123.70557h-13.90613l-26.11145,40.85217c-17.28064,17.59338-39.03821,39.40991-53.52136,54.34314-26.33728,27.15649-36.9292,54.50195-40.45862,71.35364-1.73486,8.28198-10.97913,31.27649-19.93494,52.52368l-103.12537,161.34216c-17.2796,17.59338-39.03918,39.41113-53.52234,54.34399-26.3363,27.15723-36.9303,54.50244-40.45959,71.35449-1.73193,8.28125-10.97913,31.27722-19.93494,52.52551l-103.12231,161.33789c-17.28064,17.59399-39.04022,39.41211-53.52338,54.34619-26.33936,27.15698-36.93231,54.50171-40.46063,71.35376-1.73291,8.28247-10.9801,31.27979-19.93695,52.52881l-103.1203,161.33374c-17.2796,17.59448-39.04016,39.41284-53.52435,54.34741-26.33936,27.15698-36.93231,54.5022-40.45862,71.35327-1.4162,6.76294-7.84088,23.33594-15.02618,40.75659,7.41937.271,14.83386.53491,22.24561.79541,14.55157-16.66138,28.68066-32.35669,35.5769-38.65796l.00012.00024ZM1170.27319,2874.83026c17.41571-15.91284,41.20959-42.36548,50.33081-70.68652,5.01624-15.57056,11.79358-38.39575,17.50342-56.77002l103.1394-161.36328c17.82001-20.64453,37.51196-42.92529,46.0686-50.74365,17.41272-15.91333,41.20758-42.36572,50.33081-70.68677,5.01422-15.57153,11.79358-38.39746,17.50342-56.77173l103.13843-161.35986c17.81995-20.64478,37.51294-42.92651,46.06757-50.74585,17.41571-15.91321,41.20959-42.36548,50.33179-70.68628,5.01624-15.57153,11.79462-38.39905,17.50446-56.77368l103.13538-161.35547c17.82001-20.64612,37.513-42.92883,46.07166-50.74841,17.4137-15.91284,41.20758-42.36548,50.32977-70.68591,5.01624-15.57263,11.79462-38.40076,17.50543-56.77515l103.13245-161.35181c17.81897-20.64673,37.51599-42.93091,46.07361-50.75085,17.41467-15.91284,41.20752-42.3656,50.32971-70.68591,5.01721-15.57349,11.79565-38.40198,17.50647-56.77698l25.22437-39.46436h-3.47156l-22.46399,35.14478c-5.70984,18.37439-12.48718,41.19946-17.50244,56.77112-9.12219,28.31982-32.91614,54.77307-50.32971,70.68628-8.55859,7.81824-28.24768,30.09668-46.06555,50.74072l-65.5116,102.49133h-13.90491l-39.67157,62.06677c-17.27966,17.59338-39.03717,39.40991-53.52039,54.34302-26.33728,27.15662-36.93127,54.50171-40.45758,71.35339-1.73389,8.28235-10.9801,31.276-19.93591,52.52405l-103.12433,161.3418c-17.28064,17.59375-39.0412,39.41113-53.52344,54.34448-26.33728,27.15686-36.93127,54.50171-40.45959,71.35376-1.73285,8.28198-10.97906,31.27808-19.93591,52.52612l-103.12231,161.33813c-17.2796,17.59424-39.04016,39.41187-53.52338,54.34619-26.33929,27.15674-36.93231,54.50146-40.45862,71.35376-1.73389,8.28247-10.98206,31.27954-19.93793,52.52808l-103.12128,161.33447c-17.28064,17.59399-39.03918,39.41284-53.52441,54.34717-26.33728,27.15698-36.9303,54.50171-40.45862,71.354-.63708,3.04468-2.29474,8.08691-4.57477,14.29053,11.50037.67383,23.07623,1.20386,34.67303,1.6333,5.24091-5.67603,9.67065-10.26343,12.6991-13.03052l.00012-.00024ZM1155.75531,981.62244c17.41473-15.91327,41.21063-42.36578,50.33179-70.68597,5.01624-15.57263,11.7926-38.39941,17.50446-56.77411l103.1344-161.35547c17.82196-20.64606,37.51398-42.92889,46.07159-50.74817,17.41473-15.91321,41.20862-42.36578,50.33081-70.68658,5.01624-15.57263,11.79462-38.40045,17.50439-56.77515l50.63422-79.21783c-3.84576-3.2724-7.55219-6.53253-11.12732-9.77393l-56.16046,87.86292c-17.27863,17.59381-39.03821,39.41022-53.52039,54.34283-26.33728,27.15717-36.93127,54.50201-40.45862,71.35406-1.73285,8.28229-10.97906,31.27606-19.93591,52.52338l-103.12433,161.3421c-17.27863,17.59412-39.03918,39.4115-53.52136,54.34479-26.33929,27.15619-36.93329,54.5014-40.46063,71.35339-1.73285,8.28235-10.98004,31.27777-19.93488,52.52673l-70.68701,110.58942c2.28571,2.32367,5.9093,6.17804,10.29602,11.07507l77.05463-120.55206c17.82001-20.64471,37.513-42.92651,46.0686-50.74542ZM1035.58325,875.37689l103.13336-161.35614c17.823-20.64545,37.51599-42.92889,46.07159-50.74786,17.41577-15.91284,41.20862-42.36609,50.33081-70.68622,5.01624-15.573,11.79462-38.40045,17.50543-56.77484l103.13342-161.35248c14.43579-16.7243,30.09888-34.5213,40.07788-44.83643-10.22186-12.69397-19.24634-25.2204-27.01361-36.83038-5.20062,10.80634-8.20764,20.47021-9.78802,28.02264-1.73389,8.28198-10.98004,31.27509-19.93494,52.52173l-103.12836,161.34546c-17.2796,17.59344-39.03815,39.40985-53.51935,54.34308-26.33929,27.15686-36.93225,54.50238-40.45959,71.35406-1.73389,8.28235-10.97906,31.27612-19.93591,52.52307l-103.12537,161.3418c-17.28058,17.59442-39.03918,39.4115-53.52228,54.34479-3.23608,3.33661-6.23157,6.67596-9.0083,9.99847.9126,1.60071,1.78674,3.13745,2.61035,4.59247,6.02637,10.64673,12.77869,28.79871,19.27228,49.43878,15.43756-15.87469,32.41669-37.55896,39.7951-60.46857,5.0163-15.57196,11.79364-38.3988,17.50549-56.77344ZM1126.72339,1299.97198c17.41272-15.91321,41.20758-42.36572,50.33081-70.68652,5.01422-15.57166,11.79358-38.39746,17.50342-56.77179l103.13843-161.35986c17.81995-20.64471,37.51294-42.92651,46.06757-50.74579,17.41571-15.91321,41.20966-42.36542,50.33179-70.68628,5.0163-15.57159,11.79462-38.39911,17.50446-56.77374l103.13544-161.35553c17.81995-20.64606,37.51294-42.92883,46.07159-50.74847,17.4137-15.9129,41.20758-42.36542,50.32977-70.68591,3.06494-9.51501,6.7879-21.7392,10.52313-34.00067-7.84015-3.50201-15.4068-7.065-22.70587-10.67944-14.258,14.43195-29.47388,29.7641-40.48682,41.11926-26.33728,27.15649-36.93127,54.50171-40.45758,71.35339-1.73389,8.28235-10.9801,31.27612-19.93591,52.52405l-103.12433,161.3418c-17.28064,17.59375-39.0412,39.41119-53.52338,54.34442-26.33734,27.15686-36.93134,54.50171-40.45959,71.35376-1.73291,8.28198-10.97913,31.27808-19.93597,52.52606l-103.12231,161.33807c-17.2796,17.59418-39.04016,39.41193-53.52338,54.34613-11.03033,11.37268-19.29065,22.77527-25.43536,33.42944,1.59894,5.52527,2.97345,11.2915,4.09406,17.35913,3.21179,17.39099,2.9942,34.02478,2.08862,46.28284,9.08093-10.13843,16.96503-18.59692,21.59143-22.82434ZM1149.57715,1494.05829l92.30554-144.41064h13.90332l12.87714-20.14648c17.82098-20.64441,37.51093-42.92493,46.06757-50.74341,17.41571-15.91321,41.20959-42.36621,50.33282-70.68701,5.0152-15.57129,11.7926-38.39746,17.50238-56.77179l103.13641-161.3598c17.82202-20.64471,37.51398-42.92621,46.07062-50.74579,17.41473-15.9129,41.20862-42.36548,50.33081-70.68597,5.0152-15.57227,11.79358-38.39874,17.50439-56.77411l103.13641-161.35516c17.82001-20.64575,37.51196-42.92883,46.0686-50.74811,13.12115-11.98779,29.85681-29.95746,41.21625-50.20038-22.87909,7.35669-37.4635,11.08374-37.4635,11.08374-9.6134-2.39893-18.95428-4.89032-28.0401-7.46338-10.84076,17.06683-16.19421,32.63367-18.50897,43.68628-1.73492,8.28198-10.97906,31.27643-19.93494,52.52374l-103.12531,161.3421c-17.27966,17.59344-39.03925,39.41119-53.5224,54.34412-26.3363,27.15717-36.9303,54.50238-40.45959,71.35443-1.73193,8.28131-10.97906,31.2774-19.93494,52.5257l-103.12231,161.33777c-17.28064,17.59412-39.04022,39.41223-53.52338,54.34607-26.33936,27.15723-36.93231,54.50171-40.46063,71.35376-1.73291,8.28259-10.98004,31.27979-19.93695,52.52881l-103.12024,161.33374c-17.27966,17.59448-39.04022,39.41284-53.52441,54.34741-7.28235,7.5083-13.35596,15.03015-18.41437,22.34155-.34601,2.3324-.68909,4.62817-1.02893,6.88489,5.38635-8.10864,12.01495-16.51318,20.14935-24.90088,14.48322-14.93237,36.23975-36.74805,53.51935-54.34131v.00012ZM2310.50244,461.73975c-26.34033,27.15649-36.93225,54.50171-40.45959,71.3537-1.73401,8.28198-10.97913,31.27612-19.93591,52.52338l-103.12427,161.3418c-17.28162,17.59412-39.04016,39.41119-53.52344,54.34479-26.33728,27.15686-36.9303,54.50171-40.45752,71.35376-1.73486,8.28198-10.9801,31.27808-19.93701,52.52637l-103.12427,161.3374c-17.27966,17.59412-39.03821,39.41187-53.5224,54.3465-26.3363,27.1568-36.93127,54.50128-40.45758,71.3537-1.73395,8.28235-10.98212,31.27942-19.93695,52.52832l-103.12128,161.33374c-17.27966,17.59436-39.04224,39.41321-53.52643,54.34778-26.3363,27.15662-36.92926,54.50171-40.45862,71.35376-1.73389,8.28333-10.98108,31.28137-19.93793,52.5304l-39.09564,61.16675h3.47028l36.33746-56.85034c8.95483-21.24658,18.20105-44.23975,19.93494-52.52173,3.52631-16.85144,14.11926-44.19653,40.45862-71.35339,14.48218-14.93286,36.23871-36.74805,53.51935-54.34155l51.62415-80.76721h13.90405l53.55676-83.78967c17.81995-20.64441,37.51093-42.9248,46.0686-50.74377,17.4137-15.91321,41.20752-42.36548,50.32971-70.68628,5.01624-15.57159,11.79358-38.3974,17.50439-56.77209l103.13635-161.3595c17.82202-20.64471,37.51196-42.92621,46.07068-50.74579,17.41467-15.91321,41.20764-42.36548,50.32971-70.68628,5.01624-15.57196,11.79358-38.39911,17.50439-56.77313l103.1355-161.35614c17.82092-20.64606,37.51404-42.92889,46.07068-50.74847,17.41565-15.9129,41.20959-42.36548,50.33179-70.68591,5.01526-15.57263,11.7926-38.40082,17.50452-56.77533l27.87378-43.6087c-4.36975-2.78662-8.49866-5.41772-12.34167-7.8761l-32.18579,50.35547c-17.27966,17.59344-39.03723,39.41052-53.51941,54.34381ZM2370.95129,1466.92743c-1.73291,8.28235-10.97998,31.28137-19.93689,52.53076l-93.33569,146.0238h3.47058l90.57727-141.70789c8.95288-21.24646,18.19897-44.2395,19.93396-52.52075,3.52637-16.85217,14.11926-44.19751,40.45764-71.35449,3.56104-3.67163,7.57007-7.76709,11.83606-12.10583-.09253-.87097-.18628-1.74133-.27698-2.61316-.06775-.65173-.13306-1.29785-.19983-1.94751-4.35522,4.42908-8.43909,8.6012-12.06641,12.34119-26.33923,27.15649-36.93225,54.50195-40.45959,71.35376l-.00012.00012ZM2597.0896,861.54034l-103.1228,161.33777c-17.28015,17.59412-39.03967,39.41187-53.52393,54.34613-26.33728,27.1568-36.9303,54.50201-40.45959,71.35339-1.73181,8.28265-10.979,31.28009-19.93494,52.52899l-103.12134,161.33374c-17.28064,17.59375-39.04016,39.41284-53.52441,54.34741-26.34033,27.15649-36.93127,54.50208-40.45862,71.35376-1.73401,8.28259-10.98218,31.28137-19.93896,52.53113l-79.77502,124.80933h3.47034l77.01587-120.49353c8.95581-21.24658,18.20105-44.23975,19.93494-52.52112,3.52722-16.85205,14.12024-44.19727,40.45752-71.35388,14.48328-14.93237,36.24072-36.74829,53.51941-54.34131l10.94678-17.12451h13.90417l94.23499-147.43262c17.81995-20.64441,37.51196-42.92523,46.0686-50.74384,17.41516-15.91321,41.20959-42.36578,50.33069-70.68628,5.01477-15.57196,11.79309-38.39777,17.50403-56.77173l100.00208-156.45306c12.93994-27.58569,26.94495-63.93164,33.94653-81.26904,4.35486-10.78339,8.99915-28.72845,12.67041-48.36932-26.15271,27.07086-36.69336,54.29443-40.21094,71.09241-1.73389,8.28198-10.979,31.27777-19.93591,52.52606l.00012.00012ZM2469.47669,758.87469c-26.33777,27.15723-36.93176,54.50171-40.45764,71.35413-1.73535,8.28198-10.9801,31.27771-19.93799,52.5257l-103.12329,161.33777c-17.27869,17.59442-39.03821,39.41187-53.52344,54.34644-26.33728,27.15649-36.9303,54.50171-40.45752,71.35339-1.73389,8.28265-10.98108,31.28009-19.93701,52.52875l-103.12134,161.33411c-17.28064,17.59375-39.04126,39.41284-53.52637,54.34741-26.33728,27.15613-36.9292,54.50195-40.45654,71.35339-1.73486,8.28296-10.98315,31.28174-19.93896,52.53113l-66.21521,103.59509h3.46948l63.45679-99.27917c8.95581-21.24646,18.20105-44.23975,19.93396-52.52112,3.52832-16.85193,14.12231-44.19702,40.45959-71.35376,14.48218-14.93262,36.23975-36.74841,53.51831-54.34131l24.50562-38.33899h13.90393l80.67651-126.21802c17.81995-20.64465,37.51196-42.92517,46.06763-50.74377,17.41577-15.9129,41.20862-42.36578,50.33081-70.68658,5.01624-15.57166,11.79468-38.39746,17.50342-56.77179l103.13892-161.35986c17.81897-20.64502,37.51147-42.92651,46.06909-50.74579,17.41431-15.9129,41.20862-42.36578,50.33081-70.68628,5.01575-15.57196,11.79309-38.39874,17.50391-56.77344l89.33325-139.76184c-2.88147-5.19489-5.74292-9.88501-8.49963-13.88861l-97.48523,152.51862c-17.27905,17.59344-39.0387,39.41119-53.52185,54.34442ZM2430.09021,1665.48199h4.96448c.51624-.52515,1.04089-1.05811,1.54968-1.57605l21.68323-33.92346c-.10791-.75879-.37378-2.2052-.76575-4.2301l-21.61804,33.82153c-1.88916,1.92407-3.83215,3.89771-5.8136,5.9082v-.00012ZM865.3833,614.91089c.04065-.13269.08203-.26825.1228-.40125-.04089.13379-.08228.26709-.1228.40125ZM2458.05115,511.87897c-1.7345,8.28198-10.979,31.27643-19.93591,52.52368l-103.12427,161.3421c-17.28064,17.59314-39.04016,39.41119-53.52246,54.34448-26.33838,27.15649-36.93225,54.50134-40.45862,71.35339-1.73389,8.28198-10.979,31.27808-19.93591,52.52643l-103.12427,161.33807c-17.28064,17.59375-39.03821,39.4115-53.52441,54.34613-26.33728,27.1568-36.9292,54.50134-40.45752,71.35376-1.73291,8.28235-10.97998,31.27954-19.93701,52.52844l-103.12134,161.33374c-17.2796,17.59412-39.03918,39.41284-53.52441,54.34717-26.33624,27.15723-36.93024,54.50232-40.45856,71.35437-1.73389,8.28296-10.98212,31.28113-19.93793,52.53076l-52.65546,82.38049h3.46997l49.89758-78.0647c8.95386-21.24658,18.20105-44.23987,19.93292-52.52161,3.52728-16.85168,14.12128-44.19653,40.45959-71.35339,14.48218-14.93274,36.23871-36.74805,53.51843-54.34155l38.06543-59.5531h13.90491l67.11658-105.00415c17.81787-20.64404,37.51001-42.92493,46.06665-50.74377,17.41577-15.91284,41.20959-42.36517,50.33081-70.68628,5.01721-15.57166,11.79358-38.39746,17.50439-56.77179l103.13647-161.3598c17.82092-20.64478,37.51294-42.92621,46.07166-50.74548,17.41272-15.91357,41.20764-42.36578,50.32971-70.68665,5.01526-15.57227,11.7926-38.39874,17.50439-56.77344l103.13501-161.35547c17.82092-20.64575,37.5144-42.92853,46.07007-50.74817,13.53552-12.36743,30.91968-31.10181,42.27783-52.13068-10.90869-10.72931-22.80139-21.38727-35.61743-31.33447-3.20874,3.27057-6.23706,6.37054-8.99829,9.21771-26.33679,27.15686-36.9303,54.50201-40.45862,71.35376ZM2122.49109,482.95355c-26.3363,27.15717-36.92932,54.50275-40.45654,71.35376-1.73389,8.28265-10.97998,31.27643-19.93494,52.52405l-103.12634,161.3418c-17.27966,17.59412-39.03821,39.41119-53.52234,54.34442-26.3363,27.15717-36.9303,54.50238-40.45758,71.35406-1.73492,8.28198-10.98108,31.27777-19.93591,52.52576l-103.12335,161.33771c-17.28064,17.59448-39.0412,39.41223-53.52338,54.3468-26.33832,27.15656-36.93231,54.50104-40.45959,71.35345-1.73389,8.28198-10.98108,31.27966-19.93695,52.52869l-103.1203,161.33374c-17.2796,17.59412-39.0412,39.41284-53.52539,54.34741-26.33832,27.15686-36.93231,54.50171-40.45856,71.35376-1.73291,8.28333-10.98212,31.28174-19.93896,52.53076l-25.53589,39.95215h3.47021l22.77777-35.63574c8.95587-21.24683,18.20105-44.23987,19.93396-52.52136,3.52826-16.85205,14.12128-44.19702,40.45856-71.35388,14.48218-14.93298,36.23975-36.74829,53.51935-54.34155l65.18396-101.98169h13.9057l39.99731-62.5752c17.81897-20.64465,37.50995-42.92517,46.06757-50.74414,17.4137-15.91284,41.20764-42.36548,50.3288-70.68591,5.01727-15.57196,11.79462-38.39777,17.50543-56.77209l103.13745-161.3595c17.81995-20.64478,37.50995-42.92688,46.06964-50.74615,17.41467-15.9129,41.20654-42.36511,50.32971-70.68628,5.01624-15.57196,11.79358-38.39874,17.50452-56.77344l103.13428-161.35583c17.82092-20.64575,37.51501-42.92889,46.07263-50.74817,17.4137-15.91321,41.20862-42.36542,50.33081-70.68591,5.01526-15.57294,11.79358-38.40076,17.50342-56.77563l89.44861-139.94342c-4.48413-2.35754-8.85034-4.64264-13.0177-6.8158l-93.08459,145.63092c-17.27869,17.59277-39.03613,39.40948-53.52136,54.34241v.00006ZM1894.02515,575.52148c-1.73389,8.28235-10.97809,31.2774-19.93494,52.52405l-103.12634,161.3421c-17.2796,17.59344-39.03717,39.41089-53.5224,54.34448-26.33624,27.15649-36.92926,54.50201-40.45752,71.35406-1.73395,8.28198-10.9801,31.27808-19.93494,52.5257l-103.12537,161.33777c-17.27759,17.59412-39.03918,39.41254-53.5224,54.34656-26.33728,27.15649-36.93127,54.50171-40.45856,71.35339-1.73389,8.28235-10.98212,31.27966-19.93793,52.52942l-103.1203,161.33337c-17.27863,17.59375-39.04022,39.41321-53.52441,54.34741-26.33832,27.15649-36.93127,54.50171-40.45959,71.35376-1.73187,8.28259-10.9801,31.28137-19.93695,52.53076l-11.97711,18.73767h3.47009l9.21814-14.42163c8.95386-21.24658,18.20001-44.23987,19.9339-52.52124,3.52832-16.85168,14.12134-44.19702,40.45758-71.35376,14.48322-14.93286,36.24078-36.74841,53.51935-54.34143l78.74475-123.19629h13.9046l26.43665-41.36096c17.82098-20.64404,37.51093-42.92517,46.0686-50.74377,17.41467-15.91284,41.20758-42.36572,50.32977-70.68591,5.01721-15.57196,11.79462-38.39777,17.50543-56.77209l103.13641-161.3595c17.81995-20.64539,37.51093-42.92719,46.0686-50.74548,17.41571-15.91351,41.20856-42.36646,50.33179-70.68689,5.01624-15.57196,11.79462-38.3988,17.50543-56.77344l103.13446-161.3562c17.82092-20.64508,37.51404-42.92853,46.07153-50.7478,17.41577-15.9129,41.20752-42.36578,50.33081-70.68591,5.01416-15.573,11.79468-38.40082,17.50342-56.77545l11.36499-17.78064c-12.96802,10.53516-27.25659,21.22302-42.87463,31.72009-13.72168,13.88361-28.11951,28.40192-38.66443,39.27448-26.33618,27.1568-36.9303,54.50201-40.45862,71.35339l.00012-.00006ZM996.78095,684.48743c17.41467-15.91321,41.20862-42.36615,50.32977-70.68628,5.01721-15.57294,11.79358-38.40045,17.50543-56.77509l103.13239-161.35217c17.82098-20.64673,37.51599-42.9314,46.07263-50.75031,17.41467-15.91339,41.20959-42.36548,50.33276-70.68677.77039-2.39258,1.58636-4.97235,2.42987-7.66504-13.54572,8.7489-54.15778,32.74396-87.94183,52.16309-3.88867,8.89703-6.27026,16.8623-7.61713,23.29535-1.73291,8.28143-10.97809,31.27454-19.93396,52.52136l-103.12933,161.34528c-17.27863,17.59344-39.03717,39.40985-53.52039,54.34314-26.33826,27.15717-36.9303,54.50201-40.45764,71.35406-1.73486,8.28198-10.97998,31.27606-19.93579,52.52338l-45.29395,70.86407c2.20288,5.51733,4.49475,11.01147,6.85449,16.45966l55.10107-86.20593c17.82092-20.64539,37.51294-42.92889,46.07159-50.7478h.00002ZM2089.61975,1387.98676c-17.27856,17.59277-39.03613,39.40869-53.51831,54.34131-26.33728,27.15674-36.93127,54.50183-40.45959,71.35376-1.73291,8.28125-10.97815,31.27454-19.93396,52.52112l-63.45679,99.27917h13.90491l65.5116-102.49133c17.81787-20.64404,37.50696-42.92261,46.06555-50.74072,17.4137-15.91321,41.20752-42.36646,50.32971-70.68628,5.01526-15.57166,11.7926-38.39685,17.50244-56.77112l22.46399-35.14478h-13.90381l-24.50562,38.33911-.00012-.00024ZM2435.05481,1665.48199h16.02087c.49805-1.61633.98999-3.20789,1.47485-4.7666l7.8208-12.2356c-2.02307-15.0448-2.02759-15.94836-2.02759-17.96631,0-.09668-.02051-.28088-.05603-.53101l-21.68323,33.92346c-.50879.51807-1.03345,1.05103-1.54968,1.57605ZM2371.6604,1471.25336c-1.73486,8.28113-10.98108,31.27417-19.93396,52.52075l-90.57727,141.70789h13.90576l92.62915-144.92004c17.81897-20.64404,37.50891-42.92285,46.06458-50.74109,5.62683-5.1416,11.91919-11.38843,18.16785-18.43787-2.78772-20.45825-5.65918-41.89038-7.96252-63.58984-4.26599,4.33875-8.2749,8.4342-11.83606,12.10583-26.33838,27.15698-36.93127,54.5022-40.45752,71.35437ZM1901.61145,1409.20074c-17.27966,17.59363-39.03619,39.40881-53.51837,54.34155-26.33832,27.15686-36.93231,54.50171-40.45959,71.35339-1.73187,8.28174-10.97906,31.2749-19.93292,52.52161l-49.89758,78.0647h13.90442l51.95074-81.27673c17.81799-20.64404,37.50793-42.92261,46.06561-50.74084,17.41571-15.91345,41.20862-42.36609,50.33069-70.68689,5.01526-15.57129,11.7926-38.39575,17.50342-56.77051l36.0238-56.35925h-13.90491l-38.06543,59.5531.00012-.00012ZM2277.62805,1366.77228c-17.27869,17.59302-39.03613,39.40881-53.51941,54.34131-26.33728,27.15662-36.9303,54.50183-40.45752,71.35388-1.73401,8.28125-10.97913,31.27441-19.93494,52.52112l-77.01587,120.49353h13.90613l79.06934-123.70557c17.81787-20.64441,37.50793-42.92322,46.06458-50.74146,17.41467-15.91321,41.20862-42.36572,50.33069-70.68591,5.01624-15.57129,11.7926-38.39636,17.50342-56.77014l8.90454-13.93127h-13.90417l-10.94678,17.12451ZM1337.58545,1472.84393c-17.27856,17.59302-39.03613,39.40845-53.51935,54.34143-26.33624,27.15674-36.92926,54.50208-40.45758,71.35376-1.73389,8.28125-10.98004,31.27466-19.9339,52.52124l-9.21814,14.42163h13.90533l11.27142-17.63391c17.81995-20.6438,37.50995-42.92285,46.06555-50.74146,17.41473-15.9126,41.20862-42.36511,50.33081-70.68591,5.01624-15.57129,11.7926-38.39612,17.50342-56.77051l76.70178-120.00256h-13.9046l-78.74475,123.19629ZM1525.59479,1451.62946c-17.2796,17.59326-39.03717,39.40857-53.51935,54.34155-26.33728,27.15686-36.9303,54.50183-40.45856,71.35388-1.73291,8.28149-10.97809,31.27466-19.93396,52.52136l-22.77777,35.63562h13.90521l24.8302-38.84814c17.82196-20.6438,37.50989-42.92322,46.06653-50.74146,17.41473-15.9126,41.20862-42.36548,50.33081-70.68628,5.01727-15.57129,11.79156-38.39575,17.50238-56.77039l63.14417-98.78796h-13.9057l-65.18396,101.98169v.00012ZM1097.68945,1618.32135c17.41473-15.91284,41.20764-42.36609,50.33185-70.68652,5.0152-15.57068,11.7926-38.39612,17.50238-56.77051l90.26233-141.21667h-13.90332l-92.30554,144.41064c-17.2796,17.59326-39.03613,39.40881-53.51935,54.34131-8.1344,8.38757-14.763,16.79211-20.14935,24.90088-.7627,5.06494-1.50885,9.93311-2.23138,14.54639-6.49872,41.4917-5.87622,49.62537-6.8443,63.74597,12.81635-14.57446,24.70996-27.65491,30.85669-33.27136v-.00012ZM1713.60413,1430.41498c-17.28064,17.59363-39.03717,39.40869-53.51935,54.34155-26.33936,27.15686-36.93231,54.50183-40.45862,71.35339-1.73389,8.28198-10.9801,31.27515-19.93494,52.52173l-36.33746,56.85034h13.90509l38.39001-60.06238c17.81995-20.64404,37.50989-42.92322,46.06555-50.74109,17.41675-15.91333,41.20862-42.36609,50.33081-70.68738,5.01624-15.57068,11.79358-38.39539,17.50342-56.76978l49.58368-77.57373h-13.90405l-51.62415,80.76721v.00012ZM4938.33789,2511.15887c-1.73291,8.28247-10.97998,31.27979-19.93701,52.52881l-103.12012,161.33374c-17.27979,17.59448-39.04028,39.41284-53.52441,54.34741-26.33936,27.15674-36.93237,54.5022-40.45874,71.35352-1.66724,7.9624-10.27637,29.52197-18.89648,50.05469h18.72314c16.9541-19.58203,34.90601-39.79248,42.96973-47.1604,17.41479-15.91284,41.20752-42.36621,50.33179-70.68652,5.01514-15.5708,11.79248-38.39624,17.50244-56.77051l103.1394-161.36328c17.82104-20.64429,37.51099-42.9248,46.06763-50.74341,4.2583-3.89087,8.89795-8.41504,13.61133-13.43921-2.98779-22.67627-6.03662-45.29541-9.04297-67.88892-2.43115,2.48291-4.75586,4.86499-6.90527,7.08081-26.33911,27.15698-36.93213,54.50171-40.46045,71.35376v-.00049ZM3593.20044,1410.36932c15.35205-14.02905,35.66211-36.2511,46.50708-60.72156h-2.73901c-11.20996,22.74927-30.03247,43.19861-44.4751,56.39575-3.96704,3.62561-10.33032,10.36279-17.78931,18.60144-.38306,2.21533-.7666,4.34351-1.1499,6.38171,8.25635-9.17041,15.35278-16.7345,19.64624-20.65735ZM3619.00952,2713.29608c17.81885-20.64429,37.51074-42.92407,46.06738-50.74341,17.41455-15.91333,41.20776-42.36572,50.32959-70.68652,5.01636-15.57104,11.79272-38.39746,17.50537-56.77124l103.1355-161.36035c17.82202-20.64502,37.51416-42.92651,46.0708-50.74561,17.41382-15.91357,41.2085-42.36621,50.33179-70.68652,5.01416-15.57202,11.79175-38.39868,17.5022-56.77344l103.13647-161.35583c17.82104-20.64575,37.51392-42.92883,46.06958-50.74817,17.41577-15.91284,41.21069-42.36572,50.33179-70.68652,5.01636-15.57263,11.79468-38.40039,17.50439-56.77454l103.13354-161.35278c17.81885-20.64575,37.51489-42.93042,46.07349-50.74963,17.41382-15.91333,41.20874-42.36609,50.33081-70.68652,5.01538-15.57324,11.79468-38.40161,17.50464-56.77673l103.13037-161.34814c1.54639-1.79187,3.10889-3.59607,4.67432-5.40222h-4.4519c-.30762.35608-.61597.71277-.92261,1.06799l-103.1394,161.36316c-5.70972,18.37439-12.48706,41.19946-17.50342,56.77002-9.12134,28.32117-32.91504,54.77368-50.33081,70.68652-5.09473,4.65527-14.13647,14.4364-24.37964,25.94641h-26.18237c-3.41748,8.71069-7.46802,18.53076-11.46313,28.00671l-103.12524,161.34619c-17.28076,17.59314-39.04028,39.41016-53.52246,54.34302-26.3374,27.15662-36.9314,54.50171-40.45972,71.35376-1.73169,8.28198-10.97803,31.276-19.93384,52.52295l-103.12524,161.34253c-17.27954,17.59326-39.03906,39.41113-53.52246,54.34448-26.33936,27.15649-36.9314,54.50195-40.4585,71.35327-1.73389,8.28296-10.97998,31.27881-19.93579,52.52686l-103.12427,161.3374c-17.27881,17.59448-39.03833,39.41211-53.52148,54.34619-26.34033,27.15674-36.93213,54.50171-40.45947,71.35425-1.73413,8.28198-10.9812,31.27979-19.93799,52.52808l-103.12036,161.33398c-1.90698,1.94189-3.87402,3.93994-5.87451,5.96997,1.64966.65674,3.36377,1.27539,5.13501,1.87671,4.49634,1.52563,9.15796,2.99414,13.96167,4.41162,1.16772-3.81543,2.31714-7.55396,3.42505-11.11987l103.14062-161.36353.00024-.00049ZM3564.1687,1728.71844c17.41382-15.91284,41.20776-42.36511,50.32983-70.6864,5.01709-15.57275,11.79663-38.40198,17.50537-56.77649l103.12939-161.34827c17.82202-20.64685,37.51904-42.93237,46.07568-50.75232,10.75635-9.82874,23.94507-23.67981,34.60864-39.5072h-3.71582c-10.06519,14.02136-21.83496,26.25879-31.59961,35.18152-8.55566,7.81897-28.2478,30.09912-46.06763,50.74316l-103.14062,161.36377c-5.71094,18.37402-12.48706,41.19946-17.50244,56.77002-1.2793,3.97046-2.84692,7.90295-4.64233,11.77563h-57.16284c-9.11963,11.07959-15.78955,21.94421-20.60547,31.8634.47144,20.5249.99292,41.02869,1.62793,61.49609.03491,1.12683.06226,2.25476.09668,3.38159,12.89502-14.66809,24.88208-27.85803,31.06299-33.50476l.00024.00024ZM3573.93701,2237.95746l103.1333-161.35583c17.823-20.64539,37.51587-42.92847,46.07251-50.74817,17.41479-15.91284,41.20874-42.36511,50.33081-70.68628,5.01538-15.57227,11.79468-38.40015,17.50537-56.77478l103.13037-161.35181c17.82178-20.64673,37.51782-42.93091,46.07568-50.75073,17.41382-15.91333,41.20752-42.36499,50.32983-70.68616,5.01636-15.57312,11.7937-38.40161,17.50537-56.77649l103.13037-161.34802c15.9519-18.48157,33.40503-38.27405,43.02734-47.83142h-4.93726c-10.00513,10.46765-24.96021,27.47229-38.79004,43.49597l-103.1394,161.36377c-5.71094,18.37439-12.48828,41.19922-17.50342,56.77051-6.44971,20.0238-20.23438,39.11243-33.91211,54.20398h-53.10962c-2.60718,6.73511-4.33008,12.80859-5.39844,17.91443-1.73291,8.28125-10.97998,31.27466-19.93481,52.52173l-103.12939,161.34521c-17.27759,17.59375-39.03711,39.41016-53.51929,54.34338-26.33838,27.15686-36.9314,54.50171-40.45874,71.35376-1.73389,8.28198-10.979,31.27649-19.93481,52.52368l-103.12646,161.34143c-2.36646,2.40967-4.82202,4.90283-7.32617,7.44238-.08862,5.01367-.29224,9.88477-.64893,14.55957-1.88501,24.70459-11.39966,52.78149-16.91919,78.45703,10.06592-12.76221,19.15747-27.38892,24.04175-42.55371,5.01538-15.57202,11.79468-38.39868,17.50537-56.77344ZM3585.46533,1976.38165c5.01636-15.57227,11.79468-38.40051,17.50439-56.77515l103.13135-161.35217c17.823-20.64636,37.51709-42.93054,46.07471-50.75049,17.41577-15.91284,41.2085-42.36536,50.33081-70.68579,5.01538-15.57312,11.79663-38.40161,17.50659-56.77673l103.12939-161.34802c17.82202-20.64697,37.51709-42.93286,46.07568-50.75293,5.58887-5.1073,11.83496-11.30127,18.04077-18.2926h-4.64404c-4.88281,5.23633-9.69873,9.94031-14.10571,13.96704-8.55542,7.81897-28.24756,30.09863-46.06641,50.74353l-103.14038,161.36353c-5.70874,18.3739-12.4873,41.1991-17.50366,56.77039-3.70288,11.49792-9.82373,22.68799-16.95508,32.98987h-59.74292c-8.98877,15.26709-13.61523,29.06824-15.72119,39.12891-1.73389,8.28198-10.979,31.27478-19.93481,52.52112l-103.12939,161.34583c-15.37134,15.651-34.27441,34.63293-48.46021,49.14917.50708,25.12073,1.04321,50.24316,1.62915,75.36426,16.82666-16.14075,37.5979-40.58264,45.98096-66.6095v-.00024ZM3544.90405,2556.30878l103.13647-161.35986c17.82104-20.64526,37.51318-42.92676,46.06958-50.74585,17.41455-15.91333,41.20874-42.36597,50.33081-70.68628,5.01416-15.57251,11.79468-38.39868,17.50537-56.77344l103.1333-161.35547c17.82104-20.64612,37.51489-42.92957,46.07153-50.74841,17.41382-15.91333,41.20972-42.36609,50.33081-70.68665,5.01636-15.57263,11.79272-38.40015,17.50342-56.77515l103.13452-161.35181c17.81885-20.64612,37.51489-42.93054,46.07349-50.75037,17.41382-15.91296,41.20752-42.36572,50.33081-70.68652,5.01538-15.57275,11.7937-38.40149,17.50342-56.77637l103.13135-161.34851c7.77344-9.0061,15.90356-18.32373,23.31006-26.6167h-4.55396c-6.32031,7.1344-13.00977,14.81372-19.45605,22.28223l-103.1394,161.36328c-5.70972,18.37439-12.48608,41.19922-17.50342,56.77075-9.12329,28.32056-32.91626,54.77344-50.32983,70.68591-1.35376,1.23657-2.98682,2.83606-4.8457,4.73218h-38.09668c-2.94092,10.08923-11.12402,30.3407-19.08276,49.2218l-103.12744,161.34521c-17.27954,17.59338-39.04028,39.40991-53.52124,54.34302-26.33936,27.15686-36.93237,54.50208-40.45874,71.35376-1.73389,8.28235-10.979,31.27637-19.93384,52.52344l-103.12842,161.3418c-17.27661,17.59399-39.03711,39.41113-53.52026,54.34448-26.33838,27.15698-36.93042,54.5022-40.45874,71.354-1.73389,8.28271-10.97998,31.27832-19.93701,52.52612l-103.12329,161.33813c-8.80151,8.96094-18.76196,19.01538-28.33374,28.70044-2.77075,28.25122-5.31714,56.51782-7.73047,84.82788,14.09668-15.30469,28.55688-34.96338,35.21021-55.62158,5.01416-15.57129,11.79468-38.39795,17.50537-56.77197l.00049.00049ZM4949.76489,2758.15448c-26.33838,27.15649-36.9314,54.50171-40.45972,71.35376-1.73193,8.28271-10.97998,31.28149-19.93677,52.53076l-11.97729,18.73755h17.37549l11.27148-17.63379c17.81982-20.6438,37.50977-42.92285,46.06543-50.74146,17.41455-15.9126,41.2085-42.36499,50.33057-70.68579,3.68994-11.45459,8.33203-26.83203,12.80225-41.47754-.13086-11.52148-.20459-23.01782-.54248-34.27417l-11.40479,17.84326c-17.27881,17.59375-39.04004,39.41333-53.52441,54.34741h.00024ZM4741.84204,1526.42072c-9.12207,28.3208-32.91602,54.77344-50.33081,70.68591-8.55566,7.8186-28.24561,30.09778-46.06543,50.74146l-11.27148,17.63391h-13.90527l-93.91235,146.92419c-17.27759,17.59314-39.03613,39.41028-53.52026,54.34314-26.33643,27.15649-36.9292,54.50134-40.45654,71.35339-1.73389,8.28235-10.98022,31.27673-19.93604,52.52405l-103.12427,161.34143c-17.28076,17.59412-39.04028,39.41125-53.52246,54.34497-26.33716,27.15674-36.9314,54.50171-40.45947,71.35449-1.73413,8.28125-10.9812,31.27759-19.93701,52.52539l-103.12231,161.33789c-17.27979,17.59375-39.04028,39.41211-53.52246,54.34619-26.33838,27.15674-36.93335,54.50171-40.46045,71.354-1.73169,8.28223-10.97998,31.27979-19.93701,52.52808l-103.12036,161.33398c-17.27954,17.59448-39.03906,39.41284-53.52441,54.34741-4.97583,5.12964-9.38623,10.26538-13.29761,15.33643h61.32495c1.79541-3.87256,3.36304-7.80542,4.64233-11.77539,5.01514-15.5708,11.7915-38.39624,17.50244-56.77002l103.14062-161.36377c17.82007-20.64404,37.51196-42.92407,46.06763-50.74316,17.41455-15.91309,41.20947-42.36572,50.33179-70.68652,5.01514-15.57129,11.79248-38.39746,17.50342-56.77173l103.13745-161.35986c17.81982-20.64478,37.51172-42.92651,46.06738-50.74585,17.41675-15.91333,41.20874-42.36548,50.33203-70.68628,5.01611-15.57153,11.79346-38.39844,17.50439-56.7738l103.13428-161.35547c17.82007-20.64612,37.51294-42.92883,46.07275-50.74841,17.41357-15.91284,41.20752-42.36548,50.33057-70.68591,5.01538-15.57263,11.79272-38.40015,17.50439-56.77515l103.13159-161.35181c17.82202-20.64673,37.51587-42.93079,46.07446-50.75061,17.41577-15.91333,41.20874-42.36511,50.32983-70.68604,5.01733-15.57324,11.79565-38.40198,17.50659-56.77673l79.46338-124.3219h-3.4707l-76.7019,120.00244c-5.71069,18.37439-12.48706,41.19922-17.50342,56.77051l-.00024-.00085ZM4553.83374,1547.63483c-9.12427,28.32056-32.91699,54.77368-50.33179,70.68652-8.06372,7.36792-26.01562,27.57849-42.96973,47.16052h-16.20752c-.94629,2.27087-1.89795,4.54163-2.84692,6.79285l-103.12842,161.34546c-17.28052,17.59338-39.03809,39.41028-53.52026,54.34314-26.33643,27.15674-36.9292,54.50171-40.4585,71.35376-1.73291,8.28174-10.97827,31.27649-19.93506,52.52368l-103.12524,161.3418c-17.27856,17.59351-39.03931,39.41113-53.52148,54.34497-26.33838,27.15649-36.93237,54.50171-40.4585,71.35352-1.73413,8.28198-10.9812,31.27783-19.93604,52.52612l-103.12524,161.33765c-17.27759,17.59375-39.03931,39.41211-53.52246,54.34619-26.33838,27.15649-36.93213,54.50146-40.4585,71.35425-1.73413,8.28198-10.9812,31.27954-19.93799,52.52808l-103.12036,161.33398c-15.12744,15.40332-33.68921,34.04443-47.79736,48.46924h49.92749c4.53247-14.52881,9.8772-32.39966,14.51758-47.3313l103.13843-161.36426c17.8208-20.6438,37.51416-42.92383,46.06958-50.74292,17.41455-15.91284,41.2085-42.36572,50.33081-70.68628,5.01636-15.57178,11.79248-38.39722,17.50244-56.77124l103.13745-161.3606c17.82104-20.64478,37.51294-42.92651,46.06958-50.74585,17.41577-15.91284,41.20972-42.36548,50.33301-70.68555,5.01514-15.57251,11.79248-38.39917,17.50342-56.77417l103.13428-161.35547c17.823-20.64612,37.51611-42.92883,46.07178-50.74841,17.41455-15.91284,41.20752-42.36548,50.33154-70.68665,5.0144-15.57202,11.7937-38.40015,17.50342-56.77478l103.13257-161.35217c17.82104-20.64624,37.51489-42.93079,46.07446-50.75037,17.41479-15.91333,41.20776-42.36548,50.32983-70.68616,5.01733-15.57312,11.79565-38.40173,17.50562-56.77673l93.02319-145.53601h-3.47021l-90.26221,141.21667c-5.70972,18.37439-12.48706,41.19983-17.50244,56.77051h-.00024ZM4879.51953,1575.8924c-8.55664,7.81836-28.24463,30.09778-46.06641,50.74146l-24.83032,38.84814h-13.90503l-80.35181,125.70959c-17.27856,17.59338-39.03711,39.40991-53.52026,54.34314-26.33838,27.15723-36.93018,54.50208-40.45752,71.354-1.73486,8.28198-10.98022,31.27612-19.93604,52.52344l-103.12427,161.34167c-17.28174,17.59387-39.04028,39.41162-53.52344,54.34448-26.33716,27.15674-36.93042,54.50244-40.45752,71.35425-1.73389,8.28198-10.9812,31.27808-19.93701,52.52588l-103.12231,161.33765c-17.28076,17.59424-39.04126,39.41284-53.52441,54.34668-26.3374,27.15649-36.93115,54.50171-40.4585,71.35352-1.73291,8.28271-10.98218,31.27954-19.93799,52.52881l-103.11938,161.3335c-17.27954,17.59473-39.04199,39.41333-53.52539,54.34766-12.11304,12.49023-20.89355,25.02002-27.18994,36.55078h62.90381c7.1311-10.30176,13.2522-21.4917,16.95508-32.98975,5.01611-15.57129,11.79443-38.39624,17.50342-56.77051l103.14038-161.36353c17.81885-20.64478,37.51099-42.92456,46.06665-50.74341,17.41553-15.91284,41.2085-42.36572,50.33154-70.68604,5.01636-15.57129,11.79272-38.39795,17.50342-56.77197l103.13867-161.35986c17.81885-20.64453,37.51074-42.92676,46.06958-50.74536,17.41479-15.91333,41.20654-42.36597,50.32983-70.68652,5.01611-15.57239,11.79346-38.39917,17.50439-56.77393l103.13525-161.35571c17.82104-20.64551,37.51294-42.92883,46.07178-50.7478,17.41455-15.91321,41.2085-42.36609,50.32959-70.68628,5.01733-15.573,11.7937-38.40039,17.50562-56.77515l103.13232-161.35217c17.82104-20.64673,37.51587-42.9314,46.07251-50.75037,15.48877-14.15332,36.01514-36.64514,46.78687-61.37207-.23511-1.43372-.47095-2.87573-.70703-4.32715-10.77051,24.72729-31.29688,47.22034-46.78589,61.37329l-.00024-.00037ZM4844.3125,2406.67352c-17.27954,17.59424-39.04004,39.41187-53.52344,54.34619-26.33936,27.15674-36.93213,54.50146-40.4585,71.35376-1.73389,8.28247-10.98218,31.27954-19.93799,52.52808l-103.12134,161.33447c-17.28052,17.59399-39.03906,39.41284-53.52417,54.34717-26.3374,27.15698-36.93042,54.50171-40.45874,71.354-1.08569,5.18823-5.12012,16.15039-10.18384,28.8396h28.60156c10.24316-11.51001,19.28467-21.29126,24.37964-25.94629,17.41577-15.91284,41.20972-42.36548,50.33081-70.68652,5.01611-15.57056,11.79346-38.39575,17.50342-56.77026l103.1394-161.36328c17.82007-20.64453,37.51196-42.92529,46.0686-50.74365,17.4126-15.91333,41.20752-42.36572,50.33081-70.68677,5.01416-15.57153,11.7937-38.39746,17.50342-56.77173l103.10181-161.30225c-1.02734-11.7478-1.96729-23.51172-2.80322-35.29663-3.81323,10.04639-8.86279,22.35254-13.82593,34.12622l-103.12231,161.33789ZM4819.82324,2142.6701c-26.33936,27.15613-36.93359,54.50134-40.46069,71.35352-1.73291,8.28247-10.98022,31.27783-19.93506,52.52686l-103.12427,161.3374c-17.27954,17.59375-39.03906,39.41211-53.52344,54.34644-26.33716,27.15674-36.93018,54.50098-40.4585,71.35376-1.73291,8.28198-10.979,31.2793-19.93701,52.52808l-103.11914,161.33423c-17.28271,17.59424-39.04224,39.4126-53.52759,54.34717-26.33716,27.15698-36.93018,54.50146-40.45654,71.35425-.38916,1.86035-1.1604,4.46582-2.2207,7.625h40.17212c1.85889-1.896,3.49219-3.49561,4.84595-4.73218,17.41382-15.9126,41.20654-42.36548,50.32983-70.68604,5.01709-15.57178,11.79346-38.39648,17.50342-56.77075l103.1394-161.36328c17.82007-20.64502,37.51099-42.92505,46.0686-50.74365,17.41455-15.91357,41.2085-42.36548,50.33081-70.68604,5.01514-15.57202,11.7937-38.39819,17.50244-56.77197l103.13843-161.36011c17.81982-20.64453,37.51294-42.92651,46.0686-50.74536,17.41455-15.91333,41.21045-42.36584,50.33179-70.68604,5.01611-15.57251,11.79248-38.39941,17.50439-56.77405l68.90967-107.81042c.18286-9.32849.36401-18.67029.54346-28.03577l-86.10474,134.71411c-17.27856,17.59424-39.03931,39.41162-53.52124,54.34485ZM4848.8562,1824.32025c-26.33936,27.15674-36.93213,54.50232-40.45947,71.354-1.73389,8.28235-10.979,31.276-19.93604,52.52295l-103.12524,161.3418c-17.28076,17.59448-39.03931,39.41162-53.52246,54.34485-26.33716,27.15686-36.93018,54.50232-40.4585,71.35437-1.73291,8.28198-10.97925,31.27808-19.93604,52.52588l-103.12329,161.33765c-17.28076,17.59399-39.03809,39.41284-53.52344,54.34644-26.33716,27.15698-36.93018,54.50195-40.4585,71.354-1.73486,8.28271-10.9812,31.27954-19.93701,52.52832l-103.12134,161.33325c-17.27954,17.59473-39.04028,39.41382-53.52441,54.3479-20.10327,20.729-31.03296,41.56665-36.6499,57.76489h55.40747c13.67773-15.09131,27.4624-34.18018,33.91211-54.2041,5.01514-15.57129,11.79248-38.396,17.50342-56.77051l103.1394-161.36377c17.81787-20.64429,37.50903-42.92456,46.06763-50.74341,17.41553-15.91333,41.20752-42.36572,50.33081-70.68604,5.01611-15.57129,11.79346-38.39771,17.50439-56.77197l103.13745-161.35962c17.81885-20.64526,37.51074-42.92676,46.06958-50.74585,17.41479-15.91357,41.2085-42.36584,50.32983-70.68665,5.01611-15.57202,11.79346-38.39868,17.50537-56.77344l103.1333-161.35608c17.823-20.64539,37.51611-42.92883,46.07178-50.7478,17.41553-15.91284,41.2085-42.36621,50.33057-70.68628,5.01636-15.573,11.79468-38.40039,17.50562-56.77478l44.84375-70.15857c-1.53662-6.16614-3.17065-12.79016-4.83154-19.62549l-56.66602,88.65454c-17.27979,17.59338-39.03833,39.40991-53.51953,54.34314l.00024.00037ZM4429.28662,291.89062c-26.33643,27.15668-36.9292,54.50201-40.45752,71.35376-1.73389,8.28131-10.98022,31.27454-19.93408,52.52118l-103.13037,161.34583c-17.27759,17.59308-39.03613,39.41016-53.52026,54.34308-26.33643,27.15649-36.92944,54.5014-40.45654,71.35345-1.73413,8.28229-10.98022,31.27673-19.93604,52.52405l-103.12427,161.34143c-17.28076,17.59412-39.04028,39.41119-53.52246,54.34479-26.3374,27.1568-36.93115,54.50171-40.45947,71.35437-1.73413,8.28131-10.9812,31.2774-19.93701,52.52539l-103.12231,161.33783c-17.27954,17.59375-39.04028,39.41211-53.52246,54.34619-26.33838,27.15686-36.93335,54.50171-40.46045,71.354-1.73193,8.28235-10.98022,31.27979-19.93701,52.52808l-103.12036,161.33411c-17.27954,17.59436-39.03906,39.41284-53.52441,54.34741-4.97583,5.12964-9.38623,10.26526-13.29761,15.33643h4.16211c3.00952-3.65625,6.27661-7.33484,9.84131-11.01062,14.48413-14.93237,36.24072-36.74817,53.51953-54.34131l103.13135-161.34961c8.95483-21.24597,18.19897-44.23792,19.93286-52.51941,1.98999-9.505,6.229-22.34839,14.27148-36.61328h59.41846c7.8855-10.98474,14.72461-23.06421,18.73218-35.505,5.01514-15.57129,11.79248-38.39746,17.50342-56.77173l103.13745-161.3598c17.81982-20.64478,37.51172-42.92657,46.06738-50.74585,17.41675-15.91321,41.2085-42.36542,50.33179-70.68622,5.01636-15.57166,11.7937-38.39844,17.50415-56.7738l103.13452-161.35547c17.82007-20.64612,37.51294-42.92889,46.07251-50.74847,17.41382-15.9129,41.20776-42.36548,50.33105-70.68597,5.01514-15.57263,11.79248-38.40009,17.50439-56.77509l103.13135-161.35181c17.82178-20.64679,37.51587-42.93073,46.07471-50.75067,17.41553-15.91339,41.2085-42.36511,50.32959-70.6861,5.01733-15.5733,11.79565-38.40198,17.50659-56.77679l48.76831-76.29895c-5.427-.43225-10.94702-.8645-16.5481-1.29492l-48.87695,76.4682c-17.27856,17.59296-39.03613,39.40851-53.51929,54.34143l.00049-.00012ZM3491.58374,472.20911c17.41577-15.91284,41.20874-42.36523,50.33081-70.68573,5.01538-15.57312,11.79663-38.40161,17.50635-56.77679l4.7041-7.35968c-6.55127,4.57178-12.75049,8.97638-18.44824,13.12653-14.96777,10.90253-29.03442,21.90649-41.97534,32.68024-5.24878,5.33026-10.17456,10.35449-14.45557,14.76868-26.34033,27.15686-36.9314,54.5014-40.45874,71.35376-1.73389,8.28198-10.979,31.27472-19.93481,52.52106l-60.5022,94.65552c-.29395,8.68805-.25171,17.70123.08276,27.05469l77.07593-120.58771c17.823-20.64642,37.51709-42.9306,46.07446-50.75055h.00049ZM4617.29614,270.67627c-26.3374,27.15686-36.93018,54.50189-40.4585,71.35394-1.73291,8.28143-10.97803,31.27454-19.93408,52.52136l-103.12939,161.34528c-17.27856,17.59344-39.03711,39.40985-53.52026,54.34314-26.33838,27.15717-36.93042,54.50201-40.45752,71.35406-1.73511,8.28198-10.98022,31.27606-19.93604,52.52338l-103.12427,161.3418c-17.28174,17.59375-39.04028,39.4115-53.52344,54.34442-26.3374,27.15686-36.93018,54.50238-40.45752,71.35406-1.73389,8.28198-10.9812,31.27808-19.93701,52.52576l-103.12231,161.33771c-17.28052,17.59412-39.04126,39.41284-53.52441,54.34644-26.3374,27.15649-36.93115,54.50171-40.4585,71.35376-1.73291,8.28259-10.98218,31.27942-19.93799,52.52869l-103.11914,161.33337c-17.27954,17.59485-39.04224,39.41345-53.52539,54.34778-12.11304,12.49023-20.89355,25.02002-27.18994,36.55066h3.16064c6.06787-10.3064,14.12207-21.28027,24.73779-32.22485,14.48218-14.93286,36.23877-36.74854,53.51831-54.34131l103.13037-161.3501c8.95581-21.24585,18.20093-44.23743,19.93286-52.51843.93262-4.46326,2.36304-9.66309,4.45068-15.39954h51.74438c14.4126-15.45581,29.41162-35.56543,36.22607-56.71924,5.01611-15.57129,11.79248-38.39783,17.50342-56.77173l103.13843-161.35986c17.81885-20.64471,37.51099-42.92682,46.06958-50.74542,17.41455-15.91327,41.20654-42.36615,50.32959-70.68658,5.01636-15.57233,11.7937-38.39911,17.50464-56.7738l103.13525-161.35583c17.82104-20.64539,37.51294-42.92889,46.07178-50.7478,17.41455-15.91321,41.2085-42.36615,50.32983-70.68628,5.01709-15.57294,11.79346-38.40045,17.50537-56.77509l103.13232-161.35217c17.82104-20.64673,37.51587-42.9314,46.07275-50.75031,17.41455-15.91339,41.20947-42.36548,50.33252-70.68677,5.0144-15.57251,11.79468-38.40131,17.50464-56.77631l15.56641-24.35394c-4.55176-2.82587-8.72559-5.44189-12.41113-7.76672l-19.81104,30.99481c-17.27954,17.59332-39.03711,39.40869-53.51929,54.34161l-.00049.00006ZM4744.91162,373.33691l-103.12842,161.34546c-17.27954,17.59344-39.03809,39.40985-53.51929,54.34308-26.33911,27.15686-36.93237,54.50238-40.45947,71.35406-1.73389,8.28235-10.97925,31.27612-19.93604,52.52307l-103.12524,161.3418c-17.28076,17.59442-39.03931,39.4115-53.52246,54.34479-26.3374,27.1568-36.93018,54.50238-40.4585,71.35437-1.73291,8.28198-10.979,31.27808-19.93604,52.52576l-103.12329,161.3374c-17.28052,17.59412-39.03809,39.41284-53.52344,54.34644-26.33716,27.15723-36.93018,54.50208-40.4585,71.35413-1.73486,8.28259-10.9812,31.27942-19.93701,52.52832l-103.12134,161.33337c-17.27954,17.59485-39.04004,39.41394-53.52441,54.34778-20.10327,20.729-31.03296,41.56677-36.6499,57.76514h2.29785c5.9978-15.49463,16.70117-34.51038,35.0603-53.43909,14.48218-14.93311,36.23877-36.74854,53.51831-54.34216l103.13135-161.34937c7.34082-17.41797,14.87744-36.00708,18.30786-46.70361h36.43677c2.88525-3.01843,5.36182-5.49744,7.27759-7.24744,17.41577-15.91321,41.20752-42.36572,50.33081-70.68591,5.01611-15.57129,11.79346-38.39783,17.50439-56.77209l103.13745-161.35956c17.81885-20.64539,37.51099-42.92682,46.06958-50.74579,17.41455-15.91351,41.2085-42.36578,50.32959-70.68658,5.01636-15.57196,11.7937-38.3988,17.50562-56.77344l103.1333-161.35614c17.823-20.64545,37.51611-42.92889,46.07153-50.74786,17.41577-15.91284,41.20874-42.36609,50.33105-70.68622,5.01611-15.573,11.79443-38.40045,17.50537-56.77484l103.1333-161.35248c17.82104-20.64606,37.51514-42.93066,46.07275-50.75031,12.27881-11.22089,27.72461-27.68555,38.96826-46.34698-15.67871-9.69244-30.27441-18.33368-43.26172-25.8457-24.90625,26.47455-35.06567,52.87219-38.50293,69.29883-1.73389,8.28198-10.98022,31.27509-19.93506,52.52173v.00006ZM3462.55078,790.55865c17.41479-15.9129,41.20874-42.36511,50.33081-70.68628,5.01538-15.57227,11.79468-38.40009,17.50537-56.77478l103.13037-161.35181c17.82202-20.64673,37.51782-42.93091,46.07544-50.75085,17.41382-15.91321,41.20752-42.36493,50.32983-70.6861,5.01636-15.57312,11.7937-38.40161,17.50537-56.77643l98.52393-154.14093c-9.30151.70551-14.94189,1.12195-14.94189,1.12195,0,0-1.84668,1.08795-5.05493,2.97888l-95.18262,148.91376c-17.27954,17.59363-39.03613,39.409-53.51831,54.3421-26.33936,27.15649-36.93335,54.50153-40.45874,71.35339-1.73291,8.28131-10.97998,31.27478-19.93481,52.52173l-103.12939,161.34515c-17.27759,17.59375-39.03711,39.41016-53.51929,54.34344-26.33838,27.1568-36.9314,54.50171-40.45874,71.3537-1.47192,7.03088-8.35742,24.66522-15.88354,42.83209,2.37671,6.32343,4.86963,12.6156,7.45923,18.86511l5.14917-8.05597c17.823-20.64545,37.51587-42.92859,46.07251-50.74817h.00024ZM4829.79175,513.46814c-17.27832,17.59381-39.03809,39.41022-53.52026,54.34283-26.33716,27.15717-36.9314,54.50201-40.4585,71.35406-1.73291,8.28229-10.97925,31.27606-19.93604,52.52338l-103.12427,161.3421c-17.27856,17.59412-39.03906,39.4115-53.52148,54.34479-26.33936,27.15619-36.93311,54.5014-40.46045,71.35339-1.73291,8.28235-10.98022,31.27777-19.93506,52.52673l-103.12427,161.3374c-17.27954,17.59375-39.03931,39.41223-53.52344,54.34656-26.33716,27.15674-36.93018,54.5011-40.4585,71.35376-1.73291,8.28198-10.97925,31.27954-19.93701,52.52808l-103.11938,161.33447c-17.28247,17.59412-39.04199,39.4126-53.52734,54.34717-26.33716,27.15674-36.93018,54.50134-40.45654,71.354-.38916,1.86047-1.16016,4.46582-2.2207,7.62524h2.07568c.36841-1.26404.65918-2.37769.85205-3.29968,3.52637-16.85242,14.12036-44.19739,40.45874-71.35388,14.4812-14.93311,36.23975-36.74817,53.51929-54.34192l103.12842-161.34924c3.61499-8.573,7.27637-17.42969,10.47095-25.4895h24.94165c11.15137-12.58728,21.15063-23.47144,26.61255-28.46167,17.41479-15.91357,41.20874-42.36548,50.33081-70.68591,5.01514-15.5719,11.79346-38.39807,17.50244-56.77222l103.13843-161.36017c17.81982-20.64471,37.51294-42.92651,46.0686-50.74542,17.41455-15.91327,41.21045-42.36578,50.33179-70.68597,5.01611-15.57263,11.79248-38.39941,17.50439-56.77411l103.13452-161.35547c17.82178-20.64606,37.51367-42.92889,46.07153-50.74817,17.41479-15.91321,41.2085-42.36578,50.33081-70.68658,5.01611-15.57263,11.79443-38.40045,17.50439-56.77515l103.13232-161.35181c.97266-1.12671,1.95142-2.25885,2.93311-3.3927-4.73291-3.6217-9.46753-7.18188-14.19434-10.67902-1.76807,4.29761-3.58716,8.65839-5.39551,12.9491l-103.12939,161.34558v-.00006ZM3642.82422,1335.35724c5.01636-15.57166,11.79248-38.39746,17.50244-56.77148l103.13721-161.36047c17.82104-20.64478,37.51318-42.92657,46.06958-50.74585,17.41577-15.91284,41.20947-42.36542,50.33276-70.68555,5.01538-15.57263,11.79248-38.39911,17.50342-56.77411l103.13428-161.35553c17.823-20.64606,37.51611-42.92883,46.07178-50.74847,17.41455-15.9129,41.20752-42.36548,50.33203-70.68658,5.01416-15.57196,11.79346-38.40015,17.50342-56.77478l103.13232-161.35217c17.8208-20.64624,37.51489-42.93073,46.07471-50.75031,17.41455-15.91339,41.20752-42.36548,50.32959-70.6861,5.01733-15.57312,11.79565-38.40179,17.50537-56.77679l69.21265-108.28387c-5.69897-.25928-11.34033-.50104-16.91089-.72412l-68.95728,107.88251c-17.27954,17.59326-39.03613,39.40881-53.51929,54.34126-26.3374,27.15704-36.93042,54.50171-40.4585,71.35376-1.73291,8.28162-10.97827,31.27489-19.93408,52.52156l-103.12842,161.34546c-17.28052,17.59344-39.03809,39.41016-53.52026,54.34308-26.33618,27.15683-36.92944,54.50168-40.45874,71.35373-1.73291,8.28168-10.97827,31.27643-19.93506,52.52374l-103.12524,161.34174c-17.27881,17.59344-39.03931,39.41119-53.52148,54.34479-26.33838,27.15649-36.93237,54.50171-40.4585,71.35376-1.73389,8.28198-10.9812,31.27777-19.93604,52.52606l-103.12524,161.33777c-17.27759,17.59375-39.03931,39.41223-53.52246,54.34607-1.65137,1.70276-3.24072,3.40625-4.77051,5.10779-.35645,4.23572-.73682,8.49121-1.1377,12.74353h52.72217c2.30664-4.68115,4.29883-9.4574,5.85547-14.29053l.00049.00012ZM3501.35425,981.44879l103.13354-161.35553c17.82104-20.64606,37.51489-42.9295,46.07153-50.74847,17.41382-15.91321,41.20972-42.36609,50.33081-70.68658,5.01636-15.57263,11.79272-38.40015,17.50342-56.77515l103.13452-161.35181c17.81885-20.64606,37.51489-42.93054,46.07349-50.75031,17.41382-15.91309,41.20776-42.36578,50.33081-70.68658,5.01538-15.57281,11.7937-38.40149,17.50342-56.77631l94.42334-147.72479c-6.36621.33411-12.39087.68164-18.04272,1.04193l-93.03418,145.55652c-17.27954,17.59381-39.03809,39.40887-53.51929,54.34198-26.33838,27.15649-36.93237,54.50153-40.45874,71.35388-1.73291,8.28131-10.97925,31.2749-19.93506,52.52155l-103.12744,161.34509c-17.27954,17.59344-39.04004,39.40985-53.52124,54.34314-26.33936,27.15686-36.93237,54.50208-40.45874,71.35376-1.73413,8.28229-10.97925,31.27643-19.93408,52.52338l-103.12842,161.3418c-4.13037,4.20642-8.52051,8.6571-13.00269,13.19452,3.72925,16.07611,5.34253,28.34521,6.31348,35.00262.7395,5.07208,1.2439,12.49121,1.58862,20.61682,1.63159-3.59235,3.06641-7.23389,4.24976-10.90802,5.01416-15.57263,11.79468-38.3988,17.50537-56.77344h.00049ZM3621.52637,1087.69427c17.41382-15.91351,41.2085-42.36609,50.33179-70.68658,5.01416-15.57196,11.79175-38.39874,17.50244-56.77344l103.13647-161.35583c17.82104-20.64569,37.51392-42.92883,46.06958-50.74811,17.41577-15.9129,41.21069-42.36578,50.33179-70.68665,5.01636-15.57263,11.79468-38.40045,17.50464-56.77441l103.13354-161.35284c17.81885-20.64575,37.51489-42.93036,46.07373-50.74963,17.41357-15.91339,41.2085-42.36615,50.33057-70.68658,5.01538-15.5733,11.79468-38.40167,17.50439-56.77679l84.01123-131.43671c-5.87134.06854-11.71387.1441-17.52051.2265l-83.14575,130.08502c-17.28052,17.59277-39.03711,39.40802-53.51929,54.34094-26.33838,27.15686-36.93237,54.5022-40.4585,71.35358-1.73291,8.28198-10.97827,31.2749-19.93579,52.52118l-103.12524,161.34613c-17.28076,17.59314-39.04004,39.41022-53.52246,54.34314-26.3374,27.15649-36.9314,54.50171-40.45972,71.35376-1.73169,8.28198-10.97803,31.27606-19.93384,52.52301l-103.12549,161.34247c-17.27954,17.59344-39.03906,39.41119-53.52246,54.34442-26.33936,27.15649-36.93115,54.50208-40.4585,71.35339-1.73389,8.28302-10.97998,31.27881-19.93579,52.52673l-9.01807,14.10864c2.66943,4.91107,5.26978,9.93903,7.77734,15.01495l17.90332-28.0108c17.82202-20.64508,37.51416-42.92651,46.07056-50.74548ZM5091.89453,649.26007l-103.12549,161.3421c-17.2793,17.59344-39.03906,39.41119-53.52246,54.34412-26.33618,27.15717-36.93018,54.50238-40.45947,71.35443-1.73193,8.28131-10.979,31.2774-19.93506,52.5257l-103.12207,161.33777c-17.28076,17.59412-39.04028,39.41217-53.52344,54.34613-26.33936,27.15723-36.93237,54.50171-40.46069,71.35364-1.73291,8.28259-10.98022,31.27979-19.93701,52.52881l-103.12036,161.33374c-17.27954,17.59448-39.04004,39.41284-53.52441,54.34741-26.33911,27.15686-36.93213,54.50208-40.4585,71.35339-1.66724,7.9624-10.27637,29.52197-18.89648,50.05469h2.51562c7.9834-19.16113,15.5376-38.32446,17.08691-45.72864,3.52832-16.85205,14.12134-44.19678,40.45874-71.35376,14.48315-14.93237,36.23975-36.74805,53.51929-54.34131l92.30566-144.41064h13.90308l12.8772-20.14648c17.82104-20.64441,37.51099-42.92493,46.06763-50.74341,17.41577-15.91321,41.20972-42.36621,50.33276-70.68701,5.01514-15.57129,11.79248-38.39746,17.50244-56.77179l103.13647-161.3598c17.82202-20.64471,37.51392-42.92621,46.07056-50.74579,17.41455-15.9129,41.2085-42.36548,50.33105-70.68597,5.01514-15.57227,11.79346-38.39874,17.50439-56.77411l103.13623-161.35516c7.1582-8.2934,14.61719-16.84918,21.53662-24.62732-.04932-7.31384-.59277-13.6322-1.75-18.57074-2.4292-10.36523-4.58643-22.46643-7.83203-36.11243-4.52539,9.85516-7.21582,18.66895-8.68213,25.66864-1.73486,8.28198-10.97949,31.27643-19.93457,52.52374l-.00049.00006ZM4906.21411,1183.2962c-26.3374,27.15649-36.9314,54.50171-40.45874,71.35339-1.73389,8.28235-10.98218,31.27966-19.93799,52.52942l-103.12036,161.33337c-17.27832,17.59375-39.04004,39.41321-53.52417,54.34741-26.33838,27.15649-36.9314,54.50171-40.45972,71.35376-1.73193,8.28259-10.97998,31.28137-19.93701,52.53076l-11.97705,18.73767h3.47021l9.21802-14.42163c8.95386-21.24658,18.19995-44.23987,19.93384-52.52124,3.52832-16.85168,14.12134-44.19702,40.45776-71.35376,14.48315-14.93286,36.24072-36.74841,53.51929-54.34143l78.74463-123.19629h13.90479l26.43652-41.36096c14.61792-16.93359,30.48853-34.96228,40.44604-45.21338,2.61719-33.55884,8.86255-55.03723,18.74707-72.55994,14.6665-26,68-90.66669,82.6665-112,3.96582-5.76788,8.76025-10.79791,13.64502-15.07745-.06738.55243-.13525,1.112-.2041,1.67651,1.20898-9.90118,2.14062-17.9917,2.55957-22.59906.25098-2.76477.55566-6.07861.91211-9.81l-61.51953,96.24622c-17.27759,17.59412-39.03906,39.41254-53.52222,54.3465l-.00049.00012ZM4836.72241,1572.99908c-1.73291,8.28333-10.98193,31.28186-19.93896,52.53076l-25.53564,39.95227h3.47021l22.77759-35.63574c8.95581-21.24683,18.20093-44.23987,19.93384-52.52136,3.52832-16.85205,14.12134-44.19702,40.45874-71.35388,10.89697-11.23608,25.91211-26.36804,40.04028-40.66675-.24292-1.41797-.4873-2.84827-.7334-4.29883-14.12012,14.29065-29.12354,29.41077-40.01392,40.63965-26.33838,27.15686-36.93237,54.50171-40.45874,71.35376v.00012ZM4964.27979,546.59711c-26.33716,27.15649-36.93115,54.50171-40.45752,71.35339-1.73389,8.28235-10.98022,31.27612-19.93579,52.52405l-103.12451,161.3418c-17.28052,17.59375-39.04126,39.41119-53.52344,54.34442-26.33716,27.15686-36.93115,54.50171-40.45947,71.35376-1.73291,8.28198-10.979,31.27808-19.93604,52.52606l-103.12231,161.33807c-17.27954,17.59418-39.04028,39.41193-53.52319,54.34613-26.33936,27.15686-36.93237,54.50134-40.45874,71.35376-1.73389,8.28235-10.98218,31.27942-19.93799,52.52808l-103.12134,161.33447c-17.28052,17.59412-39.03906,39.41284-53.52441,54.34717-26.33716,27.15723-36.93018,54.50171-40.4585,71.354-1.08569,5.18823-5.12012,16.15039-10.18359,28.83972h2.41895c4.24512-10.81995,7.5127-19.92639,8.47266-24.51453,3.52637-16.85132,14.12036-44.19678,40.45874-71.35352,14.48218-14.93286,36.23853-36.74817,53.51929-54.34094l103.12939-161.35046c.59985-1.4187,1.19971-2.84534,1.79639-4.27478h15.08179c17.573-20.33984,36.73657-41.9917,45.146-49.67578,17.41284-15.91321,41.20752-42.36572,50.33081-70.68652,5.01416-15.57166,11.79346-38.39746,17.50342-56.77179l103.13843-161.35986c17.82007-20.64471,37.51294-42.92651,46.06763-50.74579,17.41553-15.91321,41.20947-42.36542,50.33179-70.68628,5.01611-15.57159,11.79468-38.39911,17.50439-56.77374l103.1355-161.35553c17.81982-20.64606,37.51294-42.92883,46.07153-50.74847,17.41406-15.9129,41.20752-42.36542,50.32959-70.68591,5.01611-15.57263,11.79443-38.40082,17.50537-56.77515l27.01074-42.2583c-3.11426-3.88519-6.39355-7.81311-9.8457-11.7821l-33.81934,52.91156c-17.27979,17.59344-39.03711,39.40985-53.52051,54.34314v-.00012ZM3926.41992,1365.04718c-1.73193,8.28113-10.97705,31.27271-19.93286,52.51843l-103.13037,161.3501c-17.27954,17.59277-39.03613,39.40845-53.51831,54.34131-10.61548,10.94458-18.66968,21.91846-24.73779,32.22485h59.74292c7.1311-10.30188,13.2522-21.49182,16.95508-32.98987,5.01636-15.57129,11.79468-38.39636,17.50366-56.77039l103.14038-161.36353c17.81885-20.64478,37.51099-42.92456,46.06665-50.74341,4.40698-4.02686,9.2229-8.73083,14.10571-13.96704h-51.74438c-2.08765,5.73645-3.51831,10.93628-4.45068,15.39954ZM4094.49634,1396.35138l-103.13135,161.34949c-17.27954,17.59363-39.03613,39.40906-53.51831,54.34216-18.35913,18.92859-29.0625,37.94446-35.0603,53.43909h53.10962c13.67773-15.09155,27.4624-34.18018,33.91211-54.20398,5.01514-15.57129,11.79248-38.39612,17.50342-56.77051l103.1394-161.36389c13.82983-16.02368,28.78491-33.02844,38.79004-43.49597h-36.43677c-3.43042,10.69653-10.96704,29.28577-18.30786,46.70361ZM4282.50244,1375.13715l-103.12842,161.34937c-17.27954,17.59375-39.03809,39.40881-53.51929,54.34192-26.33838,27.15649-36.93237,54.50159-40.45874,71.35388-.19287.922-.48364,2.03564-.85205,3.29968h38.09668c1.85889-1.89612,3.49194-3.49561,4.8457-4.73218,17.41357-15.9126,41.20654-42.36548,50.32983-70.68591,5.01733-15.57153,11.7937-38.39636,17.50342-56.77075l103.1394-161.36328c6.44629-7.46838,13.13574-15.14783,19.45605-22.28223h-24.94165c-3.19458,8.05981-6.85596,16.9165-10.47095,25.4895ZM3592.49365,1406.0434c14.44263-13.19714,33.26489-33.64648,44.4751-56.39575h-52.72217c-2.58936,27.46814-6.04004,54.74402-9.54224,74.99719,7.45898-8.23865,13.82227-14.97583,17.78931-18.60144ZM4743.39795,1472.84393c-17.27856,17.59302-39.03613,39.40845-53.51929,54.34143-26.33643,27.15674-36.92944,54.50208-40.45776,71.35376-1.73389,8.28125-10.97998,31.27466-19.93384,52.52124l-9.21802,14.42163h13.90527l11.27148-17.63391c17.81982-20.6438,37.50977-42.92285,46.06543-50.74146,17.41479-15.9126,41.20874-42.36511,50.33081-70.68591,5.01636-15.57129,11.79272-38.39612,17.50342-56.77051l76.7019-120.00256h-13.90479l-78.74463,123.19629ZM4470.51172,1353.92255l-103.12939,161.35046c-17.28076,17.59277-39.03711,39.40808-53.51929,54.34094-26.33838,27.15686-36.93237,54.5022-40.45874,71.35352-.95996,4.58826-4.22754,13.69458-8.47266,24.51453h26.18237c10.24316-11.51001,19.28491-21.29114,24.37964-25.94641,17.41577-15.91284,41.20947-42.36548,50.33081-70.68652,5.01636-15.57068,11.7937-38.39575,17.50342-56.77002l103.1394-161.36328c.30664-.35522.61499-.71191.92261-1.06799h-15.08179c-.59668,1.42944-1.19653,2.85608-1.79639,4.27478ZM3738.41162,1386.26105c-1.73389,8.28149-10.97803,31.27344-19.93286,52.51941l-103.13135,161.34961c-17.27881,17.59314-39.0354,39.40881-53.51953,54.34131-3.56494,3.6759-6.83203,7.35437-9.84131,11.01062h57.16284c1.79541-3.87268,3.36304-7.8053,4.64233-11.77563,5.01514-15.57068,11.7915-38.39612,17.5022-56.77014l103.14062-161.36377c17.82007-20.64404,37.51196-42.92419,46.06763-50.74316,9.76465-8.92273,21.53467-21.16028,31.59961-35.18164h-59.4187c-8.04248,14.26489-12.28149,27.10828-14.27148,36.61328v.00012ZM4837.4292,1577.32489c-1.73291,8.28149-10.97803,31.27466-19.93384,52.52136l-22.77759,35.63562h13.90503l24.83032-38.84814c17.82178-20.6438,37.50977-42.92322,46.06641-50.74146,15.48901-14.15283,36.01538-36.646,46.78589-61.37329-.4292-2.63623-.86035-5.29993-1.29517-8.00574-1.72778-10.75012-4.28516-24.87695-7.08203-41.20911-14.12817,14.29871-29.14331,29.43054-40.04028,40.66675-26.3374,27.15674-36.93042,54.50183-40.45874,71.35388v.00012ZM4555.38989,1494.05829c-17.27954,17.59326-39.03613,39.40881-53.51929,54.34131-26.3374,27.15698-36.93042,54.50171-40.45874,71.35376-1.54932,7.40417-9.10352,26.56763-17.08691,45.72876h16.20752c16.9541-19.58215,34.90601-39.7926,42.96973-47.16052,17.41479-15.91284,41.20752-42.36609,50.33179-70.68652,5.01538-15.57068,11.79272-38.39612,17.50244-56.77051l90.26221-141.21667h-13.90308l-92.30566,144.41064v-.00024Z" fill="#231f20"/>
</svg>