<?xml version="1.0" encoding="UTF-8"?>
<svg id="Layer_1" xmlns="http://www.w3.org/2000/svg" version="1.1" viewBox="0 0 6000 3000">
  <!-- Generator: Adobe Illustrator 29.8.2, SVG Export Plug-In . SVG Version: 2.1.1 Build 3)  -->
  <path id="C1" d="M3480.33325,1095.66663c0,11.33337,8.87012,45.49786,8.87012,45.49786l-.0647.36932-428.14453-66.49365c7.98218-45.56531,17.40112-99.90723,24.81226-144.35205l385.04639,59.80029c4.33008,17.80347,6.10693,31.37762,7.14722,38.5116,2.33325,16,2.33325,55.33331,2.33325,66.66663ZM3372.33325,578.66669c5.29419-28.08203,21.23779-62.677,37.07458-90.07269l-104.31934-88.58875c-8.71667,6.73834-17.72253,13.90198-27.42175,21.66144-30.33533,24.26825-54.85889,52.2738-75.29517,83.24219l166.12036,141.0705c-.98462-24.7002.0199-47.04236,3.84131-67.31268ZM3763.60803,185.89716l-.78577.17371c-11.82703,5.35168-52.66528,23.70905-107.12476,46.85565l17.49304,32.96222c22.13672-14.05981,40.12854-25.21344,48.4762-30.22205,13.91296-8.34784,50.104-29.73059,77.06079-45.63684l-5.65027-10.64697-29.46924,6.51428ZM5421.1499,1068.72644c-.15112-.78223-.30054-1.56183-.45068-2.34247-.79907-4.15259-1.58984-8.28973-2.36206-12.39471-.69263-3.6814-1.37231-7.37531-2.03979-11.08081s-1.323-7.42267-1.96729-11.15063c-1.93311-11.18396-3.76562-22.46533-5.52295-33.82214-.58569-3.78564-1.16309-7.57959-1.73291-11.38116-1.13965-7.60309-2.24951-15.23651-3.33667-22.89368-1.0874-7.65717-2.1521-15.33807-3.20142-23.03625-.27588-2.02271-.5415-4.05743-.81519-6.0824l-373.95703,58.07806c-2.62842,20.05975-4.43945,39.47723-5.43066,50.37976-1.39771,15.37573-8.49048,69.45477-12.63574,100.63153l415.47339-64.52582c-.68018-3.47266-1.35645-6.93695-2.021-10.37927ZM5128.13745,657.62476l168.32178-142.93988c-26.57275-42.62067-62.46069-79.35132-98.18091-108.75568l-106.5061,90.4458c25.8833,46.49506,30.31055,84.62329,36.56104,111.29169,2.60156,11.10034,2.13013,29.11169-.1958,49.95807ZM4798.47803,214.41974c-.15625-.06824-.3125-.13617-.46899-.20453-6.10571-2.66846-12.21924-5.3938-18.33911-8.18164-.22754-.10376-.45532-.20831-.68311-.31219-2.87036-1.30969-5.74219-2.63306-8.61475-3.97107-.19531-.09082-.39014-.18091-.58545-.27191-6.0415-2.81799-12.08789-5.7019-18.13721-8.65466-.37549-.18341-.75146-.36774-1.1272-.5517-2.81958-1.38025-5.6394-2.77435-8.45972-4.18591-.16553-.08289-.33105-.16461-.49658-.24756-3.09546-1.55133-6.19141-3.12097-9.2876-4.71173-.00146-.00085-.00317-.00165-.00488-.0025l-3.94019,1.20898-12.55713-2.14392-7.70752,14.52338c15.25269,9.40729,33.88062,20.61292,52.26465,30.95392,15.94922,8.97144,42.427,23.53394,74.34546,42.88312l16.87207-31.79236c-13.67065-6.26483-28.91528-13.35193-43.97559-20.40277-3.03027-1.29779-6.0625-2.61005-9.09717-3.93494ZM977.79089,991.58466l-40.75378-6.32935-322.83838-50.13898c-4.15955,28.35852-8.45508,57.49768-13.13184,87.42279-2.93726,18.79425-6.78601,37.83582-11.12195,57.01599l419.16339,65.09894c-1.1203-10.99237-2.10834-22.81439-2.10834-30.32074,0-12.23956-13.96167-74.67023-29.20911-122.74866ZM875,592.33331c12.86426-23.23859,34.51245-53.45093,58.99243-82.75952l-122.3905-103.93488c-38.05786,34.62244-67.57764,72.88867-91.04236,114.81781l139.77319,118.69623c2.38916-17.85614,7.28906-33.49127,14.66724-46.81964ZM1153.51788,229.04663l42.51831,80.11743c32.54968-18.90314,66.09143-38.88672,73.63049-44.16406,9.58124-6.70685,38.78479-19.95441,54.46216-26.87927l-37.65594-70.95526c-43.83606,21.43469-86.75128,41.55133-132.95502,61.88116ZM2899.4787,934.5611l-348.80255,54.17133c-3.94501,8.81372-7.05591,15.99011-8.78723,20.26758-7.5556,18.66663-20,46.22223-29.33337,83.55554-6.21802,24.87219-8.83563,36.49335-10.10461,51.87207l427.28455-66.36005c-9.49738-39.73981-18.50287-77.94299-25.50232-116.24689-1.65491-9.05627-3.23175-18.14612-4.75446-27.25958ZM2656.76074,633.21533l136.0379-115.52429c-16.58057-28.31616-36.4054-55.323-60.41577-80.63501-10.79858-11.38397-21.96136-21.93073-33.45288-31.78259l-117.39478,99.69244c14.13586,16.75958,25.16663,31.09094,32.7981,39.58966,13.64606,15.19672,32.26678,54.414,42.42743,88.65979ZM2222.86987,168.59528l-37.10345,69.91418c12.94507,7.41357,37.85828,21.49115,59.67804,32.71277,16.09344,8.27661,43.96008,22.73737,69.39014,36.49225l40.14355-75.64258c-13.94714-6.27539-27.98169-12.83551-42.08612-19.78839-28.1991-13.90094-58.88452-28.60565-90.02216-43.68823Z" fill="#ffc000"/>
  <path id="C2" d="M3439.33325,908.66669c16.302,30.09589,25.56982,57.96765,31.02344,79.80597l-384.23547-59.67432c2.90784-17.46246,5.49438-33.33765,7.54553-46.46503.64355-4.11951,1.27185-8.24677,1.89355-12.37762.00037-.00195.00073-.00397.00098-.00592.80371-5.34003,1.59277-10.68811,2.37097-16.04315.00037-.00208.00061-.00409.00085-.00616,3.37793-23.24304,6.57812-46.60547,10.11279-69.90259l295.40308,45.87805c10.16357,27.20264,22.39502,53.88733,35.88428,78.79077ZM3306.63867,398.80841l103.74976,88.10498c6.76611-11.58167,13.47266-21.80652,19.27832-29.58008,15.0155-20.10565,43.25488-48.5686,79.80127-78.41235l-68.8064-58.43097c-62.48999,27.37952-95.64661,48.76111-134.02295,78.31842ZM3800.37927,189.05536c17.44006-10.28998,30.62073-18.05536,30.62073-18.05536l-35.98169,7.9538,5.36096,10.10156ZM5385.01904,824.67371c-1.08057-7.70764-2.18262-15.39996-3.31348-23.07043-.69336-4.70343-1.40576-9.3924-2.12256-14.07782l-301.21143,46.78021c-15.01099,31.67377-35.573,83.4679-42.03833,103.36102-4.23047,13.01709-7.66455,33.1817-10.3064,52.974l373.43945-57.99774c-4.84058-35.88824-9.41675-72.08844-14.44727-107.96924ZM5090.81177,494.67731l105.95972-89.98181c-43.01685-35.16901-85.58521-59.68689-111.10474-71.02881-6.28125-2.79163-13.33472-5.80103-20.94629-8.96393l-70.21143,59.62384c7.59741,6.51886,15.10962,13.18921,22.49097,20.00671,35.26904,32.57489,58.29053,62.8963,73.81177,90.34399ZM4706.43506,195.70416l7.35229-13.85431-40.12061-6.84985s13.48901,8.78796,32.76831,20.70416ZM946.81665,922.28558c-13.81665-24.34613-32.12769-57.51892-48.03088-93.11517l-261.83289-40.66443v.00006c-8.00952,45.73035-15.03394,93.96478-22.47607,144.71478l362.66382,56.32416c-6.14258-19.15692-12.46387-35.84918-18.14062-45.8783-3.37183-5.95697-7.52283-13.16888-12.18335-21.3811ZM813.02954,404.33795l122.19458,103.76849c14.49341-17.26752,29.93433-34.17621,45.10925-49.10645,15.92798-15.67108,38.58868-34.31122,61.95282-52.10724l-102.69452-87.20892c-50.41638,25.24744-91.99109,53.46234-126.56213,84.65411ZM1316.77234,153.17096c.18231-.38666.28571-.75763.34344-1.11951-9.71698,4.83319-19.34125,9.5835-28.92065,14.27252l37.69135,71.02191c5.14355-2.26337,8.4469-3.6792,8.4469-3.6792,0,0-31.7887-50.32477-17.56104-80.49573ZM2628.61731,826.4834c-9.74176,23.77441-21.21283,50.24261-30.284,65.18329-11.37909,18.74207-33.34149,65.20343-46.72266,94.98187l347.55493-53.97754c-7.97296-47.97858-14.42981-96.62-22.22986-144.75311l-248.31842,38.56549ZM2697.45013,404.01685c-39.7926-33.82306-83.53912-59.32477-130.13312-81.62164l-97.58044,82.86603c7.67767,5.15955,15.59338,10.55151,23.70789,16.18323,35.63751,24.73346,64.90167,56.14508,86.85541,82.05719l117.15027-99.4848ZM2176.89746,233.396s2.69299,1.5697,7.20605,4.1601l37.04114-69.79681c-8.72241-4.22675-17.4754-8.48071-26.21857-12.75641,2.44965,7.21887,5.67712,29.38287-18.02863,78.39313Z"/>
</svg>