<?xml version="1.0" encoding="UTF-8"?>
<svg id="Layer_1" xmlns="http://www.w3.org/2000/svg" version="1.1" viewBox="0 0 6000 3000">
  <!-- Generator: Adobe Illustrator 29.8.2, SVG Export Plug-In . SVG Version: 2.1.1 Build 3)  -->
  <path id="C1" d="M966.40894,959.46765l-344.5968-76.02692c17.88733-119.95752,36.06494-224.91687,75.07385-314.96674l171.60706,37.8609c-14.17639,36.65625-13.20752,87.17664,3.84033,150.6651,19.33337,72,66.66663,151.33331,86.66663,186.66669,2.37659,4.19867,4.86682,9.57532,7.40894,15.80096ZM1135,343.66669c26.66669-14,121.33337-69.33337,134.66669-78.66669,4.93341-3.45337,15.06995-8.64081,25.88281-13.8064l-28.04712-74.80859c-79.46967,38.38092-157.89307,73.12122-260.72461,113.50391-12.69196,4.98419-24.91095,10.11456-36.70355,15.38232l45.86938,122.34515c43.4209-35.40863,98.70715-73.26636,119.0564-83.94971ZM3143.66675,627.66669c-25.49243,72.32745-34.64355,149.9259-45.73364,226.23376-.00024.00208-.00049.00409-.00085.00616-.7782,5.35504-1.56726,10.70312-2.37097,16.04315-.00024.00195-.00061.00397-.00098.00592-.53955,3.58533-1.08826,7.16583-1.64355,10.74304l368.68579,81.34155c-5.49634-16.26898-12.97961-34.37732-23.26929-53.3736-30.33325-56-54.33325-121-62.6665-180.66669-6.31104-45.18634-9.94043-84.25043-8.00293-118.21503l-199.94214-44.11237c-9.25989,19.87744-17.50916,40.58496-25.05493,61.99408ZM3538.10168,281.22949c-.00208.00079-.00403.00159-.00598.00238-5.18079,2.04608-10.38306,4.08923-15.60303,6.12518l-.01392.00549c-4.26172,1.66229-8.53345,3.32013-12.81201,4.97076-19.33435,7.45892-36.54541,14.36572-52.07556,20.89673l31.19128,83.19476c16.78516-14.73474,35.95264-30.17828,56.88428-45.4248,54-39.33331,152.6665-101.33331,176-115.33331,8.46191-5.07715,25.16663-14.97729,43.02148-25.53369l-7.98657-21.30176c-28.95898,13.02307-119.50195,53.26019-218.59998,92.39825ZM5385.01904,824.67371c-1.08057-7.70764-2.18262-15.39996-3.31348-23.07043-1.69629-11.50574-3.45728-22.96228-5.30786-34.3476-4.31812-26.56586-9.12354-52.7442-14.73096-78.25568-.01196-.05371-.02417-.10608-.03613-.15979-.72095-3.27722-1.45654-6.52399-2.20532-9.74286-.25293-1.08813-.51562-2.15576-.77197-3.23724-.5144-2.17133-1.02808-4.34412-1.55518-6.48895-.31201-1.27008-.63379-2.51978-.95044-3.78064-.48486-1.9317-.96826-3.86615-1.46362-5.77637-.34253-1.32214-.69409-2.62567-1.04175-3.93756-.48267-1.82135-.9646-3.64423-1.45679-5.44598-.36401-1.3335-.73584-2.65094-1.10522-3.97375-.4895-1.75348-.97925-3.50647-1.47778-5.24127-.38184-1.32898-.77026-2.64429-1.15723-3.96234-.5-1.70172-1.00098-3.401-1.50952-5.08472-.39551-1.30994-.79639-2.60883-1.19727-3.9079-.51538-1.67047-1.0332-3.33618-1.55737-4.98883-.40527-1.27869-.81494-2.54913-1.22559-3.81726-.53247-1.64471-1.06836-3.28241-1.60962-4.90948-.41602-1.25079-.83496-2.49585-1.25586-3.73627-.55103-1.6228-1.10645-3.23633-1.66602-4.84149-.42236-1.21185-.84644-2.42065-1.27368-3.62256-.57324-1.61212-1.1521-3.21265-1.73389-4.80695-.42725-1.17059-.85498-2.34064-1.28687-3.50171-.59741-1.60571-1.20166-3.19757-1.80811-4.78516-.42822-1.12115-.85547-2.24414-1.28809-3.35632-.62915-1.61731-1.26636-3.21844-1.90503-4.81689-.42188-1.05646-.8418-2.11731-1.26782-3.16565-.66919-1.64624-1.34741-3.27393-2.02637-4.90009-.4082-.97729-.81274-1.96118-1.22437-2.93127-.72754-1.71387-1.46509-3.4068-2.20361-5.09839-.15796-.362-.31592-.72388-.47314-1.08722l-193.83203,42.76422c.07739.33575.1543.67517.23218,1.00739,10,42.66663-25.33325,187.33331-37.33325,203.33331s-46,100-54.66675,126.66669c-1.95972,6.03015-3.74731,13.60236-5.36621,21.95288l361.49707-79.75549c-2.427-18.4248-4.87402-36.85144-7.44507-55.19037ZM4886.33325,254.33331c-17.47388-7.48877-48.49072-21.80829-78.75806-35.97864-3.03027-1.29779-6.0625-2.61005-9.09717-3.93494-.15625-.06824-.3125-.13617-.46899-.20453-6.10571-2.66846-12.21924-5.3938-18.33911-8.18164-.22754-.10376-.45532-.20831-.68311-.31219-2.87036-1.30969-5.74219-2.63306-8.61475-3.97107-.19531-.09082-.39014-.18091-.58545-.27191-6.0415-2.81799-12.08789-5.7019-18.13721-8.65466-.37549-.18341-.75146-.36774-1.1272-.5517-2.81958-1.38025-5.6394-2.77435-8.45972-4.18591-.16553-.08289-.33105-.16461-.49658-.24756-3.09546-1.55133-6.19141-3.12097-9.2876-4.71173-.00146-.00085-.00317-.00165-.00488-.0025l-3.94019,1.20898-.70557-.12048-7.46118,19.90076c12.51514,7.59155,26.40918,15.81439,40.16675,23.5531,39.80493,22.39014,145.1731,79.59796,237.07861,159.16559l29.07202-77.54224c-51.23047-20.19452-110.94873-42.44159-140.15063-54.95673ZM2818.47955,568.0694l-171.18756,37.76837c9.4953,24.21857,16.6037,49.69775,16.81909,66.71777.44446,35.11115-10.22217,91.11115-19.55554,114.22223-9.33331,23.11115-31.11108,80-46.22223,104.88892-7.83301,12.90143-20.68121,38.9386-32.29333,63.62732l325.39697-71.79089c-16.29144-108.22223-29.8576-217.77094-72.9574-315.43372ZM2312.89203,212.28351c-21.50226-10.59967-44.45337-21.66797-67.94446-33.013l-28.63971,76.38928c9.46686,5.20416,19.59753,10.65662,29.1366,15.56244,31.11108,16,106.22223,55.11108,122.66663,67.55554,16.44446,12.44446,65.77783,41.33331,125.33337,82.66669,1.716,1.19092,3.41345,2.40106,5.09979,3.62164l42.96521-114.59888c-71.51086-32.00574-148.97644-58.92426-228.61743-98.18372Z" fill="#ffc000"/>
</svg>