<?xml version="1.0" encoding="UTF-8"?>
<svg id="Layer_1" xmlns="http://www.w3.org/2000/svg" version="1.1" viewBox="0 0 6000 3000">
  <!-- Generator: Adobe Illustrator 29.8.2, SVG Export Plug-In . SVG Version: 2.1.1 Build 3)  -->
  <path id="C1" d="M2891.43695,883.50317l-325.39703,71.79095c11.61218-24.68872,24.46039-50.72601,32.2934-63.62744,15.11115-24.88892,36.88892-81.77777,46.22223-104.88892,9.33337-23.11108,20-79.11108,19.55554-114.22223-.21539-17.01996-7.32379-42.49908-16.81909-66.71771l171.18756-37.76843c43.09979,97.66278,56.66595,207.21149,72.9574,315.43378ZM959,943.66669c-20-35.33337-67.33325-114.66669-86.66663-186.66669-17.04785-63.4884-18.01672-114.00885-3.84033-150.6651l-171.60706-37.8609c-39.00891,90.04987-57.18652,195.00922-75.07385,314.96674l344.5968,76.02692c-2.54211-6.22565-5.03235-11.60229-7.40894-15.80096ZM1135,343.66669c26.66669-14,121.33337-69.33337,134.66669-78.66669,4.93341-3.45337,15.06995-8.64081,25.88281-13.8064l-28.04712-74.80859c-79.46967,38.38092-157.89307,73.12122-260.72461,113.50391-12.69196,4.98419-24.91095,10.11456-36.70355,15.38232l45.86938,122.34515c43.4209-35.40863,98.70715-73.26636,119.0564-83.94971ZM2312.89203,212.28351c-21.50226-10.59967-44.45337-21.66797-67.94446-33.013l-28.63971,76.38928c9.46686,5.20416,19.59753,10.65662,29.1366,15.56244,31.11108,16,106.22223,55.11108,122.66663,67.55554,16.44446,12.44446,65.77783,41.33331,125.33337,82.66669,1.716,1.19092,3.41345,2.40106,5.09979,3.62164l42.96521-114.59888c-71.51086-32.00574-148.97644-58.92426-228.61743-98.18372ZM5385.01904,824.67371c-1.08057-7.70764-2.18262-15.39996-3.31348-23.07043-1.69629-11.50574-3.45728-22.96228-5.30786-34.3476-4.31812-26.56586-9.12354-52.7442-14.73096-78.25568-.01196-.05371-.02417-.10608-.03613-.15979-.72095-3.27722-1.45654-6.52399-2.20532-9.74286-.25293-1.08813-.51562-2.15576-.77197-3.23724-.5144-2.17133-1.02808-4.34412-1.55518-6.48895-.31201-1.27008-.63379-2.51978-.95044-3.78064-.48486-1.9317-.96826-3.86615-1.46362-5.77637-.34253-1.32214-.69409-2.62567-1.04175-3.93756-.48267-1.82135-.9646-3.64423-1.45679-5.44598-.36401-1.3335-.73584-2.65094-1.10522-3.97375-.4895-1.75348-.97925-3.50647-1.47778-5.24127-.38184-1.32898-.77026-2.64429-1.15723-3.96234-.5-1.70172-1.00098-3.401-1.50952-5.08472-.39551-1.30994-.79639-2.60883-1.19727-3.9079-.51538-1.67047-1.0332-3.33618-1.55737-4.98883-.40527-1.27869-.81494-2.54913-1.22559-3.81726-.53247-1.64471-1.06836-3.28241-1.60962-4.90948-.41602-1.25079-.83496-2.49585-1.25586-3.73627-.55103-1.6228-1.10645-3.23633-1.66602-4.84149-.42236-1.21185-.84644-2.42065-1.27368-3.62256-.57324-1.61212-1.1521-3.21265-1.73389-4.80695-.42725-1.17059-.85498-2.34064-1.28687-3.50171-.59741-1.60571-1.20166-3.19757-1.80811-4.78516-.42822-1.12115-.85547-2.24414-1.28809-3.35632-.62915-1.61731-1.26636-3.21844-1.90503-4.81689-.42188-1.05646-.8418-2.11731-1.26782-3.16565-.66919-1.64624-1.34741-3.27393-2.02637-4.90009-.4082-.97729-.81274-1.96118-1.22437-2.93127-.72754-1.71387-1.46509-3.4068-2.20361-5.09839-.07886-.18079-.15771-.36169-.23633-.54309l-193.93799,42.78772c.03394.14569.06738.29474.10132.43976,10,42.66663-25.33325,187.33331-37.33325,203.33331s-46,100-54.66675,126.66669c-2.00806,6.17908-3.83496,13.97955-5.48535,22.57562l361.69312-79.79877c-2.4519-18.61804-4.92383-37.23859-7.52197-55.76984ZM3439.33325,908.66669c-30.33325-56-54.33325-121-62.6665-180.66669-6.34766-45.44818-9.98083-84.70148-7.96704-118.80347l-199.72546-44.06458c-9.36267,20.04242-17.69324,40.9314-25.3075,62.53473-25.49243,72.32745-34.64355,149.9259-45.73364,226.23376-.00024.00208-.00049.00409-.00085.00616-.7782,5.35504-1.56726,10.70312-2.37097,16.04315-.00024.00195-.00061.00397-.00098.00592-.51062,3.39282-1.03101,6.78052-1.55518,10.16614l368.37585,81.27319c-5.47595-16.10315-12.89307-33.98138-23.04773-52.72833ZM3545.66675,351c54-39.33331,152.6665-101.33331,176-115.33331,8.81067-5.28644,26.55713-15.80121,45.23401-26.84167l-7.88635-21.03491c-26.13489,11.77747-118.99561,53.18787-220.91272,93.43939-.00208.00079-.00403.00159-.00598.00238-5.18079,2.04608-10.38306,4.08923-15.60303,6.12518l-.01392.00549c-4.26172,1.66229-8.53345,3.32013-12.81201,4.97076-18.36597,7.08539-34.82593,13.67474-49.74048,19.9151l30.89062,82.39313c16.2926-14.1944,34.76196-29.0097,54.84985-43.64154ZM4886.33325,254.33331c-17.47388-7.48877-48.49072-21.80829-78.75806-35.97864-3.03027-1.29779-6.0625-2.61005-9.09717-3.93494-.15625-.06824-.3125-.13617-.46899-.20453-6.10571-2.66846-12.21924-5.3938-18.33911-8.18164-.22754-.10376-.45532-.20831-.68311-.31219-2.87036-1.30969-5.74219-2.63306-8.61475-3.97107-.19531-.09082-.39014-.18091-.58545-.27191-6.0415-2.81799-12.08789-5.7019-18.13721-8.65466-.37549-.18341-.75146-.36774-1.1272-.5517-2.81958-1.38025-5.6394-2.77435-8.45972-4.18591-.16553-.08289-.33105-.16461-.49658-.24756-3.09546-1.55133-6.19141-3.12097-9.2876-4.71173-.00146-.00085-.00317-.00165-.00488-.0025l-1.73413.5321-8.16992,21.7912c11.93213,7.21484,25.0083,14.93158,37.96387,22.21906,40.09937,22.55591,146.73755,80.44537,239.11841,160.93488l29.38696-78.38257c-51.74292-20.43774-112.85498-43.17841-142.50537-55.88568Z" fill="#ffc000"/>
  <path id="C2" d="M2893.88599,899.5918l-336.45032,74.22961c2.71588-5.92322,5.61865-12.1795,8.60425-18.52728l325.39703-71.79095c.80792,5.36682,1.62372,10.72992,2.44904,16.08862ZM2811.5351,552.97253l-170.60095,37.63898c2.19849,4.95599,4.33282,10.0614,6.35785,15.22632l171.18756-37.76843c-2.23499-5.06445-4.54608-10.09821-6.94446-15.09686ZM875,592.33331c.51208-.92511,1.04883-1.86963,1.58838-2.81635l-172.04175-37.95679c-2.64014,5.57831-5.19238,11.21613-7.66064,16.91382l171.60706,37.8609c1.90051-4.91431,4.06384-9.5882,6.50696-14.00159ZM966.40894,959.46765l-344.5968-76.02692c-.89001,5.9682-1.77942,11.97229-2.67053,18.01477l354.75903,78.26886c-2.51013-7.37756-5.02539-14.21661-7.4917-20.25671ZM1015.9436,427.61639l-45.86938-122.34515c-5.07581,2.26746-10.07056,4.5611-14.98486,6.88104l47.47522,126.6283c4.28796-3.67004,8.76721-7.40338,13.37903-11.16418ZM1310.50354,244.23035l-28.14014-75.05688c-4.96161,2.41992-9.91364,4.82214-14.86102,7.21155l28.04712,74.80859c4.98962-2.38361,10.12073-4.76154,14.95404-6.96326ZM2541.50946,310.46722l-42.96521,114.59888c4.82452,3.49194,9.51788,7.1048,14.09656,10.79626l44.36292-118.32709c-5.13293-2.3866-10.29694-4.74188-15.49426-7.06805ZM2229.58667,171.84662l-28.29407,75.46741c4.6524,2.61261,9.72681,5.43854,15.01526,8.34576l28.63971-76.38928c-5.09827-2.46222-10.22058-4.93732-15.3609-7.42389ZM5392.54102,880.44354l-361.69312,79.79877c-1.0564,5.50281-2.04053,11.32733-2.9502,17.27991l366.77344-80.91968c-.7085-5.3869-1.42017-10.76959-2.13013-16.159ZM5321.28418,562.40454c-.83667-1.88953-1.68506-3.7558-2.53564-5.61761-.28906-.63281-.57324-1.27533-.86377-1.90491-.8623-1.8678-1.73804-3.70917-2.61401-5.54968l-190.44141,42.0163c1.17236,5.66449,2.25977,10.96448,3.40259,15.8783l193.93799-42.78772c-.29468-.6795-.58789-1.36176-.88574-2.03467ZM3370.39111,590.96576l-193.22473-42.63031c-2.82141,5.52631-5.54504,11.13-8.19214,16.79651l199.72546,44.06458c.3689-6.24695.92505-12.32361,1.69141-18.23077ZM3462.38098,961.39502l-368.37585-81.27319c-.11414.73651-.22339,1.47546-.33838,2.21149-.7644,4.89227-1.60388,10.16992-2.50586,15.76495l377.33105,83.2489c-1.70898-6.26227-3.7251-12.93579-6.11096-19.95215ZM3490.81689,394.64154l-30.89062-82.39313c-5.23523,2.19049-10.27808,4.33746-15.14722,6.44812l32.88135,87.70294c4.20789-3.8595,8.59412-7.78314,13.15649-11.75793ZM3781.28027,200.3291l-6.34912-16.93494-11.32312,2.50299-.78577.17371c-1.04272.47186-2.32446,1.05078-3.80786,1.71924l7.88635,21.03491c4.77759-2.82416,9.61414-5.68158,14.37952-8.49591ZM4728.33325,184.33331l-15.21802-2.59821-5.50854,14.69287c4.63672,2.86145,9.59229,5.89343,14.7627,9.01965l8.16992-21.7912-2.20605.67688ZM5028.83862,310.21899l-29.38696,78.38257c4.57227,3.98376,9.10938,8.0224,13.60181,12.1153l31.57275-84.21234c-5.13062-2.06104-10.40845-4.16083-15.7876-6.28552Z"/>
</svg>