<?xml version="1.0" encoding="UTF-8"?>
<svg id="Layer_1" xmlns="http://www.w3.org/2000/svg" version="1.1" viewBox="0 0 6000 3000">
  <!-- Generator: Adobe Illustrator 29.8.2, SVG Export Plug-In . SVG Version: 2.1.1 Build 3)  -->
  <path id="C2" d="M3362.77075,506.77069c25.00781-20.00629,45.41895-36.07251,68.09546-51.01398-.40332.52777-.81348,1.05975-1.19946,1.5766-6.61743,8.86066-14.40466,20.89886-22.11743,34.51245-10.59424,8.06421-21.48779,16.71716-33.4314,26.27209-66.66675,53.33331-105.3335,124.66663-134,206-25.49243,72.32745-34.64355,149.9259-45.73364,226.23376-.00024.00208-.00049.00409-.00085.00616-.7782,5.35504-1.56726,10.70312-2.37097,16.04315-.00024.00195-.00061.00397-.00098.00592-.6217,4.13086-1.25,8.25812-1.89355,12.37762-8.55383,54.7439-26.40894,157.22668-38.11108,223.66742-4.42432-1.04498-8.69214-2.07733-12.80176-3.09497,11.62549-65.91425,30.64893-174.85339,39.56567-231.91962.64355-4.11951,1.27185-8.24677,1.89355-12.37762.00037-.00195.00073-.00397.00098-.00592.80371-5.34003,1.59277-10.68811,2.37097-16.04315.00037-.00208.00061-.00409.00085-.00616,11.09009-76.30786,20.24121-153.90631,45.73364-226.23376,28.6665-81.33337,67.33325-152.66669,134-206ZM5344.64795,1197.30536c-.30249-1.50397-.60376-3.00623-.90479-4.50574-.75317-3.7533-1.50269-7.4964-2.24487-11.22046-.11914-.59808-.23779-1.19537-.35669-1.7926-.75586-3.79797-1.50293-7.57611-2.24438-11.34131-.17749-.90149-.35571-1.80542-.53223-2.7049-.7832-3.98993-1.5564-7.95996-2.31909-11.90991-.15112-.78223-.30054-1.56183-.45068-2.34247-.79907-4.15259-1.58984-8.28973-2.36206-12.39471-.69263-3.6814-1.37231-7.37531-2.03979-11.08081s-1.323-7.42267-1.96729-11.15063c-1.93311-11.18396-3.76562-22.46533-5.52295-33.82214-.58569-3.78564-1.16309-7.57959-1.73291-11.38116-1.13965-7.60309-2.24951-15.23651-3.33667-22.89368-1.0874-7.65717-2.1521-15.33807-3.20142-23.03625-5.24731-38.49078-10.11401-77.41254-15.51709-115.95087-1.08057-7.70764-2.18262-15.39996-3.31348-23.07043-1.69629-11.50574-3.45728-22.96228-5.30786-34.3476-4.31812-26.56586-9.12354-52.7442-14.73096-78.25568-.01196-.05371-.02417-.10608-.03613-.15979-.72095-3.27722-1.45654-6.52399-2.20532-9.74286-.25293-1.08813-.51562-2.15576-.77197-3.23724-.5144-2.17133-1.02808-4.34412-1.55518-6.48895-.31201-1.27008-.63379-2.51978-.95044-3.78064-.48486-1.9317-.96826-3.86615-1.46362-5.77637-.34253-1.32214-.69409-2.62567-1.04175-3.93756-.48267-1.82135-.9646-3.64423-1.45679-5.44598-.36401-1.3335-.73584-2.65094-1.10522-3.97375-.4895-1.75348-.97925-3.50647-1.47778-5.24127-.38184-1.32898-.77026-2.64429-1.15723-3.96234-.5-1.70172-1.00098-3.401-1.50952-5.08472-.39551-1.30994-.79639-2.60883-1.19727-3.9079-.51538-1.67047-1.0332-3.33618-1.55737-4.98883-.40527-1.27869-.81494-2.54913-1.22559-3.81726-.53247-1.64471-1.06836-3.28241-1.60962-4.90948-.41602-1.25079-.83496-2.49585-1.25586-3.73627-.55103-1.6228-1.10645-3.23633-1.66602-4.84149-.42236-1.21185-.84644-2.42065-1.27368-3.62256-.57324-1.61212-1.1521-3.21265-1.73389-4.80695-.42725-1.17059-.85498-2.34064-1.28687-3.50171-.59741-1.60571-1.20166-3.19757-1.80811-4.78516-.42822-1.12115-.85547-2.24414-1.28809-3.35632-.62915-1.61731-1.26636-3.21844-1.90503-4.81689-.42188-1.05646-.8418-2.11731-1.26782-3.16565-.66919-1.64624-1.34741-3.27393-2.02637-4.90009-.4082-.97729-.81274-1.96118-1.22437-2.93127-.72754-1.71387-1.46509-3.4068-2.20361-5.09839-.37451-.85822-.74463-1.72522-1.12207-2.57776-.83667-1.88953-1.68506-3.7558-2.53564-5.61761-.28906-.63281-.57324-1.27533-.86377-1.90491-1.13867-2.46631-2.28857-4.90985-3.45166-7.32788-.00903-.0191-.01807-.03864-.0271-.05768-.04761-.1001-.09473-.19568-.14233-.29663-.17505-.36328-.35449-.71783-.53027-1.07983-.79199-1.63342-1.58862-3.25757-2.39185-4.8692-.96582-1.93195-1.9397-3.84827-2.91992-5.75226-.00391-.00775-.00806-.01562-.01196-.02344-38.11768-72.53485-105.07471-129.99786-159.62402-166.15717,10.41211,13.25525,18.93726,26.00824,25.9624,38.20007,45.26685,35.28558,92.57056,82.70416,122.31445,139.30426.00391.00781.00806.01569.01196.02344.98022,1.90399,1.9541,3.82031,2.91992,5.75226.80322,1.61163,1.59985,3.23578,2.39185,4.8692.17578.362.35522.71655.53027,1.07983.04761.10095.09473.19653.14233.29663.00903.01904.01807.03857.0271.05768,1.16309,2.41803,2.31299,4.86157,3.45166,7.32788.29053.62958.57471,1.27209.86377,1.90491.85059,1.86182,1.69897,3.72809,2.53564,5.61761.37744.85254.74756,1.71954,1.12207,2.57776.73853,1.69159,1.47607,3.38452,2.20361,5.09839.41162.97009.81616,1.95398,1.22437,2.93127.67896,1.62616,1.35718,3.25385,2.02637,4.90009.42603,1.04834.84595,2.10919,1.26782,3.16565.63867,1.59845,1.27588,3.19958,1.90503,4.81689.43262,1.11218.85986,2.23517,1.28809,3.35632.60645,1.58759,1.21069,3.17944,1.80811,4.78516.43188,1.16107.85962,2.33112,1.28687,3.50171.58179,1.5943,1.16064,3.19482,1.73389,4.80695.42725,1.2019.85132,2.41071,1.27368,3.62256.55957,1.60516,1.11499,3.21869,1.66602,4.84149.4209,1.24042.83984,2.48547,1.25586,3.73627.54126,1.62708,1.07715,3.26477,1.60962,4.90948.41064,1.26813.82031,2.53857,1.22559,3.81726.52417,1.65265,1.04199,3.31836,1.55737,4.98883.40088,1.29907.80176,2.59796,1.19727,3.9079.50854,1.68372,1.00952,3.383,1.50952,5.08472.38696,1.31805.77539,2.63336,1.15723,3.96234.49854,1.7348.98828,3.48779,1.47778,5.24127.36938,1.32281.74121,2.64026,1.10522,3.97375.49219,1.80176.97412,3.62463,1.45679,5.44598.34766,1.31189.69922,2.61542,1.04175,3.93756.49536,1.91022.97876,3.84467,1.46362,5.77637.31665,1.26086.63843,2.51056.95044,3.78064.5271,2.14484,1.04077,4.31763,1.55518,6.48895.25635,1.08148.51904,2.14911.77197,3.23724.74878,3.21887,1.48438,6.46564,2.20532,9.74286.01196.05371.02417.10608.03613.15979,5.60742,25.51147,10.41284,51.68982,14.73096,78.25568,1.85059,11.38531,3.61157,22.84186,5.30786,34.3476,1.13086,7.67047,2.23291,15.36279,3.31348,23.07043,5.40308,38.53833,10.26978,77.46008,15.51709,115.95087,1.04932,7.69818,2.11401,15.37909,3.20142,23.03625,1.08716,7.65717,2.19702,15.29059,3.33667,22.89368.56982,3.80157,1.14722,7.59552,1.73291,11.38116,1.75732,11.35681,3.58984,22.63818,5.52295,33.82214.64429,3.72797,1.2998,7.44513,1.96729,11.15063s1.34717,7.39941,2.03979,11.08081c.77222,4.10498,1.56299,8.24213,2.36206,12.39471.15015.78064.29956,1.56024.45068,2.34247.7627,3.94995,1.53589,7.91998,2.31909,11.90991.17651.89948.35474,1.80341.53223,2.7049.74146,3.7652,1.48853,7.54333,2.24438,11.34131.1189.59723.23755,1.19452.35669,1.7926.74219,3.72406,1.4917,7.46716,2.24487,11.22046.18896.94171.37866,1.88611.56836,2.82971,4.55396-.80078,8.93335-1.60529,13.14429-2.41663-.0105-.05188-.021-.10437-.03149-.15625-.47778-2.37048-.95459-4.7384-1.4292-7.09827ZM686.1709,1107.64313c-5.47998,35.06464-14.09888,70.98077-23.23438,107.07947,3.47925.75684,7.05212,1.51642,10.73022,2.2774.91187.18866,1.83521.37695,2.75867.56525,8.32751-33.23218,16.04321-66.2652,21.09265-98.57495,50.23926-321.46008,56.52197-552.4668,322.12646-694.37384,18.8476-15.19824,39.61951-30.68811,58.66296-44.15735-334.88025,137.7934-337.8175,379.61731-392.1366,727.18402ZM2647.27887,522.16003c-56.34973-59.40454-122.50647-96.2475-194.61523-128.25513,12.79968,8.42944,26.49103,17.62201,40.78082,27.53955,12.40704,8.61084,24.0304,18.03638,34.85413,27.75317,38.69348,22.78961,74.82611,49.72406,107.63312,84.30957,135.95404,143.32428,138.229,340.7757,171.85028,524.76465,9.73102,53.25208,23.33801,106.30835,36.7558,163.57385,4.57135-1.03113,8.99963-2.06842,13.26965-3.10828-14.03052-60.43536-28.48212-116.0152-38.67828-171.81274-33.62128-183.98895-35.89624-381.44037-171.85028-524.76465Z"/>
  <path id="C1" d="M3374.11792,518.11786c11.9436-9.55493,22.83716-18.20789,33.4314-26.27209-15.20935,26.84521-30.12903,59.83777-35.21606,86.82092-7.6665,40.66663-4,89.66663,4.3335,149.33331,8.33325,59.66669,32.33325,124.66669,62.6665,180.66669,30.3335,56,36.3335,104.33331,38.66675,120.33331s2.33325,55.33331,2.33325,66.66663,8.87012,45.49786,8.87012,45.49786l-17.30029,98.6991c-6.9353-.04211-18.00171-.03802-34.90308.13641-34.94238.36066-186-15-274-35-3.77173-.85724-7.43018-1.70648-10.99316-2.5481,11.70215-66.44073,29.55725-168.92352,38.11108-223.66742.64355-4.11951,1.27185-8.24677,1.89355-12.37762.00037-.00195.00073-.00397.00098-.00592.80371-5.34003,1.59277-10.68811,2.37097-16.04315.00037-.00208.00061-.00409.00085-.00616,11.09009-76.30786,20.24121-153.90631,45.73364-226.23376,28.6665-81.33337,67.33325-152.66669,134-206ZM697.51807,1118.9903c-5.04944,32.30975-12.76514,65.34277-21.09265,98.57495,77.38171,15.77863,194.21448,30.11713,219.90796,31.43475,19.27344.98834,67.11316,3.80798,90.58081,5.20099,2.82434-29.06616,6.85181-55.91608,15.05896-74.57111,2.09827-4.76941,3.51794-10.42932,10.03369-9.66107-1.06354-8.41815-5.00684-40.6394-5.00684-55.6355,0-17.33331-28-135.33331-48-170.66663-20-35.33337-67.33325-114.66669-86.66663-186.66669s-18-127.33331,2.66663-164.66669c20.66675-37.33331,64-92.66663,105.33337-133.33331,10.68121-10.50891,24.39307-22.35388,39.31116-34.38354-265.60449,141.90704-271.88721,372.91376-322.12646,694.37384ZM5330.15112,1192.92633c-.11914-.59808-.23779-1.19537-.35669-1.7926-.75586-3.79797-1.50293-7.57611-2.24438-11.34131-.17749-.90149-.35571-1.80542-.53223-2.7049-.7832-3.98993-1.5564-7.95996-2.31909-11.90991-.15112-.78223-.30054-1.56183-.45068-2.34247-.79907-4.15259-1.58984-8.28973-2.36206-12.39471-.69263-3.6814-1.37231-7.37531-2.03979-11.08081s-1.323-7.42267-1.96729-11.15063c-1.93311-11.18396-3.76562-22.46533-5.52295-33.82214-.58569-3.78564-1.16309-7.57959-1.73291-11.38116-1.13965-7.60309-2.24951-15.23651-3.33667-22.89368-1.0874-7.65717-2.1521-15.33807-3.20142-23.03625-5.24731-38.49078-10.11401-77.41254-15.51709-115.95087-1.08057-7.70764-2.18262-15.39996-3.31348-23.07043-1.69629-11.50574-3.45728-22.96228-5.30786-34.3476-4.31812-26.56586-9.12354-52.7442-14.73096-78.25568-.01196-.05371-.02417-.10608-.03613-.15979-.72095-3.27722-1.45654-6.52399-2.20532-9.74286-.25293-1.08813-.51562-2.15576-.77197-3.23724-.5144-2.17133-1.02808-4.34412-1.55518-6.48895-.31201-1.27008-.63379-2.51978-.95044-3.78064-.48486-1.9317-.96826-3.86615-1.46362-5.77637-.34253-1.32214-.69409-2.62567-1.04175-3.93756-.48267-1.82135-.9646-3.64423-1.45679-5.44598-.36401-1.3335-.73584-2.65094-1.10522-3.97375-.4895-1.75348-.97925-3.50647-1.47778-5.24127-.38184-1.32898-.77026-2.64429-1.15723-3.96234-.5-1.70172-1.00098-3.401-1.50952-5.08472-.39551-1.30994-.79639-2.60883-1.19727-3.9079-.51538-1.67047-1.0332-3.33618-1.55737-4.98883-.40527-1.27869-.81494-2.54913-1.22559-3.81726-.53247-1.64471-1.06836-3.28241-1.60962-4.90948-.41602-1.25079-.83496-2.49585-1.25586-3.73627-.55103-1.6228-1.10645-3.23633-1.66602-4.84149-.42236-1.21185-.84644-2.42065-1.27368-3.62256-.57324-1.61212-1.1521-3.21265-1.73389-4.80695-.42725-1.17059-.85498-2.34064-1.28687-3.50171-.59741-1.60571-1.20166-3.19757-1.80811-4.78516-.42822-1.12115-.85547-2.24414-1.28809-3.35632-.62915-1.61731-1.26636-3.21844-1.90503-4.81689-.42188-1.05646-.8418-2.11731-1.26782-3.16565-.66919-1.64624-1.34741-3.27393-2.02637-4.90009-.4082-.97729-.81274-1.96118-1.22437-2.93127-.72754-1.71387-1.46509-3.4068-2.20361-5.09839-.37451-.85822-.74463-1.72522-1.12207-2.57776-.83667-1.88953-1.68506-3.7558-2.53564-5.61761-.28906-.63281-.57324-1.27533-.86377-1.90491-1.13867-2.46631-2.28857-4.90985-3.45166-7.32788-.00903-.0191-.01807-.03864-.0271-.05768-.04761-.1001-.09473-.19568-.14233-.29663-.17505-.36328-.35449-.71783-.53027-1.07983-.79199-1.63342-1.58862-3.25757-2.39185-4.8692-.96582-1.93195-1.9397-3.84827-2.91992-5.75226-.00391-.00775-.00806-.01562-.01196-.02344-29.7439-56.6001-77.04761-104.01868-122.31445-139.30426,27.77295,48.19733,32.27148,87.66235,38.68921,115.04468,10,42.66663-25.33325,187.33331-37.33325,203.33331s-46,100-54.66675,126.66669c-8.6665,26.66663-14,83.33331-16,105.33331s-15.66089,123.24957-15.66089,123.24957c.0022.0011.00391.0025.0061.0036.34106.17944.67017.37646.99194.58325.104.06677.20386.13879.30566.20819.21899.14905.43457.30212.64453.46277.10962.08374.21729.16925.32446.25598.20117.16296.39746.33118.59009.50385.09595.086.19287.17047.28662.25867.22607.21246.44482.43176.65869.65613.0498.05237.10254.10199.15186.15497.26025.27979.51025.56824.75244.8631.06714.08179.13013.16626.1958.24908.17334.21838.34351.43872.50732.66339.07886.10797.15527.21692.23169.32617.14722.20972.29004.4209.4292.63458.07153.1098.14282.21899.2124.32971.14819.23633.29028.47443.42896.71387.04932.08514.10107.16937.14917.25482.18286.32452.35791.65051.52368.97748.03174.06244.06006.12476.09106.18719.13257.26685.2605.53339.38208.79974.0498.1095.09692.21802.14502.32721.0979.22223.19238.44336.28271.66376.04688.1142.09277.2276.1377.34119.08862.2254.17261.44824.25342.67029.0354.09711.07251.19452.1062.29083.11035.31354.2146.62378.30908.92719.30322.97418.59961,1.97363.89233,2.9856.08936.30835.17676.6225.26514.9342.20752.73297.4126,1.47394.61523,2.22473.09131.33905.18262.67792.27319,1.02045.22192.84137.44092,1.69366.65698,2.55505.05615.22418.11377.44391.16968.66943.26929,1.0874.53394,2.19012.79468,3.30609.06494.27881.12842.56256.19287.84302.19702.85498.3916,1.71625.58374,2.58606.08325.37634.16577.75427.2478,1.13318.18213.83844.36157,1.68323.53955,2.53363.06934.3324.13965.66248.2085.99658.24146,1.16974.47974,2.34747.71387,3.53668.02661.13562.05273.27332.0791.40924.20947,1.06854.41602,2.14435.62012,3.2262.07031.37402.14014.74988.20996,1.12537.16406.87921.32617,1.76166.48682,2.64807.06836.37799.13721.75531.20508,1.13446.19189,1.0705.38184,2.14496.56934,3.22363.02734.1557.05493.31018.08203.466.2168,1.25092.43042,2.50665.64233,3.76556.05664.33691.11255.67468.1687,1.01202.15625.93524.31152,1.8714.46533,2.80927.06567.40192.13135.80347.19678,1.20569.15649.96143.31177,1.92316.46606,2.88562.04785.29834.09595.59631.14355.89465.2019,1.26477.4021,2.52924.60059,3.79266.02856.1828.05688.36487.08569.54761.17798,1.13538.35498,2.26892.53076,3.40076.04541.29224.09033.58325.13574.87512.17236,1.11255.34424,2.22211.51489,3.32886.00977.06299.01953.12653.0293.18951.00806.00073,32.19263,2.84314,153.51074-12.48828,64.9646-8.20978,115.20679-14.65887,153.29761-21.35681-.1897-.9436-.37939-1.888-.56836-2.82971-.75317-3.7533-1.50269-7.4964-2.24487-11.22046ZM2635.9317,533.5072c-32.80701-34.58551-68.93964-61.51996-107.63312-84.30957,41.13171,36.92511,70.55316,78.11707,86.03473,95.35791,19.5556,21.77777,49.33337,92.88892,49.77777,128,.44446,35.11115-10.22217,91.11115-19.55554,114.22223-9.33331,23.11115-31.11108,80-46.22223,104.88892-15.11108,24.88885-48.88885,98.66663-56.4444,117.33331-7.5556,18.66663-20,46.22223-29.33337,83.55554-9.33331,37.33331-10.55908,44.79938-11.27954,79.95526,9.40314.21326,18.23785,45.72192,19.0882,49.4837,2.74097,12.12573,4.98047,24.36377,6.92639,36.66681,18.95245-.98499,152.92688-8.38745,261.70941-26.10577,20.5564-3.34821,39.03094-6.98651,55.53778-10.70984-13.41779-57.2655-27.02478-110.32178-36.7558-163.57385-33.62128-183.98895-35.89624-381.44037-171.85028-524.76465Z" fill="#ffc000"/>
</svg>