<?xml version="1.0" encoding="UTF-8"?>
<svg id="Layer_1" xmlns="http://www.w3.org/2000/svg" version="1.1" viewBox="0 0 6000 3000">
  <!-- Generator: Adobe Illustrator 29.8.2, SVG Export Plug-In . SVG Version: 2.1.1 Build 3)  -->
  <path id="C2" d="M2893.88599,899.5918l-94.71613,20.89679c6.32361,42.31238,12.3363,84.72009,19.95929,126.4361,10.19617,55.79755,24.64777,111.37738,38.67828,171.81274-4.27002,1.03986-8.6983,2.07715-13.26965,3.10828-13.41779-57.2655-27.02478-110.32178-36.7558-163.57385-8.13715-44.52979-14.43976-89.8476-21.2442-134.99634-.80865-5.36566-1.625-10.72876-2.45184-16.08801-16.90094-109.54944-38.41461-217.42529-98.07983-309.89105-3.14221-4.86957-6.39172-9.69574-9.75043-14.47778-11.96423-17.03455-25.32861-33.50317-40.32397-49.31146-32.80701-34.58551-68.93964-61.51996-107.63312-84.30957-5.04401-4.52814-10.26526-8.98767-15.65778-13.33527-4.57867-3.69147-9.27203-7.30432-14.09656-10.79626-1.68634-1.22058-3.38379-2.43073-5.09979-3.62164-14.28979-9.91754-27.98114-19.11011-40.78082-27.53955,16.62872,7.3811,32.94293,15.01874,48.89099,23.13177l39.95483-106.56946c5.19733,2.32617,10.36133,4.68146,15.49426,7.06805l-40.27936,107.43518c47.39771,25.45825,91.35107,55.86084,130.5545,97.18958,17.23767,18.17212,32.31799,37.21777,45.59406,56.99243l118.66217-26.17993c2.39838,4.99866,4.70947,10.03241,6.94446,15.09686l-116.23169,25.64368c57.46021,93.1424,77.84302,201.25574,94.49609,310.68176l94.69299-20.89172c.80792,5.36688,1.62372,10.72998,2.44904,16.08868ZM1267.50238,176.38501l28.04712,74.80859c4.98962-2.38361,10.12073-4.76154,14.95404-6.96326l-28.14014-75.05688c-4.96161,2.41992-9.91364,4.82214-14.86102,7.21155ZM970.07422,305.27124c-5.07581,2.26746-10.07056,4.5611-14.98486,6.88104l40.5177,108.07086c-78.46863,44.15723-133.26892,96.60699-173.01282,157.38135l-118.04761-26.04431c-2.64026,5.57831-5.19238,11.21613-7.66064,16.91382l115.48926,25.47986c-51.98657,87.12915-75.96509,190.58044-95.51855,310.45612l-95.04456-20.96924c-.89001,5.9682-1.77942,11.97229-2.67053,18.01477l94.83313,20.92261c-9.1532,58.00739-17.56592,119.75659-27.80383,185.26501-5.47998,35.06464-14.09888,70.98077-23.23438,107.07947,3.47925.75684,7.05212,1.51642,10.73022,2.2774.91187.18866,1.83521.37695,2.75867.56525,8.32751-33.23218,16.04321-66.2652,21.09265-98.57495,10.74219-68.73407,19.47424-133.33252,29.16113-193.80927.96558-6.02832,1.94214-12.01111,2.92969-17.95758,19.89966-119.83002,44.85107-223.03351,98.87122-309.71643,3.41931-5.48657,6.95227-10.90869,10.6106-16.263,38.26868-56.01013,89.94788-104.78278,162.01868-146.34485,4.74854-2.7384,9.59332-5.44287,14.52087-8.11871,1.33209-.72339,2.66882-1.44519,4.01428-2.164,18.8476-15.19824,39.61951-30.68811,58.66296-44.15735-24.41986,10.0481-47.08264,20.64685-68.12079,31.802l-40.11249-106.98987ZM2201.2926,247.31403c4.6524,2.61261,9.72681,5.43854,15.01526,8.34576l28.63971-76.38928c-5.09827-2.46222-10.22058-4.93732-15.3609-7.42389l-28.29407,75.46741ZM3444.77905,318.69653l32.88135,87.70294c4.20789-3.8595,8.59412-7.78314,13.15649-11.75793l-30.89062-82.39313c-5.23523,2.19049-10.27808,4.33746-15.14722,6.44812ZM3763.60803,185.89716l-.78577.17371c-1.04272.47186-2.32446,1.05078-3.80786,1.71924l7.88635,21.03491c4.77759-2.82416,9.61414-5.68158,14.37952-8.49591l-6.34912-16.93494-11.32312,2.50299ZM4713.11523,181.73511l-5.50854,14.69287c4.63672,2.86145,9.59229,5.89343,14.7627,9.01965l8.16992-21.7912-2.20605.67688-15.21802-2.59821ZM4999.45166,388.60156c4.57227,3.98376,9.10938,8.0224,13.60181,12.1153l31.57275-84.21234c-5.13062-2.06104-10.40845-4.16083-15.7876-6.28552l-29.38696,78.38257ZM3297.89502,574.97125l-120.72864-26.6358c-2.82141,5.52631-5.54504,11.13-8.19214,16.79651l117.77185,25.98352c-24.11768,36.80536-42.50781,77.77051-57.97534,121.65521-21.26501,60.33331-31.15845,124.33423-40.29224,188.1944l-94.47339-20.84326c-.11414.73651-.22339,1.47546-.33838,2.21149-.7644,4.89233-1.604,10.16986-2.50586,15.76495l94.74719,20.90369c-.95032,6.67432-1.9032,13.34351-2.87097,20.0025-.00024.00208-.00049.00409-.00085.00616-.7782,5.35504-1.56726,10.70312-2.37097,16.04315-.00024.00195-.00061.00397-.00098.00592-.6217,4.13086-1.25,8.25812-1.89355,12.37762-8.91675,57.06622-27.94019,166.00537-39.56567,231.91962,4.10962,1.01764,8.37744,2.04999,12.80176,3.09497,11.70215-66.44073,29.55725-168.92352,38.11108-223.66742.64355-4.11951,1.27185-8.24677,1.89355-12.37762.00037-.00195.00073-.00397.00098-.00592.80371-5.34003,1.59277-10.68811,2.37097-16.04315.00037-.00208.00061-.00409.00085-.00616,1.38208-9.50983,2.73413-19.03973,4.09131-28.57697.85522-6.00958,1.71387-12.02203,2.58215-18.03424,8.81042-61.00781,18.74658-121.98865,39.06018-179.62256,16.55542-46.97125,36.46094-90.59656,63.15405-129.35638,3.74658-5.44019,7.61646-10.79193,11.64062-16.03571,16.9502-22.08765,36.44348-42.3985,59.20532-60.60791,11.9436-9.55493,22.83716-18.20789,33.4314-26.27209,7.71277-13.61359,15.5-25.65179,22.11743-34.51245.38599-.51685.79614-1.04883,1.19946-1.5766-22.67651,14.94147-43.08765,31.00769-68.09546,51.01398-25.34546,20.27637-46.63525,43.16046-64.87573,68.20056ZM5344.64795,1197.30536c-.30249-1.50397-.60376-3.00623-.90479-4.50574-.75317-3.7533-1.50269-7.4964-2.24487-11.22046-.11914-.59808-.23779-1.19537-.35669-1.7926-.75586-3.79797-1.50293-7.57611-2.24438-11.34131-.17749-.90149-.35571-1.80542-.53223-2.7049-.7832-3.98993-1.5564-7.95996-2.31909-11.90991-.15112-.78223-.30054-1.56183-.45068-2.34247-.79907-4.15259-1.58984-8.28973-2.36206-12.39471-.69263-3.6814-1.37231-7.37531-2.03979-11.08081s-1.323-7.42267-1.96729-11.15063c-1.93311-11.18396-3.76562-22.46533-5.52295-33.82214-.58569-3.78564-1.16309-7.57959-1.73291-11.38116-1.13965-7.60309-2.24951-15.23651-3.33667-22.89368-1.0874-7.65717-2.1521-15.33807-3.20142-23.03625-4.90747-35.99774-9.4978-72.36176-14.4895-108.44714l93.72852-20.67889c-.70874-5.38684-1.42017-10.76965-2.13013-16.15906l-93.86475,20.70898c-.68726-4.8183-1.3667-9.64246-2.07471-14.44519-1.69629-11.50574-3.45728-22.96228-5.30786-34.3476-4.31812-26.56586-9.12354-52.7442-14.73096-78.25568-.01196-.05371-.02417-.10608-.03613-.15979-.72095-3.27722-1.45654-6.52399-2.20532-9.74286-.25293-1.08813-.51562-2.15576-.77197-3.23724-.5144-2.17133-1.02808-4.34412-1.55518-6.48895-.31201-1.27008-.63379-2.51978-.95044-3.78064-.48486-1.9317-.96826-3.86615-1.46362-5.77637-.34253-1.32214-.69409-2.62567-1.04175-3.93756-.48267-1.82135-.9646-3.64423-1.45679-5.44598-.36401-1.3335-.73584-2.65094-1.10522-3.97375-.4895-1.75348-.97925-3.50647-1.47778-5.24127-.38184-1.32898-.77026-2.64429-1.15723-3.96234-.5-1.70172-1.00098-3.401-1.50952-5.08472-.39551-1.30994-.79639-2.60883-1.19727-3.9079-.51538-1.67047-1.0332-3.33618-1.55737-4.98883-.40527-1.27869-.81494-2.54913-1.22559-3.81726-.53247-1.64471-1.06836-3.28241-1.60962-4.90948-.41602-1.25079-.83496-2.49585-1.25586-3.73627-.55103-1.6228-1.10645-3.23633-1.66602-4.84149-.42236-1.21185-.84644-2.42065-1.27368-3.62256-.57324-1.61212-1.1521-3.21265-1.73389-4.80695-.42725-1.17059-.85498-2.34064-1.28687-3.50171-.59741-1.60571-1.20166-3.19757-1.80811-4.78516-.42822-1.12115-.85547-2.24414-1.28809-3.35632-.62915-1.61731-1.26636-3.21844-1.90503-4.81689-.42188-1.05646-.8418-2.11731-1.26782-3.16565-.66919-1.64624-1.34741-3.27393-2.02637-4.90009-.4082-.97729-.81274-1.96118-1.22437-2.93127-.72754-1.71387-1.46509-3.4068-2.20361-5.09839-.37451-.85822-.74463-1.72522-1.12207-2.57776-.83667-1.88953-1.68506-3.7558-2.53564-5.61761-.28906-.63281-.57324-1.27533-.86377-1.90491-1.13867-2.46631-2.28857-4.90985-3.45166-7.32788-.00903-.0191-.01807-.03864-.0271-.05768-.04761-.1001-.09473-.19568-.14233-.29663-.17505-.36328-.35449-.71783-.53027-1.07983-.79199-1.63342-1.58862-3.25757-2.39185-4.8692-.96582-1.93195-1.9397-3.84827-2.91992-5.75226-.00391-.00775-.00806-.01562-.01196-.02344-5.48096-10.42987-11.56592-20.54279-18.1167-30.33093l116.98096-25.80896c-.29468-.67944-.58789-1.36176-.88574-2.03467-.83667-1.88953-1.68506-3.7558-2.53564-5.61761-.28906-.63281-.57324-1.27533-.86377-1.90491-.8623-1.86786-1.73804-3.70917-2.61401-5.54968l-120.21948,26.5235c-38.15234-51.58228-88.5752-93.06653-131.36963-121.4339,10.41211,13.25525,18.93726,26.00824,25.9624,38.20007,30.5166,23.78784,61.95459,53.09015,88.31885,87.00391,3.63623,4.67719,7.17871,9.43896,10.60596,14.28906,8.5835,12.14807,16.46313,24.83063,23.38965,38.01129.00391.00781.00806.01569.01196.02344.98022,1.90399,1.9541,3.82031,2.91992,5.75226.80322,1.61163,1.59985,3.23578,2.39185,4.8692.17578.362.35522.71655.53027,1.07983.04761.10095.09473.19653.14233.29663.00903.01904.01807.03857.0271.05768,1.16309,2.41803,2.31299,4.86157,3.45166,7.32788.29053.62958.57471,1.27209.86377,1.90491.85059,1.86182,1.69897,3.72809,2.53564,5.61761.37744.85254.74756,1.71954,1.12207,2.57776.73853,1.69159,1.47607,3.38452,2.20361,5.09839.41162.97009.81616,1.95398,1.22437,2.93127.67896,1.62616,1.35718,3.25385,2.02637,4.90009.42603,1.04834.84595,2.10919,1.26782,3.16565.63867,1.59845,1.27588,3.19958,1.90503,4.81689.43262,1.11218.85986,2.23517,1.28809,3.35632.60645,1.58759,1.21069,3.17944,1.80811,4.78516.43188,1.16107.85962,2.33112,1.28687,3.50171.58179,1.5943,1.16064,3.19482,1.73389,4.80695.42725,1.2019.85132,2.41071,1.27368,3.62256.55957,1.60516,1.11499,3.21869,1.66602,4.84149.4209,1.24042.83984,2.48547,1.25586,3.73627.54126,1.62708,1.07715,3.26477,1.60962,4.90948.41064,1.26813.82031,2.53857,1.22559,3.81726.52417,1.65265,1.04199,3.31836,1.55737,4.98883.40088,1.29907.80176,2.59796,1.19727,3.9079.50854,1.68372,1.00952,3.383,1.50952,5.08472.38696,1.31805.77539,2.63336,1.15723,3.96234.49854,1.7348.98828,3.48779,1.47778,5.24127.36938,1.32281.74121,2.64026,1.10522,3.97375.49219,1.80176.97412,3.62463,1.45679,5.44598.34766,1.31189.69922,2.61542,1.04175,3.93756.49536,1.91022.97876,3.84467,1.46362,5.77637.31665,1.26086.63843,2.51056.95044,3.78064.5271,2.14484,1.04077,4.31763,1.55518,6.48895.25635,1.08148.51904,2.14911.77197,3.23724.74878,3.21887,1.48438,6.46564,2.20532,9.74286.01196.05371.02417.10608.03613.15979,5.60742,25.51147,10.41284,51.68982,14.73096,78.25568,1.85059,11.38531,3.61157,22.84186,5.30786,34.3476.28784,1.9527.55908,3.91766.84351,5.87311.78003,5.36646,1.55859,10.73431,2.31494,16.11823.05078.36047.10449.71857.15503,1.0791,5.40308,38.53833,10.26978,77.46008,15.51709,115.95087,1.04932,7.69818,2.11401,15.37909,3.20142,23.03625,1.08716,7.65717,2.19702,15.29059,3.33667,22.89368.56982,3.80157,1.14722,7.59552,1.73291,11.38116,1.75732,11.35681,3.58984,22.63818,5.52295,33.82214.64429,3.72797,1.2998,7.44513,1.96729,11.15063s1.34717,7.39941,2.03979,11.08081c.77222,4.10498,1.56299,8.24213,2.36206,12.39471.15015.78064.29956,1.56024.45068,2.34247.7627,3.94995,1.53589,7.91998,2.31909,11.90991.17651.89948.35474,1.80341.53223,2.7049.74146,3.7652,1.48853,7.54333,2.24438,11.34131.1189.59723.23755,1.19452.35669,1.7926.74219,3.72406,1.4917,7.46716,2.24487,11.22046.18896.94171.37866,1.88611.56836,2.82971,4.55396-.80078,8.93335-1.60529,13.14429-2.41663-.0105-.05188-.021-.10437-.03149-.15625-.47778-2.37048-.95459-4.7384-1.4292-7.09827Z"/>
  <path id="C1" d="M2818.47955,568.0694c43.09979,97.66278,56.66595,207.21149,72.9574,315.43372l-94.69299,20.89172c-16.65308-109.42603-37.03589-217.53937-94.49609-310.68176l116.23169-25.64368ZM812.37524,593.95386l-115.48926-25.47986c-39.00891,90.04987-57.18652,195.00922-75.07385,314.96674l95.04456,20.96924c19.55347-119.87567,43.53198-223.32697,95.51855-310.45612ZM1006.77777,289.88892c-12.69196,4.98419-24.91095,10.11456-36.70355,15.38232l40.11249,106.98987c21.03815-11.15515,43.70093-21.75391,68.12079-31.802,24.21234-17.12512,45.62317-30.98102,56.6925-36.79242,26.66669-14,121.33337-69.33337,134.66669-78.66669,4.93341-3.45337,15.06995-8.64081,25.88281-13.8064l-28.04712-74.80859c-79.46967,38.38092-157.89307,73.12122-260.72461,113.50391ZM2541.50946,310.46722c-71.51086-32.00574-148.97644-58.92426-228.61743-98.18372-21.50226-10.59967-44.45337-21.66797-67.94446-33.013l-28.63971,76.38928c9.46686,5.20416,19.59753,10.65662,29.1366,15.56244,31.11108,16,106.22223,55.11108,122.66663,67.55554,12.49878,9.4585,44.00708,28.42535,84.55255,55.12714,16.62872,7.3811,32.94293,15.01874,48.89099,23.13177l39.95483-106.56946ZM5223.31763,620.60254c.98022,1.90399,1.9541,3.82031,2.91992,5.75226.80322,1.61163,1.59985,3.23578,2.39185,4.8692.17578.362.35522.71655.53027,1.07983.04761.10095.09473.19653.14233.29663.00903.01904.01807.03857.0271.05768,1.16309,2.41803,2.31299,4.86157,3.45166,7.32788.29053.62958.57471,1.27209.86377,1.90491.85059,1.86182,1.69897,3.72809,2.53564,5.61761.37744.85254.74756,1.71954,1.12207,2.57776.73853,1.69159,1.47607,3.38452,2.20361,5.09839.41162.97009.81616,1.95398,1.22437,2.93127.67896,1.62616,1.35718,3.25385,2.02637,4.90009.42603,1.04834.84595,2.10919,1.26782,3.16565.63867,1.59845,1.27588,3.19958,1.90503,4.81689.43262,1.11218.85986,2.23517,1.28809,3.35632.60645,1.58759,1.21069,3.17944,1.80811,4.78516.43188,1.16107.85962,2.33112,1.28687,3.50171.58179,1.5943,1.16064,3.19482,1.73389,4.80695.42725,1.2019.85132,2.41071,1.27368,3.62256.55957,1.60516,1.11499,3.21869,1.66602,4.84149.4209,1.24042.83984,2.48547,1.25586,3.73627.54126,1.62708,1.07715,3.26477,1.60962,4.90948.41064,1.26813.82031,2.53857,1.22559,3.81726.52417,1.65265,1.04199,3.31836,1.55737,4.98883.40088,1.29907.80176,2.59796,1.19727,3.9079.50854,1.68372,1.00952,3.383,1.50952,5.08472.38696,1.31805.77539,2.63336,1.15723,3.96234.49854,1.7348.98828,3.48779,1.47778,5.24127.36938,1.32281.74121,2.64026,1.10522,3.97375.49219,1.80176.97412,3.62463,1.45679,5.44598.34766,1.31189.69922,2.61542,1.04175,3.93756.49536,1.91022.97876,3.84467,1.46362,5.77637.31665,1.26086.63843,2.51056.95044,3.78064.5271,2.14484,1.04077,4.31763,1.55518,6.48895.25635,1.08148.51904,2.14911.77197,3.23724.74878,3.21887,1.48438,6.46564,2.20532,9.74286.01196.05371.02417.10608.03613.15979,5.60742,25.51147,10.41284,51.68982,14.73096,78.25568,1.85059,11.38531,3.61157,22.84186,5.30786,34.3476.70801,4.80273,1.38745,9.62689,2.07471,14.44519l93.86475-20.70898c-2.4519-18.61798-4.92383-37.23853-7.52197-55.76978-1.08057-7.70764-2.18262-15.39996-3.31348-23.07043-1.69629-11.50574-3.45728-22.96228-5.30786-34.3476-4.31812-26.56586-9.12354-52.7442-14.73096-78.25568-.01196-.05371-.02417-.10608-.03613-.15979-.72095-3.27722-1.45654-6.52399-2.20532-9.74286-.25293-1.08813-.51562-2.15576-.77197-3.23724-.5144-2.17133-1.02808-4.34412-1.55518-6.48895-.31201-1.27008-.63379-2.51978-.95044-3.78064-.48486-1.9317-.96826-3.86615-1.46362-5.77637-.34253-1.32214-.69409-2.62567-1.04175-3.93756-.48267-1.82135-.9646-3.64423-1.45679-5.44598-.36401-1.3335-.73584-2.65094-1.10522-3.97375-.4895-1.75348-.97925-3.50647-1.47778-5.24127-.38184-1.32898-.77026-2.64429-1.15723-3.96234-.5-1.70172-1.00098-3.401-1.50952-5.08472-.39551-1.30994-.79639-2.60883-1.19727-3.9079-.51538-1.67047-1.0332-3.33618-1.55737-4.98883-.40527-1.27869-.81494-2.54913-1.22559-3.81726-.53247-1.64471-1.06836-3.28241-1.60962-4.90948-.41602-1.25079-.83496-2.49585-1.25586-3.73627-.55103-1.6228-1.10645-3.23633-1.66602-4.84149-.42236-1.21185-.84644-2.42065-1.27368-3.62256-.57324-1.61212-1.1521-3.21265-1.73389-4.80695-.42725-1.17059-.85498-2.34064-1.28687-3.50171-.59741-1.60571-1.20166-3.19757-1.80811-4.78516-.42822-1.12115-.85547-2.24414-1.28809-3.35632-.62915-1.61731-1.26636-3.21844-1.90503-4.81689-.42188-1.05646-.8418-2.11731-1.26782-3.16565-.66919-1.64624-1.34741-3.27393-2.02637-4.90009-.4082-.97729-.81274-1.96118-1.22437-2.93127-.72754-1.71387-1.46509-3.4068-2.20361-5.09839-.07886-.18085-.15771-.36169-.23633-.54309l-116.98096,25.80896c6.55078,9.78815,12.63574,19.90106,18.1167,30.33093.00391.00781.00806.01569.01196.02344ZM3228.77075,712.77069c15.46753-43.8847,33.85767-84.84985,57.97534-121.65521l-117.77185-25.98352c-9.36267,20.04242-17.69324,40.9314-25.3075,62.53473-25.49243,72.32745-34.64355,149.9259-45.73364,226.23376-.00024.00208-.00049.00409-.00085.00616-.7782,5.35504-1.56726,10.70312-2.37097,16.04315-.00024.00195-.00061.00397-.00098.00592-.51062,3.39282-1.03101,6.78052-1.55518,10.16614l94.47339,20.84326c9.13379-63.86017,19.02722-127.86108,40.29224-188.1944ZM3538.10168,281.22949c-.00208.00079-.00403.00159-.00598.00238-5.18079,2.04608-10.38306,4.08923-15.60303,6.12518l-.01392.00549c-4.26172,1.66229-8.53345,3.32013-12.81201,4.97076-18.36597,7.08539-34.82593,13.67474-49.74048,19.9151l30.89062,82.39313c16.2926-14.1944,34.76196-29.0097,54.84985-43.64154,54-39.33331,152.6665-101.33331,176-115.33331,8.81067-5.28644,26.55713-15.80121,45.23401-26.84167l-7.88635-21.03491c-26.13489,11.77747-118.99561,53.18787-220.91272,93.43939ZM4886.33325,254.33331c-17.47388-7.48877-48.49072-21.80829-78.75806-35.97864-3.03027-1.29779-6.0625-2.61005-9.09717-3.93494-.15625-.06824-.3125-.13617-.46899-.20453-6.10571-2.66846-12.21924-5.3938-18.33911-8.18164-.22754-.10376-.45532-.20831-.68311-.31219-2.87036-1.30969-5.74219-2.63306-8.61475-3.97107-.19531-.09082-.39014-.18091-.58545-.27191-6.0415-2.81799-12.08789-5.7019-18.13721-8.65466-.37549-.18341-.75146-.36774-1.1272-.5517-2.81958-1.38025-5.6394-2.77435-8.45972-4.18591-.16553-.08289-.33105-.16461-.49658-.24756-3.09546-1.55133-6.19141-3.12097-9.2876-4.71173-.00146-.00085-.00317-.00165-.00488-.0025l-1.73413.5321-8.16992,21.7912c11.93213,7.21484,25.0083,14.93158,37.96387,22.21906,40.09937,22.55591,146.73755,80.44537,239.11841,160.93488l29.38696-78.38257c-51.74292-20.43774-112.85498-43.17841-142.50537-55.88568ZM3478,1029c-2.33325-16-8.33325-64.33331-38.66675-120.33331-30.33325-56-54.33325-121-62.6665-180.66669-8.3335-59.66669-12-108.66669-4.3335-149.33331,5.08704-26.98315,20.00671-59.97571,35.21606-86.82092-10.59424,8.06421-21.48779,16.71716-33.4314,26.27209-22.76184,18.20941-42.25513,38.52026-59.20532,60.60791-4.02417,5.24377-7.89404,10.59552-11.64062,16.03571-26.69312,38.75983-46.59863,82.38513-63.15405,129.35638-20.3136,57.63391-30.24976,118.61475-39.06018,179.62256-.86829,6.01221-1.72693,12.02466-2.58215,18.03424-1.35718,9.53723-2.70923,19.06714-4.09131,28.57697-.00024.00208-.00049.00409-.00085.00616-.7782,5.35504-1.56726,10.70312-2.37097,16.04315-.00024.00195-.00061.00397-.00098.00592-.6217,4.13086-1.25,8.25812-1.89355,12.37762-8.55383,54.7439-26.40894,157.22668-38.11108,223.66742,3.56299.84161,7.22144,1.69086,10.99316,2.5481,88,20,239.05762,35.36066,274,35,16.90137-.17444,27.96777-.17853,34.90308-.13641l17.30029-98.6991s-8.87012-34.16449-8.87012-45.49786,0-50.66663-2.33325-66.66663ZM1001.10938,434.89917c-72.0708,41.56207-123.75,90.33472-162.01868,146.34485-3.65833,5.35431-7.19128,10.77643-10.6106,16.263-54.02014,86.68292-78.97156,189.88641-98.87122,309.71643-.98755,5.94647-1.96411,11.92926-2.92969,17.95758-9.68689,60.47675-18.41895,125.0752-29.16113,193.80927-5.04944,32.30975-12.76514,65.34277-21.09265,98.57495,77.38171,15.77863,194.21448,30.11713,219.90796,31.43475,19.27344.98834,67.11316,3.80798,90.58081,5.20099,2.82434-29.06616,6.85181-55.91608,15.05896-74.57111,2.09827-4.76941,3.51794-10.42932,10.03369-9.66107-1.06354-8.41815-5.00684-40.6394-5.00684-55.6355,0-17.33331-28-135.33331-48-170.66663-20-35.33337-67.33325-114.66669-86.66663-186.66669-7.35327-27.38452-11.7085-52.35089-13.15588-74.84009-1.9082-29.6499,1.25391-54.97974,9.31567-75.82501,1.90051-4.91431,4.06372-9.5882,6.50684-14.00159.51208-.92511,1.04883-1.86963,1.58838-2.81635,21.23547-37.25861,63.43579-90.85797,103.745-130.51697,6.44196-6.33807,13.98566-13.16211,22.2312-20.21942,4.28796-3.67004,8.76721-7.40338,13.37903-11.16418,1.22406-.99823,2.45905-1.99847,3.70093-2.99994-1.34546.71881-2.68219,1.44061-4.01428,2.164-4.92755,2.67584-9.77234,5.38031-14.52087,8.11871ZM5330.15112,1192.92633c-.11914-.59808-.23779-1.19537-.35669-1.7926-.75586-3.79797-1.50293-7.57611-2.24438-11.34131-.17749-.90149-.35571-1.80542-.53223-2.7049-.7832-3.98993-1.5564-7.95996-2.31909-11.90991-.15112-.78223-.30054-1.56183-.45068-2.34247-.79907-4.15259-1.58984-8.28973-2.36206-12.39471-.69263-3.6814-1.37231-7.37531-2.03979-11.08081s-1.323-7.42267-1.96729-11.15063c-1.93311-11.18396-3.76562-22.46533-5.52295-33.82214-.58569-3.78564-1.16309-7.57959-1.73291-11.38116-1.13965-7.60309-2.24951-15.23651-3.33667-22.89368-1.0874-7.65717-2.1521-15.33807-3.20142-23.03625-5.24731-38.49078-10.11401-77.41254-15.51709-115.95087-.05054-.36053-.10425-.71863-.15503-1.0791-.75635-5.38391-1.53491-10.75177-2.31494-16.11823-.28442-1.95544-.55566-3.92041-.84351-5.87311-1.69629-11.50574-3.45728-22.96228-5.30786-34.3476-4.31812-26.56586-9.12354-52.7442-14.73096-78.25568-.01196-.05371-.02417-.10608-.03613-.15979-.72095-3.27722-1.45654-6.52399-2.20532-9.74286-.25293-1.08813-.51562-2.15576-.77197-3.23724-.5144-2.17133-1.02808-4.34412-1.55518-6.48895-.31201-1.27008-.63379-2.51978-.95044-3.78064-.48486-1.9317-.96826-3.86615-1.46362-5.77637-.34253-1.32214-.69409-2.62567-1.04175-3.93756-.48267-1.82135-.9646-3.64423-1.45679-5.44598-.36401-1.3335-.73584-2.65094-1.10522-3.97375-.4895-1.75348-.97925-3.50647-1.47778-5.24127-.38184-1.32898-.77026-2.64429-1.15723-3.96234-.5-1.70172-1.00098-3.401-1.50952-5.08472-.39551-1.30994-.79639-2.60883-1.19727-3.9079-.51538-1.67047-1.0332-3.33618-1.55737-4.98883-.40527-1.27869-.81494-2.54913-1.22559-3.81726-.53247-1.64471-1.06836-3.28241-1.60962-4.90948-.41602-1.25079-.83496-2.49585-1.25586-3.73627-.55103-1.6228-1.10645-3.23633-1.66602-4.84149-.42236-1.21185-.84644-2.42065-1.27368-3.62256-.57324-1.61212-1.1521-3.21265-1.73389-4.80695-.42725-1.17059-.85498-2.34064-1.28687-3.50171-.59741-1.60571-1.20166-3.19757-1.80811-4.78516-.42822-1.12115-.85547-2.24414-1.28809-3.35632-.62915-1.61731-1.26636-3.21844-1.90503-4.81689-.42188-1.05646-.8418-2.11731-1.26782-3.16565-.66919-1.64624-1.34741-3.27393-2.02637-4.90009-.4082-.97729-.81274-1.96118-1.22437-2.93127-.72754-1.71387-1.46509-3.4068-2.20361-5.09839-.37451-.85822-.74463-1.72522-1.12207-2.57776-.83667-1.88953-1.68506-3.7558-2.53564-5.61761-.28906-.63281-.57324-1.27533-.86377-1.90491-1.13867-2.46631-2.28857-4.90985-3.45166-7.32788-.00903-.0191-.01807-.03864-.0271-.05768-.04761-.1001-.09473-.19568-.14233-.29663-.17505-.36328-.35449-.71783-.53027-1.07983-.79199-1.63342-1.58862-3.25757-2.39185-4.8692-.96582-1.93195-1.9397-3.84827-2.91992-5.75226-.00391-.00775-.00806-.01562-.01196-.02344-6.92651-13.18066-14.80615-25.86322-23.38965-38.01129-3.42725-4.8501-6.96973-9.61188-10.60596-14.28906-26.36426-33.91376-57.80225-63.21606-88.31885-87.00391,22.66528,39.33319,29.82935,72.84601,35.1853,98.72656,1.17236,5.66443,2.25977,10.96454,3.40259,15.8783.03394.14575.06738.29474.10132.43982,1.34839,5.7525,1.86621,13.37134,1.73462,22.26685-.84424,57.0824-28.68579,167.22369-39.06787,181.06647-12,16-46,100-54.66675,126.66669-8.6665,26.66663-14,83.33331-16,105.33331s-15.66089,123.24957-15.66089,123.24957c.0022.0011.00391.0025.0061.0036.34106.17944.67017.37646.99194.58325.104.06677.20386.13879.30566.20819.21899.14905.43457.30212.64453.46277.10962.08374.21729.16925.32446.25598.20117.16296.39746.33118.59009.50385.09595.086.19287.17047.28662.25867.22607.21246.44482.43176.65869.65613.0498.05237.10254.10199.15186.15497.26025.27979.51025.56824.75244.8631.06714.08179.13013.16626.1958.24908.17334.21838.34351.43872.50732.66339.07886.10797.15527.21692.23169.32617.14722.20972.29004.4209.4292.63458.07153.1098.14282.21899.2124.32971.14819.23633.29028.47443.42896.71387.04932.08514.10107.16937.14917.25482.18286.32452.35791.65051.52368.97748.03174.06244.06006.12476.09106.18719.13257.26685.2605.53339.38208.79974.0498.1095.09692.21802.14502.32721.0979.22223.19238.44336.28271.66376.04688.1142.09277.2276.1377.34119.08862.2254.17261.44824.25342.67029.0354.09711.07251.19452.1062.29083.11035.31354.2146.62378.30908.92719.30322.97418.59961,1.97363.89233,2.9856.08936.30835.17676.6225.26514.9342.20752.73297.4126,1.47394.61523,2.22473.09131.33905.18262.67792.27319,1.02045.22192.84137.44092,1.69366.65698,2.55505.05615.22418.11377.44391.16968.66943.26929,1.0874.53394,2.19012.79468,3.30609.06494.27881.12842.56256.19287.84302.19702.85498.3916,1.71625.58374,2.58606.08325.37634.16577.75427.2478,1.13318.18213.83844.36157,1.68323.53955,2.53363.06934.3324.13965.66248.2085.99658.24146,1.16974.47974,2.34747.71387,3.53668.02661.13562.05273.27332.0791.40924.20947,1.06854.41602,2.14435.62012,3.2262.07031.37402.14014.74988.20996,1.12537.16406.87921.32617,1.76166.48682,2.64807.06836.37799.13721.75531.20508,1.13446.19189,1.0705.38184,2.14496.56934,3.22363.02734.1557.05493.31018.08203.466.2168,1.25092.43042,2.50665.64233,3.76556.05664.33691.11255.67468.1687,1.01202.15625.93524.31152,1.8714.46533,2.80927.06567.40192.13135.80347.19678,1.20569.15649.96143.31177,1.92316.46606,2.88562.04785.29834.09595.59631.14355.89465.2019,1.26477.4021,2.52924.60059,3.79266.02856.1828.05688.36487.08569.54761.17798,1.13538.35498,2.26892.53076,3.40076.04541.29224.09033.58325.13574.87512.17236,1.11255.34424,2.22211.51489,3.32886.00977.06299.01953.12653.0293.18951.00806.00073,32.19263,2.84314,153.51074-12.48828,64.9646-8.20978,115.20679-14.65887,153.29761-21.35681-.1897-.9436-.37939-1.888-.56836-2.82971-.75317-3.7533-1.50269-7.4964-2.24487-11.22046ZM2786.53778,923.27551c-.80865-5.36566-1.625-10.72876-2.45184-16.08801-16.90094-109.54944-38.41461-217.42529-98.07983-309.89105-3.14221-4.86957-6.39172-9.69574-9.75043-14.47778-11.96423-17.03455-25.32861-33.50317-40.32397-49.31146-32.80701-34.58551-68.93964-61.51996-107.63312-84.30957,41.13171,36.92511,70.55316,78.11707,86.03473,95.35791,8.05444,8.96973,17.84192,26.31073,26.60083,46.05597,2.19843,4.95599,4.33282,10.06134,6.35785,15.22626,9.4953,24.21857,16.6037,49.69775,16.81909,66.71777.15039,11.88257-.97461,26.15881-2.88702,40.74182-3.73846,28.50751-10.49384,58.19073-16.66852,73.48041-9.33331,23.11115-31.11108,80-46.22223,104.88892-15.11108,24.88885-48.88885,98.66663-56.4444,117.33331-7.5556,18.66663-20,46.22223-29.33337,83.55554-9.33331,37.33331-10.55908,44.79938-11.27954,79.95526,9.40314.21326,18.23785,45.72192,19.0882,49.4837,2.74097,12.12573,4.98047,24.36377,6.92639,36.66681,18.95245-.98499,152.92688-8.38745,261.70941-26.10577,20.5564-3.34821,39.03094-6.98651,55.53778-10.70984-13.41779-57.2655-27.02478-110.32178-36.7558-163.57385-8.13715-44.52979-14.43976-89.8476-21.2442-134.99634Z" fill="#ffc000"/>
</svg>