<?xml version="1.0" encoding="UTF-8"?>
<svg id="Layer_1" xmlns="http://www.w3.org/2000/svg" version="1.1" viewBox="0 0 6000 3000">
  <!-- Generator: Adobe Illustrator 29.8.2, SVG Export Plug-In . SVG Version: 2.1.1 Build 3)  -->
  <path id="C1" d="M889.5343,568.62799l-167.59949-50.59674c53.79565-94.85382,138.98022-170.86108,284.84296-228.14233,124.07678-48.72583,212.61646-89.23132,310.33801-137.83746-.05774.36188-.16113.73285-.34344,1.11951-14.22766,30.17096,17.56104,80.49573,17.56104,80.49573,0,0-51.33337,22-64.66669,31.33331s-108,64.66669-134.66669,78.66669c-26.66663,14-113.33331,74.66663-154.66663,115.33331-33.25806,32.72162-67.80115,74.9325-90.79907,109.62799ZM2732.38287,437.05603c-111.41772-117.45789-261.16064-146.72272-419.49084-224.77252-36.61493-18.04956-77.41846-37.45148-117.96594-57.28064,2.44965,7.21887,5.67712,29.38287-18.02863,78.39313,0,0,37.43585,21.82623,68.547,37.82623,31.11108,16,106.22223,55.11108,122.66663,67.55554,16.44446,12.44446,65.77783,41.33331,125.33337,82.66669,59.55554,41.33331,101.33331,101.33331,120.88885,123.11108,2.59436,2.88916,5.36957,6.65356,8.23138,11.08008l163.35638-49.3158c-15.12146-24.18933-32.76202-47.36133-53.53821-69.26379ZM3429.66675,457.33331c19.6665-26.33331,62-67,116-106.33331s152.6665-101.33331,176-115.33331c23.33325-14,109.33325-64.66669,109.33325-64.66669l-67.39197,14.89716-.78577.17371c-19.41614,8.78577-117.01904,52.62262-224.72058,95.15863-.00208.00079-.00403.00159-.00598.00238-5.18079,2.04608-10.38306,4.08923-15.60303,6.12518l-.01392.00549c-4.26172,1.66229-8.53345,3.32013-12.81201,4.97076-131.3335,50.66669-165.3335,76-232,129.33337-31.82373,25.45898-57.25586,55.02789-78.27698,87.82001l176.80054,53.37445c11.14661-38.00409,36.26746-82.48535,53.47644-105.52783ZM5085.66675,333.66669c-52.20142-23.20038-157.3335-61.33337-199.3335-79.33337-17.47388-7.48877-48.49072-21.80829-78.75806-35.97864-3.03027-1.29779-6.0625-2.61005-9.09717-3.93494-.15625-.06824-.3125-.13617-.46899-.20453-6.10571-2.66846-12.21924-5.3938-18.33911-8.18164-.22754-.10376-.45532-.20831-.68311-.31219-2.87036-1.30969-5.74219-2.63306-8.61475-3.97107-.19531-.09082-.39014-.18091-.58545-.27191-6.0415-2.81799-12.08789-5.7019-18.13721-8.65466-.37549-.18341-.75146-.36774-1.1272-.5517-2.81958-1.38025-5.6394-2.77435-8.45972-4.18591-.16553-.08289-.33105-.16461-.49658-.24756-3.09546-1.55133-6.19141-3.12097-9.2876-4.71173-.00146-.00085-.00317-.00165-.00488-.0025l-3.94019,1.20898-54.6665-9.33331s44,28.66669,86.6665,52.66669c42.66675,24,160.66675,88,256.66675,176.66663,65.7395,60.71771,88.95972,113.61725,100.2793,154.63635l173.90576-52.50055c-59.74805-90.13757-159.88721-152.52209-205.51831-172.80243Z" fill="#ffc000"/>
  <path id="C2" d="M881.33728,581.47284l-166.60461-50.29639c2.33447-4.42261,4.73877-8.8017,7.20215-13.1452l167.59949,50.59674c-2.92529,4.41321-5.672,8.71008-8.19702,12.84485ZM2785.92108,506.31982l-163.35638,49.3158c2.50299,3.8714,5.07202,8.24921,7.64716,13.01086l163.51166-49.36267c-2.52515-4.35187-5.12134-8.67511-7.80243-12.96399ZM3376.19031,562.86115l-176.80054-53.37445c-2.72571,4.25201-5.3783,8.55774-7.95959,12.91656l181.21924,54.70837c.92419-4.60706,2.10962-9.37079,3.54089-14.25049ZM5291.18506,506.46912l-173.90576,52.50055c1.35669,4.91565,2.54395,9.66187,3.61133,14.22925l178.4165-53.8623c-2.6145-4.34772-5.32007-8.64038-8.12207-12.86749Z"/>
</svg>