<?xml version="1.0" encoding="UTF-8"?>
<svg id="Layer_1" xmlns="http://www.w3.org/2000/svg" version="1.1" viewBox="0 0 6000 3000">
  <!-- Generator: Adobe Illustrator 29.8.2, SVG Export Plug-In . SVG Version: 2.1.1 Build 3)  -->
  <path id="C1" d="M601.06689,1022.53912c55.04419-352.20581,57.31177-595.83154,405.71088-732.65021,124.07678-48.72583,212.61646-89.23132,310.33801-137.83746-.05774.36188-.16113.73285-.34344,1.11951-14.22766,30.17096,17.56104,80.49573,17.56104,80.49573,0,0-51.33337,22-64.66669,31.33331s-108,64.66669-134.66669,78.66669c-26.66663,14-113.33331,74.66663-154.66663,115.33331-41.33337,40.66669-84.66663,96-105.33337,133.33331-12.47351,22.5329-17.8916,51.63373-15.98633,86.98767-6.99194,28.86938-13.6084,66.42407-21.77454,120.01233-21.52576,141.25836-236.17224,223.20581-236.17224,223.20581ZM2906.70544,1022.53912l10.49194,1.9754c-4.75171-21.04315-9.15607-41.85419-12.96423-62.69385-33.62128-183.98895-35.89624-381.44037-171.85028-524.76465-111.41772-117.45789-261.16064-146.72272-419.49084-224.77252-36.61493-18.04956-77.41846-37.45148-117.96594-57.28064,2.44965,7.21887,5.67712,29.38287-18.02863,78.39313,0,0,37.43585,21.82623,68.547,37.82623,31.11108,16,106.22223,55.11108,122.66663,67.55554,16.44446,12.44446,65.77783,41.33331,125.33337,82.66669,59.55554,41.33331,101.33331,101.33331,120.88885,123.11108,19.5556,21.77777,49.33337,92.88892,49.77777,128,.20306,16.04053-1.91669,36.43829-5.1651,56.07062,3.62848,20.02612,7.40411,43.25653,11.58722,70.70715,21.52576,141.25836,236.17224,223.20581,236.17224,223.20581ZM3312.07861,799.33331c19.57874-128.4809,30.25024-164.84869,58.55029-210.12836.49146-3.57202,1.05383-7.08771,1.70435-10.53827,7.66675-40.66669,37.66675-95,57.3335-121.33337,19.6665-26.33331,62-67,116-106.33331s152.6665-101.33331,176-115.33331c23.33325-14,109.33325-64.66669,109.33325-64.66669l-67.39197,14.89716-.78577.17371c-19.41614,8.78577-117.01904,52.62262-224.72058,95.15863-.00208.00079-.00403.00159-.00598.00238-5.18079,2.04608-10.38306,4.08923-15.60303,6.12518l-.01392.00549c-4.26172,1.66229-8.53345,3.32013-12.81201,4.97076-131.3335,50.66669-165.3335,76-232,129.33337-66.66675,53.33331-105.3335,124.66663-134,206-25.49243,72.32745-34.64355,149.9259-45.73364,226.23376-.00024.00208-.00049.00409-.00085.00616-.7782,5.35504-1.56726,10.70312-2.37097,16.04315-.00024.00195-.00061.00397-.00098.00592-.6217,4.13086-1.25,8.25812-1.89355,12.37762-5.45764,34.92865-14.7019,89.2915-23.71851,141.32764l5.95825-1.12183s214.64648-81.94745,236.17212-223.20581ZM5381.54492,1022.53912l32.25732,6.07343c-1.73584-10.15625-3.40186-20.38025-4.99512-30.67688-.58569-3.78564-1.16309-7.57959-1.73291-11.38116-1.13965-7.60309-2.24951-15.23651-3.33667-22.89368-1.0874-7.65717-2.1521-15.33807-3.20142-23.03625-5.24731-38.49078-10.11401-77.41254-15.51709-115.95087-1.08057-7.70764-2.18262-15.39996-3.31348-23.07043-1.69629-11.50574-3.45728-22.96228-5.30786-34.3476-4.31812-26.56586-9.12354-52.7442-14.73096-78.25568-.01196-.05371-.02417-.10608-.03613-.15979-.72095-3.27722-1.45654-6.52399-2.20532-9.74286-.25293-1.08813-.51562-2.15576-.77197-3.23724-.5144-2.17133-1.02808-4.34412-1.55518-6.48895-.31201-1.27008-.63379-2.51978-.95044-3.78064-.48486-1.9317-.96826-3.86615-1.46362-5.77637-.34253-1.32214-.69409-2.62567-1.04175-3.93756-.48267-1.82135-.9646-3.64423-1.45679-5.44598-.36401-1.3335-.73584-2.65094-1.10522-3.97375-.4895-1.75348-.97925-3.50647-1.47778-5.24127-.38184-1.32898-.77026-2.64429-1.15723-3.96234-.5-1.70172-1.00098-3.401-1.50952-5.08472-.39551-1.30994-.79639-2.60883-1.19727-3.9079-.51538-1.67047-1.0332-3.33618-1.55737-4.98883-.40527-1.27869-.81494-2.54913-1.22559-3.81726-.53247-1.64471-1.06836-3.28241-1.60962-4.90948-.41602-1.25079-.83496-2.49585-1.25586-3.73627-.55103-1.6228-1.10645-3.23633-1.66602-4.84149-.42236-1.21185-.84644-2.42065-1.27368-3.62256-.57324-1.61212-1.1521-3.21265-1.73389-4.80695-.42725-1.17059-.85498-2.34064-1.28687-3.50171-.59741-1.60571-1.20166-3.19757-1.80811-4.78516-.42822-1.12115-.85547-2.24414-1.28809-3.35632-.62915-1.61731-1.26636-3.21844-1.90503-4.81689-.42188-1.05646-.8418-2.11731-1.26782-3.16565-.66919-1.64624-1.34741-3.27393-2.02637-4.90009-.4082-.97729-.81274-1.96118-1.22437-2.93127-.72754-1.71387-1.46509-3.4068-2.20361-5.09839-.37451-.85822-.74463-1.72522-1.12207-2.57776-.83667-1.88953-1.68506-3.7558-2.53564-5.61761-.28906-.63281-.57324-1.27533-.86377-1.90491-1.13867-2.46631-2.28857-4.90985-3.45166-7.32788-.00903-.0191-.01807-.03864-.0271-.05768-.04761-.1001-.09473-.19568-.14233-.29663-.17505-.36328-.35449-.71783-.53027-1.07983-.79199-1.63342-1.58862-3.25757-2.39185-4.8692-.96582-1.93195-1.9397-3.84827-2.91992-5.75226-.00391-.00775-.00806-.01562-.01196-.02344-55.55322-105.71332-172.36621-179.41895-222.74292-201.80841-52.20142-23.20038-157.3335-61.33337-199.3335-79.33337-17.47388-7.48877-48.49072-21.80829-78.75806-35.97864-3.03027-1.29779-6.0625-2.61005-9.09717-3.93494-.15625-.06824-.3125-.13617-.46899-.20453-6.10571-2.66846-12.21924-5.3938-18.33911-8.18164-.22754-.10376-.45532-.20831-.68311-.31219-2.87036-1.30969-5.74219-2.63306-8.61475-3.97107-.19531-.09082-.39014-.18091-.58545-.27191-6.0415-2.81799-12.08789-5.7019-18.13721-8.65466-.37549-.18341-.75146-.36774-1.1272-.5517-2.81958-1.38025-5.6394-2.77435-8.45972-4.18591-.16553-.08289-.33105-.16461-.49658-.24756-3.09546-1.55133-6.19141-3.12097-9.2876-4.71173-.00146-.00085-.00317-.00165-.00488-.0025l-3.94019,1.20898-54.6665-9.33331s44,28.66669,86.6665,52.66669c42.66675,24,160.66675,88,256.66675,176.66663,96,88.66669,101.33325,160.66669,111.33325,203.33337,3.63086,15.49152,1.28271,44.43188-3.7522,75.7757,6.63403,28.30737,13.00903,64.81885,20.79175,115.89093,21.52563,141.25836,236.17212,223.20581,236.17212,223.20581Z" fill="#ffc000"/>
</svg>