<?xml version="1.0" encoding="UTF-8"?>
<svg id="Layer_1" xmlns="http://www.w3.org/2000/svg" version="1.1" viewBox="0 0 6000 3000">
  <!-- Generator: Adobe Illustrator 29.8.2, SVG Export Plug-In . SVG Version: 2.1.1 Build 3)  -->
  <path id="C2" d="M3440.66162,320.48999l68.8064,58.43097c-35.60693,29.0766-63.31348,56.83289-78.60181,76.83575-.40332.52777-.81348,1.05975-1.19946,1.5766-5.80566,7.77356-12.51221,17.99841-19.27832,29.58008-.3269.55951-.65356,1.11481-.98059,1.6806-.61975,1.07202-1.23914,2.15851-1.85852,3.25177-10.59424,8.06421-21.48779,16.71716-33.4314,26.27209-27.29504,21.836-49.89099,46.6933-69.03418,74.01489-27.61304,39.41003-48.03613,83.95166-64.96582,131.98511-8.86182,25.14264-15.74561,50.92316-21.42578,77.06409-10.32935,47.53638-16.67236,96.26581-23.63794,144.53436-.09119.6322-.1825,1.26422-.27393,1.89618-.13208.91296-.26343,1.82654-.396,2.73914-.00024.00208-.00049.00409-.00085.00616-.7782,5.35504-1.56726,10.70312-2.37097,16.04315-.00024.00195-.00061.00397-.00098.00592-.6217,4.13086-1.25,8.25812-1.89355,12.37762-4.48389,28.69635-11.52356,70.51074-18.89307,113.37518-6.68933,38.90796-13.65015,78.6792-19.21802,110.29224-4.42432-1.04498-8.69214-2.07733-12.80176-3.09497,5.35571-30.36548,12.28076-69.85876,19.06519-109.20917,7.94263-46.0675,15.69153-91.93353,20.50049-122.71045.64355-4.11951,1.27185-8.24677,1.89355-12.37762.00037-.00195.00073-.00397.00098-.00592.4718-3.13458.92932-6.27734,1.39172-9.41724.09314-.63196.18738-1.26318.28015-1.89526l-96.21594-14.94293c2.90784-17.46246,5.49438-33.33765,7.54553-46.46503.64355-4.11951,1.27185-8.24677,1.89355-12.37762.00037-.00195.00073-.00397.00098-.00592.80371-5.34003,1.59277-10.68811,2.37097-16.04315.00037-.00208.00061-.00409.00085-.00616,3.37793-23.24304,6.57812-46.60547,10.11279-69.90259l97.33862,15.11731c6.04443-29.32031,13.47754-58.23157,23.38623-86.34448,16.776-47.59729,36.98877-91.76129,64.22192-130.90576,19.30225-27.74481,42.12549-52.97223,69.77808-75.09424,12.6731-10.13855,24.16504-19.26343,35.37024-27.74463.52307-.39587,1.04504-.78955,1.56689-1.18268l-93.06921-79.03497c38.37634-29.55731,71.53296-50.9389,134.02295-78.31842ZM3800.37927,189.05536c17.44006-10.28998,30.62073-18.05536,30.62073-18.05536l-35.98169,7.9538,5.36096,10.10156ZM4706.43506,195.70416l7.35229-13.85431-40.12061-6.84985s13.48901,8.78796,32.76831,20.70416ZM939.59167,319.68384c-50.41638,25.24744-91.99109,53.46234-126.56213,84.65411l92.51416,78.56372c-.48828.42255-.98315.84229-1.46875,1.26593-38.94824,33.97559-69.27637,71.56311-93.45801,112.7663-35.81091,61.01831-58.13647,129.97229-74.96411,206.90088l-98.69995-15.3288c-8.00952,45.73035-15.03394,93.96484-22.47607,144.71484l95.52344,14.83545c-.09607.6319-.19238,1.26117-.28857,1.89392-6.98535,46.01801-13.76855,94.30469-21.55151,144.8584-.65649,4.26367-1.31787,8.53857-1.98926,12.83453-5.47998,35.06464-14.09888,70.98077-23.23438,107.07947,3.47925.75684,7.05212,1.51642,10.73022,2.2774.91187.18866,1.83521.37695,2.75867.56525,8.32751-33.23218,16.04321-66.2652,21.09265-98.57495,1.16418-7.44879,2.30298-14.84497,3.42371-22.19666,7.71082-50.58301,14.48523-98.86731,21.54736-144.85907.09705-.63177.19409-1.26263.29126-1.89349,7.82776-50.84857,16.03381-98.88837,26.28235-144.12366,16.69458-73.68652,38.81689-139.93561,73.57043-198.77917,24.27722-41.10535,54.72351-78.59637,93.78894-112.48529.48743-.42285.97876-.84418,1.46875-1.26593,28.90649-24.87238,62.49554-47.79578,101.75366-68.77057,7.328-5.90912,14.94537-11.86157,22.64166-17.72369,12.09851-9.21521,24.38202-18.20129,36.0213-26.43365-15.36621,6.32275-30.03217,12.86523-44.03754,19.62622l-94.67828-80.40149ZM1316.77234,153.17096c.18231-.38666.28571-.75763.34344-1.11951-9.71698,4.83319-19.34125,9.5835-28.92065,14.27252l37.69135,71.02191c5.14355-2.26337,8.4469-3.6792,8.4469-3.6792,0,0-31.7887-50.32477-17.56104-80.49573ZM2876.93573,787.91791l-97.80896,15.19037c-15.2478-73.70752-37.159-144.78741-76.52905-208.81799-15.51117-25.22711-33.72308-49.36377-55.31885-72.13025-13.16553-13.87921-26.87244-26.5141-41.05908-38.15649-.50153-.41156-1.00085-.82733-1.5036-1.23639l92.73395-78.75031c-39.7926-33.82306-83.53912-59.32477-130.13312-81.62164l-94.81989,80.52167c-6.55835-3.05426-13.17035-6.05432-19.8335-9.01196,5.53131,3.64276,11.2301,7.42981,17.07294,11.35632,7.67767,5.15955,15.59338,10.55151,23.70789,16.18323,12.40704,8.61084,24.0304,18.03638,34.85413,27.75317,22.24298,13.10065,43.6413,27.56842,64.04572,44.07574.50366.40747,1.0022.82562,1.50464,1.2356,14.552,11.87317,28.6004,24.78497,42.08276,38.99823,21.27435,22.42767,39.27417,46.18115,54.63416,71.00061,38.14368,61.63452,59.99847,129.84625,75.25232,200.66736,10.19958,47.35492,17.44995,95.87549,24.64001,144.37878.09363.63171.18732,1.26337.28094,1.89508,5.30402,35.78485,10.59747,71.55127,17.04285,106.82281,2.28741,12.51752,4.79266,25.02509,7.45557,37.57794,8.66571,40.84955,19.03644,82.19135,29.30023,125.99591,4.57135-1.03113,8.99963-2.06842,13.26965-3.10828-10.10834-43.54095-20.435-84.56165-29.23169-124.95917-3.41321-15.67468-6.59631-31.25568-9.44659-46.85358-5.88281-32.19305-10.80573-64.79846-15.6532-97.45374-.09375-.63165-.18738-1.26337-.28113-1.89508l95.97076-14.90485c-7.97296-47.97864-14.42981-96.62-22.22986-144.75311ZM2176.89746,233.396s2.69299,1.5697,7.20605,4.1601l37.04114-69.79681c-8.72241-4.22675-17.4754-8.48071-26.21857-12.75641,2.44965,7.21887,5.67712,29.38287-18.02863,78.39313ZM5344.64795,1197.30536c-.30249-1.50397-.60376-3.00623-.90479-4.50574-.75317-3.7533-1.50269-7.4964-2.24487-11.22046-.11914-.59808-.23779-1.19537-.35669-1.7926-.75586-3.79797-1.50293-7.57611-2.24438-11.34131-.17749-.90149-.35571-1.80542-.53223-2.7049-.7832-3.98993-1.5564-7.95996-2.31909-11.90991-.15112-.78223-.30054-1.56183-.45068-2.34247-.79907-4.15259-1.58984-8.28973-2.36206-12.39471-.69263-3.6814-1.37231-7.37531-2.03979-11.08081s-1.323-7.42267-1.96729-11.15063c-1.29346-7.48242-2.52783-15.02216-3.73877-22.58521-.59888-3.74139-1.20264-7.47821-1.78418-11.23694-.58569-3.78564-1.16309-7.57959-1.73291-11.38116-1.13965-7.60309-2.24951-15.23651-3.33667-22.89368-1.0874-7.65717-2.1521-15.33807-3.20142-23.03625-3.4624-25.39746-6.76782-50.97876-10.16211-76.51758-.08423-.63312-.16772-1.26648-.25195-1.8996l94.44824-14.66846c-4.84058-35.88824-9.41675-72.0885-14.44727-107.96924-1.08057-7.70764-2.18262-15.39996-3.31348-23.07043-.69336-4.70343-1.40576-9.3924-2.12256-14.07788l-97.12524,15.08423c-1.8667-9.58295-3.82544-19.09033-5.89502-28.50562-.01196-.05371-.02417-.10608-.03613-.15979-.72095-3.27722-1.45654-6.52399-2.20532-9.74286-.25293-1.08813-.51562-2.15576-.77197-3.23724-.5144-2.17133-1.02808-4.34412-1.55518-6.48895-.31201-1.27008-.63379-2.51978-.95044-3.78064-.48486-1.9317-.96826-3.86615-1.46362-5.77637-.34253-1.32214-.69409-2.62567-1.04175-3.93756-.48267-1.82135-.9646-3.64423-1.45679-5.44598-.36401-1.3335-.73584-2.65094-1.10522-3.97375-.4895-1.75348-.97925-3.50647-1.47778-5.24127-.38184-1.32898-.77026-2.64429-1.15723-3.96234-.5-1.70172-1.00098-3.401-1.50952-5.08472-.39551-1.30994-.79639-2.60883-1.19727-3.9079-.51538-1.67047-1.0332-3.33618-1.55737-4.98883-.40527-1.27869-.81494-2.54913-1.22559-3.81726-.53247-1.64471-1.06836-3.28241-1.60962-4.90948-.41602-1.25079-.83496-2.49585-1.25586-3.73627-.55103-1.6228-1.10645-3.23633-1.66602-4.84149-.42236-1.21185-.84644-2.42065-1.27368-3.62256-.57324-1.61212-1.1521-3.21265-1.73389-4.80695-.42725-1.17059-.85498-2.34064-1.28687-3.50171-.59741-1.60571-1.20166-3.19757-1.80811-4.78516-.42822-1.12115-.85547-2.24414-1.28809-3.35632-.62915-1.61731-1.26636-3.21844-1.90503-4.81689-.42188-1.05646-.8418-2.11731-1.26782-3.16565-.66919-1.64624-1.34741-3.27393-2.02637-4.90009-.4082-.97729-.81274-1.96118-1.22437-2.93127-.72754-1.71387-1.46509-3.4068-2.20361-5.09839-.37451-.85822-.74463-1.72522-1.12207-2.57776-.83667-1.88953-1.68506-3.7558-2.53564-5.61761-.28906-.63281-.57324-1.27533-.86377-1.90491-1.13867-2.46631-2.28857-4.90985-3.45166-7.32788-.00903-.0191-.01807-.03864-.0271-.05768-.04761-.1001-.09473-.19568-.14233-.29663-.17505-.36328-.35449-.71783-.53027-1.07983-.79199-1.63342-1.58862-3.25757-2.39185-4.8692-.96582-1.93195-1.9397-3.84827-2.91992-5.75226-.00391-.00775-.00806-.01562-.01196-.02344-5.24951-9.98969-11.04785-19.69232-17.28394-29.09406-27.94116-42.12592-64.69946-78.18378-100.58594-106.71326-.51147-.40662-1.02222-.80786-1.5332-1.21136l92.8689-78.86493c-43.01685-35.16901-85.58521-59.68689-111.10474-71.02881-6.28125-2.79163-13.33472-5.80103-20.94629-8.96393l-70.21143,59.62384c7.59741,6.51886,15.10962,13.18921,22.49097,20.00671,18.80518,17.36865,34.11816,34.09424,46.68164,50.08862,10.41211,13.25525,18.93726,26.00824,25.9624,38.20007.62231.48505,1.24463.97131,1.86768,1.46094.51074.40143,1.02197.80682,1.5332,1.2113,35.90601,28.41296,72.77393,64.38452,100.89648,106.44934,6.51318,9.74194,12.56396,19.8056,18.01709,30.18268.00391.00781.00806.01569.01196.02344.98022,1.90399,1.9541,3.82031,2.91992,5.75226.80322,1.61163,1.59985,3.23578,2.39185,4.8692.17578.362.35522.71655.53027,1.07983.04761.10095.09473.19653.14233.29663.00903.01904.01807.03857.0271.05768,1.16309,2.41803,2.31299,4.86157,3.45166,7.32788.29053.62958.57471,1.27209.86377,1.90491.85059,1.86182,1.69897,3.72809,2.53564,5.61761.37744.85254.74756,1.71954,1.12207,2.57776.73853,1.69159,1.47607,3.38452,2.20361,5.09839.41162.97009.81616,1.95398,1.22437,2.93127.67896,1.62616,1.35718,3.25385,2.02637,4.90009.42603,1.04834.84595,2.10919,1.26782,3.16565.63867,1.59845,1.27588,3.19958,1.90503,4.81689.43262,1.11218.85986,2.23517,1.28809,3.35632.60645,1.58759,1.21069,3.17944,1.80811,4.78516.43188,1.16107.85962,2.33112,1.28687,3.50171.58179,1.5943,1.16064,3.19482,1.73389,4.80695.42725,1.2019.85132,2.41071,1.27368,3.62256.55957,1.60516,1.11499,3.21869,1.66602,4.84149.4209,1.24042.83984,2.48547,1.25586,3.73627.54126,1.62708,1.07715,3.26477,1.60962,4.90948.41064,1.26813.82031,2.53857,1.22559,3.81726.52417,1.65265,1.04199,3.31836,1.55737,4.98883.40088,1.29907.80176,2.59796,1.19727,3.9079.50854,1.68372,1.00952,3.383,1.50952,5.08472.38696,1.31805.77539,2.63336,1.15723,3.96234.49854,1.7348.98828,3.48779,1.47778,5.24127.36938,1.32281.74121,2.64026,1.10522,3.97375.49219,1.80176.97412,3.62463,1.45679,5.44598.34766,1.31189.69922,2.61542,1.04175,3.93756.49536,1.91022.97876,3.84467,1.46362,5.77637.31665,1.26086.63843,2.51056.95044,3.78064.5271,2.14484,1.04077,4.31763,1.55518,6.48895.25635,1.08148.51904,2.14911.77197,3.23724.74878,3.21887,1.48438,6.46564,2.20532,9.74286.01196.05371.02417.10608.03613.15979,1.39844,6.3623,2.74683,12.76624,4.05054,19.20721,3.92334,19.38574,7.43921,39.10791,10.68042,59.04846,1.85059,11.38531,3.61157,22.84186,5.30786,34.3476,1.13086,7.67047,2.23291,15.36279,3.31348,23.07043,1.3125,9.36176,2.59131,18.74744,3.85376,28.14282.08496.63312.17041,1.26581.25537,1.89905,3.8418,28.6524,7.52124,57.39856,11.40796,85.909,1.04932,7.69818,2.11401,15.37909,3.20142,23.03625,1.08716,7.65717,2.19702,15.29059,3.33667,22.89368.56982,3.80157,1.14722,7.59552,1.73291,11.38116.09741.62976.20117,1.25342.29883,1.88275,1.66797,10.71912,3.39819,21.37561,5.22412,31.93939.64429,3.72797,1.2998,7.44513,1.96729,11.15063s1.34717,7.39941,2.03979,11.08081c.77222,4.10498,1.56299,8.24213,2.36206,12.39471.15015.78064.29956,1.56024.45068,2.34247.7627,3.94995,1.53589,7.91998,2.31909,11.90991.17651.89948.35474,1.80341.53223,2.7049.74146,3.7652,1.48853,7.54333,2.24438,11.34131.1189.59723.23755,1.19452.35669,1.7926.74219,3.72406,1.4917,7.46716,2.24487,11.22046.18896.94171.37866,1.88611.56836,2.82971,4.55396-.80078,8.93335-1.60529,13.14429-2.41663-.0105-.05188-.021-.10437-.03149-.15625-.47778-2.37048-.95459-4.7384-1.4292-7.09827Z"/>
  <path id="C1" d="M3158.27026,1090.14777l-97.27612-15.1076c7.98218-45.56531,17.40112-99.90723,24.81226-144.35205l96.25061,14.94843c-.4624,3.13989-.91992,6.28265-1.39172,9.41724-.00024.00195-.00061.00397-.00098.00592-.6217,4.13086-1.25,8.25812-1.89355,12.37762-4.80896,30.77692-12.55786,76.64294-20.50049,122.71045ZM3362.77075,506.77069c12.6731-10.13855,24.16504-19.26343,35.37024-27.74463l-93.05249-79.02081c-8.71667,6.73834-17.72253,13.90198-27.42175,21.66144-30.33533,24.26825-54.85889,52.2738-75.29517,83.24219l90.62109,76.95605c19.30225-27.74481,42.12549-52.97223,69.77808-75.09424ZM3763.60803,185.89716l-.78577.17371c-11.82703,5.35168-52.66528,23.70905-107.12476,46.85565l17.49304,32.96222c22.13672-14.05981,40.12854-25.21344,48.4762-30.22205,13.91296-8.34784,50.104-29.73059,77.06079-45.63684l-5.65027-10.64697-29.46924,6.51428ZM5318.63354,1048.76483c1.08716,7.65717,2.19702,15.29059,3.33667,22.89368.56982,3.80157,1.14722,7.59552,1.73291,11.38116.58154,3.75873,1.1853,7.49554,1.78418,11.23694l97.68359-15.1709c-.68018-3.47266-1.35645-6.93695-2.021-10.37927-.15112-.78223-.30054-1.56183-.45068-2.34247-.79907-4.15259-1.58984-8.28973-2.36206-12.39471-.69263-3.6814-1.37231-7.37531-2.03979-11.08081s-1.323-7.42267-1.96729-11.15063c-1.93311-11.18396-3.76562-22.46533-5.52295-33.82214-.58569-3.78564-1.16309-7.57959-1.73291-11.38116-1.13965-7.60309-2.24951-15.23651-3.33667-22.89368-1.0874-7.65717-2.1521-15.33807-3.20142-23.03625-.27588-2.02271-.5415-4.0575-.81519-6.08246l-94.45093,14.66888c3.39429,25.53882,6.69971,51.12012,10.16211,76.51758,1.04932,7.69818,2.11401,15.37909,3.20142,23.03625ZM5206.02173,591.48505l90.4375-76.80017c-26.57275-42.62067-62.46069-79.35132-98.18091-108.75568l-92.84253,78.84259c35.88647,28.52948,72.64478,64.58734,100.58594,106.71326ZM4798.47803,214.41974c-.15625-.06824-.3125-.13617-.46899-.20453-6.10571-2.66846-12.21924-5.3938-18.33911-8.18164-.22754-.10376-.45532-.20831-.68311-.31219-2.87036-1.30969-5.74219-2.63306-8.61475-3.97107-.19531-.09082-.39014-.18091-.58545-.27191-6.0415-2.81799-12.08789-5.7019-18.13721-8.65466-.37549-.18341-.75146-.36774-1.1272-.5517-2.81958-1.38025-5.6394-2.77435-8.45972-4.18591-.16553-.08289-.33105-.16461-.49658-.24756-3.09546-1.55133-6.19141-3.12097-9.2876-4.71173-.00146-.00085-.00317-.00165-.00488-.0025l-3.94019,1.20898-12.55713-2.14392-7.70752,14.52338c15.25269,9.40729,33.88062,20.61292,52.26465,30.95392,15.94922,8.97144,42.427,23.53394,74.34546,42.88312l16.87207-31.79236c-13.67065-6.26483-28.91528-13.35193-43.97559-20.40277-3.03027-1.29779-6.0625-2.61005-9.09717-3.93494ZM709.71167,949.9502l-95.51294-14.83386c-4.15955,28.35852-8.45508,57.49768-13.13184,87.42279-2.93726,18.79425-6.78601,37.83582-11.12195,57.01599l98.21521,15.25348c7.78296-50.55371,14.56616-98.84039,21.55151-144.8584ZM904.07495,484.1676l-92.47302-78.52869c-38.05786,34.62244-67.57764,72.88867-91.04236,114.81781l90.05737,76.47717c24.18164-41.20319,54.50977-78.79071,93.45801-112.7663ZM1153.51788,229.04663l42.51831,80.11743c32.54968-18.90314,66.09143-38.88672,73.63049-44.16406,9.58124-6.70685,38.78479-19.95441,54.46216-26.87927l-37.65594-70.95526c-43.83606,21.43469-86.75128,41.55133-132.95502,61.88116ZM2899.4787,934.5611l-96.00275,14.90985c4.84747,32.65527,9.77039,65.26068,15.6532,97.45374,2.85028,15.5979,6.03339,31.17889,9.44659,46.85358l101.15973-15.71075c-9.49738-39.73981-18.50287-77.94293-25.50232-116.24683-1.65491-9.05627-3.23175-18.14612-4.75446-27.25958ZM2647.27887,522.16003c21.59576,22.76648,39.80768,46.90314,55.31885,72.13025l90.20093-76.59924c-16.58057-28.31616-36.4054-55.323-60.41577-80.63501-10.79858-11.38397-21.96136-21.93073-33.45288-31.78259l-92.71021,78.7301c14.18665,11.6424,27.89355,24.27728,41.05908,38.15649ZM2222.86987,168.59528l-37.10345,69.91418c12.94507,7.41357,37.85828,21.49115,59.67804,32.71277,16.09344,8.27661,43.96008,22.73737,69.39014,36.49225l40.14355-75.64258c-13.94714-6.27539-27.98169-12.83551-42.08612-19.78839-28.1991-13.90094-58.88452-28.60565-90.02216-43.68823ZM3478,1029c-2.12769-14.59094-7.3147-56.07507-31.21448-105.73737-2.30798-4.79602-4.78088-9.66412-7.45227-14.59595-13.48926-24.9035-25.7207-51.58813-35.88428-78.79077-12.69104-33.96741-22.15479-68.74329-26.78223-101.87592-4.17969-29.92572-7.1842-57.16693-8.1748-82.02063-.98462-24.7002.0199-47.04236,3.84131-67.31268,5.08704-26.98315,20.00671-59.97571,35.21606-86.82092-10.59424,8.06421-21.48779,16.71716-33.4314,26.27209-27.29504,21.836-49.89099,46.6933-69.03418,74.01489-27.61304,39.41003-48.03613,83.95166-64.96582,131.98511-8.86182,25.14264-15.74561,50.92316-21.42578,77.06409-10.32935,47.53638-16.67236,96.26581-23.63794,144.53436-.09119.6322-.1825,1.26422-.27393,1.89618-.13208.91296-.26343,1.82654-.396,2.73914-.00024.00208-.00049.00409-.00085.00616-.7782,5.35504-1.56726,10.70312-2.37097,16.04315-.00024.00195-.00061.00397-.00098.00592-.6217,4.13086-1.25,8.25812-1.89355,12.37762-4.48389,28.69635-11.52356,70.51074-18.89307,113.37518-6.68933,38.90796-13.65015,78.6792-19.21802,110.29224,3.56299.84161,7.22144,1.69086,10.99316,2.5481,88,20,239.05762,35.36066,274,35,16.90137-.17444,27.96777-.17853,34.90308-.13641l17.30029-98.6991s-8.87012-34.16449-8.87012-45.49786,0-50.66663-2.33325-66.66663ZM875,592.33331c12.86426-23.23859,34.51245-53.45093,58.99243-82.75952.40906-.48981.82104-.97815,1.23169-1.46735,14.49341-17.26752,29.93433-34.17621,45.10925-49.10645,10.68121-10.50891,24.39307-22.35388,39.31116-34.38354-39.25812,20.97479-72.84717,43.89819-101.75366,68.77057-.48999.42175-.98132.84308-1.46875,1.26593-39.06543,33.88892-69.51172,71.37994-93.78894,112.48529-34.75354,58.84357-56.87585,125.09265-73.57043,198.77917-10.24854,45.23529-18.45459,93.27509-26.28235,144.12366-.09717.63086-.19421,1.26172-.29126,1.89349-7.06213,45.99176-13.83655,94.27606-21.54736,144.85907-1.12073,7.35168-2.25952,14.74786-3.42371,22.19666-5.04944,32.30975-12.76514,65.34277-21.09265,98.57495,77.38171,15.77863,194.21448,30.11713,219.90796,31.43475,19.27344.98834,67.11316,3.80798,90.58081,5.20099,2.82434-29.06616,6.85181-55.91608,15.05896-74.57111,2.09827-4.76941,3.51794-10.42932,10.03369-9.66107-1.06354-8.41815-5.00684-40.6394-5.00684-55.6355,0-17.33331-28-135.33331-48-170.66663-3.37183-5.95697-7.52283-13.16888-12.18335-21.3811-13.81665-24.34613-32.12769-57.51892-48.03088-93.11517-10.55078-23.61578-20.04163-48.29565-26.45239-72.17041-12.43115-46.29529-16.30383-85.68738-12.00061-117.84705,2.38916-17.85614,7.28906-33.49127,14.66724-46.81964ZM5330.15112,1192.92633c-.11914-.59808-.23779-1.19537-.35669-1.7926-.75586-3.79797-1.50293-7.57611-2.24438-11.34131-.17749-.90149-.35571-1.80542-.53223-2.7049-.7832-3.98993-1.5564-7.95996-2.31909-11.90991-.15112-.78223-.30054-1.56183-.45068-2.34247-.79907-4.15259-1.58984-8.28973-2.36206-12.39471-.69263-3.6814-1.37231-7.37531-2.03979-11.08081s-1.323-7.42267-1.96729-11.15063c-1.82593-10.56378-3.55615-21.22028-5.22412-31.93939-.09766-.62933-.20142-1.25299-.29883-1.88275-.58569-3.78564-1.16309-7.57959-1.73291-11.38116-1.13965-7.60309-2.24951-15.23651-3.33667-22.89368-1.0874-7.65717-2.1521-15.33807-3.20142-23.03625-3.88672-28.51044-7.56616-57.25659-11.40796-85.909-.08496-.63324-.17041-1.26593-.25537-1.89905-1.26245-9.39539-2.54126-18.78107-3.85376-28.14282-1.08057-7.70764-2.18262-15.39996-3.31348-23.07043-1.69629-11.50574-3.45728-22.96228-5.30786-34.3476-3.24121-19.94055-6.75708-39.66272-10.68042-59.04846-1.30371-6.44098-2.6521-12.84491-4.05054-19.20721-.01196-.05371-.02417-.10608-.03613-.15979-.72095-3.27722-1.45654-6.52399-2.20532-9.74286-.25293-1.08813-.51562-2.15576-.77197-3.23724-.5144-2.17133-1.02808-4.34412-1.55518-6.48895-.31201-1.27008-.63379-2.51978-.95044-3.78064-.48486-1.9317-.96826-3.86615-1.46362-5.77637-.34253-1.32214-.69409-2.62567-1.04175-3.93756-.48267-1.82135-.9646-3.64423-1.45679-5.44598-.36401-1.3335-.73584-2.65094-1.10522-3.97375-.4895-1.75348-.97925-3.50647-1.47778-5.24127-.38184-1.32898-.77026-2.64429-1.15723-3.96234-.5-1.70172-1.00098-3.401-1.50952-5.08472-.39551-1.30994-.79639-2.60883-1.19727-3.9079-.51538-1.67047-1.0332-3.33618-1.55737-4.98883-.40527-1.27869-.81494-2.54913-1.22559-3.81726-.53247-1.64471-1.06836-3.28241-1.60962-4.90948-.41602-1.25079-.83496-2.49585-1.25586-3.73627-.55103-1.6228-1.10645-3.23633-1.66602-4.84149-.42236-1.21185-.84644-2.42065-1.27368-3.62256-.57324-1.61212-1.1521-3.21265-1.73389-4.80695-.42725-1.17059-.85498-2.34064-1.28687-3.50171-.59741-1.60571-1.20166-3.19757-1.80811-4.78516-.42822-1.12115-.85547-2.24414-1.28809-3.35632-.62915-1.61731-1.26636-3.21844-1.90503-4.81689-.42188-1.05646-.8418-2.11731-1.26782-3.16565-.66919-1.64624-1.34741-3.27393-2.02637-4.90009-.4082-.97729-.81274-1.96118-1.22437-2.93127-.72754-1.71387-1.46509-3.4068-2.20361-5.09839-.37451-.85822-.74463-1.72522-1.12207-2.57776-.83667-1.88953-1.68506-3.7558-2.53564-5.61761-.28906-.63281-.57324-1.27533-.86377-1.90491-1.13867-2.46631-2.28857-4.90985-3.45166-7.32788-.00903-.0191-.01807-.03864-.0271-.05768-.04761-.1001-.09473-.19568-.14233-.29663-.17505-.36328-.35449-.71783-.53027-1.07983-.79199-1.63342-1.58862-3.25757-2.39185-4.8692-.96582-1.93195-1.9397-3.84827-2.91992-5.75226-.00391-.00775-.00806-.01562-.01196-.02344-5.45312-10.37708-11.50391-20.44073-18.01709-30.18268-28.12256-42.06482-64.99048-78.03638-100.89648-106.44934-.51123-.40448-1.02246-.80988-1.5332-1.2113-.62305-.48962-1.24536-.97589-1.86768-1.46094.39648.68781.78076,1.37103,1.16772,2.0553.32007.5658.64673,1.13434.96045,1.69769,25.8833,46.49506,30.31055,84.62329,36.56104,111.29169,2.60156,11.10034,2.13013,29.11169-.1958,49.95807-6.6145,59.28107-28.25952,141.5379-37.13745,153.37524-3.0481,4.06415-7.51709,12.52069-12.62842,23.30554-6.52515,13.76843-14.09814,31.33472-21.10767,48.43512-9.11548,22.2384-17.27588,43.68036-20.93066,54.92603-8.6665,26.66663-14,83.33331-16,105.33331s-15.66089,123.24957-15.66089,123.24957c.0022.0011.00391.0025.0061.0036.34106.17944.67017.37646.99194.58325.104.06677.20386.13879.30566.20819.21899.14905.43457.30212.64453.46277.10962.08374.21729.16925.32446.25598.20117.16296.39746.33118.59009.50385.09595.086.19287.17047.28662.25867.22607.21246.44482.43176.65869.65613.0498.05237.10254.10199.15186.15497.26025.27979.51025.56824.75244.8631.06714.08179.13013.16626.1958.24908.17334.21838.34351.43872.50732.66339.07886.10797.15527.21692.23169.32617.14722.20972.29004.4209.4292.63458.07153.1098.14282.21899.2124.32971.14819.23633.29028.47443.42896.71387.04932.08514.10107.16937.14917.25482.18286.32452.35791.65051.52368.97748.03174.06244.06006.12476.09106.18719.13257.26685.2605.53339.38208.79974.0498.1095.09692.21802.14502.32721.0979.22223.19238.44336.28271.66376.04688.1142.09277.2276.1377.34119.08862.2254.17261.44824.25342.67029.0354.09711.07251.19452.1062.29083.11035.31354.2146.62378.30908.92719.30322.97418.59961,1.97363.89233,2.9856.08936.30835.17676.6225.26514.9342.20752.73297.4126,1.47394.61523,2.22473.09131.33905.18262.67792.27319,1.02045.22192.84137.44092,1.69366.65698,2.55505.05615.22418.11377.44391.16968.66943.26929,1.0874.53394,2.19012.79468,3.30609.06494.27881.12842.56256.19287.84302.19702.85498.3916,1.71625.58374,2.58606.08325.37634.16577.75427.2478,1.13318.18213.83844.36157,1.68323.53955,2.53363.06934.3324.13965.66248.2085.99658.24146,1.16974.47974,2.34747.71387,3.53668.02661.13562.05273.27332.0791.40924.20947,1.06854.41602,2.14435.62012,3.2262.07031.37402.14014.74988.20996,1.12537.16406.87921.32617,1.76166.48682,2.64807.06836.37799.13721.75531.20508,1.13446.19189,1.0705.38184,2.14496.56934,3.22363.02734.1557.05493.31018.08203.466.2168,1.25092.43042,2.50665.64233,3.76556.05664.33691.11255.67468.1687,1.01202.15625.93524.31152,1.8714.46533,2.80927.06567.40192.13135.80347.19678,1.20569.15649.96143.31177,1.92316.46606,2.88562.04785.29834.09595.59631.14355.89465.2019,1.26477.4021,2.52924.60059,3.79266.02856.1828.05688.36487.08569.54761.17798,1.13538.35498,2.26892.53076,3.40076.04541.29224.09033.58325.13574.87512.17236,1.11255.34424,2.22211.51489,3.32886.00977.06299.01953.12653.0293.18951.00806.00073,32.19263,2.84314,153.51074-12.48828,64.9646-8.20978,115.20679-14.65887,153.29761-21.35681-.1897-.9436-.37939-1.888-.56836-2.82971-.75317-3.7533-1.50269-7.4964-2.24487-11.22046ZM2807.78198,1058.27185c-6.44537-35.27155-11.73883-71.03796-17.04285-106.82281-.09363-.63171-.18732-1.26337-.28094-1.89508-7.19006-48.5033-14.44043-97.02386-24.64001-144.37878-15.25385-70.82111-37.10864-139.03284-75.25232-200.66736-15.35999-24.81946-33.3598-48.57294-54.63416-71.00061-13.48236-14.21326-27.53076-27.12506-42.08276-38.99823-.50244-.40997-1.00098-.82812-1.50464-1.2356-20.40442-16.50732-41.80273-30.9751-64.04572-44.07574,20.26593,18.1933,37.69067,37.41309,52.00128,54.30402.41687.49207.82373.97626,1.23535,1.46423,14.13586,16.75958,25.16663,31.09094,32.7981,39.58966,13.64606,15.19672,32.26678,54.414,42.42743,88.65979,4.40015,14.83044,7.21606,28.72992,7.35034,39.34021.44446,35.11115-10.22217,91.11115-19.55554,114.22223-3.73059,9.23761-9.45172,23.87549-15.93823,39.70557-9.7417,23.77435-21.21283,50.24261-30.284,65.18335-7.4339,12.24408-19.38477,36.31952-30.50946,59.84509-11.48877,24.29553-22.09631,48.00458-25.93494,57.48822-7.5556,18.66663-20,46.22223-29.33337,83.55554-9.33331,37.33331-10.55908,44.79938-11.27954,79.95526,9.40314.21326,18.23785,45.72192,19.0882,49.4837,2.74097,12.12573,4.98047,24.36377,6.92639,36.66681,18.95245-.98499,152.92688-8.38745,261.70941-26.10577,20.5564-3.34821,39.03094-6.98651,55.53778-10.70984-10.26379-43.80457-20.63452-85.14636-29.30023-125.99591-2.6629-12.55286-5.16815-25.06042-7.45557-37.57794Z" fill="#ffc000"/>
</svg>