<?xml version="1.0" encoding="UTF-8"?>
<svg id="Layer_1" xmlns="http://www.w3.org/2000/svg" version="1.1" viewBox="0 0 6000 3000">
  <!-- Generator: Adobe Illustrator 29.8.2, SVG Export Plug-In . SVG Version: 2.1.1 Build 3)  -->
  <path id="C1" d="M1334.33337,233.66669s-51.33337,22-64.66669,31.33331-108,64.66669-134.66669,78.66669c-11.06934,5.8114-32.48016,19.6673-56.6925,36.79242-111.90906,46.0473-186.7572,103.71021-238.83069,173.05701l-117.54199-35.48486c53.79565-94.85382,138.98022-170.86108,284.84296-228.14233,124.07678-48.72583,212.61646-89.23132,310.33801-137.83746-.05774.36188-.16113.73285-.34344,1.11951-14.22766,30.17096,17.56104,80.49573,17.56104,80.49573ZM2647.27887,522.16003c6.37262,6.71808,12.45148,13.55505,18.25366,20.50403l120.38855-36.34424c-15.12146-24.18933-32.76202-47.36133-53.53821-69.26379-111.41772-117.45789-261.16064-146.72272-419.49084-224.77252-36.61493-18.04956-77.41846-37.45148-117.96594-57.28064,2.44965,7.21887,5.67712,29.38287-18.02863,78.39313,0,0,37.43585,21.82623,68.547,37.82623,31.11108,16,106.22223,55.11108,122.66663,67.55554,12.49878,9.4585,44.00708,28.42535,84.55255,55.12714,72.10876,32.00763,138.2655,68.85059,194.61523,128.25513ZM3762.82227,186.07086c-19.41614,8.78577-117.01904,52.62262-224.72058,95.15863-.00208.00079-.00403.00159-.00598.00238-5.18079,2.04608-10.38306,4.08923-15.60303,6.12518l-.01392.00549c-4.26172,1.66229-8.53345,3.32013-12.81201,4.97076-131.3335,50.66669-165.3335,76-232,129.33337-31.82373,25.45898-57.25586,55.02789-78.27698,87.82001l121.71814,36.74561c12.56409-14.03326,26.3689-27.22644,41.66284-39.46161,25.00781-20.00629,45.41895-36.07251,68.09546-51.01398,20.14868-26.36218,61.86035-66.19537,114.80054-104.75671,54-39.33331,152.6665-101.33331,176-115.33331,23.33325-14,109.33325-64.66669,109.33325-64.66669l-67.39197,14.89716-.78577.17371ZM5063.68164,454.42194c33.44189,22.16772,71.5459,52.34076,104.81104,89.08691l122.69238-37.03973c-59.74805-90.13757-159.88721-152.52209-205.51831-172.80243-52.20142-23.20038-157.3335-61.33337-199.3335-79.33337-17.47388-7.48877-48.49072-21.80829-78.75806-35.97864-3.03027-1.29779-6.0625-2.61005-9.09717-3.93494-.15625-.06824-.3125-.13617-.46899-.20453-6.10571-2.66846-12.21924-5.3938-18.33911-8.18164-.22754-.10376-.45532-.20831-.68311-.31219-2.87036-1.30969-5.74219-2.63306-8.61475-3.97107-.19531-.09082-.39014-.18091-.58545-.27191-6.0415-2.81799-12.08789-5.7019-18.13721-8.65466-.37549-.18341-.75146-.36774-1.1272-.5517-2.81958-1.38025-5.6394-2.77435-8.45972-4.18591-.16553-.08289-.33105-.16461-.49658-.24756-3.09546-1.55133-6.19141-3.12097-9.2876-4.71173-.00146-.00085-.00317-.00165-.00488-.0025l-3.94019,1.20898-54.6665-9.33331s44,28.66669,86.6665,52.66669c42.66675,24,160.66675,88,256.66675,176.66663,18.80518,17.36865,34.11816,34.09424,46.68164,50.08862ZM3478,1029c-2.33325-16-8.33325-64.33331-38.66675-120.33331-30.33325-56-54.33325-121-62.6665-180.66669-8.3335-59.66669-12-108.66669-4.3335-149.33331.09668-.51312.2124-1.03766.31616-1.55505.92419-4.60706,2.10962-9.37079,3.54089-14.25049,6.86023-23.39014,19.01428-49.22638,31.35901-71.01538-10.59424,8.06421-21.48779,16.71716-33.4314,26.27209-13.0199,10.41589-24.9585,21.52734-35.97644,33.25671-3.70837,3.94781-7.30884,7.9682-10.81067,12.05579-39.36914,45.95306-66.02917,100.58459-87.21289,160.6875-25.49243,72.32745-34.64355,149.9259-45.73364,226.23376-.00024.00208-.00049.00409-.00085.00616-.7782,5.35504-1.56726,10.70312-2.37097,16.04315-.00024.00195-.00061.00397-.00098.00592-.6217,4.13086-1.25,8.25812-1.89355,12.37762-8.55383,54.7439-26.40894,157.22668-38.11108,223.66742,3.56299.84161,7.22144,1.69086,10.99316,2.5481,88,20,239.05762,35.36066,274,35,16.90137-.17444,27.96777-.17853,34.90308-.13641l17.30029-98.6991s-8.87012-34.16449-8.87012-45.49786,0-50.66663-2.33325-66.66663ZM881.33728,581.47284c2.52502-4.13477,5.27173-8.43164,8.19702-12.84485,22.99792-34.6955,57.54102-76.90637,90.79907-109.62799,10.68121-10.50891,24.39307-22.35388,39.31116-34.38354-71.41223,38.15405-124.07629,82.75122-163.88989,133.81378-3.21216,4.11993-6.34644,8.27924-9.39453,12.48334-99.68237,137.48956-113.20032,320.01996-148.84204,548.07672-5.04944,32.30975-12.76514,65.34277-21.09265,98.57495,77.38171,15.77863,194.21448,30.11713,219.90796,31.43475,19.27344.98834,67.11316,3.80798,90.58081,5.20099,2.82434-29.06616,6.85181-55.91608,15.05896-74.57111,2.09827-4.76941,3.51794-10.42932,10.03369-9.66107-1.06354-8.41815-5.00684-40.6394-5.00684-55.6355,0-17.33331-28-135.33331-48-170.66663-20-35.33337-67.33325-114.66669-86.66663-186.66669s-18-127.33331,2.66663-164.66669c1.92249-3.47284,4.04248-7.10242,6.33728-10.86047ZM5332.396,1204.14679c-.75317-3.7533-1.50269-7.4964-2.24487-11.22046-.11914-.59808-.23779-1.19537-.35669-1.7926-.75586-3.79797-1.50293-7.57611-2.24438-11.34131-.17749-.90149-.35571-1.80542-.53223-2.7049-.7832-3.98993-1.5564-7.95996-2.31909-11.90991-.15112-.78223-.30054-1.56183-.45068-2.34247-.79907-4.15259-1.58984-8.28973-2.36206-12.39471-.69263-3.6814-1.37231-7.37531-2.03979-11.08081s-1.323-7.42267-1.96729-11.15063c-1.93311-11.18396-3.76562-22.46533-5.52295-33.82214-.58569-3.78564-1.16309-7.57959-1.73291-11.38116-1.13965-7.60309-2.24951-15.23651-3.33667-22.89368-1.0874-7.65717-2.1521-15.33807-3.20142-23.03625-5.24731-38.49078-10.11401-77.41254-15.51709-115.95087-1.08057-7.70764-2.18262-15.39996-3.31348-23.07043-1.69629-11.50574-3.45728-22.96228-5.30786-34.3476-4.31812-26.56586-9.12354-52.7442-14.73096-78.25568-.01196-.05371-.02417-.10608-.03613-.15979-.72095-3.27722-1.45654-6.52399-2.20532-9.74286-.25293-1.08813-.51562-2.15576-.77197-3.23724-.5144-2.17133-1.02808-4.34412-1.55518-6.48895-.31201-1.27008-.63379-2.51978-.95044-3.78064-.48486-1.9317-.96826-3.86615-1.46362-5.77637-.34253-1.32214-.69409-2.62567-1.04175-3.93756-.48267-1.82135-.9646-3.64423-1.45679-5.44598-.36401-1.3335-.73584-2.65094-1.10522-3.97375-.4895-1.75348-.97925-3.50647-1.47778-5.24127-.38184-1.32898-.77026-2.64429-1.15723-3.96234-.5-1.70172-1.00098-3.401-1.50952-5.08472-.39551-1.30994-.79639-2.60883-1.19727-3.9079-.51538-1.67047-1.0332-3.33618-1.55737-4.98883-.40527-1.27869-.81494-2.54913-1.22559-3.81726-.53247-1.64471-1.06836-3.28241-1.60962-4.90948-.41602-1.25079-.83496-2.49585-1.25586-3.73627-.55103-1.6228-1.10645-3.23633-1.66602-4.84149-.42236-1.21185-.84644-2.42065-1.27368-3.62256-.57324-1.61212-1.1521-3.21265-1.73389-4.80695-.42725-1.17059-.85498-2.34064-1.28687-3.50171-.59741-1.60571-1.20166-3.19757-1.80811-4.78516-.42822-1.12115-.85547-2.24414-1.28809-3.35632-.62915-1.61731-1.26636-3.21844-1.90503-4.81689-.42188-1.05646-.8418-2.11731-1.26782-3.16565-.66919-1.64624-1.34741-3.27393-2.02637-4.90009-.4082-.97729-.81274-1.96118-1.22437-2.93127-.72754-1.71387-1.46509-3.4068-2.20361-5.09839-.37451-.85822-.74463-1.72522-1.12207-2.57776-.83667-1.88953-1.68506-3.7558-2.53564-5.61761-.28906-.63281-.57324-1.27533-.86377-1.90491-1.13867-2.46631-2.28857-4.90985-3.45166-7.32788-.00903-.0191-.01807-.03864-.0271-.05768-.04761-.1001-.09473-.19568-.14233-.29663-.17505-.36328-.35449-.71783-.53027-1.07983-.79199-1.63342-1.58862-3.25757-2.39185-4.8692-.96582-1.93195-1.9397-3.84827-2.91992-5.75226-.00391-.00775-.00806-.01562-.01196-.02344-13.52539-25.73779-30.6875-49.57178-49.63257-71.23627-3.57446-4.08771-7.21191-8.09753-10.90137-12.02844-19.7583-21.0506-40.98169-39.82684-61.78052-56.03955,14.13208,24.52466,22.2373,46.78656,27.63525,66.34766,1.35669,4.91565,2.54395,9.66187,3.61133,14.22925,3.03247,12.97632,5.11108,24.52002,7.44263,34.46777,10,42.66663-25.33325,187.33331-37.33325,203.33331s-46,100-54.66675,126.66669c-8.6665,26.66663-14,83.33331-16,105.33331s-15.66089,123.24957-15.66089,123.24957c.0022.0011.00391.0025.0061.0036.34106.17944.67017.37646.99194.58325.104.06677.20386.13879.30566.20819.21899.14905.43457.30212.64453.46277.10962.08374.21729.16925.32446.25598.20117.16296.39746.33118.59009.50385.09595.086.19287.17047.28662.25867.22607.21246.44482.43176.65869.65613.0498.05237.10254.10199.15186.15497.26025.27979.51025.56824.75244.8631.06714.08179.13013.16626.1958.24908.17334.21838.34351.43872.50732.66339.07886.10797.15527.21692.23169.32617.14722.20972.29004.4209.4292.63458.07153.1098.14282.21899.2124.32971.14819.23633.29028.47443.42896.71387.04932.08514.10107.16937.14917.25482.18286.32452.35791.65051.52368.97748.03174.06244.06006.12476.09106.18719.13257.26685.2605.53339.38208.79974.0498.1095.09692.21802.14502.32721.0979.22223.19238.44336.28271.66376.04688.1142.09277.2276.1377.34119.08862.2254.17261.44824.25342.67029.0354.09711.07251.19452.1062.29083.11035.31354.2146.62378.30908.92719.30322.97418.59961,1.97363.89233,2.9856.08936.30835.17676.6225.26514.9342.20752.73297.4126,1.47394.61523,2.22473.09131.33905.18262.67792.27319,1.02045.22192.84137.44092,1.69366.65698,2.55505.05615.22418.11377.44391.16968.66943.26929,1.0874.53394,2.19012.79468,3.30609.06494.27881.12842.56256.19287.84302.19702.85498.3916,1.71625.58374,2.58606.08325.37634.16577.75427.2478,1.13318.18213.83844.36157,1.68323.53955,2.53363.06934.3324.13965.66248.2085.99658.24146,1.16974.47974,2.34747.71387,3.53668.02661.13562.05273.27332.0791.40924.20947,1.06854.41602,2.14435.62012,3.2262.07031.37402.14014.74988.20996,1.12537.16406.87921.32617,1.76166.48682,2.64807.06836.37799.13721.75531.20508,1.13446.19189,1.0705.38184,2.14496.56934,3.22363.02734.1557.05493.31018.08203.466.2168,1.25092.43042,2.50665.64233,3.76556.05664.33691.11255.67468.1687,1.01202.15625.93524.31152,1.8714.46533,2.80927.06567.40192.13135.80347.19678,1.20569.15649.96143.31177,1.92316.46606,2.88562.04785.29834.09595.59631.14355.89465.2019,1.26477.4021,2.52924.60059,3.79266.02856.1828.05688.36487.08569.54761.17798,1.13538.35498,2.26892.53076,3.40076.04541.29224.09033.58325.13574.87512.17236,1.11255.34424,2.22211.51489,3.32886.00977.06299.01953.12653.0293.18951.00806.00073,32.19263,2.84314,153.51074-12.48828,64.9646-8.20978,115.20679-14.65887,153.29761-21.35681-.1897-.9436-.37939-1.888-.56836-2.82971ZM2659.03571,559.94482c-3.31439-4.11548-6.71832-8.19482-10.22345-12.23309-4.15753-4.78992-8.44409-9.52753-12.88055-14.20453-32.80701-34.58551-68.93964-61.51996-107.63312-84.30957,41.13171,36.92511,70.55316,78.11707,86.03473,95.35791,2.59436,2.88916,5.36957,6.65356,8.23138,11.08008,2.50299,3.8714,5.07202,8.24921,7.64716,13.01086,16.67407,30.83197,33.56537,77.52997,33.89923,103.90906.44446,35.11115-10.22217,91.11115-19.55554,114.22223-9.33331,23.11115-31.11108,80-46.22223,104.88892-15.11108,24.88885-48.88885,98.66663-56.4444,117.33331-7.5556,18.66663-20,46.22223-29.33337,83.55554-9.33331,37.33331-10.55908,44.79938-11.27954,79.95526,9.40314.21326,18.23785,45.72192,19.0882,49.4837,2.74097,12.12573,4.98047,24.36377,6.92639,36.66681,18.95245-.98499,152.92688-8.38745,261.70941-26.10577,20.5564-3.34821,39.03094-6.98651,55.53778-10.70984-13.41779-57.2655-27.02478-110.32178-36.7558-163.57385-31.59918-172.92316-35.52087-357.73334-148.74628-498.32703Z" fill="#ffc000"/>
  <path id="C2" d="M3362.77075,506.77069c25.00781-20.00629,45.41895-36.07251,68.09546-51.01398-.40332.52777-.81348,1.05975-1.19946,1.5766-6.61743,8.86066-14.40466,20.89886-22.11743,34.51245-10.59424,8.06421-21.48779,16.71716-33.4314,26.27209-13.0199,10.41589-24.9585,21.52734-35.97644,33.25671-3.70837,3.94781-7.30884,7.9682-10.81067,12.05579-39.36914,45.95306-66.02917,100.58459-87.21289,160.6875-25.49243,72.32745-34.64355,149.9259-45.73364,226.23376-.00024.00208-.00049.00409-.00085.00616-.7782,5.35504-1.56726,10.70312-2.37097,16.04315-.00024.00195-.00061.00397-.00098.00592-.6217,4.13086-1.25,8.25812-1.89355,12.37762-8.55383,54.7439-26.40894,157.22668-38.11108,223.66742-4.42432-1.04498-8.69214-2.07733-12.80176-3.09497,11.62549-65.91425,30.64893-174.85339,39.56567-231.91962.64355-4.11951,1.27185-8.24677,1.89355-12.37762.00037-.00195.00073-.00397.00098-.00592.80371-5.34003,1.59277-10.68811,2.37097-16.04315.00037-.00208.00061-.00409.00085-.00616,11.09009-76.30786,20.24121-153.90631,45.73364-226.23376,20.22021-57.36951,45.43237-109.75244,81.92041-154.36365l-119.26099-36.00378c2.5813-4.35883,5.23389-8.66455,7.95959-12.91656l121.71814,36.74561c12.56409-14.03326,26.3689-27.22644,41.66284-39.46161ZM5346.07715,1204.40363c-.47778-2.37048-.95459-4.7384-1.4292-7.09827-.30249-1.50397-.60376-3.00623-.90479-4.50574-.75317-3.7533-1.50269-7.4964-2.24487-11.22046-.11914-.59808-.23779-1.19537-.35669-1.7926-.75586-3.79797-1.50293-7.57611-2.24438-11.34131-.17749-.90149-.35571-1.80542-.53223-2.7049-.7832-3.98993-1.5564-7.95996-2.31909-11.90991-.15112-.78223-.30054-1.56183-.45068-2.34247-.79907-4.15259-1.58984-8.28973-2.36206-12.39471-.69263-3.6814-1.37231-7.37531-2.03979-11.08081s-1.323-7.42267-1.96729-11.15063c-1.93311-11.18396-3.76562-22.46533-5.52295-33.82214-.58569-3.78564-1.16309-7.57959-1.73291-11.38116-1.13965-7.60309-2.24951-15.23651-3.33667-22.89368-1.0874-7.65717-2.1521-15.33807-3.20142-23.03625-5.24731-38.49078-10.11401-77.41254-15.51709-115.95087-1.08057-7.70764-2.18262-15.39996-3.31348-23.07043-1.69629-11.50574-3.45728-22.96228-5.30786-34.3476-4.31812-26.56586-9.12354-52.7442-14.73096-78.25568-.01196-.05371-.02417-.10608-.03613-.15979-.72095-3.27722-1.45654-6.52399-2.20532-9.74286-.25293-1.08813-.51562-2.15576-.77197-3.23724-.5144-2.17133-1.02808-4.34412-1.55518-6.48895-.31201-1.27008-.63379-2.51978-.95044-3.78064-.48486-1.9317-.96826-3.86615-1.46362-5.77637-.34253-1.32214-.69409-2.62567-1.04175-3.93756-.48267-1.82135-.9646-3.64423-1.45679-5.44598-.36401-1.3335-.73584-2.65094-1.10522-3.97375-.4895-1.75348-.97925-3.50647-1.47778-5.24127-.38184-1.32898-.77026-2.64429-1.15723-3.96234-.5-1.70172-1.00098-3.401-1.50952-5.08472-.39551-1.30994-.79639-2.60883-1.19727-3.9079-.51538-1.67047-1.0332-3.33618-1.55737-4.98883-.40527-1.27869-.81494-2.54913-1.22559-3.81726-.53247-1.64471-1.06836-3.28241-1.60962-4.90948-.41602-1.25079-.83496-2.49585-1.25586-3.73627-.55103-1.6228-1.10645-3.23633-1.66602-4.84149-.42236-1.21185-.84644-2.42065-1.27368-3.62256-.57324-1.61212-1.1521-3.21265-1.73389-4.80695-.42725-1.17059-.85498-2.34064-1.28687-3.50171-.59741-1.60571-1.20166-3.19757-1.80811-4.78516-.42822-1.12115-.85547-2.24414-1.28809-3.35632-.62915-1.61731-1.26636-3.21844-1.90503-4.81689-.42188-1.05646-.8418-2.11731-1.26782-3.16565-.66919-1.64624-1.34741-3.27393-2.02637-4.90009-.4082-.97729-.81274-1.96118-1.22437-2.93127-.72754-1.71387-1.46509-3.4068-2.20361-5.09839-.37451-.85822-.74463-1.72522-1.12207-2.57776-.83667-1.88953-1.68506-3.7558-2.53564-5.61761-.28906-.63281-.57324-1.27533-.86377-1.90491-1.13867-2.46631-2.28857-4.90985-3.45166-7.32788-.00903-.0191-.01807-.03864-.0271-.05768-.04761-.1001-.09473-.19568-.14233-.29663-.17505-.36328-.35449-.71783-.53027-1.07983-.79199-1.63342-1.58862-3.25757-2.39185-4.8692-.96582-1.93195-1.9397-3.84827-2.91992-5.75226-.00391-.00775-.00806-.01562-.01196-.02344-12.22803-23.26886-27.42578-44.98486-44.22803-64.94629l120.22949-36.2962c-2.6145-4.34772-5.32007-8.64038-8.12207-12.86749l-122.69238,37.03973c-33.26514-36.74615-71.36914-66.91919-104.81104-89.08691,10.41211,13.25525,18.93726,26.00824,25.9624,38.20007,20.79883,16.21271,42.02222,34.98895,61.78052,56.03955,3.68945,3.93091,7.3269,7.94073,10.90137,12.02844,18.94507,21.66449,36.10718,45.49847,49.63257,71.23627.00391.00781.00806.01569.01196.02344.98022,1.90399,1.9541,3.82031,2.91992,5.75226.80322,1.61163,1.59985,3.23578,2.39185,4.8692.17578.362.35522.71655.53027,1.07983.04761.10095.09473.19653.14233.29663.00903.01904.01807.03857.0271.05768,1.16309,2.41803,2.31299,4.86157,3.45166,7.32788.29053.62958.57471,1.27209.86377,1.90491.85059,1.86182,1.69897,3.72809,2.53564,5.61761.37744.85254.74756,1.71954,1.12207,2.57776.73853,1.69159,1.47607,3.38452,2.20361,5.09839.41162.97009.81616,1.95398,1.22437,2.93127.67896,1.62616,1.35718,3.25385,2.02637,4.90009.42603,1.04834.84595,2.10919,1.26782,3.16565.63867,1.59845,1.27588,3.19958,1.90503,4.81689.43262,1.11218.85986,2.23517,1.28809,3.35632.60645,1.58759,1.21069,3.17944,1.80811,4.78516.43188,1.16107.85962,2.33112,1.28687,3.50171.58179,1.5943,1.16064,3.19482,1.73389,4.80695.42725,1.2019.85132,2.41071,1.27368,3.62256.55957,1.60516,1.11499,3.21869,1.66602,4.84149.4209,1.24042.83984,2.48547,1.25586,3.73627.54126,1.62708,1.07715,3.26477,1.60962,4.90948.41064,1.26813.82031,2.53857,1.22559,3.81726.52417,1.65265,1.04199,3.31836,1.55737,4.98883.40088,1.29907.80176,2.59796,1.19727,3.9079.50854,1.68372,1.00952,3.383,1.50952,5.08472.38696,1.31805.77539,2.63336,1.15723,3.96234.49854,1.7348.98828,3.48779,1.47778,5.24127.36938,1.32281.74121,2.64026,1.10522,3.97375.49219,1.80176.97412,3.62463,1.45679,5.44598.34766,1.31189.69922,2.61542,1.04175,3.93756.49536,1.91022.97876,3.84467,1.46362,5.77637.31665,1.26086.63843,2.51056.95044,3.78064.5271,2.14484,1.04077,4.31763,1.55518,6.48895.25635,1.08148.51904,2.14911.77197,3.23724.74878,3.21887,1.48438,6.46564,2.20532,9.74286.01196.05371.02417.10608.03613.15979,5.60742,25.51147,10.41284,51.68982,14.73096,78.25568,1.85059,11.38531,3.61157,22.84186,5.30786,34.3476,1.13086,7.67047,2.23291,15.36279,3.31348,23.07043,5.40308,38.53833,10.26978,77.46008,15.51709,115.95087,1.04932,7.69818,2.11401,15.37909,3.20142,23.03625,1.08716,7.65717,2.19702,15.29059,3.33667,22.89368.56982,3.80157,1.14722,7.59552,1.73291,11.38116,1.75732,11.35681,3.58984,22.63818,5.52295,33.82214.64429,3.72797,1.2998,7.44513,1.96729,11.15063s1.34717,7.39941,2.03979,11.08081c.77222,4.10498,1.56299,8.24213,2.36206,12.39471.15015.78064.29956,1.56024.45068,2.34247.7627,3.94995,1.53589,7.91998,2.31909,11.90991.17651.89948.35474,1.80341.53223,2.7049.74146,3.7652,1.48853,7.54333,2.24438,11.34131.1189.59723.23755,1.19452.35669,1.7926.74219,3.72406,1.4917,7.46716,2.24487,11.22046.18896.94171.37866,1.88611.56836,2.82971,4.55396-.80078,8.93335-1.60529,13.14429-2.41663-.0105-.05188-.021-.10437-.03149-.15625ZM839.47681,553.51611l-117.54199-35.48486c-2.46338,4.34351-4.86768,8.7226-7.20215,13.1452l115.646,34.91248c-95.47363,136.72192-109.12659,317.0838-144.20776,541.5542-5.47998,35.06464-14.09888,70.98077-23.23438,107.07947,3.47925.75684,7.05212,1.51642,10.73022,2.2774.91187.18866,1.83521.37695,2.75867.56525,8.32751-33.23218,16.04321-66.2652,21.09265-98.57495,35.64172-228.05676,49.15967-410.58716,148.84204-548.07672,3.0481-4.2041,6.18237-8.3634,9.39453-12.48334,39.8136-51.06256,92.47766-95.65973,163.88989-133.81378,18.8476-15.19824,39.61951-30.68811,58.66296-44.15735-111.90906,46.0473-186.7572,103.71021-238.83069,173.05701ZM2675.43048,554.99536l118.29303-35.71155c-2.52515-4.35187-5.12134-8.67511-7.80243-12.96399l-120.38855,36.34424c-5.80219-6.94897-11.88104-13.78595-18.25366-20.50403-56.34973-59.40454-122.50647-96.2475-194.61523-128.25513,12.79968,8.42944,26.49103,17.62201,40.78082,27.53955,12.40704,8.61084,24.0304,18.03638,34.85413,27.75317,38.69348,22.78961,74.82611,49.72406,107.63312,84.30957,4.43646,4.677,8.72302,9.41461,12.88055,14.20453,3.50513,4.03827,6.90906,8.11761,10.22345,12.23309,113.2254,140.59369,117.14709,325.40387,148.74628,498.32703,9.73102,53.25208,23.33801,106.30835,36.7558,163.57385,4.57135-1.03113,8.99963-2.06842,13.26965-3.10828-14.03052-60.43536-28.48212-116.0152-38.67828-171.81274-31.12225-170.31329-35.40131-352.15552-143.69867-491.92932Z"/>
</svg>