<?xml version="1.0" encoding="UTF-8"?>
<svg id="Layer_1" xmlns="http://www.w3.org/2000/svg" version="1.1" viewBox="0 0 6000 3000">
  <!-- Generator: Adobe Illustrator 29.8.2, SVG Export Plug-In . SVG Version: 2.1.1 Build 3)  -->
  <path id="C1" d="M1434.62115,323.14471c.00238-.00085.00507-.00189.00745-.00275,3.29938-1.2132,6.92206-2.56329,10.74969-4.01788.01263-.00482.02539-.00964.03802-.01447,1.27039-.48285,2.56274-.97711,3.87305-1.48151.00262-.00098.00525-.00201.00787-.00299,3.95587-1.52283,8.07123-3.13763,12.22601-4.81134.00208-.00085.00415-.00165.00616-.0025,1.38342-.55731,2.77051-1.12085,4.15765-1.68988.00128-.00055.00262-.00104.00391-.00159,47.6015,62.81659,128.60754,141.79828,286.97827,189.26129,0,0,114.56384-35.15057,201.11389-102.94098,37.22418-29.15582,66.77307-59.97131,88.81403-86.55511,9.90967,3.89429,21.1991,8.2901,31.89429,12.43829-24.29388,29.70331-60.25964,67.44165-108.15808,102.73572-92,67.79041-213.77783,102.94098-213.77783,102.94098-183.53845-51.74713-269.34253-140.97266-317.93439-205.85529ZM3204.26855,1362.42468c3.60266.62128,7.22839,1.2337,10.87256,1.83661,5.46606.9043,10.97363,1.78729,16.50647,2.64703,1.84436.28662,3.69141.57062,5.54077.85199,7.39734,1.12543,14.83044,2.2085,22.26172,3.24487,3.71558.51819,7.43066,1.02472,11.1405,1.51898,1.85498.24713,3.70862.49121,5.5603.73212,3.70361.48193,7.39941.95123,11.08313,1.40759,3.68372.4563,7.35498.8996,11.0094,1.32922,5.48145.64453,10.9248,1.25842,16.31384,1.83984,3.59277.38763,7.1615.7608,10.70129,1.11902s7.05103.70148,10.52856,1.02924c3.47754.3277,6.92163.63989,10.32751.93604,5.10876.44421,10.13159.85229,15.05249,1.22229,3.28064.2467,6.51587.47644,9.70117.68884,1.59265.10614,3.17273.20801,4.73987.30536,3.13403.19482,6.21582.37189,9.24048.5307,3.02466.15875,5.99219.29932,8.89795.42108,2.90588.1217,5.74976.22461,8.52734.30817,4.16614.12537,8.18274.20715,12.03369.24353,2.31702.02191,5.30994-.1189,8.74243-.41919,1.37292-.12018,2.81616-.26575,4.3147-.43677,2.2478-.25647,4.61963-.56995,7.0647-.93976,4.14856-.62744,8.50696-1.41943,12.82715-2.36792l3.80652-21.71649c-.37476.05878-.75159.11932-1.12317.17554-2.44507.36981-4.81689.68329-7.0647.93976-1.49854.17102-2.94189.31659-4.3147.43677-3.43262.30029-6.42554.4411-8.74243.41919-3.85107-.03638-7.86768-.11816-12.03369-.24353-2.77759-.08356-5.62158-.18646-8.52734-.30817-2.90576-.12177-5.87329-.26233-8.89795-.42108-3.02466-.15881-6.10645-.33588-9.24048-.5307-1.56714-.09735-3.14722-.19922-4.73999-.30536-3.1853-.2124-6.42041-.44214-9.70117-.68884-4.9209-.37-9.9436-.77808-15.05249-1.22229-3.40576-.29614-6.84985-.60834-10.32739-.93604-3.47754-.32776-6.98877-.67102-10.52856-1.02924s-7.10864-.73138-10.70142-1.11902c-5.38892-.58142-10.83228-1.19531-16.31372-1.83984-3.65454-.42963-7.32568-.87292-11.00952-1.32922-3.68359-.45636-7.37939-.92566-11.08301-1.40759-1.85181-.24091-3.70532-.48499-5.5603-.73212-3.70996-.49426-7.42505-1.00079-11.14062-1.51898-7.43115-1.03638-14.86426-2.11945-22.26172-3.24487-1.84937-.28137-3.69629-.56537-5.54077-.85199-5.53271-.85974-11.04028-1.74274-16.50635-2.64703-3.64429-.60291-7.27002-1.21533-10.87256-1.83661-3.60278-.62134-7.18237-1.25159-10.73413-1.89026-37.29346-6.70605-71.52246-14.33789-97.22803-22.26099-1.31018-.40381-2.81482-.83582-4.44092-1.29761l-5.0376,27.00238c24.92078,7.27802,56.73108,14.26764,91.19617,20.46509,3.55176.63867,7.13135,1.26892,10.73401,1.89026ZM5052.84277,1370.28577c.6582.15521,1.32837.30475,2.01001.44879,2.72681.57617,5.63867,1.06396,8.71118,1.47113,1.53638.20355,3.11279.38702,4.72656.55121s3.26465.30914,4.94946.43591c4.21265.31683,8.63818.51965,13.22998.62329,1.83667.0415,3.69995.06708,5.58667.07782.94336.00537,1.89258.00696,2.84741.005,1.90942-.00397,3.84106-.02234,5.7915-.05414.9751-.01593,1.95508-.03516,2.93945-.05768,6.89038-.15765,13.99438-.4743,21.18237-.90887,2.05347-.12421,4.11401-.258,6.17822-.40045,4.12866-.28491,8.27246-.60449,12.40698-.95111,1.03369-.08667,2.06689-.17499,3.09888-.26489,2.06445-.17981,4.125-.36597,6.17871-.55737,3.08057-.28711,6.14575-.58618,9.1853-.89392,2.02637-.2052,4.0415-.41431,6.04224-.62628,1.00024-.10602,1.99707-.21265,2.98975-.32001,2.97827-.32196,5.92065-.64954,8.81689-.97925,4.82739-.54962,9.52686-1.10547,14.05078-1.65259,5.42871-.65656,10.60498-1.30054,15.44702-1.90613,2.4209-.3028,4.7583-.59601,7.00171-.8764,2.24365-.28033,4.39331-.54785,6.43896-.79932,4.91406-.604,12.32104-1.61755,21.47461-2.96692,10.17041-1.49933,22.49683-3.41327,35.95581-5.64069,4.0376-.66821,8.177-1.36469,12.39087-2.08661,2.80933-.48132,5.65137-.97388,8.51855-1.47705,4.30054-.7547,8.65674-1.53308,13.04126-2.3324,2.9231-.5329,5.85864-1.07501,8.79858-1.62573,5.87964-1.10138,11.77686-2.23676,17.62573-3.3996,2.92432-.58142,5.83667-1.1698,8.729-1.76416,2.89209-.59442,5.76416-1.19482,8.60767-1.8006,8.53027-1.8172,16.80493-3.68182,24.60254-5.5719,2.59912-.63007,5.14526-1.26294,7.63037-1.89783.06396-.01636.12646-.03278.19043-.04913l-5.39868-28.93701c-2.14282.64484-4.36133,1.28973-6.66162,1.93378-3.42456.95874-7.01416,1.91565-10.7417,2.86804-2.48511.63489-5.03125,1.26776-7.63037,1.89783-7.79761,1.89008-16.07227,3.7547-24.60254,5.5719-2.84351.60577-5.71558,1.20618-8.60767,1.8006-2.89233.59436-5.80469,1.18274-8.729,1.76416-5.84888,1.16284-11.74609,2.29822-17.62573,3.3996-2.93994.55072-5.87549,1.09283-8.79858,1.62573-4.38452.79932-8.74072,1.5777-13.04126,2.3324-2.86719.50317-5.70923.99573-8.51855,1.47705-4.21387.72192-8.35327,1.4184-12.39087,2.08661-13.45898,2.22742-25.7854,4.14136-35.95581,5.64069-9.15356,1.34937-16.56055,2.36292-21.47461,2.96692-2.04565.25146-4.19531.51898-6.43896.79932-2.24341.2804-4.58081.57361-7.00171.8764-4.84204.60559-10.01831,1.24957-15.44702,1.90613-4.52393.54712-9.22339,1.10297-14.05078,1.65259-2.89624.32971-5.83862.65729-8.81689.97925-.99268.10736-1.9895.21399-2.98975.32001-2.00073.21198-4.01587.42108-6.04224.62628-3.03955.30774-6.10474.60681-9.1853.89392-2.05371.19141-4.11426.37756-6.17871.55737-1.03198.0899-2.06519.17822-3.09888.26489-4.13452.34662-8.27832.6662-12.40698.95111-2.06421.14246-4.12476.27625-6.17822.40045-7.18799.43457-14.29199.75122-21.18237.90887-.98438.02252-1.96436.04175-2.93945.05768-1.95044.0318-3.88208.05017-5.7915.05414-.95483.00195-1.90405.00037-2.84741-.005-1.88672-.01074-3.75-.03632-5.58667-.07782-4.5918-.10364-9.01733-.30646-13.22998-.62329-1.68481-.12677-3.33569-.27173-4.94946-.43591-1.47144-.14972-2.90747-.31763-4.3147-.5.5896,3.88971,1.20459,7.71948,1.85522,11.4162.26782,1.52014.54077,3.01923.81958,4.49329.25586,1.35333.51855,2.677.78467,3.98517,1.72534.56525,3.21729,1.02612,4.21631,1.31866,1.21777.35651,2.48633.68945,3.80273.99988ZM3209.14111,1315.26349c3.60266.62128,7.22839,1.2337,10.87256,1.83661,5.46606.9043,10.97363,1.78729,16.50647,2.64703,1.84436.28662,3.69141.57062,5.54077.85199,7.39734,1.12543,14.83044,2.2085,22.26172,3.24487,3.71558.51819,7.43066,1.02472,11.1405,1.51898,1.85498.24713,3.70862.49121,5.5603.73212,3.70361.48193,7.39941.95123,11.08313,1.40759,3.68372.4563,7.35498.8996,11.0094,1.32922,5.48145.64453,10.9248,1.25842,16.31384,1.83984,3.59277.38763,7.1615.7608,10.70129,1.11902s7.05103.70148,10.52856,1.02924c3.47754.3277,6.92163.63989,10.32751.93604,5.10876.44421,10.13159.85229,15.05249,1.22229,3.28064.2467,6.51587.47644,9.70117.68884,1.59265.10614,3.17273.20801,4.73987.30536,3.13403.19482,6.21582.37189,9.24048.5307,3.02466.15875,5.99219.29932,8.89795.42108,2.90588.1217,5.74976.22461,8.52734.30817,4.16614.12537,8.18274.20715,12.03369.24353,2.31702.02191,5.30994-.1189,8.74243-.41919,1.37292-.12018,2.81616-.26575,4.3147-.43677,2.2478-.25647,4.61963-.56995,7.0647-.93976,5.28479-.79932,10.91113-1.862,16.36353-3.18085l3.76562-21.4826c-1.55896.27222-3.10376.52545-4.61865.75458-2.44507.36981-4.81689.68329-7.0647.93976-1.49854.17102-2.94189.31659-4.3147.43677-3.43262.30029-6.42554.4411-8.74243.41919-3.85107-.03638-7.86768-.11816-12.03369-.24353-2.77759-.08356-5.62158-.18646-8.52734-.30817-2.90576-.12177-5.87329-.26233-8.89795-.42108-3.02466-.15881-6.10645-.33588-9.24048-.5307-1.56714-.09735-3.14722-.19922-4.73999-.30536-3.1853-.2124-6.42041-.44214-9.70117-.68884-4.9209-.37-9.9436-.77808-15.05249-1.22229-3.40576-.29614-6.84985-.60834-10.32739-.93604-3.47754-.32776-6.98877-.67102-10.52856-1.02924s-7.10864-.73138-10.70142-1.11902c-5.38892-.58142-10.83228-1.19531-16.31372-1.83984-3.65454-.42963-7.32568-.87292-11.00952-1.32922-3.68359-.45636-7.37939-.92566-11.08301-1.40759-1.85181-.24091-3.70532-.48499-5.5603-.73212-3.70996-.49426-7.42505-1.00079-11.14062-1.51898-7.43115-1.03638-14.86426-2.11945-22.26172-3.24487-1.84937-.28137-3.69629-.56537-5.54077-.85199-5.53271-.85974-11.04028-1.74274-16.50635-2.64703-3.64429-.60291-7.27002-1.21533-10.87256-1.83661-3.60278-.62134-7.18237-1.25159-10.73413-1.89026-37.29346-6.70605-71.52246-14.33789-97.22803-22.26099-.22766-.07019-.47803-.1438-.71667-.21558l-5.03601,26.9939c24.33057,6.89124,54.70288,13.49939,87.47034,19.39154,3.55176.63867,7.13135,1.26892,10.73401,1.89026ZM5041.94287,1318.48364c.7998.27759,1.57788.54083,2.31738.78589,1.97217.65356,3.6709,1.17804,4.77979,1.50269,1.21777.35651,2.48633.68945,3.80273.99988.6582.15521,1.32837.30475,2.01001.44879,2.72681.57617,5.63867,1.06396,8.71118,1.47113,1.53638.20355,3.11279.38702,4.72656.55121s3.26465.30914,4.94946.43591c4.21265.31683,8.63818.51965,13.22998.62329,1.83667.0415,3.69995.06708,5.58667.07782.94336.00537,1.89258.00696,2.84741.005,1.90942-.00397,3.84106-.02234,5.7915-.05414.9751-.01593,1.95508-.03516,2.93945-.05768,6.89038-.15765,13.99438-.4743,21.18237-.90887,2.05347-.12421,4.11401-.258,6.17822-.40045,4.12866-.28491,8.27246-.60449,12.40698-.95111,1.03369-.08667,2.06689-.17499,3.09888-.26489,2.06445-.17981,4.125-.36597,6.17871-.55737,3.08057-.28711,6.14575-.58618,9.1853-.89392,2.02637-.2052,4.0415-.41431,6.04224-.62628,1.00024-.10602,1.99707-.21265,2.98975-.32001,2.97827-.32196,5.92065-.64954,8.81689-.97925,4.82739-.54962,9.52686-1.10547,14.05078-1.65259,5.42871-.65656,10.60498-1.30054,15.44702-1.90613,2.4209-.3028,4.7583-.59601,7.00171-.8764,2.24365-.28033,4.39331-.54785,6.43896-.79932,4.91406-.604,12.32104-1.61755,21.47461-2.96692,10.17041-1.49933,22.49683-3.41327,35.95581-5.64069,4.0376-.66821,8.177-1.36469,12.39087-2.08661,2.80933-.48132,5.65137-.97388,8.51855-1.47705,4.30054-.7547,8.65674-1.53308,13.04126-2.3324,2.9231-.5329,5.85864-1.07501,8.79858-1.62573,5.87964-1.10138,11.77686-2.23676,17.62573-3.3996,2.92432-.58142,5.83667-1.1698,8.729-1.76416,2.89209-.59442,5.76416-1.19482,8.60767-1.8006,8.53027-1.8172,16.80493-3.68182,24.60254-5.5719.61157-.14825,1.20996-.29718,1.81567-.44574l-5.35522-28.70404c-.2356.06653-.4624.13306-.69995.19958-3.42456.95874-7.01416,1.91565-10.7417,2.86804-2.48511.63489-5.03125,1.26776-7.63037,1.89783-7.79761,1.89008-16.07227,3.7547-24.60254,5.5719-2.84351.60577-5.71558,1.20618-8.60767,1.8006-2.89233.59436-5.80469,1.18274-8.729,1.76416-5.84888,1.16284-11.74609,2.29822-17.62573,3.3996-2.93994.55072-5.87549,1.09283-8.79858,1.62573-4.38452.79932-8.74072,1.5777-13.04126,2.3324-2.86719.50317-5.70923.99573-8.51855,1.47705-4.21387.72192-8.35327,1.4184-12.39087,2.08661-13.45898,2.22742-25.7854,4.14136-35.95581,5.64069-9.15356,1.34937-16.56055,2.36292-21.47461,2.96692-2.04565.25146-4.19531.51898-6.43896.79932-2.24341.2804-4.58081.57361-7.00171.8764-4.84204.60559-10.01831,1.24957-15.44702,1.90613-4.52393.54712-9.22339,1.10297-14.05078,1.65259-2.89624.32971-5.83862.65729-8.81689.97925-.99268.10736-1.9895.21399-2.98975.32001-2.00073.21198-4.01587.42108-6.04224.62628-3.03955.30774-6.10474.60681-9.1853.89392-2.05371.19141-4.11426.37756-6.17871.55737-1.03198.0899-2.06519.17822-3.09888.26489-4.13452.34662-8.27832.6662-12.40698.95111-2.06421.14246-4.12476.27625-6.17822.40045-7.18799.43457-14.29199.75122-21.18237.90887-.98438.02252-1.96436.04175-2.93945.05768-1.95044.0318-3.88208.05017-5.7915.05414-.95483.00195-1.90405.00037-2.84741-.005-1.88672-.01074-3.75-.03632-5.58667-.07782-4.5918-.10364-9.01733-.30646-13.22998-.62329-1.68481-.12677-3.33569-.27173-4.94946-.43591s-3.19019-.34766-4.72656-.55121c-2.04517-.271-4.01172-.58136-5.90747-.92615.06738.56036.1333,1.10406.20117,1.67346.17114,1.43481.34448,2.89764.52026,4.3844s.35425,2.9975.5354,4.52832c.18091,1.53082.36475,3.08173.55176,4.64874.11499.96375.23633,1.95551.35352,2.93054.75854.29468,1.52466.5849,2.2876.86426.82666.30273,1.64844.59473,2.44824.87238ZM2729.44446,1358.23584c38.72778-4.63501,100.3999-11.46002,148.03528-22.68524l-3.66614-19.65106-.0929-.4978c-47.08063,10.70941-106.56049,17.29932-144.27625,21.81323-44.14502,5.28333-146.62115,18.64673-190.51117,10.19324.98322,7.21198,2.03015,14.40863,3.18079,21.58087,45.48181,7.27185,144.2207-5.59381,187.33038-10.75323ZM909.76978,1345.42078c-88.03516-9.59155-172.67285-16.09125-240.4845-30.58142-9.92151-2.12012-46.10901-7.60504-58.43445-15.13525l-5.16406,31.11206c15.03015,3.95721,33.05127,6.82629,39.60596,8.22693,67.81165,14.49017,152.44922,20.98987,240.48438,30.58142,18.63135,2.02997,61.19275,1.89789,89.16919-1.28253,1.42902-7.07153,2.62323-14.63171,3.65735-22.53052-25.33508,1.4577-54.33191,1.18939-68.83386-.39069ZM2729.44446,1309.72217c36.4137-4.35803,93.10883-10.65314,139.35089-20.7207l-3.77063-20.21075c-45.5202,9.59772-100.15161,15.67041-135.58026,19.91058-45.81128,5.48273-154.45117,19.67114-195.2345,9.1449-.51465-.13281-1.03583-.28564-1.55981-.44922.90466,7.24371,1.78265,14.4928,2.66943,21.73914,41.60193,10.00262,148.71863-3.97968,194.12488-9.41394ZM885.06104,1320.49323c20.25195,2.61646,68.95654,3.23346,96.33044-.28912.66193-7.18671,1.26361-14.50671,1.84753-21.87463-26.42334,1.2666-58.29907.43433-73.70715-1.55634-87.82617-11.34662-172.31726-19.53412-239.82617-35.37476-8.15027-1.91248-34.12463-6.47388-49.80115-12.37805l-5.47803,29.36243c12.6521,3.12659,25.50574,5.49146,30.80835,6.73572,67.50891,15.84064,152,24.02814,239.82617,35.37476Z" fill="#ffc000"/>
</svg>