<?xml version="1.0" encoding="UTF-8"?>
<svg id="Layer_1" xmlns="http://www.w3.org/2000/svg" version="1.1" viewBox="0 0 6000 3000">
  <!-- Generator: Adobe Illustrator 29.8.2, SVG Export Plug-In . SVG Version: 2.1.1 Build 3)  -->
  <path id="C2" d="M2536.25647,1312.60785c-.6001-.07953-1.17737-.17041-1.7663-.25549-2.18762-17.94098-4.38318-35.88464-7.19958-53.69104,18.95245-.98499,152.92688-8.38745,261.70941-26.10577,25.35583-4.12994,47.54944-8.70081,66.77783-13.32892l10.97009,58.80042c-6.53198,1.29291-13.10559,2.56-19.66479,3.78864-3.5246.66022-7.04388,1.31018-10.54828,1.94904-5.25641.95825-10.47888,1.89142-15.63464,2.7962-3.43738.60321-6.84454,1.19373-10.21252,1.77075-5.05188.86554-10.0144,1.7005-14.85492,2.50159-16.13544,2.67035-30.91309,4.9649-43.10602,6.76239-10.97382,1.61768-19.85376,2.83282-25.74506,3.55695-2.45245.30145-5.02954.62213-7.71936.95825-2.68958.33612-5.49176.68768-8.3941,1.05066-5.80493.72601-12.01056,1.49805-18.5188,2.28522-5.42358.65588-11.05756,1.32227-16.84491,1.9812-3.47223.39526-6.99969.78796-10.57025,1.17395-1.19006.12872-2.38513.25659-3.58429.38367-2.39856.25415-4.81445.50482-7.24377.75085-3.64398.3689-7.31873.72748-11.0119,1.07166-2.4621.22949-4.93243.45264-7.40741.66821-1.23718.10779-2.47589.21368-3.71509.31757-4.95673.41553-9.92456.79871-14.87427,1.14026-2.47467.17078-4.94501.33118-7.4068.4801-8.61743.521-17.13409.90057-25.39471,1.0896-1.18011.02698-2.35498.05005-3.52399.06915-2.33832.03809-4.65405.06012-6.94318.06488-1.14471.00238-2.28271.00043-3.4137-.00598-2.2619-.01288-4.49573-.04352-6.69763-.09332-5.50488-.12421-10.81049-.36737-15.8609-.74719-2.01984-.15198-3.99902-.32581-5.93372-.52264-1.93463-.19684-3.82458-.41675-5.66644-.66083ZM616.41797,1267.7085c26.28711,6.80334,57.14673,13.30981,89.99573,19.21667,4.25806.76569,8.54944,1.52124,12.86877,2.26617,4.31885.74481,8.66553,1.479,13.03467,2.20184,6.55298,1.08411,13.15576,2.1427,19.7887,3.1734,2.2113.34363,4.42554.68408,6.6427,1.02142,8.86841,1.34924,17.77979,2.64764,26.6886,3.89014,4.45447.62122,8.90833,1.22852,13.35608,1.82104,2.22388.29626,4.44604.58887,6.66602.87769,4.44019.57776,8.87085,1.14044,13.28699,1.6875,4.41638.54706,8.8175,1.07849,13.19885,1.59357,6.57153.77271,13.09729,1.50867,19.55786,2.20575,4.30725.46472,8.58582.91205,12.82959,1.34155,4.24365.42944,8.45312.84094,12.62219,1.23389,4.16907.39288,8.2981.76715,12.3811,1.12219,6.12488.53253,12.14636,1.02173,18.04578,1.46533,3.93323.29578,7.81165.57117,11.63037.82581,1.90955.12726,3.80383.24939,5.68262.36609,3.75732.23358,7.4519.44586,11.078.63623s7.18384.35883,10.66736.50482c3.48364.14594,6.89319.26929,10.22314.36945,4.99438.15033,9.80981.24835,14.42676.29199,2.77759.02625,6.36566-.14258,10.4809-.50256.08539-.00751.1767-.01715.26257-.02478,1.76764-20.12103,3.14099-41.12842,5.08087-61.09271-23.46765-1.39301-71.30737-4.21265-90.58081-5.20099-26-1.33337-145.33337-16-222.66663-32-17.49426-3.61951-32.71912-7.20978-45.81616-10.59985.00171.00043.00342.00092.00513.00134l-11.43774,61.30701ZM5044.98169,1314.63782c2.28931-.00476,4.60498-.02679,6.94312-.06488,1.16919-.0191,2.34399-.04218,3.52417-.06915,8.2605-.18903,16.77734-.5686,25.39478-1.0896,2.46167-.14893,4.93213-.30933,7.40674-.4801,4.94971-.34155,9.91748-.72473,14.87427-1.14026,1.23926-.10388,2.47778-.20978,3.71509-.31757,2.4751-.21558,4.94531-.43872,7.40747-.66821,3.69312-.34418,7.36792-.70276,11.01172-1.07166,2.42944-.24603,4.84521-.4967,7.2439-.75085,1.19922-.12708,2.39404-.25494,3.58423-.38367,3.57056-.38599,7.09814-.77869,10.57031-1.17395,5.78735-.65894,11.42139-1.32532,16.84497-1.9812,6.5083-.78717,12.71387-1.5592,18.5188-2.28522,2.9021-.36298,5.70435-.71454,8.39404-1.05066s5.26685-.6568,7.71948-.95825c5.89111-.72412,14.771-1.93927,25.74487-3.55695,12.19287-1.79749,26.97046-4.09204,43.10596-6.76239,4.84058-.80109,9.80322-1.63605,14.85498-2.50159,3.36792-.57703,6.77515-1.16754,10.21265-1.77075,5.15576-.90479,10.37817-1.83795,15.63452-2.7962,3.50439-.63885,7.02368-1.28882,10.54834-1.94904,7.04883-1.32037,14.1189-2.68158,21.13062-4.07562,3.50586-.69708,6.99756-1.40247,10.46484-2.11499,3.46729-.71265,6.91064-1.43243,10.31958-2.15869,7.19824-1.53339,14.23096-3.09619,21.03296-4.67676l-12.86475-68.95618c-40.35767,9.5791-101.15601,17.44263-188.65259,28.49988-121.31812,15.33142-153.50269,12.48901-153.51074,12.48828.01465.09497.02905.1886.0437.28351.27002,1.75079.53857,3.49091.80566,5.22021.12695.82196.25391,1.64111.38037,2.45697.08008.51752.1604,1.03296.24072,1.54773.15137.97241.30249,1.93829.45361,2.8999.05176.3291.10352.6615.15527.98926.19312,1.22351.38647,2.4342.57983,3.63666.06006.37354.12012.74353.18042,1.11487.15381.95068.30811,1.89294.46265,2.828.05518.33368.11011.66962.16528,1.00122.2002,1.20172.40112,2.39008.60303,3.56207.04321.25079.08667.49622.12988.74561.16675.95984.33398,1.90802.50244,2.84521.05811.3244.11646.64868.1748.97028.20972,1.15375.42017,2.29547.63306,3.41022.22778,1.19373.4563,2.5163.68652,3.95465.76733,4.79443,1.55176,10.87445,2.38599,17.75012.16699,1.37512.33569,2.78204.50684,4.21692.17114,1.43481.34448,2.89764.52026,4.3844s.35425,2.9975.5354,4.52832c.18091,1.53082.36475,3.08173.55176,4.64874.0293.24695.06104.50317.09058.75092,1.53345.02631,3.0625.05554,4.62402.06445,1.13086.00641,2.2688.00836,3.41357.00598ZM3437,1240c-34.94238.36066-186-15-274-35-12.43152-2.82532-23.71606-5.57074-33.93213-8.20258l-14.45007,77.45331c19.55139,4.43549,40.79797,8.69128,62.94885,12.67444,4.25806.76569,8.54944,1.52124,12.86865,2.26617,4.31885.74481,8.66565,1.479,13.03467,2.20184,6.55298,1.08411,13.15576,2.1427,19.78882,3.1734,2.21118.34363,4.42554.68408,6.64258,1.02142,8.86853,1.34924,17.77979,2.64764,26.68872,3.89014,4.45435.62122,8.90833,1.22852,13.35596,1.82104,2.22388.29626,4.44604.58887,6.66602.87769,4.44019.57776,8.87085,1.14044,13.28711,1.6875s8.8175,1.07849,13.19873,1.59357c6.57153.77271,13.09741,1.50867,19.55786,2.20575,4.30737.46472,8.58594.91205,12.82959,1.34155,4.24365.42944,8.45312.84094,12.62231,1.23389,4.16895.39288,8.2981.76715,12.3811,1.12219,6.12476.53253,12.14624,1.02173,18.04578,1.46533,3.93323.29578,7.81165.57117,11.63037.82581,1.90955.12726,3.80383.24939,5.6825.36609,3.75732.23358,7.4519.44586,11.07812.63623,3.6261.19037,7.18384.35883,10.66736.50482,3.48364.14594,6.89319.26929,10.22302.36945,4.99463.15033,9.80981.24835,14.42676.29199,2.77759.02625,6.36572-.14258,10.48096-.50256,1.64575-.1441,3.37622-.3186,5.17273-.52362.28992-.03308.59863-.07556.89185-.11023l13.11487-74.82104c-6.9353-.04211-18.00171-.03802-34.90308.13641ZM1417.11108,329.40625c.02637-.00909.04987-.01715.08661-.02979.01807-.00623.04468-.01544.06512-.02246.05634-.01947.11652-.04016.19098-.06592.04187-.01447.09155-.03162.1391-.0481.04633-.01605.09344-.03235.14514-.05023.06085-.02106.13367-.04633.20172-.06989.10522-.0365.21082-.07312.33301-.1156.00519-.00177.01068-.00378.01587-.00555.14661-.0509.30859-.1073.47864-.16656.04474-.01556.09137-.03186.13763-.04797.15808-.05511.32391-.11304.50018-.17468.02966-.01038.05969-.02094.08984-.03143.44141-.15436.93555-.3277,1.48193-.52002.00555-.00195.01093-.00385.01648-.0058,6.49347-2.28577,20.11786-7.16968,34.96582-13.02167-58.67389-68.82111-78.28943-146.95166-84.83881-192.9104-16.69928,6.92871-32.17053,13.32562-39.45367,17.10205-12,6.22223-14.89435,13.94873-14.89435,13.94873-14.22766,30.17096,17.56104,80.49573,17.56104,80.49573,0,0,22.22217,48.22223,63.11108,98.4444.83838,1.02972,1.69122,2.09082,2.55695,3.17664l16.9986-5.84326s.04486-.01544.11108-.03821ZM2185.88892,146.77777c-8.49896-7.396-23.11115-14.22223-37.77783-19.11108-2.05096-.68365-4.21368-1.50757-6.44043-2.41553-7.02826,46.59332-27.26727,123.40186-85.42041,190.97809.03247.0127.06494.02533.09741.03796,1.7962.70074,3.60657,1.40625,5.422,2.11304.07269.02826.1452.05652.2179.08484,3.67206,1.4295,7.36218,2.86328,10.9953,4.27295.18677.07245.37341.1449.55981.21722,4.84863,1.88104,9.58588,3.71521,14.03131,5.43427.14343.05542.28577.11053.42853.16571,2.01099.77753,3.95697,1.52954,5.82739,2.25189.44653.17249.88873.34314,1.32605.51202,1.08209.41785,2.13458.8241,3.15527,1.21796.4502.17371.89398.34485,1.33118.51355.25519.09845.51349.19812.7641.2948.06433.02478.12732.04901.19128.07373.82147.31683,1.61731.62378,2.38599.9201.15778.06079.31506.12152.47046.1814.24176.0932.48126.18555.71729.27649.11884.04584.23706.09137.35443.1366,1.0473.40369,2.02997.78223,2.95184,1.13733.50842.1958,1.00311.38635,1.4704.56628,1.50604-2.22498,2.56451-3.91205,3.1629-4.9707,5.77783-10.22223,46.66669-61.77777,57.77783-84,10.3725-20.74506,34.68298-68.59937,23.76837-95.47992-2.7218-1.5694-5.44104-3.38367-7.76837-5.409ZM4678.71509,153.41675l-43.47168-11.02014c-26.12134-6.62183-236.31519-34.18817-348.41333-34.18817s-230.25562,4.49841-278.73047,11.69592c-48.4751,7.19757-138.7594,17.09412-138.7594,17.09412l-47.04761,15.44183c-19.21057,12.05499-38.81445,23.12933-58.68457,33.45685l67.39197-14.89716s99.33325-7.33331,152.66675-12.66669c53.33325-5.33331,183.33325-8.66663,306.6665-8.66663s354.59399,20.42657,383.3335,25.33331l54.6665,9.33331,3.94019-1.20898c.00171.00085.00342.00165.00488.0025,2.62207,1.34723,5.24414,2.67175,7.86572,3.99042l.00195-.00055c-2.62134-1.31842-5.24292-2.64142-7.86499-3.98853-17.86768-9.17987-35.73975-19.039-53.56592-29.71143Z" fill="#a41123"/>
  <path id="C1" d="M3457.89636,1314.79486c.28992-.03308.59863-.07556.89185-.11023l-4.66052,26.58905c-2.146.38226-4.2771.74341-6.35669,1.05792-2.93127.44336-5.77466.81915-8.46948,1.12665-1.79663.20502-3.52686.37952-5.17285.52362-4.11499.35999-7.70312.52881-10.48096.50256-4.6167-.04364-9.43201-.14166-14.42664-.29199-3.32996-.10016-6.73938-.22351-10.22302-.36945-3.48364-.146-7.04126-.31445-10.66748-.50482-3.6261-.19037-7.3208-.40265-11.078-.63623-1.87878-.1167-3.77307-.23883-5.6825-.36609-3.8186-.25464-7.69727-.53003-11.63037-.82581-5.89941-.4436-11.92114-.9328-18.04578-1.46533-4.08313-.35504-8.21216-.72931-12.38123-1.12219-4.16907-.39294-8.37854-.80444-12.62231-1.23389-4.24365-.4295-8.52209-.87683-12.82935-1.34155-6.46069-.69708-12.98657-1.43304-19.55798-2.20575-4.3811-.51508-8.78247-1.04651-13.19873-1.59357s-8.84705-1.10974-13.28711-1.6875c-2.21985-.28882-4.44214-.58142-6.66602-.87769-4.44763-.59253-8.90149-1.19983-13.35583-1.82104-8.90918-1.24249-17.82031-2.54089-26.68872-3.89014-2.21716-.33734-4.43152-.6778-6.64258-1.02142-6.63318-1.0307-13.23596-2.08929-19.78906-3.1734-4.36877-.72284-8.71558-1.45703-13.03467-2.20184-4.31909-.74493-8.61047-1.50049-12.86853-2.26617-17.43652-3.13538-34.30212-6.44055-50.22498-9.86884l5.87097-31.46899c19.55139,4.43549,40.79797,8.69128,62.94885,12.67444,4.25806.76569,8.54944,1.52124,12.86865,2.26617,4.31885.74481,8.66565,1.479,13.03467,2.20184,6.55298,1.08411,13.15576,2.1427,19.78882,3.1734,2.21118.34363,4.42554.68408,6.64258,1.02142,8.86853,1.34924,17.77979,2.64764,26.68872,3.89014,4.45435.62122,8.90833,1.22852,13.35596,1.82104,2.22388.29626,4.44604.58887,6.66602.87769,4.44019.57776,8.87085,1.14044,13.28711,1.6875s8.8175,1.07849,13.19873,1.59357c6.57153.77271,13.09741,1.50867,19.55786,2.20575,4.30737.46472,8.58594.91205,12.82959,1.34155,4.24365.42944,8.45312.84094,12.62231,1.23389,4.16895.39288,8.2981.76715,12.3811,1.12219,6.12476.53253,12.14624,1.02173,18.04578,1.46533,3.93323.29578,7.81165.57117,11.63037.82581,1.90955.12726,3.80383.24939,5.6825.36609,3.75732.23358,7.4519.44586,11.07812.63623,3.6261.19037,7.18384.35883,10.66736.50482,3.48364.14594,6.89319.26929,10.22302.36945,4.99463.15033,9.80981.24835,14.42676.29199,2.77759.02625,6.36572-.14258,10.48096-.50256,1.64575-.1441,3.37622-.3186,5.17273-.52362ZM5061.97852,1343.53217c2.2019.04974,4.43579.08038,6.69775.09326,1.13086.00647,2.2688.00836,3.41357.00604,2.28906-.00476,4.60498-.02679,6.94336-.06494,1.16895-.0191,2.34375-.04211,3.52393-.06915,8.2605-.18896,16.77734-.5686,25.39453-1.0896,2.46191-.14893,4.93213-.30927,7.40698-.4801,4.94946-.34155,9.91748-.72467,14.87427-1.1402,1.23926-.10394,2.47778-.20984,3.71509-.31757,2.47485-.21558,4.94531-.43878,7.40747-.66821,3.69312-.34424,7.36768-.70276,11.01172-1.07172,2.42944-.24603,4.84521-.4967,7.2439-.75079,1.19897-.12714,2.39429-.25494,3.58423-.38367,3.57056-.38599,7.09814-.77869,10.57031-1.17401,5.78735-.65887,11.42139-1.32526,16.84473-1.9812,6.5083-.78711,12.71387-1.55914,18.51904-2.28516,2.9021-.36304,5.70435-.71454,8.39404-1.05072,2.6897-.33606,5.26685-.6568,7.71924-.95825,5.89136-.72412,14.77124-1.93921,25.74512-3.55695,12.19287-1.79749,26.97046-4.09198,43.10596-6.76239,4.84058-.80109,9.80322-1.63605,14.85498-2.50153,3.36792-.57703,6.77515-1.16754,10.2124-1.77075,5.15576-.90479,10.37842-1.83795,15.63477-2.79626,3.50439-.63885,7.02368-1.28876,10.54834-1.94904,7.04883-1.32037,14.11865-2.68152,21.13062-4.07562,3.50586-.69702,6.99731-1.4024,10.46509-2.11499,3.46704-.71259,6.91016-1.43243,10.31934-2.15863.06665-.01422.13184-.02869.19849-.04291l-6.27368-33.6275c-6.802,1.58057-13.83472,3.14337-21.03296,4.67676-3.40894.72626-6.85229,1.44604-10.31958,2.15869-3.46729.71252-6.95898,1.41791-10.46484,2.11499-7.01172,1.39404-14.08179,2.75525-21.13062,4.07562-3.52466.66022-7.04395,1.31018-10.54834,1.94904-5.25635.95825-10.47876,1.89142-15.63452,2.7962-3.4375.60321-6.84473,1.19373-10.21265,1.77075-5.05176.86554-10.0144,1.7005-14.85498,2.50159-16.1355,2.67035-30.91309,4.9649-43.10596,6.76239-10.97388,1.61768-19.85376,2.83282-25.74487,3.55695-2.45264.30145-5.02979.62213-7.71948.95825s-5.49194.68768-8.39404,1.05066c-5.80493.72601-12.0105,1.49805-18.5188,2.28522-5.42358.65588-11.05762,1.32227-16.84497,1.9812-3.47217.39526-6.99976.78796-10.57031,1.17395-1.19019.12872-2.38501.25659-3.58423.38367-2.39868.25415-4.81445.50482-7.2439.75085-3.6438.3689-7.3186.72748-11.01172,1.07166-2.46216.22949-4.93237.45264-7.40747.66821-1.2373.10779-2.47583.21368-3.71509.31757-4.95679.41553-9.92456.79871-14.87427,1.14026-2.47461.17078-4.94507.33118-7.40674.4801-8.61743.521-17.13428.90057-25.39478,1.0896-1.18018.02698-2.35498.05005-3.52417.06915-2.33813.03809-4.65381.06012-6.94312.06488-1.14478.00238-2.28271.00043-3.41357-.00598-1.56152-.00891-3.09058-.03815-4.62402-.06445.2522,2.11029.50781,4.23969.77173,6.39648.85938,7.02448,1.78711,14.24017,2.7981,21.32971,1.83081.18335,3.69751.3479,5.60376.49133,5.05029.37982,10.35596.62299,15.86084.74725ZM981.57074,1315.31848c-4.11523.35999-7.70331.52881-10.4809.50256-4.61694-.04364-9.43237-.14166-14.42676-.29199-3.32996-.10016-6.7395-.22351-10.22314-.36945-3.48352-.146-7.04126-.31445-10.66736-.50482s-7.32068-.40265-11.078-.63623c-1.87878-.1167-3.77307-.23883-5.68262-.36609-3.81873-.25464-7.69714-.53003-11.63037-.82581-5.89941-.4436-11.9209-.9328-18.04578-1.46533-4.08301-.35504-8.21204-.72931-12.3811-1.12219-4.16907-.39294-8.37854-.80444-12.62219-1.23389-4.24377-.4295-8.52234-.87683-12.82959-1.34155-6.46057-.69708-12.98633-1.43304-19.55786-2.20575-4.38135-.51508-8.78247-1.04651-13.19885-1.59357-4.41614-.54706-8.8468-1.10974-13.28699-1.6875-2.21997-.28882-4.44214-.58142-6.66602-.87769-4.44775-.59253-8.90161-1.19983-13.35608-1.82104-8.90881-1.24249-17.82019-2.54089-26.6886-3.89014-2.21716-.33734-4.4314-.6778-6.6427-1.02142-6.63293-1.0307-13.23572-2.08929-19.7887-3.1734-4.36914-.72284-8.71582-1.45703-13.03467-2.20184-4.31934-.74493-8.61072-1.50049-12.86877-2.26617-32.849-5.90686-63.70862-12.41333-89.99573-19.21667l-5.93677,31.82117c23.32886,5.65857,49.61084,11.07312,77.33765,16.0589,4.25806.76569,8.54956,1.52124,12.86865,2.26617,4.31909.74481,8.66577,1.479,13.03467,2.20184,6.55298,1.08411,13.15576,2.1427,19.78894,3.1734,2.21106.34363,4.42542.68408,6.64258,1.02142,8.86841,1.34924,17.77966,2.64764,26.68872,3.89014,4.45447.62122,8.90833,1.22852,13.35583,1.82104,2.22388.29626,4.44617.58887,6.66602.87769,4.44019.57776,8.87085,1.14044,13.28711,1.6875s8.81763,1.07849,13.19873,1.59357c6.57153.77271,13.09741,1.50867,19.55811,2.20575,4.30713.46472,8.58569.91205,12.82935,1.34155,4.24365.42944,8.45312.84094,12.62231,1.23389,4.16895.39288,8.29797.76715,12.3811,1.12219,6.12476.53253,12.14648,1.02173,18.0459,1.46533,3.93311.29578,7.81165.57117,11.63037.82581,1.90942.12726,3.80371.24939,5.68237.36609,3.75732.23358,7.4519.44586,11.07812.63623,3.6261.19037,7.18384.35883,10.66736.50482,3.48376.14594,6.89319.26929,10.22302.36945,4.99463.15033,9.81006.24835,14.42676.29199,2.77783.02625,6.36597-.14258,10.48096-.50256,1.646-.1441,3.37622-.3186,5.17273-.52362,2.69482-.3075,5.53821-.68329,8.4696-1.12665.81439-.12317,1.65112-.2663,2.47772-.3999,1.05377-8.57605,1.9361-17.51605,2.73743-26.638-.08588.00763-.17719.01727-.26257.02478ZM2540.22211,1336.29956c2.36438.78351,4.40088,1.41229,5.73029,1.80151,1.45996.42737,2.98077.82654,4.55896,1.19873.78912.18604,1.59253.3653,2.40973.53802,3.26904.69073,6.75995,1.27551,10.44348,1.76367,1.84192.24402,3.73181.46399,5.6665.66083s3.91382.37061,5.93372.52258c5.05035.37982,10.35596.62299,15.86084.74725,2.20197.04974,4.43573.08038,6.69769.09326,1.13092.00647,2.26892.00836,3.41364.00604,2.28912-.00476,4.60486-.02679,6.94318-.06494,1.16901-.0191,2.34387-.04211,3.52399-.06915,8.26062-.18896,16.77734-.5686,25.39471-1.0896,2.46179-.14893,4.93213-.30927,7.4068-.4801,4.94971-.34155,9.91754-.72467,14.87427-1.1402,1.23926-.10394,2.47791-.20984,3.71509-.31757,2.47504-.21558,4.94531-.43878,7.40741-.66821,3.69318-.34424,7.36792-.70276,11.0119-1.07172,2.42932-.24603,4.84521-.4967,7.24377-.75079,1.19916-.12714,2.39423-.25494,3.58429-.38367,3.57056-.38599,7.09808-.77869,10.57025-1.17401,5.78735-.65887,11.42139-1.32526,16.84491-1.9812,6.50824-.78711,12.71387-1.55914,18.5188-2.28516,2.90234-.36304,5.70453-.71454,8.3941-1.05072,2.68982-.33606,5.26697-.6568,7.71942-.95825,5.89124-.72412,14.77118-1.93921,25.74506-3.55695,12.19287-1.79749,26.97052-4.09198,43.10596-6.76239,4.84052-.80109,9.8031-1.63605,14.85492-2.50153,3.36798-.57703,6.77521-1.16754,10.21252-1.77075,5.15576-.90479,10.37823-1.83795,15.63464-2.79626,3.07812-.56116,6.17059-1.13422,9.2652-1.71198l-6.16022-33.01929c-6.53198,1.29291-13.10559,2.56-19.66479,3.78864-3.5246.66022-7.04388,1.31018-10.54828,1.94904-5.25641.95825-10.47888,1.89142-15.63464,2.7962-3.43738.60321-6.84454,1.19373-10.21252,1.77075-5.05188.86554-10.0144,1.7005-14.85492,2.50159-16.13544,2.67035-30.91309,4.9649-43.10602,6.76239-10.97382,1.61768-19.85376,2.83282-25.74506,3.55695-2.45245.30145-5.02954.62213-7.71936.95825-2.68958.33612-5.49176.68768-8.3941,1.05066-5.80493.72601-12.01056,1.49805-18.5188,2.28522-5.42358.65588-11.05756,1.32227-16.84491,1.9812-3.47223.39526-6.99969.78796-10.57025,1.17395-1.19006.12872-2.38513.25659-3.58429.38367-2.39856.25415-4.81445.50482-7.24377.75085-3.64398.3689-7.31873.72748-11.0119,1.07166-2.4621.22949-4.93243.45264-7.40741.66821-1.23718.10779-2.47589.21368-3.71509.31757-4.95673.41553-9.92456.79871-14.87427,1.14026-2.47467.17078-4.94501.33118-7.4068.4801-8.61743.521-17.13409.90057-25.39471,1.0896-1.18011.02698-2.35498.05005-3.52399.06915-2.33832.03809-4.65405.06012-6.94318.06488-1.14471.00238-2.28271.00043-3.4137-.00598-2.2619-.01288-4.49573-.04352-6.69763-.09332-5.50488-.12421-10.81049-.36737-15.8609-.74719-2.01984-.15198-3.99902-.32581-5.93372-.52264-1.93463-.19684-3.82458-.41675-5.66644-.66083-.6001-.07953-1.17737-.17041-1.7663-.25549.93408,7.66034,1.87061,15.31934,2.8493,22.96783.03418.0119.07031.02533.10443.03717.95886.33282,1.89166.64838,2.7782.9422ZM4008.09961,119.90436c48.47485-7.19751,166.63232-11.69592,278.73047-11.69592s322.29199,27.56635,348.41333,34.18817l43.47168,11.02014c-2.42798-1.45355-4.85522-2.9201-7.28149-4.40167-2.49854-1.52576-4.99609-3.06744-7.49219-4.63013-1.16113-.72681-2.30469-1.44696-3.4353-2.16211-.35059-.2218-.69238-.44-1.04028-.66071-.76514-.48547-1.5293-.97058-2.28076-1.45068-.44067-.28149-.87305-.55951-1.30908-.83917-.65161-.41779-1.30273-.83545-1.94434-1.24921-.448-.28882-.8894-.57489-1.33252-.86176-.61963-.40112-1.23779-.80151-1.84814-1.19885-.44385-.2887-.88281-.57538-1.32153-.86212-.59985-.39185-1.19678-.78229-1.78809-1.17041-.42944-.28204-.8562-.56268-1.28125-.84271-.58691-.3866-1.16943-.77118-1.74805-1.15411-.42017-.27808-.83911-.55554-1.25513-.83167-.5708-.37903-1.13599-.75543-1.69873-1.1308-.41187-.2746-.82397-.54926-1.23145-.8219-.56152-.37555-1.11621-.74786-1.66992-1.11975-.39014-.26184-.78198-.52466-1.16821-.78473-.5896-.39685-1.17065-.78973-1.75171-1.18243-.33838-.22876-.68018-.45911-1.01587-.68646-.68286-.46246-1.3562-.9201-2.02759-1.37683-.2251-.15308-.4541-.30811-.67798-.46051-.89136-.60699-1.77393-1.20929-2.64673-1.80621-.25488-.17444-.50415-.34558-.75757-.51917-.61963-.42432-1.23853-.84814-1.84937-1.26733-.35815-.24597-.71045-.48828-1.06567-.73248-.50513-.34711-1.0105-.69434-1.50952-1.03796-.39453-.27148-.78345-.53955-1.17432-.80884-.45093-.31073-.90186-.62115-1.34814-.92902-.48779-.3363-.96948-.66858-1.4519-1.0014-.15259-.10529-.30811-.21246-.46021-.31738-56.75024-9.51276-233.52393-31.22961-333.02197-31.22961-112.09814,0-230.25562,4.49841-278.73047,11.69592-39.56787,5.87506-106.98291,13.5473-130.42517,16.16882l-.01208.00897c-12.87585,9.58698-25.67664,19.95917-38.81799,29.44806-.24841.17944-.49719.35773-.74597.53656-1.62231,1.16608-3.24854,2.32208-4.88232,3.45703-.02075.0144-.04138.02917-.06213.04358-1.58997,1.10394-3.18774,2.18585-4.79004,3.25439-.37329.24896-.74695.49622-1.12097.74304-1.61353,1.06482-3.23145,2.117-4.85913,3.13879-.03027.01904-.06079.03748-.09119.05652l47.04761-15.44183s90.2843-9.89655,138.7594-17.09412ZM1472.94604,308.09088c.01593-.00677.03186-.01355.04773-.02026,1.10352-.46948,2.20129-.94092,3.29144-1.41357.03223-.01398.06439-.02795.09656-.04187,1.08789-.47198,2.16791-.94519,3.23755-1.41901.02057-.00916.04108-.01819.06165-.02734,1.08221-.47961,2.15424-.95978,3.21283-1.43988-58.90106-68.11572-79.1394-145.745-86.07684-192.39648-8.26697,3.54932-17.13995,7.23743-25.69659,10.78772,6.54938,45.95874,26.16492,124.08929,84.83881,192.9104,5.59467-2.20496,11.36169-4.54712,16.98688-6.9397ZM2028.88055,305.45978c1.88104.75055,3.89325,1.54968,6.0119,2.38794.00818.00323.01642.00647.02454.0097,1.01398.40118,2.05481.81232,3.11444,1.23022.09821.03876.19672.07758.29529.11646,1.0105.3985,2.04028.80396,3.08661,1.21545.09943.03912.19818.078.29791.11725,1.11023.43658,2.23724.87927,3.38147,1.32819.01233.00482.02441.00958.03668.0144,1.18188.46368,2.38055.93341,3.59241,1.40784.02893.01129.05817.02271.08704.03406,1.18964.4657,2.39203.93597,3.60437,1.40973.0448.01752.08978.0351.13458.05261,1.19965.46875,2.40875.94086,3.62463,1.41522l.07782.0304c58.15314-67.57623,78.39215-144.38477,85.42041-190.97809-8.10059-3.30292-17.13287-7.83313-25.54559-11.86621-7.28522,47.25452-28.07465,124.53168-87.26483,192.06677.00684.00275.01349.00537.02032.00806Z" fill="#ffc000"/>
</svg>