<?xml version="1.0" encoding="UTF-8"?>
<svg id="Layer_1" xmlns="http://www.w3.org/2000/svg" version="1.1" viewBox="0 0 6000 3000">
  <!-- Generator: Adobe Illustrator 29.8.2, SVG Export Plug-In . SVG Version: 2.1.1 Build 3)  -->
  <path id="C1" d="M3457.89624,1314.79504c.29004-.03308.59863-.07556.89185-.11023l-4.6604,26.58911c-2.146.3822-4.2771.74341-6.35669,1.05786-2.93115.44336-5.77466.81909-8.46948,1.12671-1.79663.20508-3.52686.37952-5.17285.52356-4.11499.35999-7.70312.52881-10.48096.50256-4.6167-.04358-9.43213-.1416-14.42676-.29199-3.33008-.10022-6.7395-.22351-10.2229-.36951-3.48364-.146-7.04126-.31445-10.66748-.50476-3.62622-.19043-7.3208-.40271-11.07788-.63623-1.87866-.1167-3.77295-.23877-5.68262-.36609-3.8186-.25464-7.69727-.53003-11.63037-.82581-5.89941-.4436-11.92114-.93274-18.0459-1.46533-4.08325-.35498-8.21216-.72937-12.38135-1.12219-4.16919-.39294-8.37866-.80444-12.62231-1.23389s-8.52197-.87683-12.82935-1.34155c-6.46069-.69702-12.98657-1.43298-19.55786-2.20581-4.3811-.51514-8.78247-1.04651-13.19873-1.59363s-8.84717-1.10974-13.28711-1.6875c-2.21997-.28882-4.44214-.58142-6.66602-.87769-4.44751-.59253-8.90161-1.19983-13.35571-1.82104-8.90918-1.24243-17.82031-2.54089-26.68872-3.89014-2.21704-.33728-4.43164-.67786-6.64258-1.02136-6.6333-1.03064-13.23584-2.08923-19.78906-3.17334-4.36865-.7229-8.71558-1.45703-13.03467-2.20178-4.31909-.74487-8.61035-1.50049-12.86865-2.26611-17.43652-3.13538-34.302-6.44055-50.2251-9.8689l5.87085-31.46899c19.55127,4.43555,40.79785,8.69128,62.94873,12.67444,4.25806.76575,8.54956,1.52124,12.86865,2.26611,4.31885.74475,8.66577,1.479,13.03467,2.20178,6.55298,1.08411,13.15576,2.1427,19.78882,3.17334,2.21118.34363,4.42554.68408,6.64258,1.02136,8.86865,1.34924,17.77979,2.64758,26.68872,3.89014,4.45435.62122,8.90845,1.22852,13.35596,1.82104,2.22388.29626,4.44604.58887,6.66602.87769,4.44019.57776,8.87085,1.14038,13.28711,1.6875s8.81738,1.07849,13.19873,1.59363c6.57153.77271,13.09741,1.50867,19.55786,2.20581,4.30737.46472,8.58594.91211,12.82959,1.34155s8.45312.84094,12.62231,1.23389c4.16895.39282,8.2981.76709,12.3811,1.12219,6.12476.53247,12.14624,1.02173,18.0459,1.46533,3.93335.29578,7.81177.57117,11.63037.82581,1.90967.12732,3.80371.24939,5.68262.36609,3.75732.23352,7.4519.4458,11.07812.63623s7.18384.35889,10.66748.50476c3.48364.146,6.89331.26929,10.2229.36951,4.99463.15039,9.80981.24829,14.42676.29199,2.77759.02625,6.36572-.14258,10.48096-.50256,1.64575-.14404,3.37622-.3186,5.17285-.52356ZM5061.97852,1343.53247c2.20166.04968,4.43555.08032,6.69775.09326,1.13086.00647,2.26904.0083,3.41357.00598,2.28906-.00476,4.60498-.02673,6.94336-.06494,1.16895-.01904,2.34375-.04211,3.52393-.06909,8.26074-.18896,16.77734-.5686,25.39453-1.0896,2.46191-.14893,4.93213-.30933,7.40674-.4801,4.94922-.34155,9.91748-.72461,14.87451-1.14026,1.23926-.10388,2.47754-.20984,3.71533-.31763,2.47461-.21558,4.94531-.43872,7.40723-.66821,3.69336-.34424,7.36768-.70276,11.01172-1.07178,2.4292-.24597,4.84521-.4967,7.24414-.75073,1.19873-.1272,2.39453-.25488,3.58447-.38367,3.5708-.38599,7.09814-.77869,10.57031-1.17395,5.78711-.65881,11.42139-1.32532,16.84473-1.9812,6.5083-.78711,12.71387-1.55908,18.51904-2.28516,2.90234-.36304,5.70459-.7146,8.39404-1.05066,2.68994-.33606,5.26709-.65686,7.71924-.95825,5.8916-.72412,14.77148-1.93921,25.74512-3.55701,12.19287-1.79749,26.9707-4.09192,43.10596-6.76233,4.84082-.80115,9.80322-1.63611,14.85498-2.50159,3.36816-.57703,6.77539-1.16748,10.2124-1.77075,5.15576-.90479,10.37842-1.83789,15.63477-2.79626,3.50439-.63879,7.02344-1.28882,10.54834-1.9491,7.04883-1.32031,14.11865-2.68152,21.13086-4.07556,3.50586-.69702,6.99707-1.40234,10.46533-2.11499,3.4668-.71265,6.91016-1.43237,10.31934-2.15857.06641-.01416.13184-.02869.19873-.04297l-6.27344-33.62744c-6.80176,1.58057-13.83496,3.14331-21.0332,4.67676-3.40918.72632-6.85205,1.44604-10.31934,2.15869-3.46729.71252-6.95898,1.41797-10.46484,2.11499-7.01172,1.39404-14.08203,2.75525-21.13086,4.07556-3.5249.66028-7.04395,1.31018-10.54834,1.9491-5.25635.95825-10.479,1.89148-15.63428,2.79614-3.4375.60315-6.84473,1.19373-10.21289,1.77075-5.05176.8656-10.01416,1.70044-14.85498,2.50159-16.13574,2.67041-30.91309,4.96484-43.10596,6.76245-10.97412,1.61768-19.85352,2.83276-25.74463,3.55701-2.45264.30139-5.02979.62207-7.71924.95825s-5.4917.68762-8.39404,1.05066c-5.80469.72595-12.01074,1.49805-18.51904,2.28528-5.42334.65588-11.05762,1.32227-16.84473,1.9812-3.47217.39526-7,.78796-10.57031,1.17395-1.19043.12866-2.38525.25659-3.58447.38367-2.39844.25415-4.81445.50476-7.24414.75085-3.64404.3689-7.31836.72754-11.01172,1.07166-2.4624.22949-4.93213.45264-7.40723.66821-1.2373.10779-2.47607.21362-3.71533.31763-4.95703.41553-9.92432.79871-14.87451,1.14026-2.47461.17078-4.94531.33118-7.40674.4801-8.61719.521-17.13428.90051-25.39502,1.0896-1.18018.02698-2.35498.05005-3.52393.06909-2.33789.03809-4.65381.06018-6.94336.06482-1.14502.00232-2.28271.00049-3.41357-.00598-1.56152-.00891-3.09082-.03821-4.62402-.06445.25244,2.11023.50781,4.23975.77197,6.39648.85938,7.02454,1.78711,14.24011,2.79834,21.32971,1.83057.18335,3.69775.3479,5.604.49133,5.05029.37976,10.35596.62305,15.86084.74719h-.00146ZM981.57074,1315.31872c-4.11523.35999-7.70331.52881-10.4809.50256-4.61694-.04358-9.43237-.1416-14.42676-.29199-3.32996-.10022-6.7395-.22351-10.22314-.36951-3.48352-.146-7.04126-.31445-10.66736-.50476s-7.32068-.40271-11.078-.63623c-1.87878-.1167-3.77307-.23877-5.68262-.36609-3.81873-.25464-7.69714-.53003-11.63037-.82581-5.89941-.4436-11.9209-.93274-18.04578-1.46533-4.08301-.35498-8.21204-.72937-12.3811-1.12219-4.16907-.39294-8.37854-.80444-12.62219-1.23389-4.24377-.42944-8.52234-.87683-12.82959-1.34155-6.46057-.69702-12.98633-1.43298-19.55786-2.20581-4.38135-.51514-8.78247-1.04651-13.19885-1.59363-4.41614-.54712-8.8468-1.10974-13.28699-1.6875-2.21997-.28882-4.44214-.58142-6.66602-.87769-4.44775-.59253-8.90161-1.19983-13.35608-1.82104-8.90881-1.24243-17.82019-2.54089-26.6886-3.89014-2.21716-.33728-4.4314-.67786-6.6427-1.02136-6.63293-1.03064-13.23572-2.08923-19.7887-3.17334-4.36914-.7229-8.71582-1.45703-13.03467-2.20178-4.31934-.74487-8.61072-1.50049-12.86877-2.26611-32.849-5.90686-63.70862-12.41333-89.99573-19.21667l-5.93677,31.82117c23.32886,5.65857,49.61084,11.07312,77.33765,16.05896,4.25806.76575,8.54956,1.52124,12.86865,2.26611,4.31909.74475,8.66577,1.479,13.03467,2.20178,6.55298,1.08411,13.15576,2.1427,19.78894,3.17334,2.21106.34363,4.42542.68408,6.64258,1.02136,8.86841,1.34924,17.77966,2.64758,26.68872,3.89014,4.45447.62122,8.90833,1.22852,13.35583,1.82104,2.22388.29626,4.44617.58887,6.66602.87769,4.44019.57776,8.87085,1.14038,13.28711,1.6875s8.81763,1.07849,13.19873,1.59363c6.57153.77271,13.09741,1.50867,19.55811,2.20581,4.30713.46472,8.58569.91211,12.82935,1.34155s8.45312.84094,12.62231,1.23389c4.16895.39282,8.29797.76709,12.3811,1.12219,6.12476.53247,12.14648,1.02173,18.0459,1.46533,3.93311.29578,7.81165.57117,11.63037.82581,1.90942.12732,3.80371.24939,5.68237.36609,3.75732.23352,7.4519.4458,11.07812.63623,3.6261.19043,7.18384.35889,10.66736.50476,3.48376.146,6.89319.26929,10.22302.36951,4.99463.15039,9.81006.24829,14.42676.29199,2.77783.02625,6.36597-.14258,10.48096-.50256,1.646-.14404,3.37622-.3186,5.17273-.52356,2.69482-.3075,5.53821-.68335,8.4696-1.12671.81439-.12317,1.65112-.26636,2.47772-.3999,1.05377-8.57605,1.9361-17.51599,2.73743-26.63806-.08588.00769-.17719.01721-.26257.02478ZM2540.22217,1336.2998c2.36426.78357,4.40088,1.41223,5.73022,1.80151,1.45996.42737,2.98071.82654,4.55884,1.19873.78906.18604,1.59253.36536,2.40967.53796,3.26904.69067,6.76001,1.27551,10.44336,1.76367,1.84204.24402,3.73169.46399,5.6665.66089s3.91382.37061,5.93384.52258c5.05029.37976,10.35596.62305,15.86084.74719,2.2019.04968,4.43579.08032,6.69775.09326,1.13086.00647,2.2688.0083,3.41357.00598,2.28906-.00476,4.60498-.02673,6.94312-.06494,1.16895-.01904,2.34375-.04211,3.52393-.06909,8.26074-.18896,16.77734-.5686,25.39478-1.0896,2.46167-.14893,4.93213-.30933,7.40674-.4801,4.94971-.34155,9.91748-.72461,14.87427-1.14026,1.23926-.10388,2.47803-.20984,3.71509-.31763,2.4751-.21558,4.94531-.43872,7.40747-.66821,3.69312-.34424,7.36792-.70276,11.01196-1.07178,2.4292-.24597,4.84521-.4967,7.24365-.75073,1.19922-.1272,2.39429-.25488,3.58423-.38367,3.57056-.38599,7.09814-.77869,10.57031-1.17395,5.78735-.65881,11.42139-1.32532,16.84497-1.9812,6.5083-.78711,12.71387-1.55908,18.5188-2.28516,2.90234-.36304,5.70459-.7146,8.39404-1.05066,2.68994-.33606,5.26709-.65686,7.71948-.95825,5.89136-.72412,14.77124-1.93921,25.74512-3.55701,12.19287-1.79749,26.97046-4.09204,43.10596-6.76245,4.84058-.80115,9.80298-1.63611,14.85498-2.50159,3.36792-.57703,6.77515-1.16748,10.2124-1.77075,5.15576-.90479,10.37817-1.83789,15.63452-2.79626,3.07812-.56116,6.17065-1.13428,9.26514-1.71204l-6.16016-33.01929c-6.53198,1.29297-13.10547,2.56006-19.66479,3.7887-3.52466.66028-7.04395,1.31018-10.54834,1.9491-5.25635.95825-10.47876,1.89148-15.63452,2.79614-3.4375.60315-6.84448,1.19373-10.2124,1.77075-5.05176.8656-10.0144,1.70044-14.85498,2.50159-16.1355,2.67041-30.91309,4.96484-43.10596,6.76245-10.97388,1.61768-19.85376,2.83276-25.74512,3.55701-2.45239.30139-5.02954.62207-7.71924.95825-2.6897.33606-5.4917.68762-8.39404,1.05066-5.80493.72595-12.0105,1.49805-18.5188,2.28528-5.42358.65588-11.05762,1.32227-16.84497,1.9812-3.47217.39526-6.99976.78796-10.57031,1.17395-1.18994.12866-2.38501.25659-3.58423.38367-2.39868.25415-4.81445.50476-7.24365.75085-3.64404.3689-7.31885.72754-11.01196,1.07166-2.46216.22949-4.93237.45264-7.40747.66821-1.23706.10779-2.47583.21362-3.71509.31763-4.95679.41553-9.92456.79871-14.87427,1.14026-2.47461.17078-4.94507.33118-7.40674.4801-8.61743.521-17.13403.90051-25.39478,1.0896-1.18018.02698-2.35498.05005-3.52393.06909-2.33838.03809-4.65405.06018-6.94312.06482-1.14478.00232-2.28271.00049-3.41382-.00598-2.26196-.01294-4.49585-.04358-6.69751-.09326-5.50488-.12427-10.81055-.36731-15.86084-.74719-2.01978-.15198-3.99902-.32581-5.93384-.52258-1.93457-.1969-3.82446-.41675-5.6665-.66089-.6001-.07959-1.17749-.17041-1.76636-.25549.93408,7.6604,1.87061,15.31934,2.84937,22.96777.03418.01184.07031.02539.10449.03711.95874.33276,1.8916.64844,2.77832.94226v.00012Z" fill="#ffc000"/>
  <path id="C2" d="M3869.34033,136.99872l-47.04761,15.44183c.03052-.01904.06079-.03748.09131-.05652,1.62769-1.02179,3.24561-2.07397,4.85913-3.13879.37402-.24683.74756-.49408,1.12085-.74304,1.60229-1.06854,3.19995-2.15045,4.79004-3.25439.02075-.0144.04126-.02917.06201-.04358,1.63379-1.13495,3.26001-2.29095,4.88232-3.45703.24878-.17883.49756-.35712.74585-.53656,13.14136-9.48889,25.94214-19.86108,38.81787-29.44806l.01196-.00897c23.44214-2.62152,90.85718-10.29376,130.42505-16.16882,48.47485-7.19751,166.63232-11.69592,278.73047-11.69592,99.49805,0,276.27197,21.71686,333.02197,31.22961.15234.10492.30762.2121.46045.31738.48242.33282.96387.6651,1.45166,1.0014.44629.30786.89746.61829,1.34814.92902.39111.26929.77979.53735,1.17432.80884.49902.34363,1.00439.69086,1.50928,1.03796.35498.2442.70752.48651,1.06543.73248.61084.41919,1.22998.84302,1.84961,1.26733.25342.17358.50293.34473.75781.51917.87256.59692,1.75537,1.19922,2.64697,1.80621.22412.1524.45264.30743.67822.46051.67139.45673,1.34473.91437,2.02783,1.37683.33545.22736.67725.4577,1.01611.68646.58105.3927,1.16211.78558,1.75195,1.18243.38623.26007.77832.52289,1.16797.78474.55371.37189,1.1084.7442,1.66992,1.11975.40723.27264.81934.5473,1.23145.8219.5625.37537,1.12793.75177,1.69873,1.1308.41602.27612.83496.55359,1.25537.83167.57861.38293,1.16113.76752,1.74805,1.15411.42529.28003.85205.56067,1.28125.84271.59131.38812,1.18799.77856,1.78809,1.17041.43848.28674.87793.57343,1.32129.86212.61035.39734,1.22852.79773,1.84814,1.19885.44336.28687.88428.57294,1.33252.86176.6416.41376,1.29248.83142,1.94434,1.24921.43604.27966.86865.55768,1.30908.83917.75146.4801,1.51562.96521,2.28076,1.45068.34766.2207.68994.4389,1.04004.66071,1.13086.71515,2.27393,1.4353,3.43506,2.16211,2.49609,1.56268,4.99365,3.10437,7.49219,4.63013,2.42627,1.48468,4.85352,2.94806,7.28125,4.40167l-43.47168-11.02014c-26.12158-6.62183-236.31543-34.18817-348.41309-34.18817s-230.25562,4.49841-278.73047,11.69592c-48.4751,7.19757-138.75928,17.09412-138.75928,17.09412ZM1371.12036,122.12042c6.54944,45.95874,26.16492,124.08929,84.83887,192.9104,8.96655-3.53394,18.37622-7.4201,26.93457-11.30164-58.901-68.11572-79.1394-145.745-86.0769-192.39648-8.26697,3.54932-17.13989,7.23743-25.69653,10.78772ZM2116.125,113.38519c-7.28516,47.25452-28.07471,124.53168-87.26489,192.06677,7.55713,3.0155,17.24231,6.8186,27.38989,10.77753,58.15308-67.57623,78.39209-144.38477,85.42041-190.97809-8.10059-3.30292-17.13281-7.83313-25.54565-11.86621h.00024Z" fill="#a41123"/>
</svg>