<?xml version="1.0" encoding="UTF-8"?>
<svg id="Layer_1" xmlns="http://www.w3.org/2000/svg" version="1.1" viewBox="0 0 6000 3000">
  <!-- Generator: Adobe Illustrator 29.8.2, SVG Export Plug-In . SVG Version: 2.1.1 Build 3)  -->
  <path id="C1" d="M2875.55029,1320.59442l11.65948,62.49573c-42.11749,7.92114-89.0957,13.1748-120.74945,16.96313-45.81128,5.48273-154.45117,19.67114-195.2345,9.1449-10.38153-2.6795-22.96436-11.71942-25.22791-22.79883-2.8266-15.09326-5.04498-30.32886-7.04382-45.61792,4.43658,3.41254,9.57788,5.92749,14.27173,7.13898,40.78333,10.52625,149.42322-3.66217,195.2345-9.1449,33.25122-3.97955,83.41638-9.57404,127.08997-18.18109ZM859.12842,1345.33057c-87.82617-11.34662-172.31726-19.53412-239.82617-35.37476-2.07458-.48682-5.30872-1.14594-9.23059-1.95428l-11.93945,63.99622c-.0011-.00024-.00244-.00049-.00354-.00073,1.25586.26562,2.34314.50275,3.22058.70862,67.50891,15.84064,152,24.02814,239.82617,35.37476,24.18713,3.12488,88.96619,3.39929,109.51086-2.82623,15.0592-4.56323,18.22559-8.75696,22.11609-22.74359,3.62512-13.03265,6.06378-28.52002,7.94867-45.19055-2.91418,1.98486-6.75922,3.56238-12.11176,5.18433-20.54468,6.22552-85.32373,5.95111-109.51086,2.82623ZM2000.68256,287.16437h-424.44446s-46.66669-8.88885-70.66669,6.22223c-10.59387,6.67023-28.89392,14.63855-46.03387,21.46027,42.61884,69.7334,133.00842,170.98419,298.58746,170.98419,163.08215,0,248.54138-101.18945,288.6264-172.88293-12.00293-4.70728-22.37036-8.82465-27.84662-11.11707-19.11115-8-18.22223-14.66669-18.22223-14.66669ZM3452.09436,1332.24622l-.10315.58856c-.2572.38672-.54785.7677-.87012,1.14294-.9668,1.12573-2.2179,2.19983-3.70227,3.22156-1.48425,1.02179-3.2019,1.99121-5.10156,2.90759-1.2666.61096-2.61401,1.19836-4.02734,1.76202-9.18652,3.6637-21.15503,6.32385-31.75024,7.92633-2.44507.36981-4.81689.68329-7.0647.93976-1.49854.17102-2.94177.31659-4.3147.43677-3.4325.30029-6.42542.4411-8.74243.41919-3.85095-.03638-7.86755-.11816-12.03369-.24353-2.77759-.08356-5.62146-.18646-8.52734-.30817-2.90576-.12177-5.87329-.26233-8.89795-.42108-3.02466-.15881-6.10645-.33588-9.24048-.5307-1.56714-.09735-3.14722-.19922-4.73987-.30536-3.1853-.2124-6.42053-.44214-9.70117-.68884-4.9209-.37-9.94373-.77808-15.05249-1.22229-3.40588-.29614-6.84998-.60834-10.32751-.93604-3.47754-.32776-6.98877-.67102-10.52856-1.02924s-7.10852-.73138-10.70129-1.11902c-5.38904-.58142-10.8324-1.19531-16.31384-1.83984-3.65442-.42963-7.32568-.87292-11.0094-1.32922-3.68372-.45636-7.37952-.92566-11.08313-1.40759-1.85168-.24091-3.70532-.48499-5.5603-.73212-3.70984-.49426-7.42493-1.00079-11.1405-1.51898-7.43127-1.03638-14.86438-2.11945-22.26172-3.24487-1.84937-.28137-3.69641-.56537-5.54077-.85199-5.53284-.85974-11.04041-1.74274-16.50647-2.64703-3.64417-.60291-7.2699-1.21533-10.87256-1.83661-3.60266-.62134-7.18225-1.25159-10.73401-1.89026-20.4209-3.67206-39.91016-7.62292-57.59692-11.74591l-11.47461,61.50433c19.04712,4.57349,40.38208,8.95129,62.84973,12.99139,3.55176.63867,7.13135,1.26892,10.73401,1.89026,3.60266.62128,7.22839,1.2337,10.87256,1.83661,5.46606.9043,10.97363,1.78729,16.50647,2.64703,1.84436.28662,3.69141.57062,5.54077.85199,7.39734,1.12543,14.83044,2.2085,22.26172,3.24487,3.71558.51819,7.43066,1.02472,11.1405,1.51898,1.85498.24713,3.70862.49121,5.5603.73212,3.70361.48193,7.39941.95123,11.08313,1.40759,3.68372.4563,7.35498.8996,11.0094,1.32922,5.48145.64453,10.9248,1.25842,16.31384,1.83984,3.59277.38763,7.1615.7608,10.70129,1.11902s7.05103.70148,10.52856,1.02924c3.47754.3277,6.92163.63989,10.32751.93604,5.10876.44421,10.13159.85229,15.05249,1.22229,3.28064.2467,6.51587.47644,9.70117.68884,1.59265.10614,3.17273.20801,4.73987.30536,3.13403.19482,6.21582.37189,9.24048.5307,3.02466.15875,5.99219.29932,8.89795.42108,2.90588.1217,5.74976.22461,8.52734.30817,4.16614.12537,8.18274.20715,12.03369.24353,2.31702.02191,5.30994-.1189,8.74243-.41919,1.37292-.12018,2.81616-.26575,4.3147-.43677,2.2478-.25647,4.61963-.56995,7.0647-.93976,10.59521-1.60248,22.56372-4.26263,31.75024-7.92633,1.41333-.56366,2.76074-1.15106,4.02734-1.76202,1.89966-.91638,3.61731-1.8858,5.10156-2.90759,1.48438-1.02173,2.73547-2.09583,3.70227-3.22156.32227-.37524.61292-.75623.87012-1.14294l11.31128-64.53149c-1.6554.42389-3.31628.82629-4.98633,1.19312ZM2887.53522,1383.02936c3.13446-.59088,6.24445-1.19507,9.31604-1.8161-3.07159.62097-6.18158,1.22522-9.31604,1.8161ZM5390.16504,1312.31366c-6.8396,1.62506-13.99146,3.23022-21.35425,4.79877-2.84351.60577-5.71558,1.20618-8.60767,1.8006-2.89233.59436-5.80469,1.18274-8.729,1.76416-5.84888,1.16284-11.74609,2.29822-17.62573,3.3996-2.93994.55072-5.87549,1.09283-8.79858,1.62573-4.38452.79932-8.74072,1.5777-13.04126,2.3324-2.86719.50317-5.70923.99573-8.51855,1.47705-4.21387.72192-8.35327,1.4184-12.39087,2.08661-13.45898,2.22742-25.7854,4.14136-35.95581,5.64069-9.15356,1.34937-16.56055,2.36292-21.47461,2.96692-2.04565.25146-4.19531.51898-6.43896.79932-2.24341.2804-4.58081.57361-7.00171.8764-4.84204.60559-10.01831,1.24957-15.44702,1.90613-4.52393.54712-9.22339,1.10297-14.05078,1.65259-2.89624.32971-5.83862.65729-8.81689.97925-.99268.10736-1.9895.21399-2.98975.32001-2.00073.21198-4.01587.42108-6.04224.62628-3.03955.30774-6.10474.60681-9.1853.89392-2.05371.19141-4.11426.37756-6.17871.55737-1.03198.0899-2.06519.17822-3.09888.26489-4.13452.34662-8.27832.6662-12.40698.95111-2.06421.14246-4.12476.27625-6.17822.40045-7.18799.43457-14.29199.75122-21.18237.90887-.98438.02252-1.96436.04175-2.93945.05768-1.95044.0318-3.88208.05017-5.7915.05414-.95483.00195-1.90405.00037-2.84741-.005-1.88672-.01074-3.75-.03632-5.58667-.07782-4.5918-.10364-9.01733-.30646-13.22998-.62329-1.68481-.12677-3.33569-.27173-4.94946-.43591s-3.19019-.34766-4.72656-.55121c-3.07251-.40717-5.98438-.89496-8.71118-1.47113-.68164-.14404-1.35181-.29358-2.01001-.44879-1.31641-.31042-2.58496-.64337-3.80273-.99988-1.10889-.32465-2.80762-.84912-4.77979-1.50269-.7395-.24506-1.51758-.5083-2.31738-.78589-.7998-.27765-1.62158-.56964-2.44824-.87238-.82666-.30267-1.65845-.61609-2.47852-.9364-.54688-.21356-1.08862-.43018-1.62012-.64874-.79736-.32794-1.57202-.66028-2.30737-.99329-.48999-.22205-.96289-.4444-1.41309-.66595-.60083-.29565-1.15332-.58929-1.66235-.87952.97998,7.10443,2.03955,14.13544,3.2063,20.76312.26782,1.52014.54077,3.01923.81958,4.49329.41821,2.21106.84961,4.36591,1.29443,6.45123.29663,1.39026.59937,2.74963.90845,4.07416.15454.66229.31079,1.3158.46851,1.96021,1.10449,4.51068,2.28882,8.57104,3.56396,12.01306,1.6394,4.42542,3.42896,7.82867,5.39233,9.8526.0957.09875.20215.19879.31836.29999.46509.40491,1.08911.82843,1.83276,1.26178.55762.32501,1.18237.65558,1.85767.98785.4502.22156.9231.44391,1.41309.66595.73535.33301,1.51001.66534,2.30737.99329.53149.21857,1.07324.43518,1.62012.64874.82007.32031,1.65186.63373,2.47852.9364.82666.30273,1.64844.59473,2.44824.87238.7998.27759,1.57788.54083,2.31738.78589,1.97217.65356,3.6709,1.17804,4.77979,1.50269,1.21777.35651,2.48633.68945,3.80273.99988.6582.15521,1.32837.30475,2.01001.44879,2.72681.57617,5.63867,1.06396,8.71118,1.47113,1.53638.20355,3.11279.38702,4.72656.55121s3.26465.30914,4.94946.43591c4.21265.31683,8.63818.51965,13.22998.62329,1.83667.0415,3.69995.06708,5.58667.07782.94336.00537,1.89258.00696,2.84741.005,1.90942-.00397,3.84106-.02234,5.7915-.05414.9751-.01593,1.95508-.03516,2.93945-.05768,6.89038-.15765,13.99438-.4743,21.18237-.90887,2.05347-.12421,4.11401-.258,6.17822-.40045,4.12866-.28491,8.27246-.60449,12.40698-.95111,1.03369-.08667,2.06689-.17499,3.09888-.26489,2.06445-.17981,4.125-.36597,6.17871-.55737,3.08057-.28711,6.14575-.58618,9.1853-.89392,2.02637-.2052,4.0415-.41431,6.04224-.62628,1.00024-.10602,1.99707-.21265,2.98975-.32001,2.97827-.32196,5.92065-.64954,8.81689-.97925,4.82739-.54962,9.52686-1.10547,14.05078-1.65259,5.42871-.65656,10.60498-1.30054,15.44702-1.90613,2.4209-.3028,4.7583-.59601,7.00171-.8764,2.24365-.28033,4.39331-.54785,6.43896-.79932,4.91406-.604,12.32104-1.61755,21.47461-2.96692,10.17041-1.49933,22.49683-3.41327,35.95581-5.64069,4.0376-.66821,8.177-1.36469,12.39087-2.08661,2.80933-.48132,5.65137-.97388,8.51855-1.47705,4.30054-.7547,8.65674-1.53308,13.04126-2.3324,2.9231-.5329,5.85864-1.07501,8.79858-1.62573,5.87964-1.10138,11.77686-2.23676,17.62573-3.3996,2.92432-.58142,5.83667-1.1698,8.729-1.76416,2.89209-.59442,5.76416-1.19482,8.60767-1.8006,5.13477-1.09387,10.15918-2.20642,15.06055-3.3299l-11.7063-62.74664ZM3096.2229,1377.16309c-1.38843-.33398-2.76672-.66907-4.13074-1.00513,1.36365.33612,2.74231.67102,4.13074,1.00513Z" fill="#ffc000"/>
</svg>