<?xml version="1.0" encoding="UTF-8"?>
<svg id="overlay" xmlns="http://www.w3.org/2000/svg" version="1.1" viewBox="0 0 6000 3000">
  <!-- Generator: Adobe Illustrator 30.5.1, SVG Export Plug-In . SVG Version: 2.1.4 Build 3)  -->
  <path id="F1" d="M3824.58557,1459.052c-18.62012,0-26.82007-10.60999-26.82007-34.71997v-116.70996c0-24.10999,8.19995-34.71997,26.82007-34.71997h83.43994v-322.17004h-68.54004c-18.62012,0-26.82007-10.60999-26.82007-34.71997v-116.71002c0-24.10999,8.19995-34.72003,26.82007-34.72003h216.04004c18.61987,0,26.82007,10.60999,26.82007,34.71997v473.59997h71.52002c18.62012,0,26.81982,10.60999,26.81982,34.71997v116.70996c0,24.10999-8.18994,34.71997-26.81982,34.71997h-329.27002l-.01001.00012ZM4277.5155,1459.052c-18.62012,0-26.81982-10.60999-26.81982-34.71997v-112.84998c0-24.10999,8.2002-34.71997,26.81982-34.71997h192.2002c11.91992,0,20.10986-6.75,20.10986-22.18994v-37.62c0-15.43005-8.18994-22.18994-20.10986-22.18994h-184.75c-18.62012,0-26.81982-10.60999-26.81982-34.71997v-360.75c0-24.10999,8.18994-34.71997,26.81982-34.71997h321.08008c18.62012,0,26.81982,10.60999,26.81982,34.71997v114.78003c0,24.10999-8.18994,34.71997-26.81982,34.71997h-178.79004v62.69995h102.06006c80.45996,0,130.37012,51.12,130.37012,153.37v134.07007c0,98.39001-55.87012,160.12-145.27002,160.12h-236.8999l-.00049-.00024Z" fill="#231f20"/>
</svg>