<?xml version="1.0" encoding="UTF-8"?>
<svg id="overlay" xmlns="http://www.w3.org/2000/svg" version="1.1" viewBox="0 0 6000 3000">
  <!-- Generator: Adobe Illustrator 30.5.1, SVG Export Plug-In . SVG Version: 2.1.4 Build 3)  -->
  <path id="F1" d="M4112.69092,1468.33716l-351.75-21.18994,100.3999-54.63-12.37012-450.72998-114.94995-12.25,372.48022-178.5-86.93994,636.28991,93.12012,81.01001h.00977ZM4321.85059,889.97711l-49.10986,139.88007c15.75977-8.47998,33.77002-14.67004,54.02002-18.59998,20.25-3.92004,46.00977-5.89001,77.2998-5.89001,100.3999,0,178.72021,20.95996,234.97998,62.88s84.39014,99.77002,84.39014,173.55994-25.45996,127.80005-76.39014,170.48999c-50.93018,42.69995-119.31006,64.05005-205.16016,64.05005-46.56006,0-89.66992-8.94995-129.31006-26.83997-39.6499-17.90002-76.20996-45.05005-109.66992-81.47998l-49.47021,54.16003,50.93018-240.19995c26.43018,52.43994,52.93018,90.66003,79.47998,114.68005s55.3501,36.03003,86.39014,36.03003c28.37012,0,50.5-8.55005,66.37988-25.67004,15.87988-17.10999,23.83008-40.73999,23.83008-70.88,0-38.30005-10.85986-67.81995-32.56006-88.54004-21.70996-20.71997-52.56006-31.07996-92.58008-31.07996-34.91992,0-67.35986,4.46997-97.2998,13.42004-29.9502,8.94995-57.54004,22.53003-82.75,40.73999l60.75-409.28003,415.04004,35.78998,19.27979-49.91998,25.45996,295.77002-34.91992-68.29004-319.01025-84.78003.00049-.00018Z" fill="#231f20"/>
</svg>