<?xml version="1.0" encoding="UTF-8"?>
<svg id="overlay" xmlns="http://www.w3.org/2000/svg" version="1.1" viewBox="0 0 6000 3000">
  <!-- Generator: Adobe Illustrator 30.5.1, SVG Export Plug-In . SVG Version: 2.1.4 Build 3)  -->
  <path id="F1" d="M3806.9657,1333.40723h74.88989v-372.54004l-109.73999,65.46997v-163.90002l196.87012-115.85999,68.29004.94v585.89997h75.35986v129.05005h-305.66992v-129.05994ZM4341.99597,1026.32727c15.06982-5.65002,31.31982-10.43994,48.75-14.35999s36.18018-5.89001,56.27979-5.89001c32.02979,0,62.3999,4.94995,91.12988,14.83997s54,24.48999,75.83008,43.80005c21.81982,19.31006,39.16992,43.08997,52.04004,71.34998s19.31006,60.92004,19.31006,97.95996c0,39.88-7.06006,74.96997-21.18994,105.26001-14.12988,30.30005-32.81006,55.66003-56.0498,76.06006-23.24023,20.41003-49.68994,35.79004-79.35986,46.16003-29.66992,10.35999-60.0498,15.54004-91.12988,15.54004s-59.89014-4-87.37012-12.01001-52.20996-20.02002-74.18018-36.03003c-21.97998-16.01001-40.58984-36.03003-55.81006-60.05005-15.22998-24.02002-25.66992-52.04004-31.31982-84.06995l145.52979-39.56006c1.87988,14.76001,5.81006,27.94995,11.77002,39.56006,5.95996,11.62,13.41992,21.51001,22.37012,29.67004,8.9502,8.17004,19.31006,14.44995,31.08008,18.83997,11.77002,4.40002,24.41016,6.58997,37.91016,6.58997,15.06982,0,28.87988-2.82996,41.4502-8.47998,12.5498-5.65002,23.22998-13.42004,32.02979-23.31006,8.79004-9.89001,15.62012-21.43005,20.49023-34.62,4.85986-13.18994,7.2998-27.46997,7.2998-42.85999,0-12.87-2.52002-25.43005-7.54004-37.68005-5.02979-12.25-12.25-23.07996-21.66992-32.5s-20.72021-16.95996-33.91016-22.60999-27.79004-8.47998-43.7998-8.47998c-20.41016,0-38.08008,1.95996-52.99023,5.89001-14.91992,3.93005-30.06982,9.5-45.4502,16.71997l-127.62988-23.55005v-380.07995h453.5498v144.11999h-317.43994v133.76001l.02002.02002Z" fill="#231f20"/>
</svg>