<?xml version="1.0" encoding="UTF-8"?>
<svg id="overlay" xmlns="http://www.w3.org/2000/svg" version="1.1" viewBox="0 0 6000 3000">
  <!-- Generator: Adobe Illustrator 30.5.1, SVG Export Plug-In . SVG Version: 2.1.4 Build 3)  -->
  <path id="F1" d="M3884.38062,952.65726l-129.25,52.09003v-151.43999l174.59009-79.09003h136v675.19995h-181.34009v-496.75995ZM4193.03076,1318.22726v-83.92004h181.33984v47.26001c0,13.5,3.85986,17.35999,17.35986,17.35999h111.89014c13.5,0,17.35986-3.85999,17.35986-17.35999v-112.84998c0-13.5-8.68018-17.35999-27.00977-17.35999-43.41016,0-65.58984,7.71997-109,29.90002l-181.33984-51.12v-355.92999h476.5v150.47003h-295.16016v143.71997c20.25977-24.10999,62.7002-69.44995,146.62012-69.44995,128.29004,0,170.72998,42.43994,170.72998,131.18005v188.08997c0,88.73999-42.43994,131.18005-131.18018,131.18005h-246.93018c-88.74023,0-131.18018-42.43994-131.18018-131.17993l.00049.00977Z" fill="#231f20"/>
</svg>