<?xml version="1.0" encoding="UTF-8"?>
<svg id="overlay" xmlns="http://www.w3.org/2000/svg" version="1.1" viewBox="0 0 6000 3000">
  <!-- Generator: Adobe Illustrator 30.5.1, SVG Export Plug-In . SVG Version: 2.1.4 Build 3)  -->
  <path id="F1" d="M3985.31573,779.30725c5.33008,13.82001,12.23999,24.96002,20.72998,33.44,8.47998,8.47998,16.8501,17.12,25.1001,25.90002,10.18994,24.48999,16.47998,51.81001,18.91992,81.95002,2.41992,30.14001,5.08984,63.10999,8,98.91003,0,28.89001-1.45996,56.05005-4.37012,81.47998-2.91016,25.43005-6.66992,50.25-11.27979,74.41003-4.62012,24.18005-9.81982,48.19995-15.64014,72.05994-5.82007,23.87-11.3999,48.97998-16.72998,75.35999-6.80005,9.42004-12,22.77002-15.63989,40.03003-3.63989,17.28003-4,34.06995-1.09009,50.39001-6.31006,10.05005-12.62012,19.78003-18.91992,29.19995-6.31006,9.42004-13.3501,18.21997-21.1001,26.38-2.90991-3.77002-6.66992-5.81006-11.28003-6.12-4.62012-.31995-9.34009-.31995-14.18994,0-4.8501.31006-9.34009.93994-13.45996,1.88-4.12988.93994-7.15991,1.08997-9.09009.46997-2.42993-5.02002-5.70996-10.35999-9.82007-16.01001-4.12988-5.65002-7.76001-11.60999-10.90991-17.90002-3.15991-6.27002-5.58008-12.39001-7.28003-18.37-1.70996-5.95996-1.34009-11.77002,1.09009-17.43005,0-6.90002-2.90991-10.35999-8.72998-10.35999,1.45996-28.88,5.09009-57.30005,10.90991-85.25,5.82007-27.93005,12.37012-55.25,19.63989-81.94995,7.28003-26.68005,14.41992-53.21997,21.45996-79.59998,7.03003-26.38,12.37012-52.43005,16.01001-78.18005,3.63989-25.73999,4.6001-51.47998,2.90991-77.23999-1.70996-25.73999-7.3999-51.81-17.1001-78.17999,0-8.78998-.12012-16.15997-.36011-22.14001-.25-5.96002-.48999-11.29999-.72998-16.01001-.25-4.71002-.61011-9.26001-1.09009-13.65997-.48999-4.39001-1.45996-9.09998-2.90991-14.13,2.41992-8.78998,4.23999-16.96002,5.45996-24.48999,1.20996-7.53998,1.09009-14.44-.36011-20.71997.47998-4.39001,1.45996-8.01001,2.90991-10.83002,1.45996-2.83002,3.1499-5.65002,5.09009-8.47998,1.92993-2.83002,3.75-5.65002,5.45996-8.47998,1.68994-2.83002,2.79004-6.42999,3.27002-10.83002h16c5.33008,5.65002,9.93994,10.83002,13.82007,15.53998,3.87988,4.71002,8.96997,7.70001,15.28003,8.95001,0,0,.02051.01001.02052.01001ZM4554.22589,828.28723c2.91016,5.03003,5.81982,11.29999,8.72998,18.84003s3.1499,14.45001.72998,20.71997c8.72998,11.29999,15.64014,25.12,20.72998,41.45001,5.08984,16.34003,4.47998,34.22998-1.81982,53.68994-11.16016,5.03003-20.97998,8.94995-29.45996,11.77002-8.49023,2.82996-17.58008,6.12-27.27979,9.89001-18.43994,1.27002-29.9502,2.20996-34.56006,2.82996-4.62012.63-8.12988,1.27002-10.5498,1.88-2.43018.63-6.18018,1.73999-11.27979,3.30005-5.08984,1.57996-16.12988,3.93005-33.1001,7.06006,0-2.5-.12012-4.07996-.35986-4.70996-.25-.62-.72998-.62-1.45996,0-.72998.63-1.45996,1.27002-2.18018,1.88-.72998.63-1.81982.63-3.27002,0-9.70996,4.40002-19.3999,7.69995-29.1001,9.89001-9.70996,2.20996-19.3999,4.23999-29.1001,6.12-9.70996,1.88-19.3999,4.23999-29.1001,7.06006-9.70996,2.82996-19.64014,7.39001-29.83008,13.66003.97021,3.15002,2.41992,5.5,4.37012,7.06006,1.93018,1.56995,4,3.15002,6.18018,4.70996,2.18018,1.56995,4.24023,3.30005,6.18018,5.18005,1.93018,1.88,3.39014,4.40002,4.37012,7.54004,13.56982,4.40002,24.8501,11.46997,33.83008,21.18994,8.97021,9.73999,17.1001,20.71997,24.37012,32.96997s14.2998,24.65002,21.1001,37.20996c6.79004,12.56995,14.79004,23.87,24.00977,33.91003,0,3.77002.72998,6.58997,2.18018,8.47998,1.45996,1.88,1.68994,5.33997.72998,10.35999,8.72998,14.44995,15.52002,31.71997,20.37012,51.81006,4.83984,20.09998,5.81982,43.32996,2.91016,69.69995-6.31006,20.09998-13.81982,37.20996-22.5498,51.33997s-20.12988,28.72998-34.18994,43.80005c-11.16016,6.28003-22.08008,11.16003-32.74023,14.59998-10.66992,3.45996-20.12988,8.64001-28.37012,15.54004-3.89014-3.13-7.3999-4.55005-10.5498-4.23999-3.16016.31995-5.9502-.15002-8.37012-1.41003-11.16016,6.28003-23.04004,10.52002-35.6499,12.71997-12.62012,2.20996-25.9502-1.08997-40.00977-9.89001-10.18994.63-20.5.16003-30.91992-1.41003-10.43994-1.56006-20.00977-4.55005-28.74023-8.94995-8.72998-4.39001-16.12988-10.51001-22.18994-18.37-6.06982-7.83997-10.06982-17.72998-12-29.67004-11.16016-11.92004-18.43994-26.84998-21.83008-44.73999-3.3999-17.90002-1.70996-35.31995,5.08984-52.28003,2.91016-1.25,5.20996-2.34998,6.91016-3.30005,1.68994-.93994,4-2.96997,6.91016-6.12,25.7002,3.15002,52.02002,5.81006,78.93018,8.01001,26.91992,2.20996,55.6499-.46997,86.20996-8.01001.97021-5.02002,2.79004-8.62,5.45996-10.82996,2.66016-2.18994,5.7002-4.23999,9.08984-6.12,3.39014-1.88,6.5498-3.77002,9.45996-5.65002s5.08984-4.70996,6.5498-8.47998c0-3.77002-.72998-6.43005-2.18018-8.01001-1.45996-1.56006-2.91016-3.13-4.37012-4.70996-1.45996-1.56006-2.7998-3.30005-4-5.18005-1.22021-1.88-1.58008-5.02002-1.08984-9.42004-6.31006,0-13.70996-2.82996-22.18994-8.47998-8.49023-5.65002-15.16016-11.92004-20.00977-18.83997-21.3501-5.02002-42.56006-14.43994-63.66016-28.26001-21.1001-13.81006-41.58984-26.68005-61.47021-38.62-3.3999-7.54004-7.16016-14.59998-11.27979-21.18994-4.12988-6.58997-8.12988-13.5-12-20.71997-3.89014-7.20996-7.16016-14.59998-9.81982-22.14001-2.66992-7.54004-4.25-15.68994-4.72998-24.48999.47998-10.04004.97021-19.62,1.45996-28.72998.47998-9.09998.97021-18.20996,1.45996-27.31995.47998-9.09998,1.20996-18.52002,2.18018-28.26001.97021-9.72998,2.41992-20.25,4.37012-31.56,20.8501-37.04999,46.91992-68.28998,78.20996-93.72003,31.27979-25.42999,63.41016-46.29999,96.39014-62.64001,5.33008,6.91998,10.66016,14.28998,16,22.14001,5.33008,7.85999,10.91016,15.22998,16.72998,22.14001,5.81982,6.91998,12,12.88,18.5498,17.90002,6.5498,5.03003,13.93994,7.85999,22.18994,8.47998,5.33008-1.88,9.45996-3.14001,12.37012-3.77002,2.91016-.62,5.56982-.94,8-.94h9.45996c3.87988,0,9.45996-.62,16.72998-1.88,7.27002-1.25,14.2998-1.88,21.1001-1.88s13.08984-.31,18.91992-.94c12.12012-1.25,20.97021-2.5,26.5498-3.77002,5.56982-1.25,9.33008-2.19,11.27979-2.83002,1.93018-.62,2.91016-1.09003,2.91016-1.40997s.83984-.31,2.5498,0c1.68994.32001,4.97021,1.09998,9.81982,2.34998,4.83984,1.27002,13.1001,2.83002,24.74023,4.71002l-.01123-.00018v-.00002Z" fill="#231f20"/>
</svg>