<?xml version="1.0" encoding="UTF-8"?>
<svg id="FONT" xmlns="http://www.w3.org/2000/svg" viewBox="0 0 6000 3000">
  <defs>
    <style>
      .cls-1 {
        fill: #231f20;
      }
    </style>
  </defs>
  <path id="F1" class="cls-1" d="M3909.69,1557.6v-665.55h-39.55v-42.44l52.09-90.67h148.54v798.66h-161.08ZM4449.84,1191.06c0-33.76-24.11-58.84-63.66-58.84s-63.66,22.19-63.66,53.05v16.4h-161.08v-442.74h443.7v133.11h-282.62v136.97c35.69-29.9,86.81-40.51,134.08-40.51,80.06,0,154.33,55.94,154.33,172.66v247.89c0,103.21-86.81,164.94-223.78,164.94s-225.71-61.73-225.71-164.94v-132.15h161.08v105.14c0,33.76,24.11,58.84,64.63,58.84s62.7-24.11,62.7-57.87v-191.95Z"/>
</svg>