<?xml version="1.0" encoding="UTF-8"?>
<svg id="overlay" xmlns="http://www.w3.org/2000/svg" version="1.1" viewBox="0 0 6000 3000">
  <!-- Generator: Adobe Illustrator 30.5.1, SVG Export Plug-In . SVG Version: 2.1.4 Build 3)  -->
  <path id="F1" d="M3947.0802,882.25735c-10.93994,13.5-26.20996,24.45001-45.82007,32.79999-19.62012,8.35999-38.42993,12.53998-56.42993,12.53998v-132.15002c28.29004-4.48999,56.42993-15.75,84.3999-33.76001,27.96997-18,48.06006-41.47998,60.29004-70.41003h133.10986v829.53003h-175.55004v-638.53998l.00024-.00995ZM4232.5802,1483.66739c-39.22998-32.45996-58.83984-80.54004-58.83984-144.19995v-122.5h172.66016v70.41003c0,28.30005,2.89014,50.48999,8.68018,66.55994,5.79004,16.07996,17.68018,24.10999,35.68994,24.10999,16.70996,0,28.12012-5.45996,34.24023-16.40002,6.1001-10.93005,9.16016-27.01001,9.16016-48.22998v-163.01001c0-26.35999-2.74023-47.41003-8.2002-63.18005-5.47021-15.75-16.87988-23.63-34.24023-23.63-31.50977,0-47.25977,22.82996-47.25977,68.47998h-151.43994v-440.81h394.51025v155.28998h-237.27979v116.70996c8.3501-10.93005,19.60986-19.91998,33.75977-27.01001,14.14014-7.07001,30.22021-10.60999,48.22998-10.60999,69.4502,0,116.85986,24.44995,142.27002,73.30994,25.3999,48.88,38.1001,118.01001,38.1001,207.38,0,73.95996-5.31006,133.92004-15.91992,179.89001-10.60986,45.97998-32,81.83997-64.14014,107.55005-32.16016,25.72998-79.43018,38.57996-141.79004,38.57996-66.24023,0-118.97021-16.22998-158.18994-48.70996l-.00098.02014Z" fill="#231f20"/>
</svg>