<?xml version="1.0" encoding="UTF-8"?>
<svg id="FONT" xmlns="http://www.w3.org/2000/svg" viewBox="0 0 6000 3000">
  <defs>
    <style>
      .cls-1 {
        fill: #231f20;
      }
    </style>
  </defs>
  <path id="F1" class="cls-1" d="M3792.65,1358.12h74.89v-372.54l-109.74,65.47v-163.9l196.87-115.86,68.29.94v585.9h75.36v129.05h-305.67v-129.05ZM4327.68,1051.04c15.07-5.65,31.32-10.44,48.75-14.36,17.43-3.92,36.18-5.89,56.28-5.89,32.03,0,62.4,4.95,91.13,14.84,28.73,9.89,54,24.49,75.83,43.8,21.82,19.31,39.17,43.09,52.04,71.35,12.87,28.26,19.31,60.92,19.31,97.96,0,39.88-7.06,74.97-21.19,105.26-14.13,30.3-32.81,55.66-56.05,76.06-23.24,20.41-49.69,35.79-79.36,46.16-29.67,10.36-60.05,15.54-91.13,15.54s-59.89-4-87.37-12.01c-27.48-8.01-52.21-20.02-74.18-36.03-21.98-16.01-40.59-36.03-55.81-60.05-15.23-24.02-25.67-52.04-31.32-84.07l145.53-39.56c1.88,14.76,5.81,27.95,11.77,39.56,5.96,11.62,13.42,21.51,22.37,29.67,8.95,8.17,19.31,14.45,31.08,18.84,11.77,4.4,24.41,6.59,37.91,6.59,15.07,0,28.88-2.83,41.45-8.48,12.55-5.65,23.23-13.42,32.03-23.31,8.79-9.89,15.62-21.43,20.49-34.62,4.86-13.19,7.3-27.47,7.3-42.86,0-12.87-2.52-25.43-7.54-37.68-5.03-12.25-12.25-23.08-21.67-32.5-9.42-9.42-20.72-16.96-33.91-22.61s-27.79-8.48-43.8-8.48c-20.41,0-38.08,1.96-52.99,5.89-14.92,3.93-30.07,9.5-45.45,16.72l-127.63-23.55v-380.08h453.55v144.12h-317.44v133.76Z"/>
</svg>