<?xml version="1.0" encoding="UTF-8"?>
<svg id="FONT" xmlns="http://www.w3.org/2000/svg" viewBox="0 0 6000 3000">
  <defs>
    <style>
      .cls-1 {
        fill: #231f20;
      }
    </style>
  </defs>
  <path id="F1" class="cls-1" d="M4120.38,780.48v743.03c0,10.33-5.16,15.48-15.44,15.48h-98.12c-10.3,0-15.44-5.16-15.44-15.48l-.16-555.06c-9.58,7.38-21.55,14.75-35.89,22.12s-27.78,12.17-40.28,14.38c-5.16,1.48-9.22.75-12.16-2.2-3.69-2.22-5.52-5.91-5.52-11.06v-82.94c0-3.69,1.28-7,3.86-9.95,2.58-2.94,5.7-4.78,9.39-5.53,16.92-6.62,32.38-15.84,46.36-27.64,12.5-9.58,24.09-21.92,34.77-37.05,10.67-15.11,17.48-33.36,20.44-54.73,2.2-5.89,6.25-8.84,12.14-8.84h81.7c9.56,1.48,14.34,6.64,14.34,15.48ZM4452.72,1047.04c25.81,7.38,45.38,20.66,58.66,39.83s19.56,42.03,18.83,68.56v252.19c0,19.19-3.7,37.25-11.08,54.2-7.38,16.97-17.34,31.72-29.88,44.25-12.55,12.53-27.31,22.48-44.28,29.86s-35.05,11.06-54.23,11.06h-42.06c-19.19,0-37.28-3.69-54.25-11.06s-31.73-17.33-44.27-29.86c-12.55-12.53-22.52-27.28-29.89-44.25-7.38-16.95-11.06-35.02-11.06-54.19v-45.36c0-10.31,4.77-16.95,14.33-19.91l100.34-26.55c9.55-2.94,14.33.75,14.33,11.06v75.22c0,7.38,2.62,13.66,7.88,18.81s11.62,7.73,19.12,7.73h9c7.5,0,13.88-2.58,19.12-7.73s7.88-11.44,7.88-18.81v-217.91c0-11.8-2.34-19.91-7-24.33-1.5-1.47-3.91-3.31-7.25-5.53s-7.61-3.33-12.8-3.33h-8.91c-5.2,0-9.47,1.3-12.81,3.88-3.34,2.59-5.75,4.62-7.23,6.09-4.67,4.42-7,12.16-7,23.22v30.97c0,3.69-1.11,6.64-3.31,8.86s-5.14,2.58-8.81,1.09l-104.75-27.64c-8.09-2.95-12.12-8.11-12.12-15.48v-401.52c0-10.31,5.14-15.48,15.44-15.48h265.08c10.31,0,15.48,5.17,15.48,15.48v94.03c0,10.33-5.17,15.48-15.48,15.48h-151.52l.5,167c22.12-10.31,46.11-15.48,71.95-15.48,14.75,0,28.78,1.84,42.06,5.53Z"/>
</svg>