<?xml version="1.0" encoding="UTF-8"?>
<svg id="overlay" xmlns="http://www.w3.org/2000/svg" version="1.1" viewBox="0 0 6000 3000">
  <!-- Generator: Adobe Illustrator 30.5.1, SVG Export Plug-In . SVG Version: 2.1.4 Build 3)  -->
  <path id="F1" d="M3897.88086,1502.95203v-665.54999h-39.55005v-42.44l52.09009-90.66998h148.54004v798.65997h-161.08008ZM4438.03076,1136.41211c0-33.76001-24.10986-58.83997-63.66016-58.83997s-63.66016,22.18994-63.66016,53.05005v16.40002h-161.08008v-442.73999h443.7002v133.10999h-282.62012v136.96997c35.68994-29.90002,86.81006-40.51001,134.08008-40.51001,80.06006,0,154.33008,55.93994,154.33008,172.66003v247.89001c0,103.20996-86.81006,164.94006-223.77979,164.94006s-225.70996-61.72998-225.70996-164.93994v-132.15002h161.08008v105.14001c0,33.76001,24.10986,58.83997,64.62988,58.83997s62.7002-24.10999,62.7002-57.87v-191.94995l-.01025-.00024Z" fill="#231f20"/>
</svg>