<?xml version="1.0" encoding="UTF-8"?>
<svg id="overlay" xmlns="http://www.w3.org/2000/svg" version="1.1" viewBox="0 0 6000 3000">
  <!-- Generator: Adobe Illustrator 30.5.1, SVG Export Plug-In . SVG Version: 2.1.4 Build 3)  -->
  <path id="F1" d="M4135.2868,736.30743v743.03003c0,10.32996-5.16016,15.47998-15.43994,15.47998h-98.12012c-10.30005,0-15.43994-5.16003-15.43994-15.47998l-.15991-555.06c-9.58008,7.38-21.55005,14.75-35.88989,22.12s-27.78003,12.16998-40.28003,14.38c-5.15991,1.47998-9.21997.75-12.15991-2.20001-3.68994-2.21997-5.52002-5.90997-5.52002-11.06v-82.94c0-3.69,1.28003-7,3.86011-9.95001,2.58008-2.94,5.69995-4.78003,9.38989-5.53003,16.91992-6.62,32.37988-15.84003,46.36011-27.64001,12.5-9.58002,24.09009-21.91998,34.77002-37.04999,10.66992-15.10999,17.47998-33.35999,20.43994-54.72998,2.19994-5.89002,6.24999-8.84003,12.13988-8.84003h81.7002c9.56006,1.47998,14.33984,6.64001,14.33984,15.47998l.00977-.00995ZM4467.62713,1002.86749c25.81006,7.38,45.37988,20.66003,58.66016,39.82996s19.56006,42.03003,18.83008,68.55994v252.18994c0,19.18994-3.7002,37.25-11.08008,54.19995-7.37988,16.96997-17.33984,31.71997-29.87988,44.25-12.5498,12.53003-27.31006,22.47998-44.27979,29.85999s-35.0498,11.06006-54.22998,11.06006h-42.06006c-19.18994,0-37.27979-3.68994-54.25-11.06006s-31.72998-17.32996-44.27002-29.85999c-12.5498-12.53003-22.52002-27.28003-29.89014-44.25-7.37988-16.94995-11.06006-35.02002-11.06006-54.18994v-45.35999c0-10.31006,4.77002-16.94995,14.33008-19.91003l100.33984-26.55005c9.5498-2.93994,14.33008.75,14.33008,11.06006v75.21997c0,7.38,2.62012,13.66003,7.87988,18.81006s11.62012,7.72998,19.12012,7.72998h9c7.5,0,13.87988-2.57996,19.12012-7.72998s7.87988-11.43994,7.87988-18.81006v-217.91003c0-11.80005-2.33984-19.91003-7-24.32996-1.5-1.46997-3.91016-3.31006-7.25-5.53003s-7.60986-3.32996-12.7998-3.32996h-8.91016c-5.2002,0-9.47021,1.30005-12.81006,3.88-3.33984,2.58997-5.75,4.62-7.22998,6.08997-4.66992,4.42004-7,12.16003-7,23.21997v30.96997c0,3.68994-1.10986,6.64001-3.31006,8.85999s-5.14014,2.57996-8.81006,1.08997l-104.75-27.64001c-8.08984-2.94995-12.12012-8.10999-12.12012-15.47998v-401.52002c0-10.31,5.14014-15.47998,15.43994-15.47998h265.08008c10.31006,0,15.47998,5.16998,15.47998,15.47998v94.03003c0,10.33002-5.16992,15.47998-15.47998,15.47998h-151.52002l.5,167c22.12012-10.31006,46.10986-15.47998,71.9502-15.47998,14.75,0,28.77979,1.83997,42.06006,5.53003l-.01025.02026Z" fill="#231f20"/>
</svg>