<?xml version="1.0" encoding="UTF-8"?>
<svg id="FONT" xmlns="http://www.w3.org/2000/svg" viewBox="0 0 6000 3000">
  <defs>
    <style>
      .cls-1 {
        fill: #231f20;
      }
    </style>
  </defs>
  <path id="F1" class="cls-1" d="M3859.09,1534.12c-18.62,0-26.82-10.61-26.82-34.72v-116.71c0-24.11,8.2-34.72,26.82-34.72h83.44v-322.17h-68.54c-18.62,0-26.82-10.61-26.82-34.72v-116.71c0-24.11,8.2-34.72,26.82-34.72h216.04c18.62,0,26.82,10.61,26.82,34.72v473.6h71.52c18.62,0,26.82,10.61,26.82,34.72v116.71c0,24.11-8.19,34.72-26.82,34.72h-329.27ZM4312.02,1534.12c-18.62,0-26.82-10.61-26.82-34.72v-112.85c0-24.11,8.2-34.72,26.82-34.72h192.2c11.92,0,20.11-6.75,20.11-22.19v-37.62c0-15.43-8.19-22.19-20.11-22.19h-184.75c-18.62,0-26.82-10.61-26.82-34.72v-360.75c0-24.11,8.19-34.72,26.82-34.72h321.08c18.62,0,26.82,10.61,26.82,34.72v114.78c0,24.11-8.19,34.72-26.82,34.72h-178.79v62.7h102.06c80.46,0,130.37,51.12,130.37,153.37v134.07c0,98.39-55.87,160.12-145.27,160.12h-236.9Z"/>
</svg>