<?xml version="1.0" encoding="UTF-8"?>
<svg id="FONT" xmlns="http://www.w3.org/2000/svg" viewBox="0 0 6000 3000">
  <defs>
    <style>
      .cls-1 {
        fill: #231f20;
      }
    </style>
  </defs>
  <path id="F1" class="cls-1" d="M4055.48,852.14c5.33,13.82,12.24,24.96,20.73,33.44,8.48,8.48,16.85,17.12,25.1,25.9,10.19,24.49,16.48,51.81,18.92,81.95,2.42,30.14,5.09,63.11,8,98.91,0,28.89-1.46,56.05-4.37,81.48-2.91,25.43-6.67,50.25-11.28,74.41-4.62,24.18-9.82,48.2-15.64,72.06-5.82,23.87-11.4,48.98-16.73,75.36-6.8,9.42-12,22.77-15.64,40.03-3.64,17.28-4,34.07-1.09,50.39-6.31,10.05-12.62,19.78-18.92,29.2-6.31,9.42-13.35,18.22-21.1,26.38-2.91-3.77-6.67-5.81-11.28-6.12-4.62-.32-9.34-.32-14.19,0-4.85.31-9.34.94-13.46,1.88-4.13.94-7.16,1.09-9.09.47-2.43-5.02-5.71-10.36-9.82-16.01-4.13-5.65-7.76-11.61-10.91-17.9-3.16-6.27-5.58-12.39-7.28-18.37-1.71-5.96-1.34-11.77,1.09-17.43,0-6.9-2.91-10.36-8.73-10.36,1.46-28.88,5.09-57.3,10.91-85.25,5.82-27.93,12.37-55.25,19.64-81.95,7.28-26.68,14.42-53.22,21.46-79.6,7.03-26.38,12.37-52.43,16.01-78.18,3.64-25.74,4.6-51.48,2.91-77.24-1.71-25.74-7.4-51.81-17.1-78.18,0-8.79-.12-16.16-.36-22.14-.25-5.96-.49-11.3-.73-16.01-.25-4.71-.61-9.26-1.09-13.66-.49-4.39-1.46-9.1-2.91-14.13,2.42-8.79,4.24-16.96,5.46-24.49,1.21-7.54,1.09-14.44-.36-20.72.48-4.39,1.46-8.01,2.91-10.83,1.46-2.83,3.15-5.65,5.09-8.48,1.93-2.83,3.75-5.65,5.46-8.48,1.69-2.83,2.79-6.43,3.27-10.83h16c5.33,5.65,9.94,10.83,13.82,15.54,3.88,4.71,8.97,7.7,15.28,8.95ZM4624.39,901.12c2.91,5.03,5.82,11.3,8.73,18.84s3.15,14.45.73,20.72c8.73,11.3,15.64,25.12,20.73,41.45,5.09,16.34,4.48,34.23-1.82,53.69-11.16,5.03-20.98,8.95-29.46,11.77-8.49,2.83-17.58,6.12-27.28,9.89-18.44,1.27-29.95,2.21-34.56,2.83-4.62.63-8.13,1.27-10.55,1.88-2.43.63-6.18,1.74-11.28,3.3-5.09,1.58-16.13,3.93-33.1,7.06,0-2.5-.12-4.08-.36-4.71-.25-.62-.73-.62-1.46,0-.73.63-1.46,1.27-2.18,1.88-.73.63-1.82.63-3.27,0-9.71,4.4-19.4,7.7-29.1,9.89-9.71,2.21-19.4,4.24-29.1,6.12-9.71,1.88-19.4,4.24-29.1,7.06-9.71,2.83-19.64,7.39-29.83,13.66.97,3.15,2.42,5.5,4.37,7.06,1.93,1.57,4,3.15,6.18,4.71,2.18,1.57,4.24,3.3,6.18,5.18,1.93,1.88,3.39,4.4,4.37,7.54,13.57,4.4,24.85,11.47,33.83,21.19,8.97,9.74,17.1,20.72,24.37,32.97,7.27,12.25,14.3,24.65,21.1,37.21,6.79,12.57,14.79,23.87,24.01,33.91,0,3.77.73,6.59,2.18,8.48,1.46,1.88,1.69,5.34.73,10.36,8.73,14.45,15.52,31.72,20.37,51.81,4.84,20.1,5.82,43.33,2.91,69.7-6.31,20.1-13.82,37.21-22.55,51.34-8.73,14.13-20.13,28.73-34.19,43.8-11.16,6.28-22.08,11.16-32.74,14.6-10.67,3.46-20.13,8.64-28.37,15.54-3.89-3.13-7.4-4.55-10.55-4.24-3.16.32-5.95-.15-8.37-1.41-11.16,6.28-23.04,10.52-35.65,12.72-12.62,2.21-25.95-1.09-40.01-9.89-10.19.63-20.5.16-30.92-1.41-10.44-1.56-20.01-4.55-28.74-8.95-8.73-4.39-16.13-10.51-22.19-18.37-6.07-7.84-10.07-17.73-12-29.67-11.16-11.92-18.44-26.85-21.83-44.74-3.4-17.9-1.71-35.32,5.09-52.28,2.91-1.25,5.21-2.35,6.91-3.3,1.69-.94,4-2.97,6.91-6.12,25.7,3.15,52.02,5.81,78.93,8.01,26.92,2.21,55.65-.47,86.21-8.01.97-5.02,2.79-8.62,5.46-10.83,2.66-2.19,5.7-4.24,9.09-6.12,3.39-1.88,6.55-3.77,9.46-5.65,2.91-1.88,5.09-4.71,6.55-8.48,0-3.77-.73-6.43-2.18-8.01-1.46-1.56-2.91-3.13-4.37-4.71-1.46-1.56-2.8-3.3-4-5.18-1.22-1.88-1.58-5.02-1.09-9.42-6.31,0-13.71-2.83-22.19-8.48-8.49-5.65-15.16-11.92-20.01-18.84-21.35-5.02-42.56-14.44-63.66-28.26-21.1-13.81-41.59-26.68-61.47-38.62-3.4-7.54-7.16-14.6-11.28-21.19-4.13-6.59-8.13-13.5-12-20.72-3.89-7.21-7.16-14.6-9.82-22.14-2.67-7.54-4.25-15.69-4.73-24.49.48-10.04.97-19.62,1.46-28.73.48-9.1.97-18.21,1.46-27.32.48-9.1,1.21-18.52,2.18-28.26.97-9.73,2.42-20.25,4.37-31.56,20.85-37.05,46.92-68.29,78.21-93.72,31.28-25.43,63.41-46.3,96.39-62.64,5.33,6.92,10.66,14.29,16,22.14,5.33,7.86,10.91,15.23,16.73,22.14,5.82,6.92,12,12.88,18.55,17.9,6.55,5.03,13.94,7.86,22.19,8.48,5.33-1.88,9.46-3.14,12.37-3.77,2.91-.62,5.57-.94,8-.94h9.46c3.88,0,9.46-.62,16.73-1.88,7.27-1.25,14.3-1.88,21.1-1.88s13.09-.31,18.92-.94c12.12-1.25,20.97-2.5,26.55-3.77,5.57-1.25,9.33-2.19,11.28-2.83,1.93-.62,2.91-1.09,2.91-1.41s.84-.31,2.55,0c1.69.32,4.97,1.1,9.82,2.35,4.84,1.27,13.1,2.83,24.74,4.71Z"/>
</svg>