<?xml version="1.0" encoding="UTF-8"?>
<svg id="FONT" xmlns="http://www.w3.org/2000/svg" viewBox="0 0 6000 3000">
  <defs>
    <style>
      .cls-1 {
        fill: #231f20;
      }
    </style>
  </defs>
  <path id="F1" class="cls-1" d="M4118.41,1543.54l-351.75-21.19,100.4-54.63-12.37-450.73-114.95-12.25,372.48-178.5-86.94,636.29,93.12,81.01ZM4327.57,965.18l-49.11,139.88c15.76-8.48,33.77-14.67,54.02-18.6,20.25-3.92,46.01-5.89,77.3-5.89,100.4,0,178.72,20.96,234.98,62.88,56.26,41.92,84.39,99.77,84.39,173.56s-25.46,127.8-76.39,170.49c-50.93,42.7-119.31,64.05-205.16,64.05-46.56,0-89.67-8.95-129.31-26.84-39.65-17.9-76.21-45.05-109.67-81.48l-49.47,54.16,50.93-240.2c26.43,52.44,52.93,90.66,79.48,114.68,26.55,24.02,55.35,36.03,86.39,36.03,28.37,0,50.5-8.55,66.38-25.67,15.88-17.11,23.83-40.74,23.83-70.88,0-38.3-10.86-67.82-32.56-88.54-21.71-20.72-52.56-31.08-92.58-31.08-34.92,0-67.36,4.47-97.3,13.42-29.95,8.95-57.54,22.53-82.75,40.74l60.75-409.28,415.04,35.79,19.28-49.92,25.46,295.77-34.92-68.29-319.01-84.78Z"/>
</svg>