<?xml version="1.0" encoding="UTF-8"?>
<svg id="FONT" xmlns="http://www.w3.org/2000/svg" viewBox="0 0 6000 3000">
  <defs>
    <style>
      .cls-1 {
        fill: #231f20;
      }
    </style>
  </defs>
  <path id="F1" class="cls-1" d="M3967.92,958.15c-10.94,13.5-26.21,24.45-45.82,32.8-19.62,8.36-38.43,12.54-56.43,12.54v-132.15c28.29-4.49,56.43-15.75,84.4-33.76,27.97-18,48.06-41.48,60.29-70.41h133.11v829.53h-175.55v-638.54ZM4253.42,1559.56c-39.23-32.46-58.84-80.54-58.84-144.2v-122.5h172.66v70.41c0,28.3,2.89,50.49,8.68,66.56,5.79,16.08,17.68,24.11,35.69,24.11,16.71,0,28.12-5.46,34.24-16.4,6.1-10.93,9.16-27.01,9.16-48.23v-163.01c0-26.36-2.74-47.41-8.2-63.18-5.47-15.75-16.88-23.63-34.24-23.63-31.51,0-47.26,22.83-47.26,68.48h-151.44v-440.81h394.51v155.29h-237.28v116.71c8.35-10.93,19.61-19.92,33.76-27.01,14.14-7.07,30.22-10.61,48.23-10.61,69.45,0,116.86,24.45,142.27,73.31,25.4,48.88,38.1,118.01,38.1,207.38,0,73.96-5.31,133.92-15.92,179.89-10.61,45.98-32,81.84-64.14,107.55-32.16,25.73-79.43,38.58-141.79,38.58-66.24,0-118.97-16.23-158.19-48.71Z"/>
</svg>