<?xml version="1.0" encoding="UTF-8"?>
<svg id="FONT" xmlns="http://www.w3.org/2000/svg" viewBox="0 0 6000 3000">
  <defs>
    <style>
      .cls-1 {
        fill: #231f20;
      }
    </style>
  </defs>
  <path id="F1" class="cls-1" d="M3861.39,990.41l-129.25,52.09v-151.44l174.59-79.09h136v675.2h-181.34v-496.75ZM4170.04,1355.98v-83.92h181.34v47.26c0,13.5,3.86,17.36,17.36,17.36h111.89c13.5,0,17.36-3.86,17.36-17.36v-112.85c0-13.5-8.68-17.36-27.01-17.36-43.41,0-65.59,7.72-109,29.9l-181.34-51.12v-355.93h476.5v150.47h-295.16v143.72c20.26-24.11,62.7-69.45,146.62-69.45,128.29,0,170.73,42.44,170.73,131.18v188.09c0,88.74-42.44,131.18-131.18,131.18h-246.93c-88.74,0-131.18-42.44-131.18-131.18Z"/>
</svg>